<svg xmlns="http://www.w3.org/2000/svg" width="130" height="130" viewBox="76.732 5.866 130 130"><path fill="#0164A5" d="M169.996 31.427c-6.492-3.98-12.513-5.497-18.77-9.764-3.744-2.512-9.006-8.769-13.508-14.03-.758 8.532-3.507 11.756-6.257 14.268-6.257 5.023-10.238 6.257-15.499 9.243-4.503 2.274-29.007 17.016-29.007 48.535s26.543 54.792 56.072 54.792c29.529 0 55.076-21.52 55.076-53.797.001-32.276-24.078-46.971-28.107-49.247zm.76 91.858c-.521.521-6.258 4.503-12.75 5.261-6.493.521-15.5.995-21.045-3.98-.758-.758-.521-1.991 0-2.513.521-.521.995-.758 1.754-.758s.521 0 .995.237c2.512 1.991 6.02 3.507 14.031 3.507 7.772 0 13.27-2.274 15.782-3.98.995-.759 1.517 0 1.754.236.237.52.473.994-.521 1.99zm-21.282-11.234c1.231-1.231 3.507-3.27 5.498-3.98 1.991-.758 3.271-.758 5.261-.758 1.991 0 3.98 0 5.498.995 1.518.994 2.275 3.27 2.749 4.503.474 1.231 0 1.99-.995 2.512-.758.521-.994.237-1.754-1.232-.758-1.517-1.518-3.27-5.734-3.27-4.267 0-5.498 1.517-7.773 3.27-1.991 1.754-2.749 2.275-3.508 1.232-.996-1.044-.759-2.039.758-3.272zm32.278.996c-4.504-.236-13.271-14.029-18.771-14.267-7.015-.237-22.515 14.788-34.553 14.788-7.252 0-9.527-.995-11.992-2.749-3.744-2.512-5.498-6.493-5.498-11.755 0-9.527 9.006-18.533 20.286-18.533 14.268 0 24.268 14.267 31.52 14.03 6.021 0 17.774-11.992 23.51-11.992 6.02 0 7.772 6.257 7.772 10.238 0 3.98-1.231 10.759-4.266 15.024-2.747 3.936-4.502 5.453-8.008 5.216z"/><path fill="#FFF" d="M455.396 104.094c-6.492-3.98-12.513-5.497-18.77-9.764-3.744-2.512-9.006-8.769-13.508-14.03-.758 8.532-3.508 11.756-6.258 14.268-6.256 5.023-10.237 6.257-15.498 9.243-4.504 2.274-29.008 17.016-29.008 48.535s26.543 54.792 56.072 54.792 55.076-21.52 55.076-53.797c.002-32.276-24.077-46.971-28.106-49.247zm.758 91.858c-.521.521-6.256 4.503-12.75 5.261-6.492.521-15.498.995-21.045-3.98-.758-.758-.521-1.991 0-2.513.521-.521.996-.758 1.754-.758.759 0 .521 0 .996.237 2.512 1.991 6.02 3.507 14.029 3.507 7.773 0 13.271-2.274 15.783-3.98.995-.759 1.518 0 1.754.236.238.52.475.994-.521 1.99zm-21.281-11.234c1.232-1.231 3.507-3.27 5.498-3.98 1.99-.758 3.27-.758 5.261-.758s3.981 0 5.498.995c1.517.994 2.274 3.27 2.749 4.503.475 1.231 0 1.99-.995 2.512-.758.521-.995.237-1.754-1.232-.758-1.517-1.517-3.27-5.735-3.27-4.266 0-5.498 1.517-7.772 3.27-1.991 1.754-2.749 2.275-3.507 1.232-.996-1.044-.759-2.039.757-3.272zm32.277.996c-4.502-.236-13.271-14.029-18.77-14.267-7.015-.237-22.514 14.788-34.553 14.788-7.252 0-9.527-.995-11.992-2.749-3.744-2.512-5.498-6.493-5.498-11.755 0-9.527 9.006-18.533 20.286-18.533 14.267 0 24.269 14.267 31.521 14.03 6.02 0 17.773-11.992 23.508-11.992 6.021 0 7.773 6.257 7.773 10.238 0 3.98-1.232 10.759-4.266 15.024-2.747 3.936-4.5 5.453-8.009 5.216z"/></svg>