<svg xmlns="http://www.w3.org/2000/svg" width="130" height="130" viewBox="76.732 5.866 130 130"><path fill="#FFF" d="M169.063 31.761c-6.492-3.98-12.513-5.497-18.77-9.764-3.744-2.512-9.006-8.769-13.508-14.03-.758 8.532-3.508 11.756-6.258 14.268-6.256 5.023-10.237 6.257-15.498 9.243-4.504 2.274-29.008 17.016-29.008 48.535 0 31.52 26.543 54.793 56.072 54.793s55.076-21.52 55.076-53.797c.002-32.277-24.077-46.973-28.106-49.248zm.758 91.857c-.521.521-6.256 4.504-12.75 5.262-6.492.521-15.498.994-21.045-3.98-.758-.758-.521-1.992 0-2.514.521-.52.996-.758 1.754-.758.759 0 .521 0 .996.238 2.512 1.99 6.02 3.506 14.029 3.506 7.773 0 13.271-2.273 15.783-3.98.995-.758 1.518 0 1.754.236.238.521.475.994-.521 1.99zm-21.281-11.234c1.232-1.23 3.507-3.27 5.498-3.98 1.99-.758 3.27-.758 5.261-.758s3.981 0 5.498.996c1.517.994 2.274 3.27 2.749 4.502s0 1.99-.995 2.512c-.758.521-.995.238-1.754-1.232-.758-1.516-1.517-3.27-5.735-3.27-4.266 0-5.498 1.518-7.772 3.27-1.991 1.754-2.749 2.275-3.507 1.232-.996-1.044-.759-2.038.757-3.272zm32.277.996c-4.502-.236-13.271-14.029-18.77-14.266-7.015-.238-22.514 14.787-34.553 14.787-7.252 0-9.527-.994-11.992-2.748-3.744-2.512-5.498-6.494-5.498-11.756 0-9.527 9.006-18.533 20.286-18.533 14.267 0 24.269 14.268 31.521 14.031 6.02 0 17.773-11.992 23.508-11.992 6.021 0 7.773 6.256 7.773 10.238 0 3.98-1.232 10.758-4.266 15.023-2.747 3.936-4.5 5.454-8.009 5.216z"/></svg>