<svg xmlns="http://www.w3.org/2000/svg" width="130" height="130" viewBox="76.732 5.866 130 130"><linearGradient id="a" gradientUnits="userSpaceOnUse" x1="143.813" y1="1011.346" x2="266.944" y2="1011.346" gradientTransform="translate(-69.844 -983.315) scale(1.0319)"><stop offset="0" stop-color="#29b9ec"/><stop offset="1" stop-color="#3ec5ed"/></linearGradient><path fill="url(#a)" d="M78.556 27.192c16.372 17.038 31.459 19.656 91.522 19.656s33.647 13.325-3.475 46.546c11.803-20.561 52.209-38.455-13.992-37.6-63.346.906-67.058-18.322-74.055-28.602z"/><linearGradient id="b" gradientUnits="userSpaceOnUse" x1="167.749" y1="1058.99" x2="185.322" y2="1058.99" gradientTransform="translate(-69.844 -983.315) scale(1.0319)"><stop offset="0" stop-color="#29b9ec"/><stop offset="1" stop-color="#3ec5ed"/></linearGradient><path fill="url(#b)" d="M121.39 109.576c0 5.045-4.141 8.948-8.948 8.948-5.045 0-9.186-4.142-9.186-8.948 0-5.045 4.141-9.186 9.186-9.186 4.808.191 8.948 4.141 8.948 9.186z"/><linearGradient id="c" gradientUnits="userSpaceOnUse" x1="207.782" y1="1058.99" x2="225.356" y2="1058.99" gradientTransform="translate(-69.844 -983.315) scale(1.0319)"><stop offset="0" stop-color="#29b9ec"/><stop offset="1" stop-color="#3ec5ed"/></linearGradient><path fill="url(#c)" d="M162.701 109.576c0 5.045-4.142 8.948-8.949 8.948-5.045 0-9.186-4.142-9.186-8.948 0-5.045 4.141-9.186 9.186-9.186 4.998.191 8.949 4.141 8.949 9.186z"/><path d="M394.288 64.525c16.372 17.038 31.459 19.656 91.522 19.656s33.648 13.325-3.475 46.546c11.803-20.561 52.21-38.455-13.992-37.6-63.347.906-67.059-18.322-74.055-28.602zm42.834 82.384c0 5.045-4.142 8.948-8.948 8.948-5.045 0-9.186-4.142-9.186-8.948 0-5.045 4.141-9.186 9.186-9.186 4.806.191 8.948 4.141 8.948 9.186zm41.312 0c0 5.045-4.142 8.948-8.949 8.948-5.045 0-9.186-4.142-9.186-8.948 0-5.045 4.141-9.186 9.186-9.186 4.997.191 8.949 4.141 8.949 9.186z" fill="#FFF"/></svg>