<svg xmlns="http://www.w3.org/2000/svg" width="130" height="130" viewBox="76.732 5.866 130 130"><path d="M77.732 25.525c16.372 17.038 31.459 19.656 91.522 19.656s33.648 13.325-3.475 46.546c11.803-20.561 52.21-38.455-13.992-37.6-63.347.906-67.058-18.322-74.055-28.602zm42.834 82.384c0 5.045-4.142 8.948-8.948 8.948-5.045 0-9.186-4.142-9.186-8.948 0-5.045 4.141-9.186 9.186-9.186 4.807.191 8.948 4.141 8.948 9.186zm41.312 0c0 5.045-4.142 8.948-8.949 8.948-5.045 0-9.186-4.142-9.186-8.948 0-5.045 4.141-9.186 9.186-9.186 4.998.191 8.949 4.141 8.949 9.186z" fill="#FFF"/></svg>