<svg xmlns="http://www.w3.org/2000/svg" width="130" height="130" viewBox="76.732 5.866 130 130"><path fill="#FFF" d="M119.99 105.338a56.14 56.14 0 013.076-1.255 55.178 55.178 0 013.543-1.212 55.633 55.633 0 014.506-1.176 55.335 55.335 0 016.212-.96 194.232 194.232 0 01-3.869 10.985c.06.705.092 1.414.11 2.125a45.112 45.112 0 018.733-.855c2.988 0 5.906.299 8.732.855.02-.711.051-1.42.111-2.125a194.523 194.523 0 01-3.87-10.985 55.3 55.3 0 016.212.96c1.52.322 3.02.728 4.506 1.176 1.195.359 2.374.772 3.543 1.212 1.036.39 2.063.804 3.077 1.255a55.047 55.047 0 0119.113 14.109c13.469-11.631 22.006-28.82 22.006-48.014 0-35.031-28.399-63.431-63.431-63.431S78.868 36.401 78.868 71.433c0 19.193 8.537 36.383 22.006 48.014a55.103 55.103 0 0119.116-14.109"/><path fill="#525453" d="M124.171 116.814a44.677 44.677 0 019.397-2.969 37.45 37.45 0 00-.11-2.125 195.301 195.301 0 003.869-10.985 55.565 55.565 0 00-6.212.96 55.418 55.418 0 00-4.506 1.176 55.178 55.178 0 00-3.543 1.212l4.624 1.12-3.519 11.611zm-10.9 6.839c.114-1.183.187-2.374.187-3.579 0-.726.588-1.313 1.313-1.313h1.152l4.068-13.423a55.053 55.053 0 00-19.115 14.11 63.526 63.526 0 009.564 6.827 45.563 45.563 0 012.831-2.622m51.341-18.314l4.068 13.422h1.15c.725 0 1.313.588 1.313 1.313 0 1.205.071 2.396.186 3.58a45.281 45.281 0 012.831 2.622 63.617 63.617 0 009.564-6.827 54.993 54.993 0 00-19.112-14.11m-7.699-.135l4.623-1.12a55.596 55.596 0 00-3.543-1.213 55.418 55.418 0 00-4.506-1.176 55.53 55.53 0 00-6.212-.96 193.462 193.462 0 003.87 10.985 34.115 34.115 0 00-.111 2.125 44.385 44.385 0 019.398 2.971l-3.519-11.612z"/><path fill="#231F20" d="M142.302 118.76h8.938a35.734 35.734 0 01-.206-4.915 45.091 45.091 0 00-8.731-.855 45.19 45.19 0 00-8.733.855 35.734 35.734 0 01-.206 4.915h8.938zm-31.862 7.515c.736.429 1.48.848 2.236 1.247.265-1.271.467-2.562.595-3.869a45.563 45.563 0 00-2.831 2.622"/><path fill="#231F20" d="M123.581 118.76h9.781c.184-1.646.249-3.288.206-4.915a44.524 44.524 0 00-9.397 2.969l-.59 1.946zm47.75 4.893c.129 1.308.33 2.598.596 3.869a61.764 61.764 0 002.235-1.247 44.728 44.728 0 00-2.831-2.622m-10.309-4.893l-.59-1.946a44.7 44.7 0 00-9.399-2.97 35.734 35.734 0 00.206 4.915l9.783.001z"/><path fill="#A99578" d="M123.581 118.76l.59-1.946 3.52-11.61-4.624-1.12c-1.036.39-2.063.804-3.075 1.255l-4.068 13.422h7.657zm36.852-1.946l.59 1.946h7.658l-4.068-13.422a55.994 55.994 0 00-3.076-1.255l-4.623 1.12 3.519 11.611z"/><path fill="#BFB098" d="M116.056 121.471l.121-.086h-.115c-.001.03-.004.058-.006.086m26.246-.086h-26.125l-.121.086a38.733 38.733 0 01-.957 7.273 63.164 63.164 0 0027.203 6.121v-13.48z"/><path fill="#A99578" d="M168.54 121.385h-.115l.121.086-.006-.086"/><path fill="#A99578" d="M168.425 121.385H142.3v13.479c9.737 0 18.959-2.2 27.203-6.121a38.91 38.91 0 01-.957-7.273 2.97 2.97 0 01-.121-.085"/><path fill="#8A7461" d="M171.331 123.653a36.933 36.933 0 01-.186-3.579c0-.726-.588-1.313-1.313-1.313h-55.059c-.726 0-1.313.588-1.313 1.313 0 1.205-.07 2.396-.186 3.579a35.993 35.993 0 01-.596 3.869c.799.424 1.604.833 2.422 1.223a38.9 38.9 0 00.959-7.273c0-.028.004-.057.005-.086h52.479c0 .029.004.058.004.086a38.9 38.9 0 00.959 7.273c.817-.39 1.623-.8 2.422-1.223a35.746 35.746 0 01-.597-3.869"/><path fill="#A99578" d="M161.923 111.158l.013.041-.013-.041s-.644-.509-1.459-1.449c.814.94 1.459 1.449 1.459 1.449"/><path fill="#FFF" d="M181.304 53.766v.003zm2.552 18.264l.001-.02-.001.02"/><path fill="#BABBBD" d="M184.535 57.319l-.032-.041c-.527-.732-1.07-1.4-1.627-2.007l-.006-.006a.017.017 0 00.006.006l-.016-.017c-.253-.275-.51-.537-.77-.786-.098-.094-.197-.176-.297-.265-.162-.148-.324-.301-.49-.438v5.902l2.26 10.346c.023.08.054.155.074.239l1.565 1.754.017-.017h1.638c.002-.152.012-.303.012-.454v-.003c0-4.88-.802-9.569-2.255-13.961-.027-.083-.051-.168-.079-.252m-.678 14.691l-.001-.017.001.017"/><path fill="#676A6A" d="M183.786 71.022c.002.018.008.032.01.05 0 .01.004.02.004.029v.004c.03.243.043.495.047.751.002.048.009.092.009.139l.001.017-.001.02c0 .051-.009.098-.009.147-.006.25-.018.498-.047.736v.004l-.006.035c-.002.02-.009.037-.012.056a6.424 6.424 0 01-.143.75v.003l.009-.009.004-.012 1.552-1.735-1.564-1.754v.004c.062.244.111.501.146.765"/><path fill="#231F20" d="M183.783 73.009c.005-.033.015-.063.017-.095.029-.238.041-.486.047-.737 0-.056.01-.108.01-.166 0-.053-.008-.102-.01-.155a7.021 7.021 0 00-.047-.75c-.002-.028-.01-.055-.015-.083a6.701 6.701 0 00-.146-.766c-.022-.085-.053-.161-.077-.243a4.882 4.882 0 00-.597-1.299c-.033-.048-.066-.096-.101-.142a3.17 3.17 0 00-.205-.255 2.522 2.522 0 00-.327-.306c-.045-.033-.091-.056-.135-.085a1.981 1.981 0 00-.304-.162c-.046-.018-.091-.036-.136-.05a1.524 1.524 0 00-.453-.079 1.708 1.708 0 00-.59.129c-.104.043-.205.1-.305.162-.044.029-.091.052-.134.085a2.466 2.466 0 00-.328.306 3.101 3.101 0 00-.204.254c-.035.046-.068.094-.101.142a4.872 4.872 0 00-.597 1.3.703.703 0 00-.02.06 6.769 6.769 0 00-.161.714c-.013.075-.03.146-.041.225-.039.276-.06.563-.063.857-.002.041-.008.079-.008.12h.01c0 2.416 1.144 4.375 2.554 4.375.243 0 .478-.063.699-.172.036-.019.071-.036.106-.057.092-.053.182-.11.27-.181.048-.039.093-.086.139-.129.113-.106.221-.226.321-.357.069-.092.14-.185.204-.288.041-.065.078-.137.117-.208.07-.131.138-.269.199-.415.023-.052.047-.103.067-.157.078-.203.146-.417.203-.642.061-.239.108-.491.142-.75m-2.387-1.581c-.529 0-.957-.734-.957-1.64 0-.906.429-1.642.957-1.642.529 0 .957.735.957 1.642.001.906-.428 1.64-.957 1.64"/><path fill="#FFF" d="M181.396 68.147c-.529 0-.957.735-.957 1.641s.429 1.641.957 1.641c.529 0 .957-.734.957-1.641.001-.906-.428-1.641-.957-1.641"/><path fill="#8F9293" d="M179.046 70.013c.149-.497.354-.935.596-1.3.033-.049.068-.096.102-.142a2.94 2.94 0 01.204-.254 2.53 2.53 0 01.328-.306c.043-.033.089-.056.134-.085.1-.063.2-.119.305-.162.045-.018.09-.036.135-.051.148-.046.299-.079.455-.079s.307.032.453.079a1.856 1.856 0 01.44.213c.045.029.091.052.135.085.114.088.223.19.327.306.071.077.138.166.205.255l.101.141c.242.365.447.803.598 1.3h.001l-2.259-10.345-2.26 10.345z"/><path fill="#231F20" d="M151.369 71.914a5.955 5.955 0 00-.04-.616l-.001-.008a5.981 5.981 0 00-.1-.589l-.005-.016a6.277 6.277 0 00-.154-.561l-.005-.013a6.465 6.465 0 00-.209-.539l-.005-.012a6.01 6.01 0 00-3.192-3.092l-.017-.007a5.908 5.908 0 00-2.243-.438c-.387 0-.762.039-1.126.109l-.039.006a5.973 5.973 0 00-1.05.313l-.027.01a5.938 5.938 0 00-.973.505l-.004.001a5.969 5.969 0 00-.864.675l-.007.021-.022.006a6.029 6.029 0 00-1.341 1.889c-.008.019-.018.035-.025.054a6.104 6.104 0 00-.181.474c-.01.032-.024.062-.034.093-.048.15-.087.305-.123.458-.01.044-.023.087-.033.131-.033.153-.054.31-.074.466-.006.048-.017.095-.022.142a5.945 5.945 0 00.081 1.778l.004.023c.075.373.186.734.327 1.078l.005.014a6.005 6.005 0 002.606 2.94l.008.005c.16.09.326.171.496.247l.041.02c.156.068.318.128.482.183l.082.03c.151.048.307.087.463.123.041.009.082.022.125.031.15.032.307.054.463.073.047.006.094.017.141.022a6.062 6.062 0 002.947-.439 5.992 5.992 0 003.181-3.18c.302-.715.47-1.501.47-2.326l-.002-.041-.004-.043m-5.972-.7a2.245 2.245 0 110-4.49 2.245 2.245 0 010 4.49"/><path fill="#FFF" d="M145.397 66.723a2.245 2.245 0 100 4.49 2.245 2.245 0 000-4.49"/><path fill="#BABBBD" d="M141.286 67.671l.021-.005.008-.021 4.115-12.588v-2.98a35.007 35.007 0 00-7.062-.729c-.806 0-1.604.034-2.397.088l-.348.024c-4.132.314-8.201 1.39-11.968 3.11a38.25 38.25 0 00-8.93 5.722c-.003.001-.003.003-.005.004a40.303 40.303 0 00-2.098 1.931c-.125.125-.255.247-.38.373a43.058 43.058 0 00-1.853 1.992c-.129.149-.256.301-.385.452a43.057 43.057 0 00-1.734 2.172c-.047.063-.09.128-.135.19a44.292 44.292 0 00-1.514 2.204c-.096.146-.193.291-.285.438a44.513 44.513 0 00-1.117 1.899h18.75l17.317-4.276z"/><path fill="#E2DDDB" d="M157.115 66.254a60.649 60.649 0 00.165-3.47c.01-.518.008-1.034.006-1.551 0-.149.004-.299.002-.448a81.157 81.157 0 00-.146-4.001l-.012-.007c-.002-.005-.004-.008-.004-.011-.006-.003-.024-.014-.043-.023-.016-.009-.029-.018-.059-.034a508.07 508.07 0 00-1.422-.813c-.137-.077-.27-.151-.389-.22l-.006-.004-.27-.15a37.642 37.642 0 00-2.885-1.375c-2.133-.9-5.004-1.689-6.623-2.07v2.979l4.08 12.608.004.011c.422.401.785.863 1.074 1.371a5.79 5.79 0 01.476 1.066l.005.012a5.896 5.896 0 01.159.578c.043.192.075.389.1.588l.001.008c.024.202.037.408.04.616l.015.034h4.996c.338-1.828.573-3.682.723-5.541.003-.052.009-.103.013-.153"/><path fill="#FAAF40" d="M163.648 61.796l-.009.018a.06.06 0 00.009-.018z"/><path fill="#FAAF40" d="M151.412 89.914a210.302 210.302 0 003.224-3.267c.607-.629 1.201-1.252 1.766-1.865 4.175-4.532 7.24-8.773 9.084-14.229a5.1 5.1 0 00.13-.492l.021-.089c.043-.204.086-.43.127-.685l.05-.512c-.464-2.376-1.363-4.685-2.156-6.965a.311.311 0 00.009.024.25.25 0 01-.023-.022c-.152-.144-.313-.278-.467-.421-.47-.433-.947-.854-1.434-1.265a38.31 38.31 0 00-4.6-3.343c.082 1.335.134 2.669.148 4.001.002.149-.003.299-.002.448.002.517.004 1.033-.007 1.551a63.42 63.42 0 01-.069 1.997c-.026.49-.058.981-.096 1.473l-.014.153a54.41 54.41 0 01-.723 5.541l-.586 2.774c-1.227 4.969-3.716 9.476-5.763 14.128a55.02 55.02 0 00-1.509 3.753l-.128.359a82.28 82.28 0 011.635-1.678c.472-.464.931-.92 1.383-1.369"/><path fill="#8F9293" d="M141.315 67.644a6.13 6.13 0 01.865-.675l.002-.001a6.02 6.02 0 01.973-.505l.027-.01a5.976 5.976 0 011.05-.314l.039-.006a5.922 5.922 0 012.272.003l.027.004a5.97 5.97 0 011.086.329 6.006 6.006 0 011.857 1.206l-.004-.011-4.08-12.608-4.114 12.588z"/><path fill="#676A6A" d="M139.865 74.257a5.822 5.822 0 01-.327-1.078l-.004-.023a5.945 5.945 0 01-.081-1.779c.005-.048.017-.095.022-.142a5.95 5.95 0 01.074-.466c.009-.045.023-.087.033-.131a5.94 5.94 0 01.123-.458c.01-.032.023-.062.034-.093.056-.161.113-.32.181-.474.008-.019.019-.035.025-.053.075-.166.156-.33.245-.487l.011-.019a6.05 6.05 0 011.085-1.384l-17.315 4.277h-.032l17.149 4.186a5.992 5.992 0 01-1.217-1.864l-.006-.012"/><path fill="#E2DDDB" d="M178.825 71.011c.012-.077.028-.148.04-.225.044-.246.095-.487.162-.715.007-.025.01-.056.019-.08l2.258-10.346v-5.897c-1.846-1.525-3.822-2.358-5.881-2.358-2.6 0-5.024 1.436-6.838 3.209-1.983 1.941-3.517 4.385-4.757 6.849l-.172.336c.384.331.761.667 1.134 1.008.844.772 1.67 1.564 2.484 2.37.38.375.752.758 1.126 1.138.397.403.794.806 1.185 1.216a118.524 118.524 0 012.112 2.28c.595.657 1.185 1.318 1.767 1.987v.001c.098.103.166.175.192.206h5.095c0-.042.008-.079.01-.12.004-.295.024-.582.064-.859m-15.171-9.2a.098.098 0 01-.005-.016l-.01.017.023.022-.008-.023"/><path fill="#525453" d="M102.148 78.458l.045-.114a47.75 47.75 0 012.362-5.189c.139-.263.272-.525.416-.784.078-.144.168-.28.248-.423.361-.641.727-1.277 1.117-1.899l.284-.438a44.31 44.31 0 011.515-2.204c.045-.063.088-.128.135-.19a44.813 44.813 0 011.734-2.172c.129-.151.254-.303.385-.452a41.52 41.52 0 011.852-1.992c.126-.126.254-.249.381-.373a41.204 41.204 0 012.098-1.931l.004-.004c2.85-9.546 11.568-16.496 21.887-16.496 4.152 0 8.283 1.197 11.822 3.362 3.631 2.22 6.59 5.474 8.512 9.266.009.02.02.038.027.057.049.097.104.189.152.285.002.004.004.007.004.011l.012.007a38.181 38.181 0 014.599 3.342c.485.411.964.833 1.435 1.266.153.143.313.277.465.421l.009-.018.006-.011c.052-.108.104-.217.157-.323 1.453-9.177 5.502-15.787 10.275-15.787 3.598 0 6.786 3.753 8.762 9.529l.021.062.005.007a21.244 21.244 0 011.629 2.007c.01.014.021.026.03.041h.001c.028.084.053.17.08.254l-.075-.302c-5.938-17.583-22.569-30.242-42.157-30.242-24.57 0-44.488 19.917-44.488 44.486 0 4.845.775 9.506 2.212 13.847l.006-.025a47.468 47.468 0 012.036-6.881"/><path fill="#FFF" d="M185.204 72.007l-1.552 1.736-.004.012c-.06.229-.132.442-.211.647-.021.054-.044.104-.067.157a5.155 5.155 0 01-.199.415c-.039.071-.076.143-.117.208a3.354 3.354 0 01-.205.288 3.188 3.188 0 01-.32.357c-.046.043-.091.091-.139.129a2.096 2.096 0 01-.377.238 1.584 1.584 0 01-.697.172c-1.41 0-2.553-1.959-2.553-4.375h-5.124l.004.004a165.491 165.491 0 012.808 3.335l.034.041a205.332 205.332 0 012.652 3.31c.043.056.086.109.129.163a287.85 287.85 0 012.461 3.187l.236.31a443.068 443.068 0 012.573 3.42 44.413 44.413 0 002.333-13.769h-1.65l-.015.015z"/><path fill="#231F20" d="M135.624 51.461c.115-.009.231-.016.348-.024a35.26 35.26 0 012.397-.088c2.412 0 4.769.258 7.062.729v1.133-1.134c1.619.381 4.49 1.17 6.623 2.07.896.379 1.774.792 2.637 1.239l.195.107.054.03.269.149.008.004c.119.068.25.143.388.22l.034.021c.549.312 1.156.659 1.388.792l.06.034a.51.51 0 00.041.023c-.048-.097-.103-.188-.15-.284l-.029-.058c-1.922-3.792-4.88-7.046-8.511-9.266-3.539-2.165-7.669-3.362-11.822-3.362-10.317 0-19.037 6.95-21.887 16.497a38.25 38.25 0 018.93-5.722c3.764-1.72 7.833-2.796 11.965-3.11"/><path fill="none" d="M145.431 53.211v.264"/><path fill="#231F20" d="M168.585 54.6c1.813-1.773 4.237-3.209 6.838-3.209 2.058 0 4.035.833 5.881 2.358v.021-.004c.164.137.326.289.49.438.098.09.198.172.297.265.258.249.515.511.769.786l.015.017-.005-.006-.021-.062c-1.975-5.776-5.162-9.529-8.762-9.529-4.774 0-8.822 6.611-10.275 15.787l.015-.013c1.24-2.465 2.774-4.907 4.758-6.849"/><path fill="#FFF" d="M126.453 113.013c.406.156.819.297 1.231.441a44.363 44.363 0 0014.697 2.5c5.877 0 11.48-1.15 16.615-3.219.272-.109.537-.229.807-.345.436-.186.869-.376 1.298-.575.383-.179.767-.355 1.145-.544-.091.013-.182.029-.272.039-1.596.181-3.182.19-4.729-.031-9.154-1.316-11.181-5.729-10.891-10.326-.659-.38-1.33-.809-2.012-1.303-7.039-5.107-11.217-10.549-11.217-10.549s5.43 4.191 13.541 7.329c.174.067.338.126.508.19.379-1.311.828-2.556 1.223-3.661l.128-.359a54.995 54.995 0 011.509-3.752c2.047-4.652 4.535-9.16 5.762-14.128l.586-2.774h-5.006v.01l-.002.001.002.041a5.929 5.929 0 01-1.021 3.341 6.023 6.023 0 01-2.63 2.166 5.95 5.95 0 01-2.947.439c-.048-.006-.094-.017-.143-.021a5.872 5.872 0 01-.463-.073c-.041-.009-.082-.021-.125-.031a5.777 5.777 0 01-.461-.123l-.082-.03a5.906 5.906 0 01-.482-.182l-.042-.021a5.852 5.852 0 01-.495-.247l-.008-.004a6.066 6.066 0 01-1.389-1.077l-17.149-4.186h-18.718c-.079.142-.17.278-.248.423-.143.259-.277.521-.415.784a47.863 47.863 0 00-2.363 5.189l-.045.114a47.848 47.848 0 00-2.037 6.878c2.947 8.987 8.681 16.71 16.174 22.153.218.158.448.299.669.454a44.726 44.726 0 003.937 2.468 44.292 44.292 0 005.56 2.601"/><path fill="#9E2155" d="M157.169 99.196a12.73 12.73 0 00-.129 1.397 12.346 12.346 0 00.466 3.762c.193.68.436 1.314.707 1.901a14.207 14.207 0 001.19 2.087 14.842 14.842 0 001.059 1.367c.816.939 1.459 1.449 1.459 1.449l.015.042.036.111c.092-.01.183-.027.273-.039 1.984-.248 3.982-.785 5.954-1.494a39.327 39.327 0 002.992-1.203c.3-.139.595-.29.894-.435 10.189-4.927 18.723-13.643 18.723-13.643-12.805 6.292-25.318 6.041-33.639 4.698"/><path fill="#E2066F" d="M181.727 82.028a322.324 322.324 0 00-2.46-3.187l-.129-.163a227.339 227.339 0 00-2.654-3.31l-.033-.041a159.664 159.664 0 00-2.989-3.545 145.538 145.538 0 00-3.879-4.267c-.392-.41-.787-.813-1.185-1.216-.374-.381-.746-.764-1.126-1.138a94.254 94.254 0 00-2.486-2.37 54.356 54.356 0 00-1.134-1.008l-.006.012c.804 2.31 1.722 4.65 2.181 7.059.119.628.219 1.237.299 1.832 1.119 8.34-1.552 13.783-5.796 20.946-.304.513-.616 1.035-.936 1.568-.972 1.618-1.593 3.149-1.952 4.588-.12.479-.211.949-.275 1.407 8.321 1.343 20.836 1.594 33.639-4.698 0 0-2.512-3.69-6.289-8.763a430.31 430.31 0 00-2.555-3.397c-.076-.103-.156-.205-.235-.309"/><path fill="#231F20" d="M161.923 111.158s-.644-.509-1.459-1.449a14.834 14.834 0 01-1.06-1.367 14.318 14.318 0 01-1.189-2.087 13.01 13.01 0 01-.709-1.901 12.424 12.424 0 01-.315-1.419 12.101 12.101 0 01-.022-3.74c.065-.458.156-.929.276-1.407.36-1.438.981-2.97 1.952-4.589l.008-.014c.316-.527.626-1.046.928-1.555 4.244-7.162 6.916-12.606 5.797-20.946-.08-.595-.18-1.205-.299-1.832-.063.434-.129.807-.195 1.118-.006.031-.014.06-.021.089a5.18 5.18 0 01-.13.492c-1.844 5.455-4.909 9.696-9.084 14.229-.564.613-1.158 1.236-1.766 1.865-1.02 1.059-2.09 2.14-3.224 3.267-.452.449-.911.905-1.382 1.37-.43.426-.996 1.007-1.635 1.678-.395 1.104-.844 2.35-1.223 3.661-.17-.065-.334-.123-.508-.19-8.111-3.137-13.541-7.329-13.541-7.329s4.178 5.441 11.217 10.549c.683.493 1.354.922 2.013 1.302-.291 4.597 1.737 9.01 10.891 10.326 1.548.223 3.132.212 4.728.031l-.036-.112-.012-.04"/></svg>