<svg xmlns="http://www.w3.org/2000/svg" width="130" height="130" viewBox="71.232 6.383 130 130"><g fill="#FFF"><path d="M81.184 71.181c0 21.621 12.436 40.273 30.617 49.037L86.035 49.089c-3.015 6.925-4.851 14.273-4.851 22.092zm91.382-2.733c0-6.688-2.545-11.493-4.615-14.979-2.779-4.616-5.277-8.29-5.277-12.907 0-5.087 3.91-9.656 9.186-9.656h.707c-9.656-8.997-22.563-14.272-36.836-14.272-19.077.235-35.658 9.892-45.551 24.636h3.439c5.747 0 14.508-.707 14.508-.707 3.016-.236 3.203 4.146.471 4.616 0 0-3.015.471-6.218.471l19.784 58.927 11.965-35.657-8.525-23.271c-3.016-.236-5.748-.471-5.748-.471-3.015-.236-2.543-4.616.236-4.616 0 0 8.997.707 14.273.707 5.746 0 14.508-.707 14.508-.707 3.016-.236 3.203 4.146.471 4.616 0 0-3.014.471-6.217.471l19.783 58.693 5.512-18.184c2.307-7.581 4.144-12.903 4.144-17.71z"/><path d="M136.672 76.032l-16.345 47.436c4.853 1.365 10.127 2.307 15.403 2.307 6.453 0 12.436-1.131 18.182-3.014-.236-.236-.236-.473-.471-.707l-16.769-46.022zm46.963-30.852c.236 1.837.471 3.674.471 5.511 0 5.511-.941 11.729-4.145 19.548l-16.58 48.094c16.109-9.422 27.178-26.943 27.178-47.199-.282-9.373-2.778-18.135-6.924-25.954z"/><path d="M135.73 7.685c-34.951 0-63.498 28.545-63.498 63.497s28.545 63.543 63.545 63.543c34.998 0 63.496-28.545 63.496-63.543 0-34.999-28.544-63.497-63.543-63.497zm0 124.261c-33.397 0-60.529-27.18-60.529-60.765 0-33.397 27.179-60.529 60.529-60.529 33.35 0 60.529 27.179 60.529 60.529.001 33.632-27.132 60.765-60.529 60.765z"/></g></svg>