<svg version="1.1" id="Domain_Checker_2_" xmlns="http://www.w3.org/2000/svg" x="0" y="0" viewBox="0 0 1200 1200" xml:space="preserve"><style>.st5{fill:#b1b2f3}.st5,.st6,.st7{fill-rule:evenodd;clip-rule:evenodd}.st6{fill:#fff}.st7{fill:#0a185b}</style><g id="Background"><circle id="Background_2" cx="588" cy="631" r="514.8" opacity=".25" fill="#c6d1f7"/></g><g id="Domain_Checker_1_"><path d="M874.9 617.5c165.9 0 301.3-135.4 301.3-301.3 0-166-135.4-301.3-301.3-301.3-166 0-301.3 135.4-301.3 301.3-.1 165.9 135.3 301.3 301.3 301.3z" fill-rule="evenodd" clip-rule="evenodd" fill="#c6d1f7"/><path class="st5" d="M1171 371.3c-5.1 27.6-13.9 53.9-26.1 78.3H905.2c-21.6 0-39.2-17.6-39.2-39.1 0-21.6 17.6-39.2 39.2-39.2H1171zm-23.6-183.8c18.4 39 28.8 82.6 28.8 128.7 0 4.9-.1 9.7-.4 14.6-8.5 3.5-17.9 5.3-27.6 5.3H946.7c-40.9 0-74.3-33.4-74.3-74.3s33.4-74.3 74.3-74.3h200.7zM593.5 424.4c-12.5-32.3-19.5-67.4-19.9-104h97.3c11.8 0 21.6 9.7 21.6 21.6 0 3.2-.7 6.1-1.9 8.9H746c20.3 0 36.8 16.6 36.8 36.8 0 20.3-16.6 36.8-36.8 36.8H593.5zM615 163.6c11.6-19.7 25.3-37.9 40.9-54.4h115.8c15 0 27.2 12.2 27.2 27.2 0 14.9-12.2 27.2-27.2 27.2H615z"/><path class="st6" d="M158.8 339.5h854.5c13.8 0 25 11.3 25 25v562.9c0 13.7-11.2 24.9-25 24.9H158.8c-13.7 0-24.9-11.2-24.9-24.9V364.5c0-13.7 11.2-25 24.9-25z"/><path class="st7" d="M152 339.5h868c10 0 18.2 8.2 18.2 18.2v56c0 .8-.7 1.5-1.6 1.5H133.9v-57.5c0-10 8.1-18.2 18.1-18.2z"/><path d="M178.5 393.1c9.1 0 16.6-7.5 16.6-16.6 0-9.1-7.5-16.6-16.6-16.6-9.1 0-16.6 7.5-16.6 16.6 0 9.1 7.5 16.6 16.6 16.6z" fill-rule="evenodd" clip-rule="evenodd" fill="#ffdb79"/><path d="M224.9 393.1c9.1 0 16.7-7.5 16.7-16.6 0-9.1-7.5-16.6-16.7-16.6-9.1 0-16.6 7.5-16.6 16.6 0 9.1 7.5 16.6 16.6 16.6z" fill-rule="evenodd" clip-rule="evenodd" fill="#9bdde7"/><path d="M271.3 393.1c9.1 0 16.6-7.5 16.6-16.6 0-9.1-7.5-16.6-16.6-16.6-9.1 0-16.6 7.5-16.6 16.6 0 9.1 7.5 16.6 16.6 16.6z" fill-rule="evenodd" clip-rule="evenodd" fill="#f77b55"/><path class="st6" d="M313.1 362.5h699.4V394H313.1z"/><g fill-rule="evenodd" clip-rule="evenodd"><path d="M234.4 512.3h713.3c12.5 0 22.8 10.3 22.8 22.8v45.1c0 12.5-10.3 22.8-22.8 22.8H234.4c-12.6 0-22.9-10.3-22.9-22.8v-45.1c0-12.6 10.3-22.8 22.9-22.8z" opacity=".25" fill="#c6d1f7"/><path d="M494.6 458.4h192.6v13.9H494.6zm-235.4 0h192.6v13.9H259.2zm477.3 0h192.6v13.9H736.5z" fill="#ccc"/><path d="M280.6 578.2l-10.2-33.6h6l5.4 19.4 1.9 7.2c.1-.4.6-2.6 1.8-6.9l5.3-19.7h5.9l5 19.5 1.7 6.4 1.9-6.5 5.8-19.4h5.5L306 578.2h-5.9l-5.4-20.1-1.3-5.8-6.8 25.9h-6zm46.8 0l-10.2-33.6h6l5.4 19.4 1.8 7.2c.1-.4.7-2.6 1.8-6.9l5.4-19.7h5.8l5.1 19.5 1.7 6.4 1.9-6.5 5.8-19.4h5.5l-10.5 33.6H347l-5.4-20.1-1.3-5.8-6.8 25.9h-6.1zm46.6 0l-10-33.6h5.9l5.4 19.4 1.9 7.2c.1-.4.7-2.6 1.8-6.9l5.4-19.7h5.8l5.1 19.5 1.6 6.4 1.9-6.5 5.9-19.4h5.5l-10.5 33.6h-6l-5.3-20.1-1.4-5.8-6.8 25.9H374zm38.8 0v-6.5h6.5v6.5h-6.5z" fill="#6c6d70"/><path d="M297.3 791.5c36.6 0 66.4-29.8 66.4-66.4 0-36.6-29.8-66.4-66.4-66.4-36.6 0-66.4 29.8-66.4 66.4 0 36.6 29.8 66.4 66.4 66.4z" fill="#adecf7"/><path fill="#1daf08" d="M260.4 711l34.6 58.8 81.5-133.6-79.5 91.2z"/><path d="M425.5 692.8h313v9.9h-313zm125.1 28.3h187.8v9.9H550.6zm-128.9 28.1h205.6v10H421.7zm257.9 0h58.9v10h-58.9zm-220.9-28.1h33.2v9.9h-33.2z" fill="#a6a9ab"/></g><path d="M809.8 663.3h276.7c17.7 0 32.2 14.5 32.2 32.2v254.9c0 17.7-14.5 32.2-32.2 32.2H809.8c-17.6 0-32.1-14.5-32.1-32.2V695.5c0-17.7 14.4-32.2 32.1-32.2z" fill-rule="evenodd" clip-rule="evenodd" fill="#f67a3c"/><path class="st7" d="M777.7 771.8h341v102.5h-341z"/><path d="M935.2 931.8c0 5 1 8.7 3.2 11.1 2.2 2.5 4.9 3.8 8.2 3.8 3.2 0 6.1-1.2 8.2-3.8 2.2-2.5 3.3-6.2 3.3-11.3 0-4.8-1.1-8.5-3.3-11-2.2-2.5-4.9-3.7-8.2-3.7-3.3 0-6.1 1.2-8.2 3.7-2.1 2.5-3.2 6.2-3.2 11.2zm-6.7 0c0-7.2 2-12.5 6-16 3.3-2.9 7.5-4.4 12.3-4.4 5.4 0 9.7 1.8 13.2 5.3 3.3 3.5 5.1 8.3 5.1 14.6 0 5-.8 8.9-2.3 11.8-1.5 2.9-3.7 5.1-6.6 6.7-2.8 1.6-6 2.4-9.4 2.4-5.4 0-9.8-1.7-13.2-5.2-3.5-3.6-5.1-8.6-5.1-15.2zm-16.9 19.5v-33.9h-5.9v-5.1h5.9v-4.1c0-2.6.3-4.6.7-5.9.6-1.7 1.8-3.1 3.3-4.1 1.6-1 3.9-1.6 6.8-1.6 1.8 0 3.9.2 6.1.6l-1 5.8c-1.4-.2-2.7-.3-3.9-.3-2 0-3.4.4-4.2 1.3-.9.8-1.2 2.5-1.2 4.7v3.6h7.5v5.1h-7.5v33.9h-6.6zm-43.3 0v-39h6v5.5c2.8-4.3 6.9-6.4 12.4-6.4 2.4 0 4.5.4 6.5 1.3 1.9.8 3.4 1.9 4.4 3.3 1 1.3 1.7 3 2 4.8.3 1.2.4 3.3.4 6.4v23.9h-6.7v-23.7c0-2.7-.3-4.7-.7-6.1-.5-1.3-1.5-2.4-2.8-3.2-1.2-.8-2.8-1.2-4.6-1.2-2.8 0-5.2.9-7.3 2.7-2 1.8-3 5.2-3 10.2V951h-6.6zm-16.7 0v-39h6.6v39h-6.6zm0-46.3v-7.5h6.6v7.5h-6.6zm-18.9 46.3v-7.5h7.5v7.5h-7.5zm116.8-111.6l.9 5.9c-1.8.4-3.5.6-5 .6-2.4 0-4.2-.4-5.5-1.1-1.3-.8-2.3-1.8-2.8-3-.5-1.3-.8-3.9-.8-7.8v-22.5h-4.9v-5.2h4.9V797l6.6-4v13.6h6.7v5.2h-6.7v22.8c0 1.8.2 3.1.4 3.6.3.5.6 1 1.1 1.3.5.4 1.3.4 2.3.4.6 0 1.6-.1 2.8-.2zm-51.1-17.3h21.7c-.3-3.2-1.1-5.7-2.5-7.4-2.1-2.5-4.8-3.8-8.2-3.8-3.1 0-5.6 1-7.6 3-2.1 2-3.2 4.8-3.4 8.2zM920 833l6.8.9c-1.1 4-3.1 7.1-6 9.2-2.9 2.2-6.6 3.3-11.1 3.3-5.7 0-10.2-1.8-13.5-5.3-3.3-3.5-5-8.4-5-14.7 0-6.5 1.7-11.6 5.1-15.2 3.3-3.6 7.7-5.4 13.1-5.4 5.2 0 9.5 1.8 12.7 5.3 3.3 3.6 5 8.6 5 15 0 .3-.1 1-.1 1.8h-29c.3 4.2 1.5 7.5 3.7 9.8 2.1 2.2 4.8 3.3 8.1 3.3 2.5 0 4.5-.6 6.2-1.8 1.6-1.4 3-3.4 4-6.2zm-68.4 12.6v-39h6v5.5c2.8-4.2 6.9-6.3 12.4-6.3 2.4 0 4.5.4 6.5 1.2 1.9.9 3.4 2 4.4 3.3 1 1.4 1.7 3 2 4.9.3 1.2.4 3.3.4 6.4v23.9h-6.6v-23.7c0-2.7-.3-4.7-.8-6.1-.4-1.3-1.4-2.4-2.7-3.2-1.3-.8-2.8-1.2-4.6-1.2-2.8 0-5.3.9-7.3 2.7-2 1.8-3.1 5.1-3.1 10.1v21.3h-6.6zm-18.9 0v-7.5h7.5v7.5h-7.5zm98.2-108v-39h6v5.5c1.1-1.9 2.8-3.5 4.8-4.7 2-1.1 4.3-1.8 6.9-1.8 2.9 0 5.3.6 7.1 1.8 1.8 1.1 3.2 2.8 3.9 5 3.1-4.6 7.1-6.8 12.1-6.8 3.9 0 6.8 1.1 8.9 3.2 2.1 2.1 3.2 5.4 3.2 9.8v26.8h-6.7V713c0-2.6-.2-4.5-.6-5.7-.4-1.1-1.2-2-2.4-2.7-1.1-.8-2.5-1.1-3.9-1.1-2.7 0-5 1-6.8 2.7-1.8 1.8-2.7 4.8-2.7 8.8v22.6h-6.6v-25.3c0-3-.5-5.2-1.7-6.7-1.1-1.4-2.8-2.2-5.3-2.2-1.8 0-3.6.5-5.2 1.5s-2.7 2.4-3.4 4.3c-.7 1.8-1.1 4.6-1.1 8.2v20.2h-6.5zm-37.4-19.5c0 5 1.1 8.7 3.2 11.1 2.2 2.5 4.9 3.8 8.3 3.8 3.2 0 6.1-1.2 8.2-3.8 2.2-2.5 3.3-6.2 3.3-11.3 0-4.8-1.1-8.5-3.3-11-2.2-2.5-4.9-3.7-8.2-3.7-3.3 0-6.1 1.2-8.3 3.7-2.2 2.5-3.2 6.2-3.2 11.2zm-6.8 0c0-7.2 2-12.5 6-16 3.3-2.9 7.5-4.4 12.3-4.4 5.3 0 9.7 1.8 13.2 5.3 3.3 3.5 5.1 8.3 5.1 14.6 0 5-.8 8.9-2.3 11.8-1.5 2.9-3.7 5.1-6.6 6.7-2.9 1.6-6 2.4-9.4 2.4-5.4 0-9.8-1.7-13.2-5.2-3.4-3.6-5.1-8.6-5.1-15.2zm-9.6 5.2l6.5 1c-.7 4.4-2.5 7.9-5.4 10.3-2.9 2.5-6.5 3.8-10.8 3.8-5.3 0-9.6-1.7-12.8-5.2-3.2-3.5-4.8-8.5-4.8-14.9 0-4.2.7-7.9 2.1-11.1 1.3-3.2 3.5-5.5 6.3-7.1 2.8-1.6 6-2.4 9.3-2.4 4.2 0 7.7 1.1 10.4 3.2s4.4 5.2 5.2 9.1l-6.4 1c-.6-2.6-1.7-4.6-3.2-5.9-1.6-1.3-3.4-2-5.6-2-3.3 0-6.1 1.2-8.2 3.6-2 2.4-3.1 6.1-3.1 11.2 0 5.3 1 9 3 11.4 2 2.4 4.6 3.6 7.9 3.6 2.5 0 4.7-.8 6.5-2.4 1.5-1.5 2.6-3.9 3.1-7.2zm-44.4 14.3V730h7.5v7.5h-7.5z" fill="#fefefe" fill-rule="evenodd" clip-rule="evenodd"/><path class="st5" d="M474.9 1003.6c8.9 4 16.9 9.7 23.4 16.8l26.8-12.2 18.9 41.6-26.8 12.1c.5 4.7.5 9.6.1 14.6-.5 4.9-1.5 9.7-2.9 14.2l24 17.2-26.6 37-23.9-17.1c-7.7 5.6-16.7 9.7-26.2 11.9l-2.9 29.3-45.4-4.5 2.9-29.2c-8.9-4-16.9-9.8-23.5-16.8l-26.8 12.1-18.9-41.5 26.8-12.2c-.4-4.7-.5-9.6 0-14.5.4-4.9 1.5-9.7 2.8-14.3l-23.9-17.1 26.5-37.1 24 17.2c7.8-5.7 16.8-9.8 26.3-12l2.9-29.3 45.4 4.5-3 29.3z"/><path class="st7" d="M447.7 1046.8c12.5 1.2 21.8 12.4 20.5 24.9-1.2 12.5-12.5 21.8-24.9 20.5-12.5-1.2-21.8-12.5-20.5-25 1.2-12.4 12.4-21.6 24.9-20.4zm2.2-21.9c24.7 2.4 42.7 24.4 40.3 49-2.5 24.6-24.4 42.6-49 40.3-24.7-2.5-42.7-24.4-40.3-49 2.4-24.7 24.4-42.8 49-40.3z"/><path class="st5" d="M310.2 1014.8c3.8 6.4 6.1 13.4 7.1 20.6l21.9 4.3-6.7 33.9-21.8-4.2c-1.8 3.2-3.9 6.1-6.4 8.9-2.5 2.8-5.1 5.4-8 7.5l7.3 21.1-32.7 11.2-7.2-21.1c-7.3 0-14.6-1.3-21.5-4.2l-14.7 16.8-26-22.7 14.6-16.8c-3.8-6.5-6.1-13.5-7.1-20.7l-21.8-4.3 6.6-33.9 21.9 4.2c1.8-3.1 3.9-6.1 6.3-8.9 2.5-2.8 5.2-5.4 8-7.5l-7.2-21.1 32.6-11.2 7.3 21.1c7.3-.1 14.6 1.3 21.4 4.1l14.7-16.8 26.1 22.6-14.7 17.1z"/><path class="st7" d="M274.5 1029.4c7.2 6.3 8 17.2 1.8 24.4-6.3 7.2-17.2 7.9-24.4 1.7-7.2-6.2-8-17.2-1.7-24.4 6.2-7.2 17.1-7.9 24.3-1.7zm10.9-12.5c14.2 12.3 15.7 33.8 3.3 47.9-12.3 14.1-33.8 15.6-47.9 3.3-14.1-12.4-15.6-33.8-3.3-48 12.4-14.1 33.8-15.6 47.9-3.2z"/><g fill="#fefefe" stroke="#fefefe" stroke-width=".5" stroke-miterlimit="10"><path fill-rule="evenodd" clip-rule="evenodd" d="M1078 832l42.5 23.2 42.6 23.2-36.3 10.3 28.6 46.9-20.7 12.7-28.6-47-25.7 27.6-1.2-48.4z"/><path d="M83.6 541.8c-3.7.3-6.8-2.6-7.1-6.3-.2-3.7 2.6-6.9 6.4-7.1h.4l.5-.1h2.4l.5-.1h13.9c3.8 0 6.8 3.1 6.8 6.8 0 3.8-3 6.8-6.8 6.8H85.8l-.4.1h-1.8zm-42 1.1c3-2.2 7.2-1.5 9.4 1.6 2.2 3 1.5 7.2-1.6 9.4l-.2.1-.4.3-.4.3-.3.2-.3.3-.4.3-.3.3-.4.2-.3.3-.4.3-.3.3-.3.3-.3.3-.4.3-.3.2-.4.3-.3.3-.4.3-.3.3-.3.3-.4.3-.3.3-.3.4-.4.3-.3.3-.3.3-.4.3-.3.3-.3.3-.3.4-.3.3H39c-2.5 2.7-6.8 2.8-9.5.2-2.7-2.5-2.8-6.8-.2-9.5l.1-.2.4-.3.3-.3.4-.4.4-.4.4-.4.4-.3L33 550l.4-.4.4-.4.2-.2.3-.3.4-.4.4-.3.4-.4.4-.3.4-.3.4-.3.4-.4.3-.3.4-.4.4-.3.4-.4.4-.3.4-.3.4-.4.3-.3.4-.3.4-.3.4-.3.4-.4-.1.6zM9.7 590.8c.8-3.7 4.4-6 8.1-5.2 3.6.8 5.9 4.4 5.1 8.1v.1l-.1.4-.1.4-.1.4-.1.4-.1.4v.3l-.1.4-.1.4-.1.4-.1.4v.4l-.1.4-.1.4v.4l-.1.3v.4l-.1.4v.4l-.1.4v.4l-.1.4v.8l-.1.4v1.2l-.1.4v.4h0c-.1 3.8-3.2 6.7-6.9 6.6-3.7-.1-6.7-3.2-6.5-6.9v-1.5l.1-.5v-1l.1-.4v-.5l.1-.5v-.5l.1-.4v-.5l.1-.5.1-.4v-.5l.1-.5.1-.4.1-.5.1-.5v-.4l.1-.5.1-.4.1-.5.1-.4.1-.5.2-.5.1-.4.1-.5v-.9h0zM7.9 646c0-3.7 3.1-6.7 6.8-6.7 3.7 0 6.8 3 6.8 6.7v13.5c0 3.8-3.1 6.8-6.8 6.8-3.7 0-6.8-3-6.8-6.8V646zm0 53.9c0-3.7 3.1-6.8 6.8-6.8 3.7 0 6.8 3.1 6.8 6.8v13.5c0 3.7-3.1 6.8-6.8 6.8-3.7 0-6.8-3.1-6.8-6.8v-13.5zm0 54c0-3.8 3.1-6.8 6.8-6.8 3.7 0 6.8 3 6.8 6.8v13.4c0 3.8-3.1 6.8-6.8 6.8-3.7 0-6.8-3-6.8-6.8v-13.4zm0 53.8c0-3.7 3.1-6.7 6.8-6.7 3.7 0 6.8 3 6.8 6.7v13.5c0 3.7-3.1 6.8-6.8 6.8-3.7 0-6.8-3.1-6.8-6.8v-13.5zm0 54c0-3.7 3.1-6.8 6.8-6.8 3.7 0 6.8 3.1 6.8 6.8v13.5c0 3.7-3.1 6.8-6.8 6.8-3.7 0-6.8-3.1-6.8-6.8v-13.5zm0 53.9c0-3.8 3.1-6.8 6.8-6.8 3.7 0 6.8 3 6.8 6.8V929c0 3.8-3.1 6.8-6.8 6.8-3.7 0-6.8-3-6.8-6.8v-13.4zm0 53.9c0-3.7 3.1-6.7 6.8-6.7 3.7 0 6.8 3 6.8 6.7V983c0 3.7-3.1 6.8-6.8 6.8-3.7 0-6.8-3.1-6.8-6.8v-13.5zm3.7 55.7c-1.1-3.6.8-7.4 4.3-8.5 3.6-1.1 7.4.8 8.5 4.4l.1.4.2.3.1.4.1.4.2.3.1.4.2.4.2.4.1.4.2.4.2.4.1.3.2.4.2.4.1.4.2.3.2.4.2.4.2.3.1.4.2.3.2.4.2.4.2.4.2.3.2.4.2.4.2.4.3.3.2.3.1.2c1.8 3.3.5 7.4-2.7 9.1-3.3 1.8-7.4.5-9.1-2.7l-.2-.3-.3-.4-.2-.4-.3-.4-.2-.4-.3-.4-.2-.4-.2-.4-.3-.4-.2-.4-.2-.4-.3-.4-.2-.4-.2-.4-.2-.4-.2-.4-.3-.4-.2-.4-.2-.4-.2-.4-.2-.5-.2-.4-.2-.4-.1-.4-.2-.4-.2-.5-.2-.4-.2-.4-.2-.4-.1-.5v-1.4zm35.8 44.9c-3.2-1.8-4.3-6-2.5-9.2 1.9-3.2 6.1-4.3 9.3-2.5v.1l.4.2.4.2.3.2.4.3.4.2.4.2.4.2.4.2.3.2.4.2.4.2.4.2.4.2.3.2.4.2.4.2.4.2.3.2.4.2.4.2.4.2.4.1.4.2.3.2.4.2.4.1.4.2.4.2.4.1.4.2h.1c3.5 1.2 5.4 5.1 4.1 8.6-1.2 3.5-5.1 5.4-8.6 4.1l-.2-.1-.4-.2-.5-.2-.4-.2-.4-.2-.4-.2-.4-.2-.4-.2-.4-.2-.5-.2-.4-.2-.4-.2-.4-.3-.4-.2-.4-.2-.4-.2-.4-.3-.4-.2-.4-.3-.4-.2-.4-.3-.4-.2-.4-.2-.4-.3-.4-.3-.4-.2-.4-.3-.4-.3-.4-.2-.4-.3-1.9-.1h0zM103 1081c-3.7 0-6.8-3.1-6.8-6.8 0-3.8 3.1-6.8 6.8-6.8h13.5c3.7 0 6.8 3 6.8 6.8 0 3.7-3.1 6.8-6.8 6.8H103zm53.9 0c-3.8 0-6.8-3.1-6.8-6.8 0-3.8 3-6.8 6.8-6.8h13.5c3.7 0 6.7 3 6.7 6.8 0 3.7-3 6.8-6.7 6.8h-13.5zm385.2 0c-3.7 0-6.8-3.1-6.8-6.8 0-3.8 3.1-6.8 6.8-6.8h7.6c3.8 0 6.8 3 6.8 6.8 0 3.7-3 6.8-6.8 6.8h-7.6zm46.2 0c-3.7 0-6.8-3.1-6.8-6.8 0-3.8 3.1-6.8 6.8-6.8h13.5c3.7 0 6.8 3 6.8 6.8 0 3.7-3.1 6.8-6.8 6.8h-13.5zm53.9 0c-3.8 0-6.8-3.1-6.8-6.8 0-3.8 3-6.8 6.8-6.8h13.4c3.8 0 6.8 3 6.8 6.8 0 3.7-3 6.8-6.8 6.8h-13.4zm53.9 0c-3.7 0-6.7-3.1-6.7-6.8 0-3.8 3-6.8 6.7-6.8h13.5c3.8 0 6.8 3 6.8 6.8 0 3.7-3 6.8-6.8 6.8h-13.5zm53.9 0c-3.7 0-6.8-3.1-6.8-6.8 0-3.8 3.1-6.8 6.8-6.8h13.5c3.7 0 6.8 3 6.8 6.8 0 3.7-3.1 6.8-6.8 6.8H750zm54 0c-3.8 0-6.8-3.1-6.8-6.8 0-3.8 3-6.8 6.8-6.8h13.4c3.8 0 6.8 3 6.8 6.8 0 3.7-3 6.8-6.8 6.8H804zm53.9 0c-3.7 0-6.7-3.1-6.7-6.8 0-3.8 3-6.8 6.7-6.8h13.5c3.7 0 6.8 3 6.8 6.8 0 3.7-3.1 6.8-6.8 6.8h-13.5zm53.9 0c-3.7 0-6.8-3.1-6.8-6.8 0-3.8 3.1-6.8 6.8-6.8h13.5c3.7 0 6.8 3 6.8 6.8 0 3.7-3.1 6.8-6.8 6.8h-13.5zm54 0c-3.8 0-6.8-3.1-6.8-6.8 0-3.8 3-6.8 6.8-6.8h13.4c3.8 0 6.8 3 6.8 6.8 0 3.7-3 6.8-6.8 6.8h-13.4zm53.8 0c-3.7 0-6.7-3.1-6.7-6.8 0-3.8 3-6.8 6.7-6.8h13.5c3.7 0 6.8 3 6.8 6.8 0 3.7-3.1 6.8-6.8 6.8h-13.5zm54 0c-3.7 0-6.8-3.1-6.8-6.8 0-3.8 3.1-6.8 6.8-6.8h13.5c3.7 0 6.8 3 6.8 6.8 0 3.7-3.1 6.8-6.8 6.8h-13.5zm55.2-1.8c-3.7.8-7.3-1.5-8.1-5.2-.8-3.6 1.5-7.2 5.2-8h0l.4-.1.4-.1.4-.1.4-.2.3-.1.4-.1.4-.1.4-.1.4-.1.3-.2.4-.1.4-.1.4-.2.3-.1.4-.1.3-.2.4-.1.4-.2.3-.1.4-.2.4-.1.4-.2.3-.1.4-.2.4-.2.3-.1.4-.2.4-.2.4-.2.3-.1h0c3.4-1.5 7.4.1 8.9 3.5s-.1 7.4-3.5 8.9h-.1l-.4.2-.4.2-.4.2-.4.2-.4.2-.4.2-.5.2-.4.2-.4.2-.4.2-.5.2-.4.2-.4.2-.4.1-.5.2-.4.2-.4.1-.5.2-.4.2-.4.1-.5.2-.4.1-.4.2-.5.1-.4.1-.5.2-.4.1-.5.1-.4.2h-1.2 0zm48-31.9c-2.2 3-6.4 3.8-9.4 1.6-3.1-2.1-3.8-6.3-1.7-9.4l.2-.3.3-.3.3-.4.2-.3.3-.4.2-.3.3-.4.2-.4.3-.4.2-.4.2-.3.3-.4.2-.3.2-.4.3-.3.2-.4.2-.4.2-.4.3-.3.2-.4.2-.4.2-.4.2-.3.2-.3.3-.4.2-.4.2-.4.2-.3.2-.4.1-.4.2-.3c1.6-3.4 5.6-4.9 9-3.3 3.4 1.6 4.8 5.6 3.3 9l-.2.3-.3.4-.2.4-.3.4-.2.4-.2.4-.3.4-.2.4-.3.4-.3.4-.2.4-.3.4-.3.4-.2.4-.3.4-.3.3-.2.4-.3.4-.3.4-.3.4-.3.4-.3.4-.3.4-.3.4-.3.4-.3.4-.3.4-.3.4-.3.3-.3.4v1.6zm14.7-55c0 3.7-3.1 6.8-6.8 6.8-3.8 0-6.8-3.1-6.8-6.8v-13.5c0-3.7 3-6.8 6.8-6.8 3.7 0 6.8 3.1 6.8 6.8v13.5zm0-53.9c0 3.8-3.1 6.8-6.8 6.8-3.8 0-6.8-3-6.8-6.8V925c0-3.8 3-6.8 6.8-6.8 3.7 0 6.8 3 6.8 6.8v13.4zm0-53.9c0 3.7-3.1 6.7-6.8 6.7-3.8 0-6.8-3-6.8-6.7V871c0-3.8 3-6.8 6.8-6.8 3.7 0 6.8 3 6.8 6.8v13.5zm0-54c0 3.7-3.1 6.8-6.8 6.8-3.8 0-6.8-3.1-6.8-6.8V817c0-3.7 3-6.8 6.8-6.8 3.7 0 6.8 3.1 6.8 6.8v13.5zm0-53.9c0 3.8-3.1 6.8-6.8 6.8-3.8 0-6.8-3-6.8-6.8v-13.4c0-3.8 3-6.8 6.8-6.8 3.7 0 6.8 3 6.8 6.8v13.4zm0-53.9c0 3.7-3.1 6.7-6.8 6.7-3.8 0-6.8-3-6.8-6.7v-13.5c0-3.7 3-6.8 6.8-6.8 3.7 0 6.8 3.1 6.8 6.8v13.5zm0-53.9c0 3.7-3.1 6.8-6.8 6.8-3.8 0-6.8-3.1-6.8-6.8v-13.5c0-3.7 3-6.8 6.8-6.8 3.7 0 6.8 3.1 6.8 6.8v13.5zm0-54c0 3.8-3.1 6.8-6.8 6.8-3.8 0-6.8-3-6.8-6.8v-9l-.1-.4V604l-.1-.4v-.8l-.1-.4v-.4c-.4-3.8 2.4-7 6.1-7.4 3.7-.4 6.9 2.5 7.3 6.1l.1.4v.9l.1.5v.5l.1.5v1.9l.1.5v8.9zm-16.1-54.7c2.3 3 1.7 7.2-1.3 9.4-3 2.3-7.2 1.7-9.4-1.2l-.2-.2-.3-.3-.2-.3-.3-.4-.3-.3-.3-.4-.3-.3-.2-.3-.3-.4-.3-.3-.3-.3-.3-.4-.3-.3-.3-.4-.3-.3-.3-.3-.3-.4-.3-.3-.3-.3-.4-.4-.3-.3-.3-.3-.3-.3-.3-.4-.3-.3-.4-.3-.3-.3-.3-.3-.3-.3-.4-.3-.3-.4h-.1c-2.7-2.5-3-6.8-.4-9.6 2.5-2.7 6.8-3 9.5-.4l.2.1.3.4.4.4.4.4.4.3.3.4.4.4.3.4.3.3.4.3.4.4.4.4.3.4.4.3.3.4.3.4.4.4.4.4.3.4.4.4.3.4.3.3.4.4.3.4.3.3.4.4.3.4.4.4.3.4.3.4.4.4.3.4zm-45-30.5c3.7.7 6.1 4.2 5.4 7.9-.7 3.6-4.2 6.1-7.9 5.4h-.1l-.4-.1-.4-.1-.4-.1h-.4l-.3-.1-.4-.1-.4-.1h-.4l-.4-.1h-.4l-.4-.1h-.4l-.4-.1h-.4l-.4-.1h-.4l-.4-.1h-.8l-.3-.1h-1.5l-.4-.1h-1.6c-3.7 0-6.7-3-6.7-6.8 0-3.7 3-6.8 6.7-6.8h.5l.5.1h2.4l.5.1h.9l.5.1h.5l.5.1h.4l.5.1h.5l.4.1h.5l.5.1.4.1.5.1h.5l.4.1.5.1.5.1.4.1.5.1.4.1.7.1h0zm-51.1-1.4c3.7 0 6.7 3.1 6.7 6.8 0 3.8-3 6.8-6.7 6.8h-13.5c-3.7 0-6.8-3-6.8-6.8 0-3.7 3.1-6.8 6.8-6.8h13.5z"/></g><path class="st5" d="M386.6 22.8c-37.7 0-69.5 24.2-78.4 57-36.8 4-65.3 33.3-65.3 68.8 0 38.3 33.1 69.3 73.9 69.3h189.5c35.2 0 63.7-26.8 63.7-59.8 0-24.6-15.8-45.7-38.5-54.9.1-.4.1-.8.1-1.2 0-23.3-20.2-42.3-45.1-42.3-9.7 0-18.7 2.9-26.1 7.8-12.8-26.4-41-44.7-73.8-44.7zM182.4 207.2c-18.9 0-34.7 12.1-39.2 28.5-18.4 1.9-32.6 16.6-32.6 34.4 0 19.1 16.5 34.6 36.9 34.6h94.8c17.5 0 31.8-13.3 31.8-29.8 0-12.4-7.9-22.9-19.2-27.5v-.6c0-11.7-10.1-21.1-22.5-21.1-4.8 0-9.4 1.4-13.1 3.9-6.4-13.2-20.5-22.4-36.9-22.4z"/></g><path d="M999.3 113.5h-16.7c-.3-6.7-5.8-12.1-12.6-12.1h-10.8c-1.9-7-8.4-12.2-16-12.2H942c-7.7 0-14.1 5.2-16 12.2h-1.1c-6.8 0-12.3 5.4-12.6 12.1h-4.9c-3.5 0-6.3 2.8-6.3 6.3s2.8 6.3 6.3 6.3h91.9c3.5 0 6.3-2.8 6.3-6.3s-2.8-6.3-6.3-6.3zM800.3 249H773c-.5-11-9.6-19.8-20.7-19.8h-17.6c-3.2-11.5-13.7-20-26.3-20h-1.9c-12.5 0-23.1 8.5-26.3 20h-1.7c-11.1 0-20.2 8.8-20.7 19.8h-8c-5.7 0-10.4 4.6-10.4 10.4 0 5.7 4.6 10.4 10.4 10.4h150.5c5.7 0 10.4-4.6 10.4-10.4 0-5.8-4.6-10.4-10.4-10.4z" fill="#b1b2f3"/></svg>