<svg version="1.1" id="Layer_1" xmlns="http://www.w3.org/2000/svg" x="0" y="0" viewBox="0 0 615 445" xml:space="preserve"><style>.st10{fill:none}.st11{fill:#3c415e}.st11,.st12{fill-rule:evenodd;clip-rule:evenodd}.st13{fill:#f67a3c}.st14{fill:#29245d}.st15{fill:#fff}.st19{fill:#333}.st20{fill:#c69c6d}</style><path d="M589.8 311.2c-4.4 16.5-14.6 29.6-22.1 44.4-10.3 20.4-15.1 44.8-14.2 68.8H92c-9.1-10.6-23.8-17.5-31.5-26.5-14.6-17.1-24.3-40.3-29-64.4-7.8-40.6-7.3-96.5 17.3-128.2 14-18.1 37.3-15.1 49.9-35.9 10-16.6 9.4-39.3 15.1-58.2 3.8-12.4 9.9-24 18.8-31.2 7.5-6.1 16.6-8.6 25.5-9.4 14.2-1.3 28.6 1.6 41.7 8.3 13.8 7 27.7 10.2 42.7 10.5 17.2.3 33.4-3.2 50-8.6 16.1-5.2 33.3-7.1 48.1-17.3 21-14.4 36.1-34.1 60.8-38.3 26.5-4.6 56 6.9 74 32.2 12.2 17.1 17.3 39.2 13.5 61.7-2.4 13.9-7.9 29.2.7 41.5 5.7 8.2 14.9 10.8 23.5 11.6 23.2 2.2 43.5 8.1 60.3 30 16.6 21.7 18 42.7 19 71.2.4 12.6.6 25.6-2.6 37.8z" opacity=".22" fill="#c6d1f7"/><path d="M69.3 397.7c1.7-4.7 3.8-9.2 6.5-13.4 7.3-11.3 24.3-18.8 37.7-16.7 9 1.4 16.9 3.5 26.5-1.8 10.6-5.9 18.6-15.5 28.7-22 12.9-8.3 29.1-10.5 43.9-7 25 5.7 39.7 30.3 59.6 44.5 6.6 4.7 16.4 9 24.4 5.5 11.6-5.1 16.7-18.1 28.8-23.4 10-4.3 22.4-4.1 32 1.3 10.1 5.6 17.6 14.6 27.4 20.6 11.5 7.1 24.4 13.6 37.8 15.9 9.4 1.6 19.6.8 28.3-3.4 18.1-8.8 20.1-33.2 40.9-40 8.8-2.9 19.2-1.6 26 4.7 5.3 4.9 7.8 12 10 18.8 2.2 6.8 4.6 13.9 9.6 19 11.9 11.9 21.3-1.4 33.9-1.7 19.2-.5 21.2 27.1 36.1 34.4H63.2l.2-5c.5-10.3 2.3-20.6 5.9-30.3z" opacity=".5" fill="#bcc8f7"/><path d="M615 446H0c.2-10.6.7-12.2 1.1-13.2 5.7-16.5 13-34.2 24.9-40.8 5.6-3.1 12.2-2.9 17.6 1.1 5.4 4.1 7.6 16.7 13.1 19 3.3 1.4 6.6-2 9-5.7 8.2-12.5 15.6-28 28.7-22.9 6.8 2.7 12.3 10.3 18.1 16.7 9.9 10.9 23 10.9 31.6-3.2 4.1-6.6 6.9-14.8 10.1-22.4 8.4-19.7 20.7-34.7 33.7-46.4 11.3-10.3 24.2-17.7 37.3-11.4 15.7 7.5 32 59.1 50.6 42.9 10.9-9.5 13.6-33.2 22.4-46.4 5.4-8.2 12.9-13.1 20.4-13.4 7.6-.4 15.2 3.9 20.9 11.6 10.8 14.7 13.6 38.8 21 58 5 13 12.5 21.7 22.4 15.1 8.7-5.8 14.4-19 23-25.3 9.5-6.9 22.8 2.7 28.9 14.8 2.3 4.6 3.7 10.2 6.4 14 5.4 7.7 11.2 5 16.1-2.1 8.9-12.7 22.1-22.1 34.3-16.4 6.9 3.2 11.7 11.6 16.8 18.9 1.5 2.2 3.1 4.2 4.8 6 2.4 2.6 5 4.8 7.8 6.1 3 1.3 5.9 1.1 8.9-.1 4.6-1.8 9.1-3.5 13.6-5.6 5.8-2.6 11.9-3.2 17.8-1.9 2.3.6 4.7 1.3 6.7 3.5 1.7 1.9 3 5.5 3.9 8.4 1.9 6.5 2.5 13.7 4.4 20.1 1.7 5.7 4.8 11.1 9.1 7.8 1.9-1.5 3.5-3.6 5.3-5.4 1.8-1.7 3.8-2.7 5.9-3.1 4.2-.7 8.5 1.1 11.5 6 2.4 4.9 4.4 10.7 6.9 15.7 0-.1 0 0 0 0z" fill="#a7b3d8"/><path d="M484.6 30.3h-14.2c-.3-5.7-5-10.3-10.8-10.3h-9.2c-1.6-6-7.1-10.4-13.6-10.4h-1c-6.5 0-12 4.4-13.6 10.4h-.9c-5.8 0-10.5 4.6-10.8 10.3h-4.2c-3 0-5.4 2.4-5.4 5.4 0 3 2.4 5.4 5.4 5.4h78.2c3 0 5.4-2.4 5.4-5.4.1-3-2.3-5.4-5.3-5.4zm-286.1-1h-16.7c-.3-6.7-5.8-12.1-12.6-12.1h-10.8c-1.9-7-8.4-12.2-16-12.2h-1.2c-7.7 0-14.1 5.2-16 12.2h-1.1c-6.8 0-12.3 5.4-12.6 12.1h-4.9c-3.5 0-6.3 2.8-6.3 6.3s2.8 6.3 6.3 6.3h91.9c3.5 0 6.3-2.8 6.3-6.3 0-3.4-2.8-6.3-6.3-6.3zm391.3 90.9h-8.4c-.2-3.4-2.9-6.1-6.3-6.1h-5.4c-1-3.5-4.2-6.1-8-6.1h-.6c-3.8 0-7.1 2.6-8 6.1h-.5c-3.4 0-6.2 2.7-6.3 6.1h-2.5c-1.8 0-3.2 1.4-3.2 3.2 0 1.8 1.4 3.2 3.2 3.2h46.1c1.8 0 3.2-1.4 3.2-3.2-.1-1.8-1.5-3.2-3.3-3.2zM86.7 109.8H74.3c-.2-5-4.3-9-9.4-9h-8c-1.4-5.2-6.2-9.1-11.9-9.1h-.9c-5.7 0-10.5 3.9-11.9 9.1h-.8c-5.1 0-9.2 4-9.4 9h-3.6c-2.6 0-4.7 2.1-4.7 4.7s2.1 4.7 4.7 4.7h68.3c2.6 0 4.7-2.1 4.7-4.7s-2.1-4.7-4.7-4.7z" fill="#b1b2f3"/><path class="st10" d="M478.7 255.8l.4-.5.3-.4.6-.7c.4-.5.7-.9 1.1-1.3.7-.9 1.4-1.8 2-2.6 1.3-1.8 2.6-3.6 3.8-5.4 2.4-3.6 4.6-7.4 6.6-11.3l-23.1-11.9c-1.6 3-3.3 6-5.2 8.9-.9 1.4-1.9 2.8-2.9 4.2-.5.7-1 1.3-1.5 2l-.8.9-.4.4-.2.3 19.3 17.4z"/><path class="st11" d="M478.2 232.6l2.2 1.3c-.2.4.5-.8 2.2-3.8l-2.3-1.2c-.7 1.2-1.4 2.5-2.1 3.7zm-4.2 6.5l2.1 1.5c.8-1.2 1.6-2.4 2.4-3.7l-2.2-1.4c-.7 1.2-1.5 2.4-2.3 3.6z"/><path class="st12" d="M469.4 245.2l2 1.6c.9-1.1 1.8-2.3 2.7-3.5l-2.1-1.5c-.8 1.2-1.7 2.3-2.6 3.4z"/><path class="st10" d="M493.4 233.7c2-3.9 3.8-7.9 5.3-12.2 1.5-4.2 2.8-8.6 3.7-13.1l-25.5-5.1c-1.2 6.2-3.6 12.5-6.7 18.5l23.2 11.9z"/><path class="st11" d="M487.4 211.5l2.5.7.6-2.1c.2-.7.4-1.4.5-2.2l-2.5-.6c-.2.7-.3 1.4-.5 2.1l-.6 2.1zm-2.5 7.3l2.4 1c.3-.7.5-1.4.8-2.1.2-.7.5-1.4.7-2.1l-2.5-.8c-.2.7-1.5 3-1.8 3.7-.1.6.7-.4.4.3zm-3.1 7l2.4 1.1-.1-.3 1.9-3.7-2.4-1-.8 1.9z"/><path class="st10" d="M502.5 208.4c.2-1.1.4-2.3.6-3.4.1-.6.2-1.1.3-1.7l.2-1.7c.2-1.1.2-2.4.3-3.7.1-.6 0-1.3.1-1.9v-2l-.1-2c0-.3 0-.7-.1-1l-.1-1-.1-1c0-.3-.1-.7-.2-1.1-.1-.7-.3-1.4-.4-2.1 0-.2-.1-.4-.1-.5l-.1-.5-.3-1.1-.3-1.1c-.1-.4-.3-.7-.4-1.1-.3-.7-.5-1.5-.8-2.2-.3-.7-.7-1.4-1-2.1l-23 12.1c.1.2.2.3.2.5.1.2.1.4.2.6 0 .1.1.2.1.3 0 .1.1.2.1.3 0 .1.1.2.1.3l.1.2v.2c0 .2.1.5.1.7 0 .1 0 .3.1.4v.4l.1.4v3.3l-.1 1v.5l-.1.6-.1 1.2c-.1.4-.1.8-.2 1.2-.1.8-.3 1.5-.4 2.3l25.3 4.7z"/><path class="st11" d="M489.4 188.9l2.5-.5-.1-.6-.2-.6-.3-1.1c-.1-.4-.2-.7-.4-1.1l-.4-1.1-2.4 1 .4 1c.1.3.3.6.3 1l.3 1 .1.5.2.5zm.6 7.5l2.6.1v-2.3c0-.8-.1-1.5-.1-2.3l-2.6.2c.1.7.1 1.4.1 2.1v2.2zm-.8 7.6l2.6.4.3-2.2c.1-.7.2-1.5.3-2.2l-2.6-.3-.3 2.1-.3 2.2z"/><path class="st10" d="M499.8 177c-1.5-2.8-3.4-5.4-5.5-7.7-.5-.6-1.1-1.1-1.6-1.6-.3-.3-.6-.5-.8-.8l-.9-.7-.9-.7c-.3-.2-.6-.5-.9-.7-.6-.4-1.2-.8-1.7-1.2-.1-.1-.3-.2-.4-.3l-.4-.3-.9-.5c-.6-.3-1.2-.7-1.8-1l-1.8-.9-.4-.2-.4-.2-.9-.4c-.6-.2-1.2-.5-1.7-.7l-1.7-.7-.9-.3c-.3-.1-.6-.2-.8-.3l-1.7-.6L466 182l1.1.4c.2.1.4.1.5.2l.5.2 1 .4c.3.1.6.3.9.4l.5.2.2.1.2.1.8.4c.3.1.5.3.8.4l.4.2.2.1c.1 0 .1.1.2.1.2.2.4.3.7.5.1.1.2.1.3.2l.3.2.3.2.2.2c.1.2.3.3.5.4.5.6.9 1.2 1.3 1.8l22.9-11.7z"/><path class="st11" d="M475.1 172.7l1.1-2.4c-1.4-.6-2.8-1.1-4.2-1.6l-.8 2.5c1.2.5 2.6 1 3.9 1.5zm6.5 3.8l1.6-2.1c-.3-.3-.6-.5-.9-.7l-.9-.7c-.3-.2-.6-.4-1-.6l-1-.6-1.3 2.3.9.5c.3.2.6.3.9.6l.9.6c.2.3.5.5.8.7zm5 5.5l2.2-1.4c-.2-.3-.4-.7-.7-1l-.7-.9c-.2-.3-.5-.6-.8-.9-.3-.3-.5-.6-.8-.9l-1.9 1.8c.2.2.5.5.7.8.2.3.5.5.7.8l.6.8c.3.3.5.6.7.9z"/><path class="st10" d="M473.6 157.4c-4.5-1.4-8.8-2.3-13.1-3-4.2-.7-8.4-1.2-12.5-1.6l-2.4 25.9c3.6.3 7.2.8 10.6 1.4 3.4.6 6.7 1.3 9.7 2.2l7.7-24.9z"/><path class="st11" d="M452.7 167.2l.3-2.6c-1.4-.2-2.9-.3-4.3-.5l-.3 2.6c1.5.2 2.9.4 4.3.5zm7.7 1.2l.5-2.6-2.2-.4c-.7-.1-1.4-.2-2.2-.3l-.4 2.6 2.1.3 2.2.4zm7.4 1.8l.7-2.5c-1.4-.4-2.9-.7-4.3-1.1l-.6 2.5c1.5.3 2.9.7 4.2 1.1z"/><path class="st10" d="M448 152.7c-8.2-.8-16.3-1.1-24.3-1.3l-.5 26c7.6.2 15.1.5 22.4 1.2l2.4-25.9z"/><path class="st11" d="M429.5 165.5l.1-2.5-2.2-.1-2.1-.1-.1 2.6 2.2.1zm7.8.4l.1-2.6c-1.5-.1-2.9-.1-4.4-.2l-.1 2.6c1.5 0 2.9.1 4.4.2zm7.7.5l.2-2.6c-1.5-.1-2.9-.2-4.4-.3l-.2 2.6c1.5.1 2.9.2 4.4.3z"/><path class="st10" d="M423.8 151.5l-5.8-.1c-1.9-.1-3.8-.1-5.7-.2-1.9-.1-3.8-.2-5.7-.2-1.9-.1-3.8-.2-5.6-.3l-1.8 25.9c2 .1 4 .2 6.1.4l6 .3c2 .1 4 .1 6 .2l5.9.1.6-26.1z"/><path class="st11" d="M406.2 164.8l.1-2.6-4.3-.2-.2 2.6zm7.8.3v-2.6l-4.3-.1-.1 2.6zm7.7.2l.1-2.6c-1.4 0-2.9-.1-4.3-.1l-.1 2.6c1.4.1 2.9.1 4.3.1z"/><path class="st10" d="M401.1 150.6c-3.7-.3-7.4-.6-10.9-1-3.6-.4-7-1-10.2-1.7l-5.8 25.3c4.4 1 8.7 1.6 12.8 2.2 4.2.5 8.3.8 12.3 1.1l1.8-25.9z"/><path class="st11" d="M382.8 162.6l.4-2.6c-.7-.1-1.4-.2-2.1-.4l-1-.2-1-.2-.5 2.5 1.1.2 1.1.2c.6.2 1.3.4 2 .5zm7.8 1l.3-2.6-2.2-.2-2.1-.3-.3 2.6 2.1.3zm7.7.7l.2-2.6c-1.4-.1-2.9-.2-4.3-.4l-.2 2.7c1.4.1 2.9.2 4.3.3z"/><path class="st10" d="M379.9 147.9c-1.6-.4-3.1-.8-4.4-1.2l-.5-.2-.3-.1-.2-.1-.9-.4c-.2-.1-.3-.1-.4-.2l-.4-.2-.4-.2c-.1-.1-.2-.1-.4-.2l-.4-.2c-.1-.1-.3-.1-.3-.2-.2-.1-.4-.2-.6-.4-.2-.1-.3-.2-.5-.3l-.1-.1-.1.1c-.1-.1-.1-.1-.2-.1-.4-.4-.5-.6-.6-.8L346 154.9l.6 1.2c.2.4.5.8.7 1.2.2.4.5.8.8 1.1.3.4.5.7.8 1.1.3.4.6.7.8 1 .3.3.6.6.9 1 .6.6 1.2 1.3 1.8 1.8l.9.8.5.4c.2.1.3.2.5.4.6.5 1.3.9 1.9 1.4.6.4 1.3.8 1.9 1.2.3.2.6.4.9.5l.9.5c.3.2.6.3.9.5l.9.4.9.4c.3.1.6.3.9.4l1.8.7.4.2.4.1.9.3c2.3.8 4.6 1.4 6.8 1.9l6.1-25.5z"/><path class="st11" d="M360.7 154.4l1.7-2c-.5-.4-.9-.9-1.4-1.4-.2-.2-.4-.5-.6-.8l-.3-.4c-.1-.1-.2-.3-.3-.4l-2.2 1.4c.1.2.2.3.3.5l.4.5c.2.3.5.6.7.9.6.6 1.1 1.2 1.7 1.7zm6.9 4.1l1-2.4c-.6-.3-1.3-.5-1.9-.9l-.9-.5c-.3-.2-.6-.3-.9-.5l-1.4 2.2c.3.2.6.4 1 .6l1 .5c.7.5 1.4.7 2.1 1zm7.5 2.5l.6-2.5c-.7-.2-1.4-.4-2-.6-.7-.2-1.3-.4-2-.6l-.8 2.5c.7.2 1.4.5 2.1.7.7.1 1.4.4 2.1.5z"/><path class="st10" d="M369.2 143.1c-.1-.2-.2-.5-.3-1.2 0-.2 0-.4-.1-.6v-2.2c.1-.4.1-.7.2-.9.1-.2.1-.3.1-.3L353.6 117c-3.1 2.3-5.7 5.3-7.5 8.8-.2.4-.4.9-.6 1.3-.2.4-.4.9-.5 1.3-.2.4-.3.9-.5 1.3-.1.4-.3.9-.4 1.3-.5 1.7-.8 3.3-1 4.8l-.1 1.1v1.1l-.1 1.1v3.2c0 .8.1 1.6.2 2.4l.1.6.1.6.2 1.2c.1.8.4 1.7.6 2.5.1.4.2.8.4 1.3.2.4.3.8.5 1.3.2.4.3.8.5 1.2l.6 1.2 23.1-11.5z"/><path class="st11" d="M356.7 131.8l2.3 1.2c.5-1.1 1.3-2.2 2.2-3l-1.8-1.9c-1.1 1-2 2.3-2.7 3.7zm-1.8 7.9l2.6.1c0-1.4.2-2.7.5-4l-2.5-.6c-.4 1.5-.5 3-.6 4.5zm1.1 8l2.4-.9-.2-.4-.1-.5-.3-.9-.2-1c0-.2-.1-.3-.1-.5v-.5l-2.6.3.1.6c0 .2.1.4.1.6l.2 1.1c.1.4.2.7.3 1.1l.2.6.2.4z"/><path class="st10" d="M369.2 138.1c0-.1 0-.1 0 0 0 0 .1 0 .1-.1h.1c.2-.1.5-.2.8-.3.4-.1.8-.2 1.4-.3.5-.1 1.1-.2 1.7-.2 1.3-.1 2.7-.1 4.2 0s3.1.2 4.8.5l3.4-25.8c-2.2-.3-4.5-.5-6.8-.6-2.4-.1-4.8-.1-7.4 0-1.3.1-2.7.2-4.1.5-1.4.2-2.9.5-4.3 1-1.5.4-3.1 1-4.6 1.7l-.6.3-.6.3c-.4.2-.8.4-1.2.7-.4.2-.8.5-1.2.7-.4.3-.8.5-1.2.8l15.5 20.8z"/><path class="st11" d="M378.1 123.2l-.1 2.6 4.2.3.3-2.6c-1.5-.1-3-.2-4.4-.3zm-7.9.3l.3 2.6c1.4-.2 2.7-.3 4.1-.3v-2.6c-1.5 0-3 .1-4.4.3zm-7.7 2.4l1.3 2.3c1.1-.6 2.4-1.1 3.6-1.4l-.7-2.5c-1.5.3-2.9.8-4.2 1.6z"/><path class="st10" d="M382.4 137.6c3.3.4 6.8 1.1 10.4 1.9 3.6.8 7.2 1.7 11 2.6l6.3-25.2c-3.8-1-7.7-1.9-11.7-2.8-4-.9-8.2-1.7-12.6-2.3l-3.4 25.8z"/><path class="st11" d="M401.2 127.2l-.6 2.5 4.2 1 .7-2.5zm-7.6-1.8l-.5 2.5 4.2.9.6-2.5c-1.4-.2-2.8-.6-4.3-.9zM386 124l-.4 2.6c1.4.2 2.8.5 4.2.7l.5-2.6c-1.5-.2-2.9-.4-4.3-.7z"/><path class="st10" d="M403.7 142.1l5.8 1.4.7.2.4.1.6.1c.7.2 1.5.3 2.2.4.8.1 1.5.2 2.3.3.8.1 1.6.1 2.4.1 3.2.1 6.5-.3 9.6-1.2 3.1-.9 6.1-2.3 8.7-3.9l-13.8-22c-.7.4-1.4.7-2 .9-.6.2-1.2.2-1.9.2-.3 0-.8-.1-1.2-.1-.2-.1-.4-.1-.7-.1h-.2l-.3-.1-.7-.2-5.6-1.4-6.3 25.3z"/><path class="st11" d="M423.6 130.3l.7 2.5c.4-.1.7-.2 1.1-.3.4-.1.7-.2 1.1-.4l1.1-.5c.4-.2.7-.3 1-.5l-1.2-2.3c-.3.2-.6.3-.9.5l-1 .4c-.3.1-.6.2-1 .3-.2 0-.5.2-.9.3zm-7.3.4l-.3 2.6 1.2.1h2.4l1.2-.1-.2-2.6-1 .1h-2.1l-1.2-.1zm-7.5-1.6l-.6 2.5 4.2 1 .6-2.5z"/><path class="st10" d="M436.3 139.7c2.6-1.6 4.8-3.5 6.8-5.5s3.7-4 5.2-6.1c1.5-2.1 2.8-4.2 4-6.4.6-1.1 1.1-2.2 1.6-3.3.1-.3.3-.6.4-.9.1-.3.3-.6.4-.9.1-.3.2-.6.4-.9l.2-.5.1-.3.1-.4-24.6-8.4v-.1.1l-.1.2-.2.4c-.1.1-.1.3-.2.5s-.1.3-.2.5c-.3.6-.6 1.3-.9 1.9-.7 1.2-1.4 2.4-2.2 3.5-1.5 2.1-3.2 3.8-4.6 4.6l13.8 22z"/><path class="st12" d="M439.9 115.4l2.3 1.2c.7-1.3 1.4-2.7 1.9-4.1l-2.4-1c-.6 1.4-1.2 2.6-1.8 3.9z"/><path class="st11" d="M435.7 121.7l2 1.6c1-1.2 1.8-2.4 2.6-3.7l-2.2-1.4c-.7 1.3-1.5 2.4-2.4 3.5zm-5.4 5.3l1.5 2.1c1.2-.9 2.4-1.9 3.5-3l-1.8-1.8c-1 .9-2.1 1.8-3.2 2.7z"/><path class="st13" d="M430.2 94.6l7.4 8.1 44.7-14.3-52.1 6.2z"/><path class="st14" d="M440.1 119.9l-2.4-17.2 44.7-14.3-37.8 21.3-4.5 10.2z"/><path class="st13" d="M457 121.7l-12.5-12 37.8-21.3-25.3 33.3z"/><path class="st15" d="M184 213.1h271v166.8H184z"/><path class="st13" d="M451.8 192.2H187.1c-13.2 0-24 10.7-24 23.9v189.7c0 2.9 2.3 5.2 5.2 5.2h302.2c2.9 0 5.2-2.3 5.2-5.2V216.2c.1-13.2-10.7-24-23.9-24zM184 374.6V218.3c0-2.9 2.3-5.2 5.2-5.2h260.5c2.9 0 5.2 2.3 5.2 5.2v156.3c0 2.9-2.3 5.2-5.2 5.2H189.2c-2.9 0-5.2-2.3-5.2-5.2z"/><path class="st14" d="M481 400.7H157.9c-2.9 0-5.2 2.3-5.2 5.2 0 11.5 9.4 20.9 20.9 20.9h291.8c11.5 0 20.9-9.4 20.9-20.9-.1-2.9-2.4-5.2-5.3-5.2z"/><path d="M298.6 411.1h41.7c5.8 0 10.4-4.7 10.4-10.4h-62.5c0 5.7 4.7 10.4 10.4 10.4z" fill="#0096e2"/><path class="st14" d="M232.1 327.6l-12-50.3h10.4l7.6 34.6 9.2-34.6h12.1l8.8 35.1 7.7-35.1h10.2l-12.2 50.3h-10.8l-10-37.6-10 37.6h-11zm66.4 0l-12-50.3h10.4l7.6 34.6 9.2-34.6h12.1l8.8 35.1 7.7-35.1h10.2l-12.2 50.3h-10.8l-10-37.6-10 37.6h-11zm66.3 0l-12-50.3h10.4l7.6 34.6 9.2-34.6h12l8.8 35.1 7.7-35.1h10.2l-12.2 50.3h-10.8l-10-37.6-10 37.6h-10.9z"/><path fill="#a67c52" d="M90.3 333l-2.2-3.3v-10.1h7.8v12.3l-2.2 4.5z"/><path d="M105.7 286.1l-3 24.1-6.6 13.9c-1.8 1-6.9 1.5-9.1.5-.7-.3-1.2-.7-1.4-1l-9.3-14.5-5.4-24.7-4.2 1.2 2.6 24.3c.3 2.7 1.1 5.2 2.4 7.5l7 12.2c-5.4 14.5-9.1 40.4-9.1 40.4l25.9-1.2c5-18.4 8.8-31.3 8-39.1l5-12.7c1.3-2.5.9-5.2 1.1-8l1-28.3-4.9 5.4z" fill="#0172d0"/><path class="st14" d="M69.5 370l-7.1 16.8c-.5 1.2-.8 2.5-2.6 5.5l-25.2 19.3 3 7.2 28-18.1c1-1.1 2.2-2.1 3.5-3 .7-.5 1.3-1.1 1.8-1.7l11.8-14 18.5 4.9c1.3.4 2.5 1.1 3.4 2.2l16.8 21.3 4.8-4.2-14.4-25.5c-.8-1.5-2-2.7-3.4-3.6l-12.9-8.3-26 1.2z"/><path class="st19" d="M35.9 410.9l-3.3 1.5c-1.3.6-2.1 1.8-2.1 3.2v12.9c0 1.3 1.7 1.7 2.3.6l6.1-10.9-3-7.3zm85.5-.5l3.8 3.8c1.2 1.2 3.2 1.2 4.4 0l8.9-9.3c1-1 0-2.7-1.4-2.3l-12.2 3-3.5 4.8z"/><path class="st20" d="M98.3 320.9c-1.2 1.1-2.9 1.5-4.5 1.3-3.3-.5-8.8-2-10.2-6.7-2-6.9 3.9-12.8 6.9-13.8 2.9-1 9.8 0 10.8 7.9.9 6.8.3 8.5-3 11.3z"/><path class="st19" d="M96.5 306.4s1.7-.5 3.6-1.6c2.7-1.6 1.8-5.8-1.4-6-.8 0-1.5-.2-2.2-.5-3.9-1.9-10.8-1.9-12.8 3.1 0 0-2.9 0-3.9 3.7s1.4 9.2 4.6 12.1c0 0-1.2-5.5.8-8s2.9 2.9 2.9 2.9-.5-4.5 8.4-5.7z"/><path class="st20" d="M66.3 285.9l-.1-3.6.2-4c0-.7.8-1.1 1.5-.8 1.2.5 2.8 1.6 3.6 3.3 1.3 3-.1 4.9-.1 4.9l-5.1.2zm39.3 0l-.1-3.6.2-4c0-.7.8-1.1 1.5-.8 1.2.5 2.8 1.6 3.6 3.3 1.3 3-.1 4.9-.1 4.9l-5.1.2z"/><circle transform="rotate(-14.76 90.193 240.366)" cx="90.2" cy="240.3" fill="#050d5b" r="45.6"/><path class="st13" d="M126.8 237.1c-3.8 0-6-6.3-4-11.3 1.9-5 4.4-3 4.4-4.9 0-1.8-2.8-1.6-3.6-4-.8-2.4 1.2-6.5 1.2-6.5 5.6 6.4 9.4 14.5 10.6 23.6 0 .1-4.9 3.1-8.6 3.1zm-29.7-34.2c3.2 5.6 5.5 1.1 7.2-1 1.7-2 7.1-1.9 7.1-1.9-4.7-2.5-9.9-4.2-15.4-4.9.1 0-2 2.1 1.1 7.8zm-40.8 16.9c1.2 1.8 1.5 6.1 6.9 11 1.9 1.7 6 2.1 8.5 5.3 2.4 3.1 3.9 3.2 5.9 3.5 2 .2 4.5-2 6.3.6 1.9 2.6 3.8 3.5 4.1 2.6.3-.9-2.2-4.3-4.4-5-2.2-.7-4.2.6-6-1.3-1.8-1.9.6-4.4 2-5.2 1.4-.8 4.4-.9 5.2-.1.8.8 1.8 1.9 2.8 1.6.9-.3-1.1-2.1-1.3-4.8-.2-2.6 4.3-7.8 8.3-12.5 4-4.7-.8-5.6-6.6-7.6-5.9-2-2.7 4-3.4 5.1-.7 1.1-4.2 1.4-7.4.2-3.1-1.2-3.2-3.8-.7-6.3s3.2-4.4.3-4.1c-2.9.2-10.3 4.2-11.1 2.8-.9-1.4 2.9-3.1 7.2-5.4 4.3-2.2 10.6-.1 12.2 1.7 1.6 1.7 4.1 4.4 5.2 3.2 1.1-1.1 3.5-3-2.7-5.3s-3.4-4.6-3.4-4.6c-13.5 1.9-24.9 9.5-31.9 20.1-.2-.1 2.8 2.7 4 4.5zM90.7 251c1.5 3.6 5.3 4.2 6.4 5.9 1.1 1.7.8 9.1.6 11.6-.2 2.5-1.7 7 1.4 10.2 3.1 3.2 3.8.3 3.8.3-2.3-1-2.2-3-1.7-6.3.5-3.4 2.9-5.3 4.7-7.6 1.8-2.2 5.3-9.3 7.2-13.6 1.9-4.4 0-6.2-3.9-6.5-3.8-.3-4.3-1.1-7-2.8-2.7-1.8-7.6-1.6-7.6-1.6-4.7-.7-5.4 6.8-3.9 10.4z"/><path class="st15" d="M319.8 145.2c7.4 0 13.4 6 13.4 13.4s-6 13.4-13.4 13.4-13.4-6-13.4-13.4 6-13.4 13.4-13.4zm39.9-25.8c-1.7 0-3.4-.6-4.6-1.9-9.4-9.6-22.2-14.9-35.6-14.9-13.4 0-26.2 5.2-35.6 14.6-2.5 2.5-6.7 2.5-9.2 0-2.5-2.5-2.5-6.7 0-9.2 12-11.9 28.1-18.6 45.1-18.6s32.9 6.7 45 18.7c2.5 2.5 2.5 6.7 0 9.2-1.6 1.3-3.4 2.1-5.1 2.1z"/><path class="st15" d="M377.7 100c-1.7 0-3.4-.6-4.6-1.9-14.5-14.3-33.3-22.2-53.6-22.2-20.3 0-39.2 7.9-53.7 22.2-2.5 2.5-6.7 2.5-9.2 0-2.5-2.5-2.5-6.7 0-9.2 16.8-16.8 39.2-26 62.9-25.9 23.7 0 46.1 9.2 62.8 26 2.5 2.5 2.5 6.7 0 9.2-1.2 1.1-2.9 1.8-4.6 1.8zm-34.2 39.3c-1.7 0-3.4-.6-4.6-1.9-5.2-5.2-12.1-8-19.5-8-7.3 0-14.3 2.9-19.5 8-2.5 2.5-6.7 2.5-9.2 0-2.5-2.5-2.5-6.7 0-9.2 7.8-7.7 17.8-11.9 28.7-11.9 10.9 0 21 4.2 28.7 12 2.5 2.5 2.5 6.7 0 9.2-1.2 1.2-2.9 1.8-4.6 1.8z"/><path fill="#233b78" d="M518.2 378.2L531 427h38.7l11.8-48.8z"/><path class="st13" d="M580.3 318.8c0-5.1-2.5-9.9-6.8-12.7 4.6-5.8 3.7-14.2-2.1-18.8-2.4-1.9-5.3-2.9-8.4-2.9h-.6c2.1-7.1-1.9-14.6-9-16.7-7.1-2.1-14.6 1.9-16.7 9-.8 2.5-.8 5.2 0 7.8h-.6c-7.4 0-13.4 6-13.4 13.4 0 3 1 6 2.9 8.4-7 4.7-8.9 14.3-4.2 21.3 1.1 1.6 2.5 3.1 4.2 4.2-4.6 5.8-3.7 14.2 2.1 18.8 2.4 1.9 5.3 2.9 8.4 2.9H563c7.4 0 13.4-6 13.4-13.4 0-3-1-6-2.9-8.4 4.2-3 6.8-7.8 6.8-12.9z"/><path class="st14" d="M564.4 309.8c-.7-.7-2-.7-2.7 0l-10.1 10.1V292c0-1.1-.9-1.9-1.9-1.9s-1.9.9-1.9 1.9v13.6l-8.7-8.7c-.8-.7-2-.7-2.7 0-.7.7-.7 1.9 0 2.7l11.4 11.4v26.2l-8.2-8.2c-.8-.7-2-.7-2.7 0-.7.7-.7 1.9 0 2.7l10.9 10.9v35.6c0 1.1.9 1.9 1.9 1.9s1.9-.9 1.9-1.9v-53c.1-.1.3-.2.4-.3l12.5-12.5c.6-.7.6-1.9-.1-2.6z"/><path class="st14" d="M582.2 380.1H517c-1.1 0-1.9-.9-1.9-1.9s.9-1.9 1.9-1.9h65.1c1.1 0 1.9.9 1.9 1.9s-.8 1.9-1.8 1.9z"/></svg>