<svg version="1.1" id="Layer_1" xmlns="http://www.w3.org/2000/svg" xmlns:xlink="http://www.w3.org/1999/xlink" x="0" y="0" viewBox="0 0 923.3 624.1" xml:space="preserve"><style>.st1{opacity:.25}.st7{fill:#5ebeff}.st7,.st8,.st9{fill-rule:evenodd;clip-rule:evenodd}.st8{fill:#102b6e}.st9{fill:#fff}.st12{fill:#00adee}.st12,.st13,.st14,.st15,.st16,.st17{fill-rule:evenodd;clip-rule:evenodd}.st13{fill:#00a551}.st14{fill:#ec1c24}.st15{fill:#1a47b6}.st16{fill:#092978}.st17{fill:#3dabf9}.st24,.st25{fill-rule:evenodd;clip-rule:evenodd;fill:#f7941f}.st25{fill:#f9c4c7}.st26{fill:#630}.st27{fill-rule:evenodd;clip-rule:evenodd;fill:#d4ecfd}.st30{fill:#dff2fc}.st30,.st34{fill-rule:evenodd;clip-rule:evenodd}.st34,.st35{fill:#8dd7f7}.st36{fill:#0164a5}</style><clipPath id="SVGID_3_"><use xlink:href="#SVGID_1_" overflow="visible"/></clipPath><clipPath id="SVGID_4_" clip-path="url(#SVGID_3_)"><use xlink:href="#SVGID_2_" overflow="visible"/></clipPath><g class="st1"><defs><path id="SVGID_5_" class="st1" d="M142.1 463.3H94.2c-41.2 0-74.8 36.9-74.8 82.1 0 45.1 33.7 82.1 74.8 82.1h696.3c66.6 0 121.2-59.8 121.2-132.9 0-73.1-54.5-132.9-121.2-132.9-28.2 0-53.7-25.3-53.7-56.2 0-30.9 23.1-56.2 51.2-56.2h29c29.3 0 53.3-26.3 53.3-58.4 0-32.1-24-58.4-53.3-58.4h-82.6c-11.4 0-20.7-10.2-20.7-22.7s9.3-22.7 20.7-22.7h13.7c7.9 0 14.3-7.1 14.3-15.7s-6.4-15.7-14.3-15.7l-45.2-8s-19.8 0-40.4 8c-17.7 6.9-21.1 24.6-69.1 24.6H490.3c-10.3 0-18.7 9.2-18.7 20.5s8.4 20.5 18.7 20.5h17.9c14.9 0 27.1 13.4 27.1 29.7 0 16.3-12.2 29.7-27.1 29.7h-27c-72.9 0-83.2 20.9-95.9 62.4-12.8 41.5-107.7 44.9-107.7 44.9H137.4c-22.4 0-40.8 20.1-40.8 44.7s18.3 44.7 40.8 44.7h4.7c21.6 0 39.2 19.4 39.2 43 0 23.5-17.7 42.9-39.2 42.9zm625.7-349.2c-7.3 0-13.2-6.5-13.2-14.4 0-8 5.9-14.5 13.2-14.5 7.3 0 13.2 6.5 13.2 14.5-.1 7.9-6 14.4-13.2 14.4z"/></defs><clipPath id="SVGID_6_"><use xlink:href="#SVGID_5_" overflow="visible"/></clipPath><linearGradient id="SVGID_7_" gradientUnits="userSpaceOnUse" x1="459.836" y1="955.357" x2="459.836" y2="-37.23"><stop offset="0" stop-color="#014cda"/><stop offset=".006" stop-color="#034dda"/><stop offset=".289" stop-color="#5589e7"/><stop offset=".539" stop-color="#95b8f1"/><stop offset=".749" stop-color="#c4daf9"/><stop offset=".908" stop-color="#e1effd"/><stop offset="1" stop-color="#ecf7ff"/></linearGradient><path clip-path="url(#SVGID_6_)" fill="url(#SVGID_7_)" d="M4.5 24.9h910.8v579.6H4.5z"/></g><path d="M779.7 606.7s-23.4-10.7-20-27.2c3.5-16.5 22.5-14.8 20-27.8-2.6-13-15.1-33.3-2.9-48.1 12.2-14.8 32.4-5.9 34.9-28.8 2-18.5 10.6-31.5 27.1-27.7 15.3 3.5 26.7 15.4 27 43.6.3 30 21.4 21.6 21.7 43.7.3 22.3-17.5 22.3-24.4 37.2-3.3 7.1 5.3 31.8-19.9 35.2h-63.5z" fill="#34b463"/><path d="M836.3 459.1s.1.5.1 1.5c.3 3 .8 10.1.8 20.2 0 29.3-4.6 82.9-33.8 125.7-.4.6-.3 1.4.3 1.8.6.4 1.4.2 1.8-.3 29.7-43.5 34.3-97.5 34.3-127.1 0-13.5-1-21.9-1-22-.1-.7-.7-1.2-1.4-1.1-.7 0-1.2.6-1.1 1.3" fill="#24914a"/><path d="M807.9 606.7s-3.7-20.4 10.1-28.7 27.9-14.7 26.4-28.1c-1.5-13.4 2.2-29.1 24.4-29.4 13.7-.2 8.6-14.6 22.5-17.5 8.5-1.8 14 7.1 15.1 15.7 1.2 9.9-4.4 19.6 2.1 27.6 8.3 10.4 11.7 29.8-6.2 35.4-17.9 5.5-1.9 22.5-26.3 25h-68.1z" fill-rule="evenodd" clip-rule="evenodd" fill="#a2c769"/><path d="M890.4 512.7c-.5 13-6.2 31.4-16.1 49.1-9.8 17.6-23.8 34.4-40.4 44.4-.6.4-.8 1.1-.4 1.8.4.6 1.1.8 1.8.4 17.2-10.2 31.3-27.4 41.3-45.3 10-17.9 15.9-36.6 16.4-50.2 0-.7-.5-1.3-1.2-1.3-.8-.2-1.4.4-1.4 1.1" fill="#00a551"/><path class="st7" d="M706.2 277.8l3.7 7c1.5 2.9 1 6.5-1.4 8.8-4.7 4.4-8.7 9.3-12 14.5-1.8 2.8-5.2 4-8.4 3l-7.6-2.3c-3.9-1.2-8.1 1-9.3 4.9l-4.5 14.5c-1.2 3.9 1 8.1 4.9 9.3l7.6 2.3c3.2 1 5.3 3.9 5.2 7.2-.2 6.3.4 12.6 1.8 18.8.7 3.2-.9 6.5-3.8 8.1l-7 3.7c-3.6 1.9-5 6.4-3.1 10l7.1 13.4c1.9 3.6 6.4 5 10 3.1l7-3.7c2.9-1.5 6.5-1 8.8 1.4 4.4 4.7 9.3 8.7 14.5 12 2.8 1.8 4 5.2 3.1 8.4l-2.3 7.6c-1.2 3.9 1 8.1 4.9 9.3l14.5 4.5c3.9 1.2 8.1-1 9.3-4.9l2.3-7.6c1-3.2 3.9-5.3 7.2-5.2 6.2.2 12.6-.4 18.8-1.8 3.2-.7 6.5.9 8.1 3.8l3.7 7c1.9 3.6 6.4 5 10 3.1l13.4-7.1c3.6-1.9 5-6.4 3.1-10l-3.7-7c-1.5-2.9-1-6.5 1.4-8.8 4.7-4.4 8.7-9.3 12-14.5 1.8-2.8 5.2-4 8.4-3.1l7.6 2.3c3.9 1.2 8.1-1 9.3-4.9l4.5-14.5c1.2-3.9-1-8.1-4.9-9.3l-7.6-2.3c-3.2-1-5.3-3.9-5.2-7.3.2-6.2-.4-12.6-1.8-18.8-.7-3.2.9-6.5 3.8-8.1l7-3.7c3.6-1.9 5-6.4 3.1-10l-7.1-13.4c-1.9-3.6-6.4-5-10-3.1l-7 3.7c-2.9 1.5-6.5 1-8.8-1.4-4.4-4.6-9.3-8.7-14.5-12-2.8-1.8-4-5.2-3.1-8.4l2.3-7.6c1.2-3.9-1-8.1-4.9-9.3l-14.5-4.5c-3.9-1.2-8.1 1-9.3 4.9l-2.3 7.6c-1 3.2-3.9 5.3-7.2 5.2-6.3-.2-12.6.4-18.8 1.8-3.2.7-6.5-.8-8.1-3.8l-3.7-7c-1.9-3.6-6.4-5-10-3.1l-13.4 7.1c-3.6 2.1-5 6.6-3.1 10.2m42 32.5c16.4-5.5 35 .2 45.4 14 17.2 22.7 7.2 55.1-19.8 64.2-16.4 5.5-34.9-.2-45.4-14-17.2-22.7-7.2-55.2 19.8-64.2z"/><path class="st8" d="M473.8 275.8h135.5c9.4 0 17.2 7.7 17.2 17.2v286.3c0 9.4-7.7 17.2-17.2 17.2H473.8c-9.4 0-17.2-7.7-17.2-17.2V293c.1-9.4 7.8-17.2 17.2-17.2"/><path class="st9" d="M469.2 299h147v241.8h-147z"/><path d="M467.2 323.8V297h151v245.9h-151V487v14.7-41.5 14.6-41.5 14.6-41.5 14.7-41.5 14.6-41.5 14.7-43.6zm40 13.2h69.3c2.4 0 4.5 1.4 5.5 3.5h32.2V301h-143v39.5h30.6c.9-2.1 3-3.5 5.4-3.5zm0 53h69.3c2.7 0 5 1.8 5.7 4.2h32v-49.6h-31.9c-.7 2.6-3 4.5-5.8 4.5h-69.3c-2.8 0-5.1-1.9-5.8-4.5h-30.2v49.6h30.3c.7-2.4 3-4.2 5.7-4.2zm0 54.6h69.3c2.4 0 4.4 1.4 5.4 3.4h32.3v-49.6h-32.1c-.9 2.2-3.1 3.8-5.6 3.8h-69.3c-2.5 0-4.7-1.6-5.6-3.8h-30.5V448h30.7c1-2 3.1-3.4 5.4-3.4zm0 53.8h69.3c2.3 0 4.4 1.3 5.3 3.3h32.3v-49.8h-31.8c-.6 2.7-3 4.7-5.9 4.7h-69.3c-2.8 0-5.2-2-5.9-4.7H471v49.8h30.7c1.2-2 3.2-3.3 5.5-3.3zm-36 40.3h143v-26.9 4.9-11.1h-31.8c-.6 2.7-3 4.7-5.9 4.7h-69.3c-2.9 0-5.3-2-5.9-4.7h-30.2v11.1-4.9 26.9z" fill="#102b6e"/><path fill-rule="evenodd" clip-rule="evenodd" fill="#4596d1" d="M472.3 553.9H491v18.7h-18.7z"/><path class="st12" d="M504.2 558.5h9.4v9.4h-9.4zm16.2 0h9.4v9.4h-9.4z"/><path class="st13" d="M536.6 558.5h9.4v9.4h-9.4z"/><path class="st12" d="M552.8 558.5h9.4v9.4h-9.4z"/><path class="st13" d="M569 558.5h9.4v9.4H569z"/><path class="st14" d="M605.8 548.3c3.6 0 6.5 2.9 6.5 6.5s-2.9 6.5-6.5 6.5-6.5-2.9-6.5-6.5 2.9-6.5 6.5-6.5"/><path class="st13" d="M605.8 567.4c2.2 0 4 1.8 4 4s-1.8 4-4 4-4-1.8-4-4c0-2.3 1.8-4 4-4"/><path class="st8" d="M473.8 596.4h134.7v9.1H473.8z"/><path class="st15" d="M617.8 527.7H788c3.4 0 6.2 2.8 6.2 6.2v58.5c0 3.4-2.8 6.2-6.2 6.2H617.8c-3.4 0-6.2-2.8-6.2-6.2v-58.5c0-3.5 2.8-6.2 6.2-6.2"/><path class="st9" d="M618.1 535.5H678v29.7h-59.9zm65.4 0h104.6v29.7H683.5z"/><path class="st14" d="M744.7 546.6h7.1v7.1h-7.1z"/><path class="st13" d="M756 546.6h7.1v7.1H756z"/><path class="st14" d="M767.3 546.6h7.1v7.1h-7.1z"/><path class="st16" d="M625.7 598.5h25.7v7h-25.7zm127.5 0h25.7v7h-25.7z"/><path class="st17" d="M81.8 372.5h291.7c7.2 0 11.1 6.1 13 13l54.6 199c1.9 6.9-5.9 13-13 13H126.5c-7.2 0-11.4-6-13-13l-44.7-199c-1.6-7 5.9-13 13-13"/><path class="st8" d="M90.4 372.5h291.7c7.2 0 11.1 6.1 13 13l54.6 199c1.9 6.9-5.9 13-13 13H135.1c-7.2 0-11.4-6-13-13l-44.7-199c-1.6-7 5.9-13 13-13"/><defs><path id="SVGID_8_" d="M93.7 383h285.9c2.1 0 3.2 1.8 3.7 3.7l49.9 175.7c.6 2-1.7 3.7-3.7 3.7H134c-2.1 0-3.3-1.7-3.7-3.7L90 386.7c-.5-2 1.7-3.7 3.7-3.7"/></defs><clipPath id="SVGID_9_"><use xlink:href="#SVGID_8_" overflow="visible"/></clipPath><linearGradient id="SVGID_10_" gradientUnits="userSpaceOnUse" x1="261.321" y1="547.624" x2="262.08" y2="403.121"><stop offset="0" stop-color="#073482" stop-opacity=".9"/><stop offset="1" stop-color="#b9e4ff"/></linearGradient><path clip-path="url(#SVGID_9_)" fill="url(#SVGID_10_)" d="M89.5 383h344.3v183.2H89.5z"/><path class="st17" d="M121.6 581.8h392v10.4c0 5.7-4.7 10.4-10.4 10.4H132c-5.7 0-10.4-4.7-10.4-10.4v-10.4z"/><path d="M342.4 581.8h290.8v10.4c0 5.7-4.7 10.4-10.4 10.4h-270c-5.7 0-10.4-4.7-10.4-10.4v-10.4z" fill-rule="evenodd" clip-rule="evenodd" fill="#a5dbfd"/><path class="st8" d="M459.6 589.9h89.2c1.1 0 2 .9 2 2s-.9 2-2 2h-89.2c-1.1 0-2-.9-2-2s.9-2 2-2M131 585.7c2.4 0 4.3 2.4 4.3 5.3s-1.9 5.3-4.3 5.3-4.3-2.4-4.3-5.3 2-5.3 4.3-5.3m77.7 3.6h53.5v5.8h-53.5zm58.7 0h13.7v5.8h-13.7zm18.5 0h13.7v5.8h-13.7z"/><path d="M258.5 522.7h-98.3c-1.7 0-3.2.7-4.3 1.8-1.1 1.1-1.8 2.6-1.8 4.3 0 1.7.7 3.2 1.8 4.3 1.1 1.1 2.6 1.8 4.3 1.8h98.3c1.7 0 3.2-.7 4.3-1.8 1.1-1.1 1.8-2.6 1.8-4.3 0-1.7-.7-3.2-1.8-4.3-1.2-1.1-2.7-1.8-4.3-1.8m-98.3-.8h98.3c1.9 0 3.6.8 4.9 2 1.2 1.2 2 3 2 4.9 0 1.9-.8 3.6-2 4.8-1.2 1.2-3 2-4.9 2h-98.3c-1.9 0-3.6-.8-4.9-2-1.2-1.2-2-3-2-4.8 0-1.9.8-3.6 2-4.9 1.3-1.2 3-2 4.9-2zm90.1-28H152c-1.7 0-3.2.7-4.3 1.8-1.1 1.1-1.8 2.6-1.8 4.3 0 1.7.7 3.2 1.8 4.3 1.1 1.1 2.6 1.8 4.3 1.8h98.3c1.7 0 3.2-.7 4.3-1.8 1.1-1.1 1.8-2.6 1.8-4.3 0-1.7-.7-3.2-1.8-4.3-1.1-1.1-2.6-1.8-4.3-1.8m-98.2-.8h98.3c1.9 0 3.6.8 4.9 2 1.2 1.2 2 3 2 4.9 0 1.9-.8 3.6-2 4.9-1.2 1.2-3 2-4.9 2h-98.3c-1.9 0-3.6-.8-4.8-2-1.2-1.2-2-3-2-4.9 0-1.9.8-3.6 2-4.9 1.2-1.3 2.9-2 4.8-2zm90.9-28h-98.3c-1.7 0-3.2.7-4.3 1.8-1.1 1.1-1.8 2.6-1.8 4.3 0 1.7.7 3.2 1.8 4.3 1.1 1.1 2.6 1.8 4.3 1.8H243c1.7 0 3.2-.7 4.3-1.8 1.1-1.1 1.8-2.6 1.8-4.3 0-1.7-.7-3.2-1.8-4.3-1.1-1.2-2.6-1.8-4.3-1.8m-98.2-.9H243c1.9 0 3.6.8 4.8 2 1.2 1.2 2 3 2 4.8 0 1.9-.8 3.6-2 4.9-1.2 1.2-3 2-4.8 2h-98.3c-1.9 0-3.6-.8-4.9-2-1.2-1.2-2-3-2-4.9 0-1.9.8-3.6 2-4.8 1.4-1.2 3.1-2 5-2z" fill="#e4f5fb"/><defs><path id="SVGID_11_" d="M292 569.1C188.5 502.9 121.8 370 131.7 247.3l2.3-29 28.7-4.5c50.4-7.9 87.4-23.1 131.7-48.1l18.1-10.2 18.1 10.2c44.5 25.1 81.4 39.7 132 48.1l28.4 4.7 2.3 28.7C503.2 369.9 436.5 502.8 333 569h-41z"/></defs><clipPath id="SVGID_12_"><use xlink:href="#SVGID_11_" overflow="visible"/></clipPath><linearGradient id="SVGID_13_" gradientUnits="userSpaceOnUse" x1="121.859" y1="361.333" x2="503.291" y2="361.333"><stop offset="0" stop-color="#f67a3c"/><stop offset="1" stop-color="#f67a3c"/></linearGradient><path clip-path="url(#SVGID_12_)" fill="url(#SVGID_13_)" d="M121.9 154.5h381.4v413.6H121.9z"/><defs><path id="SVGID_14_" d="M312.6 197.9c-49.4 27.8-89.1 43.8-144.1 52.4-9 112.3 54.2 231.1 144 288.2 89.9-57.1 153.1-175.9 144.1-288.2-56-9.3-94.6-24.6-144-52.4"/></defs><clipPath id="SVGID_15_"><use xlink:href="#SVGID_14_" overflow="visible"/></clipPath><linearGradient id="SVGID_16_" gradientUnits="userSpaceOnUse" x1="312.575" y1="180.658" x2="312.575" y2="538.489"><stop offset="0" stop-color="#0094ff"/><stop offset=".143" stop-color="#008cf1"/><stop offset=".411" stop-color="#0176cd"/><stop offset=".774" stop-color="#025393"/><stop offset="1" stop-color="#033b6b"/></linearGradient><path clip-path="url(#SVGID_15_)" fill="url(#SVGID_16_)" d="M159.5 197.9h306.2v340.6H159.5z"/><defs><path id="SVGID_17_" d="M177.6 258.6c-2.2 42.6 6.2 85.6 22.1 125.1C222.3 439.9 261.8 493 312.6 527c50.8-34 90.2-87.1 112.8-143.3 15.9-39.5 24.3-82.5 22.1-125.2-23.3-4.2-45.9-10-68.2-18.2-23.2-8.5-45.2-19.4-66.7-31.3-22.6 12.6-45.7 23.9-70.1 32.7-21.3 7.6-42.8 13-64.9 16.9"/></defs><clipPath id="SVGID_18_"><use xlink:href="#SVGID_17_" overflow="visible"/></clipPath><linearGradient id="SVGID_19_" gradientUnits="userSpaceOnUse" x1="312.58" y1="825.036" x2="312.58" y2="330.11"><stop offset="0" stop-color="#1e9df8"/><stop offset=".133" stop-color="#45aef9"/><stop offset=".36" stop-color="#82c8fb"/><stop offset=".569" stop-color="#b2ddfd"/><stop offset=".752" stop-color="#d4ecfe"/><stop offset=".902" stop-color="#e9f6ff"/><stop offset="1" stop-color="#f1f9ff"/></linearGradient><path clip-path="url(#SVGID_18_)" fill="url(#SVGID_19_)" d="M175.5 208.9h274.2V527H175.5z"/><path class="st15" d="M617.8 449.8H788c3.4 0 6.2 2.8 6.2 6.2v58.5c0 3.4-2.8 6.2-6.2 6.2H617.8c-3.4 0-6.2-2.8-6.2-6.2V456c0-3.4 2.8-6.2 6.2-6.2"/><path class="st9" d="M618.1 457.6H678v29.7h-59.9zm65.4 0h104.6v29.7H683.5z"/><path class="st14" d="M744.7 468.7h7.1v7.1h-7.1zm11.3 0h7.1v7.1H756z"/><path class="st13" d="M767.3 468.7h7.1v7.1h-7.1z"/><path class="st16" d="M625.7 520.7h25.7v7h-25.7zm127.5 0h25.7v7h-25.7z"/><path class="st15" d="M617.8 371.9H788c3.4 0 6.2 2.8 6.2 6.2v58.5c0 3.4-2.8 6.2-6.2 6.2H617.8c-3.4 0-6.2-2.8-6.2-6.2v-58.5c0-3.4 2.8-6.2 6.2-6.2"/><path class="st9" d="M618.1 379.8H678v29.7h-59.9zm65.4 0h104.6v29.7H683.5z"/><path class="st14" d="M744.7 390.8h7.1v7.1h-7.1zm11.3 0h7.1v7.1H756zm11.3 0h7.1v7.1h-7.1z"/><path class="st16" d="M625.7 442.8h25.7v7h-25.7zm127.5 0h25.7v7h-25.7z"/><path class="st24" d="M642.6 268.3h37.2c4.6 0 16.1 8.8 18.1 20.2 3.8 18.4 2.1 59-11 73.4l-14.8-.2-45.3-11.2V274c4.2-3.5 9.8-5.7 15.8-5.7"/><path class="st24" d="M679.7 268.5c18.3 1.8 20.1 24.9 19.8 39.2h-19.8v-39.2z"/><path class="st25" d="M681.5 307.9l18-.1s0 6.8-7.4 12.4c-7.4 5.6-31.3 23.6-31.3 23.6h-26.2s5.6-7.1 12.9-7.7c7.3-.6 7.6.4 7.6.4 1.5-3.9 18.4-20.7 26.4-28.6"/><path class="st26" d="M704.7 455.3l1.8 12.9 4.6 4.3s3.6-.2 4 1.1c.4 1.3 0 3.9 0 3.9h-23.7c-1.3-5.6-2.3-11.5-2.7-21.5l16-.7z"/><path class="st16" d="M597.1 343.7h78.5c.9 0 1.8.1 2.6.2 21.9-.1 24.6 14.1 26.2 29.5l8.8 88.8h-29.8l-9.8-90.4H597c-7.8 0-14.1-6.3-14.1-14.1s6.5-14 14.2-14"/><path class="st26" d="M618.6 424.9l10.8 24.1s-.7 4.4-2.5 6.9-2 4.3-.8 5.8c1.1 1.5 1.4 1.9 1.4 1.9l18.3-19.1-9.6-22.4-17.6 2.8z"/><path class="st27" d="M497.6 364.2h44.6v8.7h-44.6z"/><path class="st16" d="M604.7 347.8c2.9 1.3 5.7 3.8 7.8 7 6.5 9.8 35.8 75.9 35.8 75.9h-33.7L590 376.8c-1-2.2-6.1-11.6-6.6-15.8-1.5-13.7 9.9-18.4 21.3-13.2"/><path class="st25" d="M638.7 249.8c-3.9 6.9 2.8 16.6 11 15.9v2.2l-4.5 6.4 4.4 6.6 4.6 1.7 11.1-2.9v-20c.4-.1.4.6 1.2.1.8-.5 2.7-4.2 2.3-6.1-.3-1.9-2.8-3-2.8-3 2.3-5.7 4.1-6.6-1.8-9.7-5.9-3.2-17.9-2.9-17.9-2.9l-5.4 1.8c-.3 5.2.5 5.1-2.2 9.9"/><path d="M648.5 265.7h1.2c3.6-.1 6.6-.8 9.9-2 0 0-1.2 3.9-5.4 5.8-4 1.8-6.6 1.9-7 1.9l2.4-3.5v-2.2h-1.1z" fill-rule="evenodd" clip-rule="evenodd" fill="#dd777b"/><path class="st7" d="M545.1 165.5c5.8 0 11.2 1.5 15.9 4.2 7.2-12.1 20.9-20.3 36.5-20.3 22.5 0 40.9 17 41.9 38.4 8.9 2.7 15.4 10.9 15.4 20.6 0 11.9-9.8 21.6-21.9 21.6h-58.5v-22.6h11.3l-19.1-28.6-19.1 28.6h11.3V230h-13.7c-17.8 0-32.2-14.4-32.2-32.2 0-17.9 14.4-32.3 32.2-32.3"/><path d="M642.2 241.5c4.6.8 8.3.1 11.1.4 1.7.2 3 1.1 4 1.9 2.6 2.1 4.7 7.4 5.3 10.9 0 0 3.1-1.3 4.1-.6 1 .6.4 2.2.2 2.8-.2.6-1.6 1.3-2 1.7-1.4 1.2 1.9 1.7 5.6-1.4 12.1-9.8 8.4-25.3-8.7-31.2-6.9-2.4-2.1-6.1-6.9-7.1-21.8-4.6-26.3 19.9-12.7 22.6" fill-rule="evenodd" clip-rule="evenodd" fill="#363653"/><path class="st24" d="M627.2 273.8c-10.1 9-16 21.4-19.5 34.5 6.6-.4 13.5-.4 20.1-.6l-.6-33.9z"/><path class="st9" d="M654.3 293.7c.7 0 1.2.5 1.2 1.2s-.5 1.2-1.2 1.2-1.2-.5-1.2-1.2.6-1.2 1.2-1.2m0-7.1c.7 0 1.2.5 1.2 1.2s-.5 1.2-1.2 1.2-1.2-.5-1.2-1.2c0-.6.6-1.2 1.2-1.2zm-4.7-18.7c-4.2 7.2.4 12.3 4.5 14.6 5.8-3.8 11.1-7.5 11.1-14.6 0 0 2 0 3.3 3.2 2.2 5.2-1.5 16.8-1.5 16.8s-4.1-5.2-7.4-5.5c-3.4-.3-5.6.7-5.6.7-4.3-3.2-7.3.9-10.1 3.9-.9-7.7-.8-13.2 4.9-19.1h.8z"/><path class="st27" d="M497.6 313.5h44.6v8.7h-44.6z"/><path class="st30" d="M645.3 298.5h-56.8c-2.2 0-4.5 1.8-4 4l8.5 37.6c.5 2.1 1.8 4 4 4h56.8c2.2 0 4.5-1.8 4-4l-8.5-37.6c-.5-2.1-1.8-4-4-4"/><path d="M642.8 298.5H586c-2.2 0-4.5 1.8-4 4l8.5 37.6c.5 2.1 1.8 4 4 4h56.8c2.2 0 4.5-1.8 4-4l-8.5-37.6c-.5-2.1-1.8-4-4-4" fill-rule="evenodd" clip-rule="evenodd" fill="#afcceb"/><path class="st9" d="M617.4 317.6c-1.7.6-2.6 2.7-1.9 4.7.7 2.1 2.6 3.3 4.3 2.7 1.7-.6 2.6-2.7 1.9-4.7-.6-2.1-2.6-3.3-4.3-2.7"/><path class="st30" d="M684.8 340.3h-28.9v3.7h30.7v-1.9c0-.9-.8-1.8-1.8-1.8"/><defs><path id="SVGID_20_" d="M312.9 255.7c26.5 0 48.8 20.5 50.1 47.1v.1c0 .8.1 1.5.1 2.3v15.9c10.6 1.2 18.9 10.2 18.9 21.1v76.4c0 11.7-9.6 21.2-21.2 21.2h-94.5c-11.7 0-21.2-9.6-21.2-21.2v-76.4c0-10.5 7.7-19.3 17.8-20.9v-18.4m81.9 18.1v-17.3m-63.7 0v1.5"/></defs><clipPath id="SVGID_21_"><use xlink:href="#SVGID_20_" overflow="visible"/></clipPath><defs><path id="SVGID_22_" d="M323.4 412.3h-19.9V377c-6.8-3.6-11.4-10.7-11.4-18.9m20.8-91c-16.7 0-31.1 12.8-31.9 29.7v1.5m63.8 15.7v-17.3"/></defs><clipPath id="SVGID_23_"><use xlink:href="#SVGID_22_" overflow="visible"/></clipPath><path class="st8" d="M794 473.5h2.7c5.5 0 10.6 2.3 14.2 5.9 3.6 3.6 5.9 8.7 5.9 14.2v112H646.7v-4.8H812V493.6c0-4.2-1.7-8.1-4.5-10.9-2.8-2.8-6.6-4.5-10.9-4.5H794v-4.7z"/><path class="st8" d="M794 552.8h2.7c5.5 0 10.6 2.3 14.2 5.9 3.6 3.6 5.9 8.7 5.9 14.2v33.8h-4.7v-33.8c0-4.2-1.7-8.1-4.5-10.9-2.8-2.8-6.6-4.5-10.9-4.5H794v-4.7z"/><path class="st8" d="M794.3 401c2.8 1 5.3 2.6 7.3 4.7 3.6 3.6 5.9 8.7 5.9 14.2v183.2h-4.7V419.9c0-4.2-1.7-8.1-4.5-10.9-1.2-1.2-2.5-2.1-4-2.9V401z"/><path class="st9" d="M15.8 605.5h880c2.4 0 4.3 2.3 4.3 5.2 0 2.9-1.9 5.2-4.3 9.2h-880c-2.4-4-4.3-6.3-4.3-9.2-.1-2.8 1.9-5.2 4.3-5.2"/><path d="M679.8 164.8l.9 1.7c.4.7.2 1.6-.4 2.2-1.1 1.1-2.1 2.3-2.9 3.6-.4.7-1.3 1-2.1.7l-1.9-.6c-1-.3-2 .2-2.3 1.2l-1.1 3.5c-.3 1 .2 2 1.2 2.3l1.9.6c.8.2 1.3 1 1.3 1.8 0 1.5.1 3.1.4 4.6.2.8-.2 1.6-.9 2l-1.7.9c-.9.5-1.2 1.6-.8 2.5l1.7 3.3c.5.9 1.6 1.2 2.5.8l1.7-.9c.7-.4 1.6-.2 2.2.3 1.1 1.1 2.3 2.1 3.6 2.9.7.4 1 1.3.7 2.1l-.6 1.8c-.3 1 .2 2 1.2 2.3l3.5 1.1c1 .3 2-.2 2.3-1.2l.6-1.8c.2-.8 1-1.3 1.8-1.3 1.5 0 3.1-.1 4.6-.4.8-.2 1.6.2 2 .9l.9 1.7c.5.9 1.6 1.2 2.5.8l3.3-1.7c.9-.5 1.2-1.6.8-2.5l-.9-1.7c-.4-.7-.2-1.6.3-2.2 1.1-1.1 2.1-2.3 2.9-3.6.4-.7 1.3-1 2.1-.7l1.8.6c1 .3 2-.2 2.3-1.2l1.1-3.5c.3-1-.2-2-1.2-2.3l-1.8-.6c-.8-.2-1.3-1-1.3-1.8 0-1.5-.1-3.1-.4-4.6-.2-.8.2-1.6.9-2l1.7-.9c.9-.5 1.2-1.6.8-2.5l-1.7-3.3c-.5-.9-1.6-1.2-2.5-.8l-1.7.9c-.7.4-1.6.2-2.2-.4-1.1-1.1-2.3-2.1-3.6-2.9-.7-.4-1-1.3-.7-2.1l.6-1.8c.3-1-.2-2-1.2-2.3l-3.5-1.1c-1-.3-2 .2-2.3 1.2l-.6 1.9c-.2.8-1 1.3-1.8 1.3-1.5-.1-3.1.1-4.6.4-.8.2-1.6-.2-2-.9l-.9-1.7c-.5-.9-1.6-1.2-2.5-.8l-3.3 1.7c-.8.5-1.1 1.6-.7 2.5m10.3 7.9c4-1.3 8.6.1 11.1 3.4 4.2 5.6 1.8 13.5-4.8 15.7-4 1.3-8.6-.1-11.1-3.4-4.2-5.5-1.8-13.5 4.8-15.7z" fill-rule="evenodd" clip-rule="evenodd" fill="#76c5fb"/><path class="st27" d="M497.6 520.6h44.6v8.7h-44.6zm0-50h44.6v8.7h-44.6zm0-53.9h44.6v8.7h-44.6z"/><path d="M683.5 580h60v7.5h-60zm65.9 0h38.7v7.5h-38.7zm-65.9-80.6h60v7.5h-60zm65.9 0h38.7v7.5h-38.7zm-39.8-79h33.9v7.5h-33.9zm39.8 0h38.7v7.5h-38.7z" fill-rule="evenodd" clip-rule="evenodd" fill="#3882c8"/><path class="st34" d="M495.9 66.2c1 0 1.9.8 1.9 1.9v16.2c0 1-.8 1.9-1.9 1.9-1 0-1.9-.8-1.9-1.9V68c.1-1 .9-1.8 1.9-1.8"/><path class="st34" d="M505.9 76.2c0 1-.8 1.9-1.9 1.9h-16.2c-1 0-1.9-.8-1.9-1.9 0-1 .8-1.9 1.9-1.9H504c1.1 0 1.9.8 1.9 1.9M297.6 88.6c1.2 0 2.1.9 2.1 2.1v18.4c0 1.2-.9 2.1-2.1 2.1-1.2 0-2.1-.9-2.1-2.1V90.7c0-1.2 1-2.1 2.1-2.1"/><path class="st34" d="M308.9 99.9c0 1.2-.9 2.1-2.1 2.1h-18.4c-1.2 0-2.1-.9-2.1-2.1 0-1.2.9-2.1 2.1-2.1h18.4c1.2 0 2.1.9 2.1 2.1"/><path class="st35" d="M371.8 31.1c-1.3-1.3-3.1-2.1-5.1-2.1-2 0-3.8.8-5.1 2.1-1.3 1.3-2.1 3.1-2.1 5.1 0 2 .8 3.8 2.1 5.1 1.3 1.3 3.1 2.1 5.1 2.1 2 0 3.8-.8 5.1-2.1 1.3-1.3 2.1-3.1 2.1-5.1.1-2-.8-3.8-2.1-5.1zm-5.1-6.2c3.1 0 6 1.3 8 3.3 2.1 2.1 3.3 4.9 3.3 8 0 3.1-1.3 6-3.3 8-2.1 2-4.9 3.3-8 3.3-3.1 0-6-1.3-8-3.3-2-2.1-3.3-4.9-3.3-8 0-3.1 1.3-5.9 3.3-8 2-2 4.9-3.3 8-3.3zm70.2 92.3c-.9-.9-2.1-1.5-3.5-1.5s-2.6.6-3.5 1.5c-.9.9-1.5 2.1-1.5 3.5s.6 2.6 1.5 3.5c.9.9 2.1 1.5 3.5 1.5s2.6-.6 3.5-1.5c.9-.9 1.5-2.2 1.5-3.5 0-1.4-.6-2.6-1.5-3.5zm-3.5-4.3c2.1 0 4.1.9 5.5 2.3 1.4 1.4 2.3 3.4 2.3 5.5s-.9 4.1-2.3 5.5c-1.4 1.4-3.3 2.3-5.5 2.3-2.1 0-4.1-.9-5.5-2.3-1.4-1.4-2.3-3.3-2.3-5.5 0-2.1.9-4.1 2.3-5.5 1.4-1.4 3.3-2.3 5.5-2.3zm168.1-24.4c-.7-.7-1.8-1.2-2.9-1.2-1.1 0-2.2.5-2.9 1.2-.7.7-1.2 1.8-1.2 2.9 0 1.1.5 2.1 1.2 2.9.7.7 1.8 1.2 2.9 1.2 1.1 0 2.1-.5 2.9-1.2.7-.7 1.2-1.8 1.2-2.9 0-1.1-.5-2.1-1.2-2.9zm-2.9-3.4c1.8 0 3.3.7 4.5 1.9 1.2 1.2 1.9 2.7 1.9 4.5 0 1.8-.7 3.3-1.9 4.5-1.2 1.2-2.7 1.9-4.5 1.9-1.8 0-3.3-.7-4.5-1.9-1.2-1.2-1.9-2.7-1.9-4.5 0-1.8.7-3.3 1.9-4.5 1.2-1.2 2.8-1.9 4.5-1.9zm-374.8-2.6c-.7-.7-1.8-1.2-2.9-1.2-1.1 0-2.2.5-2.9 1.2-.7.7-1.2 1.8-1.2 2.9 0 1.1.5 2.1 1.2 2.9.7.7 1.8 1.2 2.9 1.2 1.1 0 2.1-.5 2.9-1.2.7-.7 1.2-1.8 1.2-2.9 0-1.2-.5-2.2-1.2-2.9zm-2.9-3.5c1.8 0 3.3.7 4.5 1.9 1.2 1.2 1.9 2.7 1.9 4.5 0 1.8-.7 3.3-1.9 4.5-1.2 1.2-2.7 1.9-4.5 1.9-1.8 0-3.3-.7-4.5-1.9-1.2-1.2-1.9-2.7-1.9-4.5 0-1.8.7-3.3 1.9-4.5 1.2-1.2 2.7-1.9 4.5-1.9z"/><path class="st34" d="M172.8 130.7c1.1 0 1.9.9 1.9 1.9v17c0 1.1-.9 1.9-1.9 1.9-1.1 0-1.9-.9-1.9-1.9v-17c-.1-1 .8-1.9 1.9-1.9"/><path class="st34" d="M183.2 141.2c0 1.1-.9 1.9-1.9 1.9h-17c-1.1 0-1.9-.9-1.9-1.9 0-1.1.9-1.9 1.9-1.9h17c1-.1 1.9.8 1.9 1.9"/><path class="st35" d="M707.1 84c-1.1-1.1-2.6-1.8-4.3-1.8-1.7 0-3.2.7-4.3 1.8-1.1 1.1-1.8 2.6-1.8 4.3 0 1.7.7 3.2 1.8 4.3 1.1 1.1 2.6 1.8 4.3 1.8 1.7 0 3.2-.7 4.3-1.8 1.1-1.1 1.8-2.6 1.8-4.3 0-1.7-.7-3.2-1.8-4.3zm-4.3-5.2c2.6 0 5 1.1 6.7 2.8 1.7 1.7 2.8 4.1 2.8 6.7 0 2.6-1.1 5-2.8 6.7-1.7 1.7-4.1 2.8-6.7 2.8-2.6 0-5-1.1-6.7-2.8-1.7-1.7-2.8-4.1-2.8-6.7 0-2.6 1.1-5 2.8-6.7 1.7-1.8 4-2.8 6.7-2.8z"/><path class="st34" d="M545.6 124c.7 0 1.3.6 1.3 1.3v11.5c0 .7-.6 1.3-1.3 1.3-.7 0-1.3-.6-1.3-1.3v-11.5c0-.7.6-1.3 1.3-1.3"/><path class="st34" d="M552.7 131.1c0 .7-.6 1.3-1.3 1.3h-11.5c-.7 0-1.3-.6-1.3-1.3 0-.7.6-1.3 1.3-1.3h11.5c.7-.1 1.3.5 1.3 1.3"/><path class="st36" d="M347.1 306c-7.9-4.8-15.1-6.7-22.7-11.8-4.5-3-10.9-10.6-16.4-17-.9 10.3-4.2 14.2-7.6 17.3-7.6 6.1-12.4 7.6-18.8 11.2-5.5 2.8-35.1 20.6-35.1 58.7s32.1 66.3 67.9 66.3 66.7-26 66.7-65.1c.1-39.1-29.1-56.9-34-59.6zm1 111.2c-.6.6-7.6 5.5-15.4 6.4-7.9.6-18.8 1.2-25.5-4.8-.9-.9-.6-2.4 0-3 .6-.6 1.2-.9 2.1-.9.9 0 .6 0 1.2.3 3 2.4 7.3 4.2 17 4.2 9.4 0 16.1-2.8 19.1-4.8 1.2-.9 1.8 0 2.1.3.3.5.6 1-.6 2.3zm-25.8-13.6c1.5-1.5 4.2-4 6.7-4.8 2.4-.9 4-.9 6.4-.9 2.4 0 4.8 0 6.7 1.2 1.8 1.2 2.8 4 3.3 5.5.6 1.5 0 2.4-1.2 3-.9.6-1.2.3-2.1-1.5-.9-1.8-1.8-4-6.9-4-5.2 0-6.7 1.8-9.4 4-2.4 2.1-3.3 2.8-4.2 1.5-1.4-1.3-1.1-2.6.7-4zm39.1 1.2c-5.5-.3-16.1-17-22.7-17.3-8.5-.3-27.3 17.9-41.8 17.9-8.8 0-11.5-1.2-14.5-3.3-4.5-3-6.7-7.9-6.7-14.2 0-11.5 10.9-22.4 24.6-22.4 17.3 0 29.4 17.3 38.2 17 7.3 0 21.5-14.5 28.5-14.5 7.3 0 9.4 7.6 9.4 12.4 0 4.8-1.5 13-5.2 18.2-3.5 4.6-5.6 6.4-9.8 6.2z"/><path class="st36" d="M353.5 287.4c-8.6-5.3-16.7-7.3-25-13-5-3.3-12-11.7-18-18.7-1 11.4-4.7 15.7-8.3 19-8.3 6.7-13.6 8.3-20.6 12.3-6 3-38.6 22.7-38.6 64.7s35.4 73 74.7 73 73.4-28.7 73.4-71.7c-.2-43-32.2-62.6-37.6-65.6zm1 122.4c-.7.7-8.3 6-17 7-8.6.7-20.6 1.3-28-5.3-1-1-.7-2.7 0-3.3.7-.7 1.3-1 2.3-1s.7 0 1.3.3c3.3 2.7 8 4.7 18.7 4.7 10.4 0 17.7-3 21-5.3 1.3-1 2 0 2.3.3.4.6.7 1.2-.6 2.6zm-28.3-15c1.6-1.6 4.7-4.4 7.3-5.3 2.7-1 4.4-1 7-1 2.7 0 5.3 0 7.3 1.3s3 4.4 3.7 6c.6 1.6 0 2.7-1.3 3.3-1 .7-1.3.3-2.3-1.6-1-2-2-4.4-7.6-4.4-5.7 0-7.3 2-10.4 4.4-2.7 2.3-3.7 3-4.7 1.6-1.4-1.3-1.1-2.6 1-4.3zm42.9 1.3c-6-.3-17.7-18.7-25-19-9.3-.3-30 19.7-46 19.7-9.7 0-12.7-1.3-16-3.7-5-3.3-7.3-8.6-7.3-15.7 0-12.7 12-24.7 27-24.7 19 0 32.3 19 42 18.7 8 0 23.7-16 31.3-16 8 0 10.4 8.3 10.4 13.6 0 5.3-1.6 14.3-5.7 20-3.6 5.4-6 7.5-10.7 7.1z"/></svg>