<svg xmlns="http://www.w3.org/2000/svg" viewBox="0 0 2824.8 1484.3"><style>.st3{fill:#7d97f4}.st4{fill:#91b3fa}.st5{fill:#bdd0fb}</style><g id="Illustration"><linearGradient id="SVGID_1_" gradientUnits="userSpaceOnUse" x1="-1654.328" y1="1006.996" x2="-4203.298" y2="1016.614" gradientTransform="matrix(.9998 -.0186 .0146 .7829 3998.774 60.226)"><stop offset="0" stop-color="#dae3fe"/><stop offset="1" stop-color="#e9effd"/></linearGradient><path d="M2611.3 981l-55.9-50s-251.3-173.7-259.3-370.8c-8-197.1-119.5-223.1-386.7-234.4-225.9-9.6-486.9-38.2-697.4 74.5-92.4 49.5-201.5 74.9-312.1 72.3L656.3 467c-116.2-2.7-230.8 25.5-325.6 80.2-140.6 81.1-292.2 230.1-232 482.1 10.2 42.8 16.6 87.7 17.4 131.3l2 107.2c1.8 94.1 95.2 169.7 212.4 171.3l1828.7 24c188 2.5 369.1-59 498.8-169.2 34.6-29.4 53.5-68.4 52.7-108.7-1.3-75.5-36.7-148.1-99.4-204.2z" opacity=".76" fill="url(#SVGID_1_)"/><path class="st3" d="M1737.8 174.6l113.6-77.9c10.9-7.5 23.9-11.4 37.2-11.2l24.9.3s122.3 776.7 107.2 1106.2c-1.3 29.1-8.2 117-8.2 117s-15 1.8-31.3 3.1c-16.7 1.4-33.5-2.3-48.1-10.5l-162.4-91.5-32.9-1035.5z"/><path class="st4" d="M2317.7 94.9l-421.9-9.2c-14.8-.3-26.6 12.1-25.6 26.9l81.6 1165c1.2 16.7 13.1 30.7 29.5 34.4l381.9-16.4c10.9-.5 19.6-9.1 20.2-20 6.4-120.8 37.4-783.5-38.6-1158.1-2.7-12.8-13.9-22.3-27.1-22.6z"/><path class="st5" d="M1946.6 201.2l.5 9.8c.4 7.1 6.2 12.8 13.3 12.9l327.3 5.4c7.6.1 13.8-6 13.8-13.6v-18c0-7.5-6.2-13.6-13.7-13.6L1960 187c-7.6 0-13.7 6.5-13.4 14.2zm12.8 146.2l2.3 21.1c.8 7 6.7 12.2 13.7 12.1l317.3-5.1c7.4-.1 13.4-6.2 13.4-13.6v-20.1c0-7.6-6.2-13.7-13.8-13.6l-319.6 4.1c-8 .2-14.1 7.1-13.3 15.1zm5.6 151l.6 4.1c.9 6.9 6.9 11.9 13.8 11.8l313.4-7.4c8.2-.2 14.4-7.6 13.1-15.8l-2.3-14c-1.1-6.8-7.2-11.7-14.2-11.4L1977.7 483c-7.9.4-13.7 7.5-12.7 15.4zm13.3 137.2c.8 6.8 6.6 12 13.5 12H2304c7.5 0 13.6-6.1 13.6-13.6v-6.4c0-7.6-6.3-13.7-13.9-13.6l-312.2 6.4c-8 .1-14.2 7.2-13.2 15.2zm23.4 143.9l33.8 455.6c.6 7.5 7 13.1 14.5 12.5l261.2-18.6c7.2-.5 12.7-6.5 12.6-13.7l-6.2-437c-.1-7.4-6.2-13.4-13.6-13.4h-288.9c-7.7.1-14 6.8-13.4 14.6z"/><path d="M2282.3 1152c-2.2 0-4.1-1.8-4.1-4.1V836c0-7.2-2.8-14-7.9-19.1-5.1-5.1-11.8-7.9-19-7.9h-.1c-186.3.8-189.9 0-191-.3-2.2-.5-3.6-2.7-3.1-4.9.5-2.1 2.6-3.5 4.7-3.1 4.8.6 75.5.6 189.4.1h.2c9.3 0 18.1 3.6 24.8 10.2 6.7 6.6 10.3 15.5 10.3 24.9v311.9c-.2 2.3-2 4.2-4.2 4.2z" opacity=".82" fill="#fff"/><path class="st5" d="M2308.4 728.3h-303.2c-12.5 0-23.2-9.3-24.8-21.7-29.6-223.4-46.8-395.2-54.2-540.6-.4-6.9 2.2-13.8 7.1-18.7 4.8-5 11.6-7.7 18.6-7.5l345.9 8.8c13.4.3 24.1 11.1 24.4 24.5l11.4 529.8c.1 6.8-2.4 13.2-7.1 18-5 4.8-11.3 7.4-18.1 7.4zm-357.3-580.4c-4.6 0-8.9 1.8-12.1 5.1-3.3 3.4-5 7.9-4.8 12.6 7.4 145.2 24.6 316.7 54.2 539.9 1.1 8.4 8.3 14.7 16.7 14.7h303.2c4.6 0 8.9-1.8 12.1-5.1 3.2-3.3 4.9-7.6 4.8-12.2l-11.4-529.8c-.2-9-7.4-16.3-16.4-16.5l-345.9-8.8c-.1.1-.3.1-.4.1z"/><path class="st5" d="M2301.6 281c-.1 0-.1 0 0 0l-352.9-5.6c-2.2 0-4-1.9-4-4.1 0-2.2 1.9-3.9 4.1-4l352.9 5.6c2.2 0 4 1.9 4 4.1-.1 2.2-1.9 4-4.1 4zm0 155.8h-323.4c-2.2 0-4.1-1.8-4.1-4.1 0-2.2 1.8-4.1 4.1-4.1h323.4c2.2 0 4.1 1.8 4.1 4.1-.1 2.3-1.9 4.1-4.1 4.1zm-221.3 139.6c-52.7 0-92.6-.2-94.8-.9-2.1-.7-3.3-2.9-2.7-5.1.6-2 2.7-3.2 4.7-2.8 9.8 1.2 233 .3 318.4-.1 2.2 0 4.1 1.8 4.1 4s-1.8 4.1-4 4.1c-55 .4-152.6.8-225.7.8z"/><path class="st3" d="M1170.5 174.6l-113.6-77.9c-10.9-7.5-23.9-11.4-37.2-11.2l-24.9.3S872.5 862.5 887.6 1192c1.3 29.1 8.2 117 8.2 117s15 1.8 31.3 3.1c16.7 1.4 33.5-2.3 48.1-10.5l162.4-91.5 32.9-1035.5z"/><path class="st4" d="M590.6 94.9l421.9-9.2c14.8-.3 26.6 12.1 25.6 26.9l-81.6 1165c-1.2 16.7-13.1 30.7-29.5 34.4l-381.9-16.4c-10.9-.5-19.6-9.1-20.2-20-6.4-120.8-37.4-783.5 38.6-1158.1 2.6-12.8 13.8-22.3 27.1-22.6z"/><path class="st5" d="M961.6 201.2l-.5 9.8c-.4 7.1-6.2 12.8-13.3 12.9l-327.3 5.4c-7.6.1-13.8-6-13.8-13.6v-18c0-7.5 6.2-13.6 13.7-13.6l327.8 2.9c7.7 0 13.8 6.5 13.4 14.2zm-12.8 146.2l-2.3 21.1c-.8 7-6.7 12.2-13.7 12.1l-317.3-5.1c-7.4-.1-13.4-6.2-13.4-13.6v-20.1c0-7.6 6.2-13.7 13.8-13.6l319.6 4.1c8 .2 14.2 7.1 13.3 15.1zm-5.6 151l-.6 4.1c-.9 6.9-6.9 11.9-13.8 11.8l-313.4-7.4c-8.2-.2-14.4-7.6-13.1-15.8l2.3-14c1.1-6.8 7.2-11.7 14.2-11.4L930.5 483c7.9.4 13.8 7.5 12.7 15.4zm-13.3 137.2c-.8 6.8-6.6 12-13.5 12H604.3c-7.5 0-13.6-6.1-13.6-13.6v-6.4c0-7.6 6.3-13.7 13.9-13.6l312.2 6.4c8 .1 14.1 7.2 13.1 15.2zm-23.4 143.9l-33.8 455.6c-.6 7.5-7 13.1-14.5 12.5L597 1229.1c-7.2-.5-12.7-6.5-12.6-13.7l6.2-437c.1-7.4 6.2-13.4 13.6-13.4H893c7.9 0 14.1 6.7 13.5 14.5z"/><path class="st5" d="M625.9 1152c-2.2 0-4.1-1.8-4.1-4.1V836c0-9.4 3.7-18.3 10.3-24.9 6.6-6.6 15.4-10.2 24.8-10.2h.2c114.2.5 185 .5 189.4-.1 2.2-.5 4.3.9 4.8 3.1s-1 4.4-3.2 4.9c-1.2.3-4.8 1.1-191 .3-7.1-.1-14 2.8-19.1 7.9-5.1 5.1-7.9 11.9-7.9 19.1V1148c-.1 2.1-1.9 4-4.2 4zm277.2-423.7H599.9c-6.8 0-13.1-2.7-17.9-7.5-4.7-4.8-7.3-11.3-7.1-18L586.2 173c.3-13.4 11-24.1 24.4-24.5l345.9-8.8c7-.2 13.7 2.6 18.6 7.5 4.8 5 7.4 11.8 7.1 18.7-7.4 145.4-24.7 317.1-54.2 540.6-1.7 12.5-12.4 21.8-24.9 21.8zm53.6-580.4l-345.9 8.8c-9 .2-16.2 7.5-16.4 16.5L583 702.9c-.1 4.6 1.6 8.9 4.8 12.2 3.2 3.3 7.5 5.1 12.1 5.1h303.2c8.4 0 15.6-6.3 16.7-14.7 29.5-223.2 46.8-394.8 54.2-539.9.2-4.7-1.4-9.2-4.8-12.6-3.3-3.5-7.7-5.3-12.5-5.1z"/><path class="st5" d="M606.7 281c-2.2 0-4-1.8-4.1-4 0-2.2 1.8-4.1 4-4.1l352.9-5.6c2.3 0 4.1 1.8 4.1 4s-1.8 4.1-4 4.1L606.7 281zM930 436.8H606.7c-2.2 0-4.1-1.8-4.1-4.1 0-2.2 1.8-4.1 4.1-4.1H930c2.2 0 4.1 1.8 4.1 4.1s-1.8 4.1-4.1 4.1zM827.9 576.4c-73.1 0-170.7-.4-225.7-.7-2.2 0-4.1-1.8-4-4.1 0-2.2 1.8-4 4.1-4 85.4.4 308.6 1.3 318.4.1 2-.4 4.1.7 4.7 2.8.7 2.1-.5 4.4-2.7 5.1-2.2.6-42.1.8-94.8.8z"/><path class="st4" d="M1145.2 1327.3h663c37.3 0 67.1-31 65.6-68.2-8.5-219.6-37.6-908.1-76.4-1148.7-2.1-12.9-13.3-22.2-26.4-21.7-83.2 2.7-379.7 9.6-579.9-21.5-21.7-3.4-41.5 12.8-42.5 34.7l-55.1 1171.3c-1.3 29.5 22.2 54.1 51.7 54.1z"/><linearGradient id="SVGID_2_" gradientUnits="userSpaceOnUse" x1="1676.605" y1="191.891" x2="1507.97" y2="419.548"><stop offset="0" stop-color="#4042e2"/><stop offset="1" stop-color="#4f52ff"/></linearGradient><path d="M1265.3 261l-4.4 351.1c-.2 15.7 12.4 28.6 28.1 28.7l405.9 2.2c16 .1 29-13.2 28.4-29.2l-11-343.2c-.5-15-12.6-27-27.6-27.4l-390.5-10.1c-15.7-.4-28.7 12.2-28.9 27.9z" fill="url(#SVGID_2_)"/><path class="st5" d="M1289.1 628.1c-4.2 0-8.1-1.7-11.1-4.7-2.9-3-4.5-7-4.5-11.2l4.4-351.1c.1-8.5 7.1-15.5 15.6-15.5l390.9 10.1c8.3.2 15 6.9 15.2 15.1l11 343.2c.1 4.3-1.4 8.3-4.4 11.4-3 3.1-7 4.8-11.2 4.8l-405.9-2.1z"/><circle class="st3" cx="1320.8" cy="305.4" r="13.2"/><path class="st3" d="M1373.4 302.3c-2 6 2.4 12.3 8.7 12.5l265.5 11.7c5.4.2 10-4.1 10-9.6v-.9c0-5.1-4.1-9.4-9.2-9.6l-265.5-10.8c-4.3-.1-8.2 2.6-9.5 6.7zm-30 74.5c0 7.3-5.9 13.2-13.2 13.2-7.3 0-13.2-5.9-13.2-13.2 0-7.3 5.9-13.2 13.2-13.2 7.3 0 13.2 5.9 13.2 13.2zm39.5-3.1c-2 6 2.4 12.3 8.7 12.5l265.5 11.7c5.4.2 10-4.1 10-9.6v-.9c0-5.1-4.1-9.4-9.2-9.6l-265.5-10.7c-4.3-.2-8.1 2.5-9.5 6.6zm-39.5 76.3c0 7.3-5.9 13.2-13.2 13.2-7.3 0-13.2-5.9-13.2-13.2 0-7.3 5.9-13.2 13.2-13.2 7.3 0 13.2 5.9 13.2 13.2zm39.5-3.1c-2 6 2.4 12.3 8.7 12.5l265.5 11.7c5.4.2 10-4.1 10-9.6v-.9c0-5.1-4.1-9.4-9.2-9.6l-265.5-10.7c-4.3-.2-8.1 2.5-9.5 6.6zm-39.5 86.4c0 7.3-5.9 13.2-13.2 13.2-7.3 0-13.2-5.9-13.2-13.2 0-7.3 5.9-13.2 13.2-13.2 7.3 0 13.2 5.9 13.2 13.2zm39.5-3.1c-2 6 2.4 12.3 8.7 12.5l265.5 11.7c5.4.2 10-4.1 10-9.6v-.9c0-5.1-4.1-9.4-9.2-9.6l-265.5-10.7c-4.3-.2-8.1 2.5-9.5 6.6z"/><path class="st5" d="M2341.2 1124.5s-6-158.3 66.3-201.7c72.3-43.4 210.6-71.9 212.6-299.4 1.1-133.2 3.6-191.4 5.4-216.8.7-9.9-8.2-17.8-17.9-15.8-68.9 14-292.5 70.8-337.4 224.6-53.2 182.4 71 509.1 71 509.1z"/><linearGradient id="SVGID_3_" gradientUnits="userSpaceOnUse" x1="2319.473" y1="765.111" x2="2559.058" y2="765.111"><stop offset="0" stop-color="#dae3fe"/><stop offset="1" stop-color="#e9effd"/></linearGradient><path d="M2558.4 458.3c-19.4 20.4-37.6 42.1-54.8 64.5-17.4 22.3-33.7 45.3-49.2 68.9-15.2 23.7-30.1 47.8-43.5 72.5-3.5 6.1-6.6 12.5-9.9 18.7l-4.9 9.4c-1.6 3.1-3.2 6.3-4.7 9.5-6 12.7-12.3 25.4-17.7 38.3-11.1 25.7-19.6 52.5-26.4 79.8-6.6 27.3-11.3 55-14.3 83s-4.1 56.1-3.7 84.3c.4 28.1 2.3 56.4 6.5 84.1v.2c.3 1.9-1 3.7-3 4-1.9.3-3.6-1-4-2.8-10.2-56.4-11.6-113.8-6.4-170.7 5.2-56.9 18.5-113.3 40.9-166.1 23.1-52.3 51.5-101.9 83.3-149.1 32.5-46.8 67.9-91.5 109.1-131.1.8-.8 2.1-.7 2.8.1.7.5.7 1.7-.1 2.5z" fill="url(#SVGID_3_)"/><path class="st5" d="M2308.5 1360.3c-7.3 3.8 40.8-79 44.5-151.9 3.7-72.9 20.1-197.4 83-271.9 62.9-74.5 131.8-81.2 218.5-13.6 72.3 56.4 117.4 84.9 143.9 90.2 6.6 1.3 9.9 8.7 6.7 14.6-17 31.2-64.9 103-145.5 98-102.7-6.4-227.3-73.2-265.2-17.5-38 55.7-33.1 86.9-34.2 113.3-1.1 26.4-3.7 113.5-51.7 138.8z"/><linearGradient id="SVGID_4_" gradientUnits="userSpaceOnUse" x1="2362.948" y1="1045.947" x2="2626.086" y2="1045.947"><stop offset="0" stop-color="#dae3fe"/><stop offset="1" stop-color="#e9effd"/></linearGradient><path d="M2622.8 1015.5c-12.2-9.1-25.2-17.4-38.5-24.6-13.4-7.2-27.2-13.3-41.6-17.5-7.2-2.1-14.4-3.6-21.7-4.3-7.3-.8-14.6-.9-21.7.1-1.8.3-3.6.5-5.3.9-1.7.4-3.5.8-5.2 1.3l-10.7 3.3-10.4 4-10.1 4.8c-13.1 6.9-25.1 15.9-35.2 26.8-10.1 10.9-18.6 23.4-25.6 36.8-1.8 3.3-3.6 6.6-5.1 10.1-1.5 3.5-3.2 6.9-4.6 10.4-2.7 7.1-5.6 14.1-7.9 21.4-5.1 14.4-8.6 29.4-12.4 44.3v.1c-.3 1.1-1.3 1.7-2.4 1.4-1-.2-1.6-1.2-1.5-2.2 2.4-15.3 5.3-30.6 9.5-45.6 4-15.1 9.3-29.8 16.2-44 6.9-14.1 15.3-27.8 26-39.7 10.7-11.9 23.5-22.1 37.7-29.5l10.8-5.2 11.2-4.3 11.4-3.5c1.9-.6 4-.9 6-1.4 2-.5 4.1-.6 6.1-1 8.2-1 16.4-.9 24.4.1s15.9 2.9 23.5 5.3c15.2 4.9 29.4 12 42.7 20.3 13.3 8.4 25.7 17.8 37 28.6.8.8.8 2.1.1 2.9-.7.4-1.9.5-2.7-.1z" fill="url(#SVGID_4_)"/><path class="st5" d="M718.6 888.8s7-184-77-234.4c-84-50.5-244.8-83.6-247-347.9-1.3-154.7-4.2-222.4-6.3-252-.8-11.5 9.5-20.7 20.8-18.4 80.1 16.3 339.9 82.3 392 261 61.8 212-82.5 591.7-82.5 591.7z"/><linearGradient id="SVGID_5_" gradientUnits="userSpaceOnUse" x1="464.524" y1="471.505" x2="746.357" y2="471.505"><stop offset="0" stop-color="#dae3fe"/><stop offset="1" stop-color="#e9effd"/></linearGradient><path d="M470.1 110.6c6.2 5.7 12.1 11.4 17.9 17.3 5.8 5.9 11.5 11.9 17.1 18 5.6 6.1 11.2 12.2 16.6 18.4l8.2 9.3 8 9.5 7.9 9.6 7.7 9.7c5.2 6.5 10.3 13 15.3 19.6 10.1 13.1 19.6 26.7 29.2 40.2 9.2 13.8 18.6 27.5 27.2 41.6l6.6 10.6c2.2 3.5 4.4 7 6.4 10.7l12.5 21.5 3.1 5.4 2.9 5.5 5.9 11 5.9 11c2 3.6 3.9 7.3 5.7 11.1 7.2 15 14.9 29.6 21.3 45.2 1.7 3.8 3.2 7.7 4.8 11.6 1.5 3.9 3.1 7.8 4.6 11.7l4.2 11.8 2.1 5.9 1.9 6 3.9 11.9 3.5 12c2.4 8 4.3 16.2 6.4 24.2 7.7 32.5 13.2 65.5 16.1 98.7 3.2 33.2 3.8 66.5 2.6 99.8-.7 16.6-1.9 33.2-3.7 49.7-1.7 16.6-4 32.9-7.4 49.5-.6 3.2-3.7 5.2-6.9 4.6-3-.6-5-3.5-4.6-6.5v-.3c4.5-32 6.7-64.8 6.9-97.4.3-32.6-1.2-65.2-4.7-97.6-3.5-32.4-9-64.5-16.7-96-8-31.4-17.7-62.5-30.5-92.3-25.6-59.6-57.5-117.1-92.9-172.1l-13.6-20.4c-4.5-6.9-9.4-13.4-14-20.2-4.6-6.8-9.5-13.4-14.3-20l-7.3-9.9-7.5-9.7c-19.7-26.1-40.7-51.5-63-75.4l-.1-.1c-1.2-1.3-1.2-3.4.2-4.7 1.4-1.2 3.3-1.2 4.6 0z" fill="url(#SVGID_5_)"/><path class="st5" d="M562 1303.6c11.5 8.9-88.1-186.7-76.3-459.6 5.6-128.6 37.1-284.7-21.6-359.3-48.9-62.1-256.3-71.4-324.5-72.7-8.5-.2-13.4 9.6-8.1 16.3 26.1 32.9 80.9 109.1 85.7 175.6 6.3 87.7 74.4 156.5 142.2 185.2 67.7 28.7 104.2 50.5 115.6 170.5 11.4 119.9 54.3 318.8 87 344z"/><linearGradient id="SVGID_6_" gradientUnits="userSpaceOnUse" x1="222.676" y1="672.489" x2="476.458" y2="672.489"><stop offset="0" stop-color="#dae3fe"/><stop offset="1" stop-color="#e9effd"/></linearGradient><path d="M224.9 465.8c42.1 10.4 81.9 29.5 116.8 55.7 17.5 13 33.3 28.4 47 45.6 13.5 17.3 24.9 36.4 32.8 57l2.9 7.7c1 2.6 1.7 5.2 2.5 7.9 1.7 5.3 3.1 10.5 4.4 15.7 2.8 10.4 5.5 20.8 8.1 31.2 5.3 20.9 10.2 41.8 14.8 62.8 9.2 42 17 84.4 22.2 127.2.2 1.3-.7 2.4-2 2.5-1.2.1-2.3-.7-2.5-1.8v-.1c-4-21-8.3-42-13-62.9-4.6-20.9-9.5-41.8-14.5-62.6-5-20.8-10.2-41.6-15.7-62.3-2.7-10.4-5.4-20.7-8.2-31.1l-2.1-7.8c-.7-2.6-1.5-5-2.3-7.5-.8-2.5-1.4-5-2.3-7.5l-2.7-7.4c-7.3-19.6-18.1-37.8-30.7-54.6-6.5-8.3-13.3-16.3-20.8-23.7-1.8-1.9-3.7-3.7-5.6-5.5-1.9-1.8-3.8-3.7-5.8-5.4-4-3.5-7.9-7-12.1-10.2-16.4-13.3-34.5-24.7-53.2-34.6-18.8-10-38.5-18.4-58.8-24.7h-.1c-1-.3-1.5-1.3-1.2-2.3.2-.9 1.2-1.5 2.1-1.3z" fill="url(#SVGID_6_)"/><path class="st5" d="M547.2 1338.4c7.7 4.1-43.6-84.3-47.6-162.2-3.9-77.9-21.5-210.8-88.7-290.4-67.2-79.5-140.7-86.8-233.4-14.5-77.2 60.3-125.4 90.7-153.6 96.3-7 1.4-10.6 9.3-7.2 15.6 18.1 33.4 69.4 110 155.4 104.6 109.7-6.9 242.7-78.2 283.3-18.7 40.5 59.5 35.3 92.8 36.6 121 1.2 28.3 3.9 121.3 55.2 148.3z"/><linearGradient id="SVGID_7_" gradientUnits="userSpaceOnUse" x1="208.024" y1="1002.667" x2="488.963" y2="1002.667"><stop offset="0" stop-color="#dae3fe"/><stop offset="1" stop-color="#e9effd"/></linearGradient><path d="M208.7 966.8c12.1-11.6 25.4-21.6 39.6-30.5 14.2-8.9 29.3-16.4 45.6-21.7 8.1-2.6 16.5-4.6 25-5.7 8.6-1 17.3-1.2 26-.1 2.2.3 4.4.6 6.5 1 2.1.5 4.3.9 6.4 1.5l12.2 3.8 11.9 4.6 11.5 5.6c15.1 8 28.8 18.8 40.2 31.5 11.5 12.7 20.4 27.2 27.8 42.3l2.8 5.7c.9 1.9 1.6 3.9 2.4 5.8 1.5 3.9 3.2 7.7 4.6 11.7 2.7 7.9 5.5 15.8 7.5 23.8 4.6 16 7.6 32.3 10.2 48.7.2 1.1-.6 2.2-1.7 2.3-1.1.2-2-.5-2.3-1.5v-.1c-3.9-15.9-7.9-31.9-13.2-47.3-2.4-7.8-5.5-15.3-8.4-22.9-1.6-3.7-3.3-7.4-5-11.1-1.6-3.7-3.5-7.3-5.4-10.8-7.5-14.3-16.5-27.7-27.3-39.3-10.8-11.7-23.6-21.3-37.6-28.6l-10.8-5.1-11.1-4.3-11.5-3.5c-1.9-.5-3.7-.9-5.6-1.4-1.9-.4-3.8-.6-5.7-1-7.6-1-15.5-1-23.2-.1-7.8.8-15.6 2.4-23.2 4.7-15.3 4.4-30.1 11-44.4 18.7-14.2 7.7-28.1 16.6-41.1 26.3l-.1.1c-.9.7-2.3.5-3-.4-.5-.7-.4-1.9.4-2.7z" fill="url(#SVGID_7_)"/><path d="M2059.7 720.8c-7.5-.2-13.6-6.3-13.7-13.8-1.4-77.3-25.5-461-363.5-541.2-376.2-89.3-548.4 293.3-548.4 293.3S668.6 280.6 579.4 758.8c-291.9 70.1-367.7 451.2-177.9 637.5 30.2 29.6 70.6 46.3 112.9 46.7l1827.9 16.5c53.7.5 101.2-34.6 116.5-86.1 57-192.7 131.9-640.2-399.1-652.6z" fill="#0948b3"/><path d="M2018 729c-7.5-.2-13.6-6.2-13.7-13.8-1.5-74.1-25.4-429.9-343.7-504.5-355.8-83.4-518.6 273.9-518.6 273.9S701.8 317.9 617.4 764.5c-273.3 64.8-346.3 414.6-173.3 590.3 30.3 30.8 71.6 48.3 114.9 48.7l1720.8 15.3c53.8.5 101.4-34.8 116.5-86.4C2450 1149.3 2513.7 740.8 2018 729z" fill="#014cda"/><path d="M1843.9 660.9L1821 458.3c-5-69.7-63.1-123.9-134.1-123.9-42.6 0-80.6 21.7-105.2 51.6h-123.2c-24.6-29.8-62.6-51.6-105.2-51.6-71 0-129.1 54.6-134.1 124.3v-.2l-23 202.5c-2.7 23.7 10.5 46.2 32.4 55.6l22.8 9.7c21.3 9.1 46 2.7 61.4-14.6l108.7-122.3h197.3l108.7 122.3c15.4 17.2 40.2 23.2 61.4 14.1l22.8-9.5c21.7-9.4 34.9-31.8 32.2-55.4z" fill="#06155a"/><linearGradient id="SVGID_8_" gradientUnits="userSpaceOnUse" x1="1428.37" y1="162.03" x2="1393.057" y2="308.327"><stop offset="0" stop-color="#09005d"/><stop offset="1" stop-color="#1a0f91"/></linearGradient><circle cx="1354.3" cy="469.1" r="87.8" fill="url(#SVGID_8_)"/><linearGradient id="SVGID_9_" gradientUnits="userSpaceOnUse" x1="1849.358" y1="144.222" x2="1795.127" y2="256.468"><stop offset="0" stop-color="#09005d"/><stop offset="1" stop-color="#1a0f91"/></linearGradient><circle cx="1692.4" cy="469.1" r="87.8" fill="url(#SVGID_9_)"/><linearGradient id="SVGID_10_" gradientUnits="userSpaceOnUse" x1="1888.603" y1="-49.63" x2="1733.462" y2="324.979"><stop offset="0" stop-color="#fe7062"/><stop offset="1" stop-color="#ff928e"/></linearGradient><circle cx="1692.7" cy="423.4" r="20.3" fill="url(#SVGID_10_)"/><linearGradient id="SVGID_11_" gradientUnits="userSpaceOnUse" x1="1592.412" y1="635.517" x2="1975.404" y2="159.364"><stop offset="0" stop-color="#4042e2"/><stop offset="1" stop-color="#4f52ff"/></linearGradient><circle cx="1692.7" cy="510.9" r="20.3" fill="url(#SVGID_11_)"/><linearGradient id="SVGID_12_" gradientUnits="userSpaceOnUse" x1="1841.499" y1="10.159" x2="1754.469" y2="388.553"><stop offset="0" stop-color="#e1473d"/><stop offset="1" stop-color="#e9605a"/></linearGradient><circle cx="1736.4" cy="467.1" r="20.3" fill="url(#SVGID_12_)"/><circle class="st4" cx="1649" cy="467.1" r="20.3"/><linearGradient id="SVGID_13_" gradientUnits="userSpaceOnUse" x1="1387.685" y1="399.685" x2="1271.422" y2="601.207"><stop offset="0" stop-color="#09005d"/><stop offset="1" stop-color="#1a0f91"/></linearGradient><path d="M1395 459.2h-29.2l-4-40.4c-.4-4-3.8-8.4-7.8-8.4h-9.7c-2.2 0-4.2 1.7-5.7 3.2-1.5 1.6-2.2 4.7-2.1 6.8l2.3 38.8h-36.4c-4.3 0-11 2.2-11 6.5v7.4c0 4.3 6.7 7.8 11 7.8h37.7l2.3 38.7c.2 4.1 3.7 7.4 7.8 7.4h13.9c2.2 0 4.3-1 5.8-2.6s2.2-3.9 2-6.1l-3.8-37.4h26.8c4.3 0 7.7-3.5 7.7-7.8v-7.4c.1-4.3-3.3-6.5-7.6-6.5z" fill="url(#SVGID_13_)"/><linearGradient id="SVGID_14_" gradientUnits="userSpaceOnUse" x1="1463.204" y1="529.408" x2="1323.212" y2="1021.271"><stop offset="0" stop-color="#4042e2"/><stop offset="1" stop-color="#4f52ff"/></linearGradient><path d="M1505.8 441.6c0 2.2-1.8 4.1-4.1 4.1h-27.1c-2.2 0-4.1-1.8-4.1-4.1 0-2.2 1.8-4.1 4.1-4.1h27.1c2.3 0 4.1 1.8 4.1 4.1z" fill="url(#SVGID_14_)"/><linearGradient id="SVGID_15_" gradientUnits="userSpaceOnUse" x1="1518.411" y1="545.121" x2="1378.419" y2="1036.984"><stop offset="0" stop-color="#4042e2"/><stop offset="1" stop-color="#4f52ff"/></linearGradient><path d="M1565.5 441.6c0 2.2-1.8 4.1-4.1 4.1h-27.1c-2.2 0-4.1-1.8-4.1-4.1 0-2.2 1.8-4.1 4.1-4.1h27.1c2.3 0 4.1 1.8 4.1 4.1z" fill="url(#SVGID_15_)"/><linearGradient id="SVGID_16_" gradientUnits="userSpaceOnUse" x1="1128.888" y1="1720.943" x2="83.326" y2="796.103"><stop offset="0" stop-color="#09005d"/><stop offset="1" stop-color="#1a0f91"/></linearGradient><path fill="url(#SVGID_16_)" d="M522.6 892.3l-47.4-3.4-59.3 173.4 77.7 389.1 73.6-10.9z"/><linearGradient id="SVGID_17_" gradientUnits="userSpaceOnUse" x1="620.412" y1="37.392" x2="625.457" y2="501.507"><stop offset="0" stop-color="#09005d"/><stop offset="1" stop-color="#1a0f91"/></linearGradient><path fill="url(#SVGID_17_)" d="M805.9 1424l-93.8-355.5-56-192.5-133.5 16.3-61.4 179 84.3 369.2h260.6z"/><linearGradient id="SVGID_18_" gradientUnits="userSpaceOnUse" x1="552.22" y1="676.339" x2="572.399" y2="986.592"><stop offset="0" stop-color="#09005d"/><stop offset="1" stop-color="#1a0f91"/></linearGradient><path fill="url(#SVGID_18_)" d="M475.2 888.9l119.4-17.3 61.5 4.4-133.5 16.3z"/><linearGradient id="SVGID_19_" gradientUnits="userSpaceOnUse" x1="643.866" y1="707.673" x2="433.248" y2="1372.317"><stop offset="0" stop-color="#09005d"/><stop offset="1" stop-color="#1a0f91"/></linearGradient><path fill="url(#SVGID_19_)" d="M502 1062.5l65.4-20.6v-81.6l-32.7 2.9z"/><linearGradient id="SVGID_20_" gradientUnits="userSpaceOnUse" x1="730.946" y1="735.267" x2="520.328" y2="1399.911"><stop offset="0" stop-color="#09005d"/><stop offset="1" stop-color="#1a0f91"/></linearGradient><path fill="url(#SVGID_20_)" d="M621.3 950l29.9-7.5 27.1 90.1h-44.1z"/><linearGradient id="SVGID_21_" gradientUnits="userSpaceOnUse" x1="1139.286" y1="1322.981" x2="1003.078" y2="1523.509"><stop offset="0" stop-color="#ff928e"/><stop offset="1" stop-color="#feb3b1"/></linearGradient><path d="M989.1 1271.3s32.6 166.4 44.4 166.4c11.8 0 230.9-26.2 230.9-26.2v-47.4l-173.2 6.4-41.8-123.7-60.3 24.5z" fill="url(#SVGID_21_)"/><linearGradient id="SVGID_22_" gradientUnits="userSpaceOnUse" x1="1298.294" y1="1396.426" x2="1147.74" y2="1396.879"><stop offset="0" stop-color="#09005d"/><stop offset="1" stop-color="#1a0f91"/></linearGradient><path fill="url(#SVGID_22_)" d="M1234.6 1378.8h108.5v35.3h-108.5z"/><linearGradient id="SVGID_23_" gradientUnits="userSpaceOnUse" x1="1373.332" y1="1425.411" x2="1051.843" y2="1429.029"><stop offset="0" stop-color="#09005d"/><stop offset="1" stop-color="#1a0f91"/></linearGradient><path d="M1391.9 1432.7v5.8h-214.3v-5.8c0-11.6 8.9-18.7 20.5-18.7h173.7c11.5.1 20.1 7.2 20.1 18.7z" fill="url(#SVGID_23_)"/><linearGradient id="SVGID_24_" gradientUnits="userSpaceOnUse" x1="1250.839" y1="1396.455" x2="1359.345" y2="1396.455"><stop offset="0" stop-color="#09005d"/><stop offset="1" stop-color="#1a0f91"/></linearGradient><path fill="url(#SVGID_24_)" d="M1250.8 1378.8h108.5v35.3h-108.5z"/><linearGradient id="SVGID_25_" gradientUnits="userSpaceOnUse" x1="1482.154" y1="1364.883" x2="1145.418" y2="1077.333"><stop offset="0" stop-color="#09005d"/><stop offset="1" stop-color="#1a0f91"/></linearGradient><path d="M1470.6 1039.2c0-10.2-8.2-18.4-18.4-18.4h-326.7c-10.2 0-18.4 8.2-18.4 18.4v321.2c0 10.2 8.2 18.4 18.4 18.4h326.7c10.2 0 18.4-8.2 18.4-18.4v-321.2z" fill="url(#SVGID_25_)"/><linearGradient id="SVGID_26_" gradientUnits="userSpaceOnUse" x1="1198.99" y1="1425.082" x2="1414.538" y2="1425.082"><stop offset="0" stop-color="#09005d"/><stop offset="1" stop-color="#1a0f91"/></linearGradient><path d="M1414.5 1436l-21.9 1.1-85.9 1.4H1199v-4.3c0-11.6 9.3-21.5 20.8-21.5l86.9-.6 86.8-.4c11.6 0 21 9.2 21 20.8v3.5z" fill="url(#SVGID_26_)"/><linearGradient id="SVGID_27_" gradientUnits="userSpaceOnUse" x1="1161.633" y1="1196.246" x2="1066.702" y2="1209.026"><stop offset="0" stop-color="#09005d"/><stop offset="1" stop-color="#1a0f91"/></linearGradient><path d="M1126.3 1021.7c-10.3 0-19.2 8.3-19.2 18.6V1362c0 10.2 8.8 18.4 19 18.4 4.1 0 8.1-3.4 8.1-7.5V1029c0-4-3.9-7.3-7.9-7.3z" fill="url(#SVGID_27_)"/><linearGradient id="SVGID_28_" gradientUnits="userSpaceOnUse" x1="928.964" y1="1163.103" x2="-96.348" y2="2269.583"><stop offset="0" stop-color="#fe7062"/><stop offset="1" stop-color="#ff928e"/></linearGradient><path d="M948 1451.9H656l17.7-207.6s-21.8-156.5 77.8-173.8l58.7-16s75-11.8 137.8 15.9c62.8 27.7 114.6 194.1 114.6 194.1l-75 30-19.1-61.1-20.5 218.5z" fill="url(#SVGID_28_)"/><linearGradient id="SVGID_29_" gradientUnits="userSpaceOnUse" x1="861.906" y1="917.79" x2="844.249" y2="1191.467"><stop offset="0" stop-color="#ff928e"/><stop offset="1" stop-color="#feb3b1"/></linearGradient><path d="M824.3 954.6l-29.7 114.1s62.1 30 114.8 4l-16.6-110.6-68.5-7.5z" fill="url(#SVGID_29_)"/><linearGradient id="SVGID_30_" gradientUnits="userSpaceOnUse" x1="850.708" y1="833.878" x2="908.722" y2="949.907"><stop offset="0" stop-color="#ff928e"/><stop offset="1" stop-color="#feb3b1"/></linearGradient><path d="M964.2 862.5s4.7 82.7-7 120.9-12.6 65.4-58.7 57c-46-8.4-74.5-43.4-80.5-88 0 0-9.8-68.8 5.9-89.8 15.6-20.9 140.3-.1 140.3-.1z" fill="url(#SVGID_30_)"/><linearGradient id="SVGID_31_" gradientUnits="userSpaceOnUse" x1="968.149" y1="676.173" x2="823.114" y2="993.991"><stop offset="0" stop-color="#09005d"/><stop offset="1" stop-color="#1a0f91"/></linearGradient><path d="M842.7 931.1l2.9-.2c3.6-.2 6.4-3.5 5.9-7.1-1.8-14-3.7-45.4 14-46.1 22.8-.8 107.1 12.1 134.3-9.5 26.1-20.7 24.5-60.6 6.4-78.4a3.24 3.24 0 00-4.4-.2l-3.1 2.7c-2.1 1.9-5.4.3-5.2-2.6.2-2.7-2.9-4.4-5-2.7-8.3 6.4-27.3 14.7-67.4 7.8-57-9.8-100.3-1.2-114.7 35.3-.9 2.3-3.9 2.7-5.4.7-3.1-3.9-8.9-7.3-20-3.3-19.2 6.9-25 41.1-2.6 79.3 1.1 1.8.2 4.2-1.9 4.7-7.2 1.6-19.2 7.5-1.2 27.8 18.7 21 36.4 26.4 43.5 27.8 1.8.3 3.4-.9 3.7-2.7l4.8-35.1c.3-2 2.3-3.2 4.2-2.5l11.2 4.3z" fill="url(#SVGID_31_)"/><linearGradient id="SVGID_32_" gradientUnits="userSpaceOnUse" x1="808.51" y1="924.906" x2="841.891" y2="924.906"><stop offset="0" stop-color="#ff928e"/><stop offset="1" stop-color="#feb3b1"/></linearGradient><path d="M841.5 938.4s5-49.9-20.2-44.7c-25.1 5.2-8.2 54.9 7.6 62.7l12.6-18z" fill="url(#SVGID_32_)"/><path class="st3" d="M1234.6 1357.1h-55.8c-10.9 0-20.1-10-20.1-21.9v-70.3c0-1.5 1.2-2.7 2.7-2.7 1.5 0 2.7 1.2 2.7 2.7v70.3c0 8 5.9 16.5 14.7 16.5h55.8c1.5 0 2.7 1.2 2.7 2.7s-1.2 2.7-2.7 2.7z"/><linearGradient id="SVGID_33_" gradientUnits="userSpaceOnUse" x1="888.479" y1="838.577" x2="861.994" y2="993.703"><stop offset="0" stop-color="#e1473d"/><stop offset="1" stop-color="#e9605a"/></linearGradient><path d="M903.7 1001.9c-53.4-5.1-74.7-64.9-75-65.5l3.9-1.3c.2.6 20.7 57.9 71.5 62.7l-.4 4.1z" fill="url(#SVGID_33_)"/><linearGradient id="SVGID_34_" gradientUnits="userSpaceOnUse" x1="1071.689" y1="801.836" x2="502.081" y2="895.945"><stop offset="0" stop-color="#e1473d"/><stop offset="1" stop-color="#e9605a"/></linearGradient><path d="M841.9 876.9s33.5-81 87.5-80.6c0 0-13.6-9.2-30.5-4.2-16.9 5-63.7 39.6-70.6 84.8 10.1 5.2 13.6 0 13.6 0z" fill="url(#SVGID_34_)"/><linearGradient id="SVGID_35_" gradientUnits="userSpaceOnUse" x1="824.88" y1="705.408" x2="825.721" y2="812.188"><stop offset="0" stop-color="#e1473d"/><stop offset="1" stop-color="#e9605a"/></linearGradient><path d="M833.8 870.3c-30 .9-32.7 38.2-32.7 38.2-6.7 26.3-1.2 40.8 7.7 48.8 6.1 5.5 14.6 7.3 22.4 4.9 7.8-2.4 13.8-8.7 15.7-16.6 1.8-7.2 3.6-13.9 4.5-16.3 2.4-5.7 12.4-59.9-17.6-59z" fill="url(#SVGID_35_)"/><linearGradient id="SVGID_36_" gradientUnits="userSpaceOnUse" x1="785.765" y1="917.619" x2="949.462" y2="914.891"><stop offset="0" stop-color="#fe7062"/><stop offset="1" stop-color="#ff928e"/></linearGradient><path d="M834.9 880c-5.8-2.1-12.3.1-15.7 5.3-24.2 37.2-7.4 66.9 2.9 69.3C833 957 841.9 904 841.9 890c0-5.8-3.2-8.7-7-10z" fill="url(#SVGID_36_)"/><linearGradient id="SVGID_37_" gradientUnits="userSpaceOnUse" x1="926.174" y1="965.072" x2="915.006" y2="984.773"><stop offset="0" stop-color="#e1473d"/><stop offset="1" stop-color="#e9605a"/></linearGradient><path d="M910.2 1006.9h-7.6c-3.8 0-6.9-3.1-6.9-6.9 0-3.8 3.1-6.9 6.9-6.9h7.6c3.8 0 6.9 3.1 6.9 6.9 0 3.7-3.1 6.9-6.9 6.9z" fill="url(#SVGID_37_)"/><path class="st5" d="M1511.5 1436l-1098.2 3.4c-4.5 0-8.6 3.5-9.1 7.9l-1.7 13.4c-.5 4.4 2.7 7.9 7.2 7.9l1104-5.9c3.8 0 6.6-3.3 6.2-7.3l-1-12.2c-.4-4-3.7-7.2-7.4-7.2z"/><linearGradient id="SVGID_38_" gradientUnits="userSpaceOnUse" x1="974.984" y1="1416.634" x2="1069.369" y2="1416.634"><stop offset="0" stop-color="#09005d"/><stop offset="1" stop-color="#1a0f91"/></linearGradient><path d="M975.2 1438.5h94.1s-21.4-45.9-60.5-43.7c-39 2.3-33.6 43.7-33.6 43.7z" fill="url(#SVGID_38_)"/><linearGradient id="SVGID_39_" gradientUnits="userSpaceOnUse" x1="619.635" y1="1192.025" x2="894.574" y2="1396.339"><stop offset="0" stop-color="#ff928e"/><stop offset="1" stop-color="#feb3b1"/></linearGradient><path d="M718.6 1308.8l65.5-30.1 57.9 101.7s163.7-25.5 192.8 5.5c29.1 30.9 15.5 30.5 11.8 30.5-3.6 0-20.5-18.2-20.5-18.2s14.7 22.2 6.8 23.2c-7.9 1-27.3-20-27.3-20s15.9 27.7 6.4 24.6c-9.5-3.2-17.3-18.2-17.3-18.2s12.7 17.8 4.1 18.4c-8.6.7-21.8-14.7-21.8-14.7s-20.2 9.2-31.8 9.2c-11.6 0-128.5 29.2-149.6 17.1-21.1-12.2-77-129-77-129z" fill="url(#SVGID_39_)"/><linearGradient id="SVGID_40_" gradientUnits="userSpaceOnUse" x1="905.797" y1="1017.905" x2="762.022" y2="1238.612"><stop offset="0" stop-color="#e1473d"/><stop offset="1" stop-color="#e9605a"/></linearGradient><path d="M784.1 1280.1c-.4 0-.8-.2-1.1-.5-.5-.6-.3-1.5.3-1.9l12.1-9.1-38.8-107.3c-.3-.7.1-1.5.8-1.7.7-.3 1.5.1 1.7.8l39.1 108.2c.2.6 0 1.2-.5 1.6l-12.9 9.7c-.1.1-.4.2-.7.2z" fill="url(#SVGID_40_)"/><linearGradient id="SVGID_41_" gradientUnits="userSpaceOnUse" x1="742.644" y1="1380.837" x2="614.415" y2="1100.733"><stop offset="0" stop-color="#e1473d"/><stop offset="1" stop-color="#e9605a"/></linearGradient><path d="M712.4 1304.5c-.4 0-.9-.2-1.1-.6l-32.7-48.2c-.4-.6-.3-1.5.4-1.9.6-.4 1.5-.3 1.9.4l32.7 48.2c.4.6.3 1.5-.4 1.9-.3.1-.5.2-.8.2z" fill="url(#SVGID_41_)"/><linearGradient id="SVGID_42_" gradientUnits="userSpaceOnUse" x1="1579.27" y1="1072.42" x2="1673.139" y2="1072.42"><stop offset="0" stop-color="#dae3fe"/><stop offset="1" stop-color="#e9effd"/></linearGradient><path d="M1615.3 1123.5c-.7 0-1.5-.3-2-.8l-33.3-35.2c-.5-.6-.8-1.3-.7-2l3.2-46.8c.1-1.2.9-2.1 2-2.4l56.4-14.7c1.1-.3 2.2.1 2.9 1l28.8 39.1c.5.6.6 1.4.5 2.1l-9 45.5c-.2 1-1 1.8-2 2.1l-46.1 12.2c-.2-.1-.5-.1-.7-.1zm-30.5-38.9l31.4 33.2 42.9-11.3 8.4-42.7-27-36.7-52.7 13.8-3 43.7z" fill="url(#SVGID_42_)"/><linearGradient id="SVGID_43_" gradientUnits="userSpaceOnUse" x1="1579.269" y1="1054.798" x2="1644.299" y2="1054.798"><stop offset="0" stop-color="#dae3fe"/><stop offset="1" stop-color="#e9effd"/></linearGradient><path d="M1582 1088.3c-1.2 0-2.2-.8-2.6-1.9-.4-1.4.4-2.9 1.8-3.4l42.8-12.7 14.9-47c.5-1.4 2-2.2 3.4-1.8 1.4.5 2.2 2 1.8 3.4l-15.4 48.4c-.3.9-1 1.5-1.8 1.8l-44.2 13.1c-.2 0-.5.1-.7.1z" fill="url(#SVGID_43_)"/><linearGradient id="SVGID_44_" gradientUnits="userSpaceOnUse" x1="1623.492" y1="1090.526" x2="1664.166" y2="1090.526"><stop offset="0" stop-color="#dae3fe"/><stop offset="1" stop-color="#e9effd"/></linearGradient><path d="M1661.5 1111.3c-.7 0-1.4-.3-1.9-.8l-35.2-36.2c-1-1.1-1-2.8.1-3.8s2.8-1 3.8.1l35.2 36.2c1 1.1 1 2.8-.1 3.8-.6.5-1.3.7-1.9.7z" fill="url(#SVGID_44_)"/><linearGradient id="SVGID_45_" gradientUnits="userSpaceOnUse" x1="1858.203" y1="1311.616" x2="1937.296" y2="1311.616"><stop offset="0" stop-color="#dae3fe"/><stop offset="1" stop-color="#e9effd"/></linearGradient><path d="M1934.6 1350.3c-.3 0-.7-.1-1-.2l-73.7-28.3c-.9-.4-1.6-1.2-1.7-2.2-.1-1 .3-2 1.1-2.6l62.6-43.8c.8-.5 1.8-.6 2.6-.3.9.4 1.5 1.2 1.6 2.1l11.1 72c.1 1-.2 1.9-1 2.5-.4.6-1 .8-1.6.8zm-67.9-31.6l64.5 24.8-9.7-63.1-54.8 38.3z" fill="url(#SVGID_45_)"/><linearGradient id="SVGID_46_" gradientUnits="userSpaceOnUse" x1="2287.914" y1="1160.517" x2="2325.804" y2="1160.517"><stop offset="0" stop-color="#dae3fe"/><stop offset="1" stop-color="#e9effd"/></linearGradient><path d="M2306.9 1179.5c-10.4 0-18.9-8.5-18.9-18.9 0-10.4 8.5-18.9 18.9-18.9 10.4 0 18.9 8.5 18.9 18.9 0 10.4-8.5 18.9-18.9 18.9zm0-32.5c-7.5 0-13.5 6.1-13.5 13.5s6.1 13.5 13.5 13.5c7.5 0 13.5-6.1 13.5-13.5s-6.1-13.5-13.5-13.5z" fill="url(#SVGID_46_)"/><linearGradient id="SVGID_47_" gradientUnits="userSpaceOnUse" x1="1511.255" y1="238.821" x2="1829.994" y2="238.821"><stop offset="0" stop-color="#dae3fe"/><stop offset="1" stop-color="#e9effd"/></linearGradient><path d="M1518 360.2c-3.7 0-6.8-3-6.8-6.8v-21.7c0-3.7 3-6.8 6.8-6.8 3.7 0 6.8 3 6.8 6.8v21.7c0 3.8-3 6.8-6.8 6.8zm0-57c-3.7 0-6.8-3-6.8-6.8v-21.7c0-3.7 3-6.8 6.8-6.8 3.7 0 6.8 3 6.8 6.8v21.7c0 3.8-3 6.8-6.8 6.8zm0-56.9c-3.7 0-6.8-3-6.8-6.8v-21.7c0-3.7 3-6.8 6.8-6.8 3.7 0 6.8 3 6.8 6.8v21.7c0 3.7-3 6.8-6.8 6.8zm0-57c-3.7 0-6.8-3-6.8-6.8v-21.7c0-3.7 3-6.8 6.8-6.8 3.7 0 6.8 3 6.8 6.8v21.7c0 3.8-3 6.8-6.8 6.8zm0-57c-3.7 0-6.8-3-6.8-6.8v-8.1h27.1c3.7 0 6.8 3 6.8 6.8 0 3.7-3 6.8-6.8 6.8H1522c-1 .8-2.4 1.3-4 1.3zm305.2-1.3h-21.7c-3.7 0-6.8-3-6.8-6.8 0-3.7 3-6.8 6.8-6.8h21.7c3.7 0 6.8 3 6.8 6.8s-3 6.8-6.8 6.8zm-57 0h-21.7c-3.7 0-6.8-3-6.8-6.8 0-3.7 3-6.8 6.8-6.8h21.7c3.7 0 6.8 3 6.8 6.8s-3 6.8-6.8 6.8zm-56.9 0h-21.7c-3.7 0-6.8-3-6.8-6.8 0-3.7 3-6.8 6.8-6.8h21.7c3.7 0 6.8 3 6.8 6.8s-3.1 6.8-6.8 6.8zm-57 0h-21.7c-3.7 0-6.8-3-6.8-6.8 0-3.7 3-6.8 6.8-6.8h21.7c3.7 0 6.8 3 6.8 6.8s-3 6.8-6.8 6.8zm-57 0h-21.7c-3.7 0-6.8-3-6.8-6.8 0-3.7 3-6.8 6.8-6.8h21.7c3.7 0 6.8 3 6.8 6.8s-3 6.8-6.8 6.8z" fill="url(#SVGID_47_)"/><linearGradient id="SVGID_48_" gradientUnits="userSpaceOnUse" x1="1282.034" y1="774.574" x2="1511.255" y2="774.574"><stop offset="0" stop-color="#dae3fe"/><stop offset="1" stop-color="#e9effd"/></linearGradient><path d="M1481.4 912.2h-21.7c-3.7 0-6.8-3-6.8-6.8s3-6.8 6.8-6.8h21.7c3.7 0 6.8 3 6.8 6.8s-3 6.8-6.8 6.8zm-57 0h-21.7c-3.7 0-6.8-3-6.8-6.8s3-6.8 6.8-6.8h21.7c3.7 0 6.8 3 6.8 6.8s-3 6.8-6.8 6.8zm-56.9 0h-21.7c-3.7 0-6.8-3-6.8-6.8s3-6.8 6.8-6.8h21.7c3.7 0 6.8 3 6.8 6.8s-3.1 6.8-6.8 6.8zm-57 0h-21.7c-3.7 0-6.8-3-6.8-6.8s3-6.8 6.8-6.8h21.7c3.7 0 6.8 3 6.8 6.8s-3 6.8-6.8 6.8zm194-12.2c-3.7 0-6.8-3-6.8-6.8v-21.7c0-3.7 3-6.8 6.8-6.8s6.8 3 6.8 6.8v21.7c0 3.8-3.1 6.8-6.8 6.8zm0-56.9c-3.7 0-6.8-3-6.8-6.8v-21.7c0-3.7 3-6.8 6.8-6.8s6.8 3 6.8 6.8v21.7c0 3.7-3.1 6.8-6.8 6.8zm0-57c-3.7 0-6.8-3-6.8-6.8v-21.7c0-3.7 3-6.8 6.8-6.8s6.8 3 6.8 6.8v21.7c0 3.8-3.1 6.8-6.8 6.8zm0-57c-3.7 0-6.8-3-6.8-6.8v-21.7c0-3.7 3-6.8 6.8-6.8s6.8 3 6.8 6.8v21.7c0 3.8-3.1 6.8-6.8 6.8zm0-56.9c-3.7 0-6.8-3-6.8-6.8v-21.7c0-3.7 3-6.8 6.8-6.8s6.8 3 6.8 6.8v21.7c0 3.7-3.1 6.8-6.8 6.8z" fill="url(#SVGID_48_)"/><linearGradient id="SVGID_49_" gradientUnits="userSpaceOnUse" x1="843.937" y1="436.847" x2="1178.953" y2="436.847"><stop offset="0" stop-color="#dae3fe"/><stop offset="1" stop-color="#e9effd"/></linearGradient><path d="M1172.2 578.6h-21.7c-3.7 0-6.8-3-6.8-6.8s3-6.8 6.8-6.8h21.7c3.7 0 6.8 3 6.8 6.8s-3.1 6.8-6.8 6.8zm-57 0h-21.7c-3.7 0-6.8-3-6.8-6.8s3-6.8 6.8-6.8h21.7c3.7 0 6.8 3 6.8 6.8s-3 6.8-6.8 6.8zm-57 0h-21.7c-3.7 0-6.8-3-6.8-6.8s3-6.8 6.8-6.8h21.7c3.7 0 6.8 3 6.8 6.8s-3 6.8-6.8 6.8zm-56.9 0h-21.7c-3.7 0-6.8-3-6.8-6.8s3-6.8 6.8-6.8h21.7c3.7 0 6.8 3 6.8 6.8s-3.1 6.8-6.8 6.8zm-57 0h-21.7c-3.7 0-6.8-3-6.8-6.8s3-6.8 6.8-6.8h21.7c3.7 0 6.8 3 6.8 6.8s-3 6.8-6.8 6.8zm-57 0h-21.7c-3.7 0-6.8-3-6.8-6.8s3-6.8 6.8-6.8h21.7c3.7 0 6.8 3 6.8 6.8s-3 6.8-6.8 6.8zm-36.6-20.4c-3.7 0-6.8-3-6.8-6.8v-21.7c0-3.7 3-6.8 6.8-6.8s6.8 3 6.8 6.8v21.7c0 3.8-3 6.8-6.8 6.8zm0-56.9c-3.7 0-6.8-3-6.8-6.8v-21.7c0-3.7 3-6.8 6.8-6.8s6.8 3 6.8 6.8v21.7c0 3.7-3 6.8-6.8 6.8zm0-57c-3.7 0-6.8-3-6.8-6.8v-21.7c0-3.7 3-6.8 6.8-6.8s6.8 3 6.8 6.8v21.7c0 3.8-3 6.8-6.8 6.8zm0-57c-3.7 0-6.8-3-6.8-6.8v-21.7c0-3.7 3-6.8 6.8-6.8s6.8 3 6.8 6.8v21.7c0 3.8-3 6.8-6.8 6.8zm0-56.9c-3.7 0-6.8-3-6.8-6.8v-21.7c0-3.7 3-6.8 6.8-6.8s6.8 3 6.8 6.8v21.7c0 3.7-3 6.8-6.8 6.8z" fill="url(#SVGID_49_)"/><linearGradient id="SVGID_50_" gradientUnits="userSpaceOnUse" x1="1865.259" y1="503.985" x2="2242.321" y2="503.985"><stop offset="0" stop-color="#dae3fe"/><stop offset="1" stop-color="#e9effd"/></linearGradient><path d="M2235.5 510.8h-21.7c-3.7 0-6.8-3-6.8-6.8 0-3.7 3-6.8 6.8-6.8h21.7c3.7 0 6.8 3 6.8 6.8 0 3.7-3 6.8-6.8 6.8zm-56.9 0h-21.7c-3.7 0-6.8-3-6.8-6.8 0-3.7 3-6.8 6.8-6.8h21.7c3.7 0 6.8 3 6.8 6.8 0 3.7-3.1 6.8-6.8 6.8zm-57 0h-21.7c-3.7 0-6.8-3-6.8-6.8 0-3.7 3-6.8 6.8-6.8h21.7c3.7 0 6.8 3 6.8 6.8 0 3.7-3 6.8-6.8 6.8zm-57 0h-21.7c-3.7 0-6.8-3-6.8-6.8 0-3.7 3-6.8 6.8-6.8h21.7c3.7 0 6.8 3 6.8 6.8 0 3.7-3 6.8-6.8 6.8zm-56.9 0H1986c-3.7 0-6.8-3-6.8-6.8 0-3.7 3-6.8 6.8-6.8h21.7c3.7 0 6.8 3 6.8 6.8 0 3.7-3.1 6.8-6.8 6.8zm-57 0H1929c-3.7 0-6.8-3-6.8-6.8 0-3.7 3-6.8 6.8-6.8h21.7c3.7 0 6.8 3 6.8 6.8 0 3.7-3 6.8-6.8 6.8zm-57 0H1872c-3.7 0-6.8-3-6.8-6.8 0-3.7 3-6.8 6.8-6.8h21.7c3.7 0 6.8 3 6.8 6.8 0 3.7-3 6.8-6.8 6.8z" fill="url(#SVGID_50_)"/><linearGradient id="SVGID_51_" gradientUnits="userSpaceOnUse" x1="1857.66" y1="130.811" x2="1947.775" y2="130.811"><stop offset="0" stop-color="#dae3fe"/><stop offset="1" stop-color="#e9effd"/></linearGradient><circle cx="1902.7" cy="130.8" r="45.1" fill="url(#SVGID_51_)"/><linearGradient id="SVGID_52_" gradientUnits="userSpaceOnUse" x1="2261.848" y1="502.447" x2="2351.963" y2="502.447"><stop offset="0" stop-color="#dae3fe"/><stop offset="1" stop-color="#e9effd"/></linearGradient><circle cx="2306.9" cy="502.4" r="45.1" fill="url(#SVGID_52_)"/><linearGradient id="SVGID_53_" gradientUnits="userSpaceOnUse" x1="810.568" y1="228.467" x2="900.683" y2="228.467"><stop offset="0" stop-color="#dae3fe"/><stop offset="1" stop-color="#e9effd"/></linearGradient><circle cx="855.6" cy="228.5" r="45.1" fill="url(#SVGID_53_)"/><linearGradient id="SVGID_54_" gradientUnits="userSpaceOnUse" x1="1155.077" y1="906.636" x2="1245.193" y2="906.636"><stop offset="0" stop-color="#dae3fe"/><stop offset="1" stop-color="#e9effd"/></linearGradient><circle cx="1200.1" cy="906.6" r="45.1" fill="url(#SVGID_54_)"/><linearGradient id="SVGID_55_" gradientUnits="userSpaceOnUse" x1="2571.941" y1="565.975" x2="2623.091" y2="619.398" gradientTransform="rotate(15.312 1774.176 -298.833)"><stop offset="0" stop-color="#09005d"/><stop offset="1" stop-color="#1a0f91"/></linearGradient><path d="M2308.8 715.5s-13.8-3-23.1 24.5c0 0 23.8 36.9 64.6 55.3 3.1 1.4 1.5-23.1 1.2-26.4-1.6-15.9-16.3-29.9-42.7-53.4z" fill="url(#SVGID_55_)"/><linearGradient id="SVGID_56_" gradientUnits="userSpaceOnUse" x1="2335.101" y1="526.91" x2="2240.092" y2="679.934"><stop offset="0" stop-color="#09005d"/><stop offset="1" stop-color="#1a0f91"/></linearGradient><path d="M2142.4 671.3h29.8s91.4-100.9 151.3-111.1c0 0 37.4 62.2-6.6 161.7-3.5 8-9.1 2.6-16.5-2.1-2.2-1.4-3.8-3.3-4.8-5.7l3.5-85s-78 68.2-91.5 81.3c-13.4 13.3-82.3 5.3-65.2-39.1z" fill="url(#SVGID_56_)"/><linearGradient id="SVGID_57_" gradientUnits="userSpaceOnUse" x1="2445.545" y1="867.121" x2="2542.295" y2="938.13" gradientTransform="translate(-62.155)"><stop offset="0" stop-color="#09005d"/><stop offset="1" stop-color="#1a0f91"/></linearGradient><path d="M2430.2 883.2c-12.5-10.9-32.4-23.2-61.1-26.7l-9.7 5.9s6.2 9.1 17.5 18.8c10.4 6 26.4 14.2 39.7 16 13 1.7 14.9-6.1 13.6-14z" fill="url(#SVGID_57_)"/><linearGradient id="SVGID_58_" gradientUnits="userSpaceOnUse" x1="2285.706" y1="767.729" x2="2357.271" y2="767.729"><stop offset="0" stop-color="#09005d"/><stop offset="1" stop-color="#1a0f91"/></linearGradient><path d="M2351.5 769c-8.1.4-14.2 10-31.1-2.1-16.4-11.7-27.5-24.1-33.1-31-.5 1.3-1 2.7-1.5 4.2 0 0 24.6 40.8 65.4 59.2 3.1 1.4 6.5-1.1 6.1-4.5-.6-6.1-2.1-15.3-5.8-25.8z" fill="url(#SVGID_58_)"/><path class="st4" d="M2439.6 892.5c-2.5-2.8-5.6-6-9.4-9.3 1.3 7.9-.6 15.7-13.5 14-13.3-1.8-29.3-9.9-39.7-16 13 11.1 32.8 22.9 57.9 22.2 5.5-.2 8.4-6.7 4.7-10.9z"/><linearGradient id="SVGID_59_" gradientUnits="userSpaceOnUse" x1="2122.132" y1="637.385" x2="2267.652" y2="637.385"><stop offset="0" stop-color="#ff928e"/><stop offset="1" stop-color="#feb3b1"/></linearGradient><path d="M2146.8 580.5s15 75.2 88.6 105l26.2-3.1 6.2 9.8-61.4 2s-52.5-20.8-80.2-77.4c-1.1-1.8-16.4-33.4 20.6-36.3z" fill="url(#SVGID_59_)"/><linearGradient id="SVGID_60_" gradientUnits="userSpaceOnUse" x1="2104.518" y1="459.95" x2="2209.755" y2="829.158" gradientTransform="translate(-62.155)"><stop offset="0" stop-color="#fe7062"/><stop offset="1" stop-color="#ff928e"/></linearGradient><path d="M2154.8 691.6s-17.1-46.4-20.7-91.5c0 0 12.5-10.7 20.3-15.4 2.5-1.5 3.5-4.7 2.2-7.3-5.7-11.9-40.4-58.6-43-59.2-14.1-3.5-72.1-31.1-112.9 24.7-17.5 24 3.5 97.7 82.9 174.1l16.4 3.1 54.8-28.5z" fill="url(#SVGID_60_)"/><linearGradient id="SVGID_61_" gradientUnits="userSpaceOnUse" x1="2090.188" y1="470.401" x2="2040.161" y2="573.398"><stop offset="0" stop-color="#ff928e"/><stop offset="1" stop-color="#feb3b1"/></linearGradient><path d="M2061.4 478.9l-10.4 34.6c-.5 1.6.1 3.3 1.5 4.2 5 3.4 18.1 10.2 36 3.6 2-.8 3.5-2.7 3.6-4.8l2.5-30.1-33.2-7.5z" fill="url(#SVGID_61_)"/><linearGradient id="SVGID_62_" gradientUnits="userSpaceOnUse" x1="2083.487" y1="405.237" x2="2090.214" y2="493.099"><stop offset="0" stop-color="#ff928e"/><stop offset="1" stop-color="#feb3b1"/></linearGradient><path d="M2122.1 450.8s-5.1 35.9-18.9 46.9c-13.8 11-40.6 2.7-49.7-24.3l18.1-46.2 50.5 23.6z" fill="url(#SVGID_62_)"/><linearGradient id="SVGID_63_" gradientUnits="userSpaceOnUse" x1="2138.935" y1="360.105" x2="2158.708" y2="472.886" gradientTransform="translate(-62.155)"><stop offset="0" stop-color="#09005d"/><stop offset="1" stop-color="#1a0f91"/></linearGradient><path d="M2069.6 457.1c1 .3 2.1-.3 2.3-1.4.5-3.3 1.7-9.9 4.3-14.3 0 0-1.3-4.7 11.9 2.4 13.2 7.1 33.1 17.6 44.7 11.3 11.4-6.1 22.9-36.6-7.2-30.9-1.1.2-2.2-.7-2.1-1.9.4-5-.1-16.6-11.8-20.3-10.9-3.5-5.1 2.2-7.5 5.1-.7.9.9-3-14.6-.7-5.3.8-12.2-13.4-25.3-7.6-10.8 4.8-12.5 11.4-12.3 15.5.1 1.3-1.3 2.3-2.5 1.7-3.3-1.5-8.6-2.3-13.7 4.1-7 8.8 3 16.5 6 18.5.5.3.8.9.8 1.5 0 4.6.7 24.6 10.8 35.9.9 1 2.5.7 3-.5l7.7-18.4c.4-.9 1.3-1.3 2.2-1l3.3 1z" fill="url(#SVGID_63_)"/><linearGradient id="SVGID_64_" gradientUnits="userSpaceOnUse" x1="2058.655" y1="407.138" x2="2065.382" y2="495"><stop offset="0" stop-color="#ff928e"/><stop offset="1" stop-color="#feb3b1"/></linearGradient><path d="M2069.8 460.8s-4.7-19.2-11.9-13c-7.2 6.2 1.9 20 10.1 22.6l1.8-9.6z" fill="url(#SVGID_64_)"/><linearGradient id="SVGID_65_" gradientUnits="userSpaceOnUse" x1="2394.034" y1="592.753" x2="2333.233" y2="654.441" gradientTransform="translate(-62.155)"><stop offset="0" stop-color="#fe7062"/><stop offset="1" stop-color="#ff928e"/></linearGradient><path d="M2312.6 620.4c-2.6 5.3-7.1 8.4-10.1 6.9-2.9-1.5-3.2-6.9-.6-12.2 2.6-5.3 7.1-8.4 10.1-6.9 2.9 1.5 3.2 6.9.6 12.2z" fill="url(#SVGID_65_)"/><linearGradient id="SVGID_66_" gradientUnits="userSpaceOnUse" x1="2212.894" y1="495.868" x2="2140.376" y2="565.863"><stop offset="0" stop-color="#e1473d"/><stop offset="1" stop-color="#e9605a"/></linearGradient><path d="M2134.1 601.5c-.8 0-1.4-.6-1.4-1.4.1-20.6-7.9-48-8-48.3-.2-.7.2-1.5.9-1.7.7-.2 1.5.2 1.7.9.1.3 8.2 28 8.1 49 0 .9-.6 1.5-1.3 1.5z" fill="url(#SVGID_66_)"/><linearGradient id="SVGID_67_" gradientUnits="userSpaceOnUse" x1="2132.483" y1="500.007" x2="2082.036" y2="575.677"><stop offset="0" stop-color="#e1473d"/><stop offset="1" stop-color="#e9605a"/></linearGradient><path d="M2089 611.7c-.4 0-.8-.2-1.1-.5-.9-1.1-21.9-27.9-29.4-46.8-.3-.7.1-1.5.8-1.8.7-.3 1.5.1 1.8.8 7.3 18.6 28.8 45.9 29 46.1.5.6.4 1.4-.2 1.9-.3.2-.6.3-.9.3z" fill="url(#SVGID_67_)"/><linearGradient id="SVGID_68_" gradientUnits="userSpaceOnUse" x1="2094.942" y1="541.802" x2="2042.602" y2="613.69"><stop offset="0" stop-color="#e1473d"/><stop offset="1" stop-color="#e9605a"/></linearGradient><path d="M2058.8 653.9l-1-.4c-31.5-13.5-51-51.1-51.2-51.5-.3-.7-.1-1.5.6-1.8.7-.3 1.5-.1 1.8.6.2.4 18.8 36.3 48.8 49.8l3-4.2c.4-.6 1.3-.8 1.9-.3.6.4.8 1.3.3 1.9l-4.2 5.9z" fill="url(#SVGID_68_)"/><linearGradient id="SVGID_69_" gradientUnits="userSpaceOnUse" x1="2274.786" y1="588.872" x2="2250.193" y2="697.334"><stop offset="0" stop-color="#09005d"/><stop offset="1" stop-color="#1a0f91"/></linearGradient><path d="M2377 860.7c-14.4-100.5-94.1-166.3-94.1-166.3l-139.4-1.5-48.4 19.6c-5.8-.1-10.4.8-13.3 2.9 0 0 37.8 52.2 100 26.2 22.5-5.6 74.2-11.4 103.7 40.8 31.4 55.6 79.5 87 79.5 87 14.4-1.3 12-8.7 12-8.7z" fill="url(#SVGID_69_)"/><linearGradient id="SVGID_70_" gradientUnits="userSpaceOnUse" x1="2044.025" y1="556.924" x2="2192.004" y2="701.54"><stop offset="0" stop-color="#ff928e"/><stop offset="1" stop-color="#feb3b1"/></linearGradient><path d="M2089 610.3s47.4 56.1 108.1 64.4c0 0 15.7-14.3 27.3-9.2s27.6 27.6 27.6 27.6h-77.8s-73.6-2.6-110.4-47.2c3-15.7 11.8-25 25.2-35.6z" fill="url(#SVGID_70_)"/><linearGradient id="SVGID_71_" gradientUnits="userSpaceOnUse" x1="2301.109" y1="641.308" x2="2240.572" y2="531.585"><stop offset="0" stop-color="#4042e2"/><stop offset="1" stop-color="#4f52ff"/></linearGradient><path d="M2248.1 697.5l35-116.6c1.4-4.8 5.7-8.1 10.6-8.5l47.2-3.2c4.8-.3 8.4 4.4 6.8 8.9l-39.1 111.3c-1.3 3.6-4.5 6.1-8.3 6.5l-46.5 5.2-5.7-3.6z" fill="url(#SVGID_71_)"/><linearGradient id="SVGID_72_" gradientUnits="userSpaceOnUse" x1="2267.564" y1="572.8" x2="2236.665" y2="632.076"><stop offset="0" stop-color="#4042e2"/><stop offset="1" stop-color="#4f52ff"/></linearGradient><path d="M2253.8 701.1h-.2l-99-5c-2.4-.1-4.3-2.2-4.2-4.7.1-2.4 2.2-4.4 4.7-4.2l99 5c2.4.1 4.3 2.2 4.2 4.7-.2 2.3-2.1 4.2-4.5 4.2z" fill="url(#SVGID_72_)"/><linearGradient id="SVGID_73_" gradientUnits="userSpaceOnUse" x1="2022.433" y1="406.225" x2="2054.834" y2="384.258" gradientTransform="rotate(4.617 1038.256 806.357)"><stop offset="0" stop-color="#4042e2"/><stop offset="1" stop-color="#4f52ff"/></linearGradient><path d="M2087.1 488.9c-21.3-3.8-27.9-28.5-28-28.7l1.6-.4c.1.2 6.4 23.9 26.6 27.5l-.2 1.6z" fill="url(#SVGID_73_)"/><linearGradient id="SVGID_74_" gradientUnits="userSpaceOnUse" x1="2084.989" y1="487.262" x2="2093.817" y2="487.262"><stop offset="0" stop-color="#4042e2"/><stop offset="1" stop-color="#4f52ff"/></linearGradient><path d="M2091.3 489.8h-3.8c-1.4 0-2.5-1.1-2.5-2.5s1.1-2.5 2.5-2.5h3.8c1.4 0 2.5 1.1 2.5 2.5 0 1.3-1.1 2.5-2.5 2.5z" fill="url(#SVGID_74_)"/><linearGradient id="SVGID_75_" gradientUnits="userSpaceOnUse" x1="2125.728" y1="324.923" x2="1896.437" y2="362.806" gradientTransform="rotate(4.617 1038.256 806.357)"><stop offset="0" stop-color="#4042e2"/><stop offset="1" stop-color="#4f52ff"/></linearGradient><path d="M2066.4 436.7s16.1-31.4 37.7-29.5c0 0-5.2-4.1-12.1-2.7-6.9 1.5-26.9 13.8-31.1 31.8 3.9 2.4 5.5.4 5.5.4z" fill="url(#SVGID_75_)"/><linearGradient id="SVGID_76_" gradientUnits="userSpaceOnUse" x1="2070.023" y1="364.245" x2="1943.725" y2="385.112" gradientTransform="rotate(4.617 1038.256 806.357)"><stop offset="0" stop-color="#4042e2"/><stop offset="1" stop-color="#4f52ff"/></linearGradient><path d="M2063.4 433.8c-12.1-.6-14.4 14.3-14.4 14.3-3.5 10.3-1.8 16.3 1.5 19.8 2.3 2.4 5.6 3.4 8.8 2.7 3.2-.7 5.8-3 6.9-6.2.9-2.8 1.9-5.5 2.3-6.4 1.2-2.2 7-23.6-5.1-24.2z" fill="url(#SVGID_76_)"/><linearGradient id="SVGID_77_" gradientUnits="userSpaceOnUse" x1="2053.582" y1="378.041" x2="2056.735" y2="424.705"><stop offset="0" stop-color="#4042e2"/><stop offset="1" stop-color="#4f52ff"/></linearGradient><path d="M2063.5 437.7c-2.3-1-4.9-.4-6.5 1.6-10.9 14.1-5.1 26.6-1.1 27.9 4.3 1.3 9.6-19.6 10-25.3.3-2.3-.9-3.5-2.4-4.2z" fill="url(#SVGID_77_)"/><linearGradient id="SVGID_78_" gradientUnits="userSpaceOnUse" x1="1881.296" y1="856.481" x2="1969.662" y2="856.481"><stop offset="0" stop-color="#dae3fe"/><stop offset="1" stop-color="#e9effd"/></linearGradient><path d="M1909.6 905.1c-.6 0-1.1-.2-1.6-.5l-25.6-18.2c-.7-.5-1.1-1.2-1.1-2-.1-.8.3-1.6.9-2.2l36.4-34.2-22.2-16.2c-.8-.6-1.3-1.7-1.1-2.7.2-1 .9-1.9 1.9-2.1l69-19.1c.9-.2 1.8 0 2.5.5.7.6 1 1.4 1 2.3l-5.3 61.1c-.1.9-.7 1.8-1.5 2.2-.9.4-1.9.4-2.7-.2l-19.2-12.3-29.1 42.4c-.4.6-1 1-1.8 1.1-.2.1-.4.1-.5.1zm-21.3-21.2l20.6 14.7 29-42.3c.8-1.2 2.5-1.5 3.7-.7l17.7 11.3 4.6-52.7-59.8 16.5 20.3 14.8c.7.5 1.1 1.2 1.1 2 .1.8-.3 1.6-.9 2.1l-36.3 34.3z" fill="url(#SVGID_78_)"/><linearGradient id="SVGID_79_" gradientUnits="userSpaceOnUse" x1="1563.436" y1="958.407" x2="2559.138" y2="958.407"><stop offset="0" stop-color="#dae3fe"/><stop offset="1" stop-color="#e9effd"/></linearGradient><path d="M1593.6 1267.2h-4.1c-1.1 0-2.1-.9-2.1-2.1 0-1.1.9-2.1 2.1-2.1h13.5c1.1.1 2.1.9 2.1 2.1 0 1.1-.9 2.1-2.1 2.1h-9.4zm-17.7-.2c-3.5-.1-7-.1-10.5-.2-1.1 0-2.1-1-2-2.1 0-1.1 1-2.1 2.1-2 3.5.1 7 .1 10.4.2 1.1 0 2.1 1 2 2.1.1 1.1-.8 2-2 2zm40.7 0c-1.1 0-2.1-.9-2.1-2s.9-2.1 2-2.1c4.5-.1 9-.2 13.5-.4 1.1 0 2.1.9 2.1 2s-.9 2.1-2 2.1c-4.4.1-8.9.3-13.5.4zm27.1-.9c-1.1 0-2-.9-2.1-2-.1-1.1.8-2.1 2-2.2 4.5-.2 9-.4 13.5-.7 1.1-.1 2.1.8 2.2 2 .1 1.1-.8 2.1-2 2.2-4.4.2-8.9.5-13.6.7.1 0 .1 0 0 0zm27.1-1.6c-1.1 0-2-.8-2.1-1.9-.1-1.1.8-2.1 1.9-2.2 4.5-.3 9-.7 13.5-1 1.2-.1 2.1.8 2.2 1.9.1 1.1-.8 2.1-1.9 2.2-4.5.4-9 .7-13.5 1h-.1zm27-2.2c-1.1 0-2-.8-2.1-1.9-.1-1.1.7-2.2 1.9-2.3 4.5-.4 9-.9 13.5-1.4 1.1-.1 2.2.7 2.3 1.8.1 1.1-.7 2.2-1.8 2.3-4.5.5-9 .9-13.5 1.4-.1.1-.2.1-.3.1zm27-2.8c-1 0-1.9-.8-2.1-1.8-.1-1.1.7-2.2 1.8-2.3 4.5-.5 9-1.1 13.4-1.7 1.1-.2 2.2.6 2.3 1.8.2 1.1-.6 2.2-1.8 2.3-4.5.6-9 1.2-13.5 1.7h-.1zm26.9-3.6c-1 0-1.9-.7-2-1.8-.2-1.1.6-2.2 1.8-2.3 4.5-.7 8.9-1.3 13.4-2 1.1-.2 2.2.6 2.4 1.7.2 1.1-.6 2.2-1.7 2.4-4.5.7-8.9 1.4-13.4 2.1-.3-.1-.4-.1-.5-.1zm26.8-4.3c-1 0-1.9-.7-2-1.7-.2-1.1.6-2.2 1.7-2.4 4.5-.8 8.9-1.6 13.3-2.4 1.1-.2 2.2.5 2.4 1.7.2 1.1-.5 2.2-1.7 2.4-4.4.8-8.9 1.6-13.4 2.4h-.3zm26.6-5c-1 0-1.8-.7-2-1.7-.2-1.1.5-2.2 1.6-2.4 4.4-.9 8.9-1.8 13.3-2.7 1.1-.2 2.2.5 2.5 1.6.2 1.1-.5 2.2-1.6 2.5-4.4.9-8.8 1.9-13.3 2.8-.2-.1-.4-.1-.5-.1zm26.5-5.6c-.9 0-1.8-.7-2-1.6-.3-1.1.4-2.2 1.6-2.5 4.4-1 8.8-2 13.2-3.1 1.1-.3 2.2.4 2.5 1.5.3 1.1-.4 2.2-1.5 2.5-4.4 1.1-8.8 2.1-13.2 3.1-.3 0-.4.1-.6.1zm26.4-6.4c-.9 0-1.8-.6-2-1.6-.3-1.1.4-2.2 1.5-2.5 4.4-1.1 8.7-2.3 13.1-3.5 1.1-.3 2.2.4 2.5 1.5.3 1.1-.4 2.2-1.5 2.5-4.4 1.2-8.7 2.3-13.1 3.5-.2 0-.3.1-.5.1zm26.2-7.1c-.9 0-1.7-.6-2-1.5-.3-1.1.3-2.2 1.4-2.6 4.4-1.2 8.7-2.5 13-3.8 1.1-.3 2.2.3 2.6 1.4.3 1.1-.3 2.3-1.4 2.6-4.3 1.3-8.7 2.6-13 3.8-.3 0-.5.1-.6.1zm25.9-7.8c-.9 0-1.7-.6-2-1.4-.3-1.1.3-2.3 1.4-2.6 4.3-1.4 8.6-2.7 12.9-4.2 1.1-.4 2.3.2 2.6 1.3.4 1.1-.2 2.3-1.3 2.6l-12.9 4.2c-.3 0-.5.1-.7.1zm25.8-8.5c-.9 0-1.7-.5-2-1.4-.4-1.1.2-2.3 1.3-2.6 4.3-1.5 8.5-3 12.8-4.5 1.1-.4 2.3.2 2.7 1.2.4 1.1-.2 2.3-1.2 2.7-4.2 1.5-8.5 3-12.8 4.5-.4 0-.6.1-.8.1zm25.5-9.3c-.8 0-1.6-.5-1.9-1.3-.4-1.1.1-2.3 1.2-2.7 4.2-1.6 8.4-3.2 12.6-4.9 1.1-.4 2.3.1 2.7 1.2.4 1.1-.1 2.3-1.2 2.7-4.2 1.6-8.4 3.3-12.7 4.9-.2.1-.5.1-.7.1zm25.2-9.9c-.8 0-1.6-.5-1.9-1.3-.4-1.1.1-2.3 1.1-2.7 4.2-1.7 8.4-3.4 12.5-5.2 1-.4 2.3 0 2.7 1.1.4 1.1 0 2.3-1.1 2.7-4.2 1.8-8.3 3.5-12.5 5.2-.2.2-.5.2-.8.2zm25-10.5c-.8 0-1.6-.5-1.9-1.2-.5-1 0-2.3 1.1-2.7 4.1-1.8 8.3-3.7 12.3-5.5 1-.5 2.3 0 2.7 1 .5 1 0 2.3-1 2.7-4.1 1.9-8.2 3.7-12.4 5.6-.2 0-.5.1-.8.1zm24.7-11.3c-.8 0-1.5-.4-1.9-1.2-.5-1 0-2.3 1-2.8 4.1-1.9 8.2-3.9 12.2-5.9 1-.5 2.3-.1 2.8 1 .5 1 .1 2.3-1 2.8-4.1 2-8.1 3.9-12.2 5.9-.3.1-.6.2-.9.2zm24.3-11.9c-.8 0-1.5-.4-1.9-1.1-.5-1-.1-2.3.9-2.8 4-2 8.1-4.1 12-6.2 1-.5 2.3-.1 2.8.9s.1 2.3-.9 2.8c-4 2.1-8 4.2-12.1 6.2-.1.1-.4.2-.8.2zm24.1-12.6c-.7 0-1.5-.4-1.8-1.1-.5-1-.2-2.3.8-2.8 4-2.2 7.9-4.3 11.9-6.5 1-.6 2.3-.2 2.8.8.6 1 .2 2.3-.8 2.8-3.9 2.2-7.9 4.4-11.9 6.5-.4.2-.7.3-1 .3zm23.7-13.2c-.7 0-1.4-.4-1.8-1-.6-1-.2-2.3.8-2.8 3.9-2.3 7.8-4.5 11.7-6.8 1-.6 2.3-.3 2.8.7.6 1 .3 2.3-.7 2.8-3.9 2.3-7.8 4.6-11.7 6.8-.4.2-.8.3-1.1.3zm23.3-13.8c-.7 0-1.4-.4-1.8-1-.6-1-.3-2.3.7-2.8 3.9-2.4 7.7-4.7 11.5-7.1 1-.6 2.2-.3 2.9.7.6 1 .3 2.2-.7 2.9-3.8 2.4-7.7 4.8-11.6 7.2-.3 0-.6.1-1 .1zm23-14.4c-.7 0-1.3-.3-1.7-.9-.6-1-.3-2.2.6-2.9 3.8-2.5 7.6-4.9 11.3-7.4 1-.6 2.2-.4 2.9.6.6 1 .4 2.2-.6 2.9-3.8 2.5-7.5 5-11.4 7.5-.3.1-.7.2-1.1.2zm22.6-15c-.7 0-1.3-.3-1.7-.9-.6-.9-.4-2.2.5-2.9 3.7-2.6 7.4-5.1 11.1-7.7.9-.7 2.2-.4 2.9.5.7.9.4 2.2-.5 2.9-3.7 2.6-7.4 5.2-11.2 7.7-.3.2-.7.4-1.1.4zm22.2-15.6c-.6 0-1.3-.3-1.7-.9-.7-.9-.5-2.2.5-2.9 3.7-2.7 7.3-5.3 10.9-8 .9-.7 2.2-.5 2.9.4.7.9.5 2.2-.4 2.9-3.6 2.7-7.3 5.4-11 8-.4.3-.8.5-1.2.5zm21.8-16.2c-.6 0-1.2-.3-1.7-.8-.7-.9-.5-2.2.4-2.9 3.6-2.7 7.2-5.5 10.7-8.3.9-.7 2.2-.5 2.9.4.7.9.5 2.2-.4 2.9-3.6 2.8-7.1 5.5-10.8 8.3-.3.3-.7.4-1.1.4zm21.4-16.7c-.6 0-1.2-.3-1.6-.8-.7-.9-.6-2.2.3-2.9 3.5-2.8 7-5.7 10.5-8.5.9-.7 2.2-.6 2.9.3.7.9.6 2.2-.3 2.9-3.5 2.9-7 5.7-10.6 8.6-.3.3-.8.4-1.2.4zm20.9-17.2c-.6 0-1.2-.3-1.6-.7-.7-.9-.6-2.2.3-2.9 3.5-2.9 6.9-5.8 10.3-8.8.9-.7 2.2-.6 2.9.2.7.9.6 2.2-.2 2.9-3.4 2.9-6.9 5.9-10.4 8.8-.3.4-.8.5-1.3.5zm20.6-17.7c-.6 0-1.1-.2-1.6-.7-.8-.9-.7-2.2.2-2.9 3.4-3 6.8-6 10.1-9 .8-.8 2.2-.7 2.9.1.8.9.7 2.2-.2 2.9-3.3 3-6.7 6-10.1 9-.3.5-.8.6-1.3.6zm20.1-18.1c-.6 0-1.1-.2-1.5-.7-.8-.8-.7-2.2.1-2.9l9.9-9.3c.8-.8 2.1-.8 2.9.1.8.8.8 2.1-.1 2.9l-9.9 9.3c-.3.4-.9.6-1.4.6zm19.8-18.7c-.5 0-1.1-.2-1.5-.6-.8-.8-.8-2.1 0-2.9 3.3-3.2 6.5-6.3 9.7-9.5.8-.8 2.1-.8 2.9 0 .8.8.8 2.1 0 2.9-3.2 3.2-6.4 6.3-9.7 9.5-.4.4-.9.6-1.4.6zm19.2-19.1c-.5 0-1.1-.2-1.5-.6-.8-.8-.8-2.1 0-2.9 3.2-3.2 6.3-6.5 9.5-9.7.8-.8 2.1-.8 2.9-.1.8.8.8 2.1.1 2.9-3.1 3.2-6.3 6.5-9.5 9.7-.4.5-.9.7-1.5.7zm18.9-19.5c-.5 0-1-.2-1.4-.6-.8-.8-.9-2.1-.1-2.9 3.1-3.3 6.2-6.6 9.2-9.9.8-.8 2.1-.9 2.9-.1.8.8.9 2.1.1 2.9-3 3.3-6.1 6.6-9.3 9.9-.3.5-.9.7-1.4.7zm18.3-20c-.5 0-1-.2-1.4-.5-.9-.8-.9-2.1-.2-2.9 3-3.4 6.1-6.8 9-10.1.8-.9 2.1-.9 2.9-.2.9.8.9 2.1.2 2.9l-9 10.2c-.3.4-.9.6-1.5.6zm18-20.4c-.5 0-1-.2-1.4-.5-.9-.7-1-2.1-.2-2.9 3-3.5 5.9-6.9 8.8-10.3.7-.9 2-1 2.9-.3.9.7 1 2 .2 2.9-2.9 3.4-5.8 6.9-8.8 10.3-.4.6-.9.8-1.5.8zm17.5-20.7c-.5 0-.9-.2-1.3-.5-.9-.7-1-2-.3-2.9 2.9-3.5 5.7-7 8.6-10.5.7-.9 2-1 2.9-.3.9.7 1 2 .3 2.9-2.8 3.5-5.7 7-8.6 10.5-.4.5-1 .8-1.6.8zm17-21.2c-.4 0-.9-.1-1.3-.4-.9-.7-1.1-2-.3-2.9 2.8-3.6 5.6-7.2 8.3-10.7.7-.9 2-1.1 2.9-.4.9.7 1.1 2 .4 2.9-2.7 3.5-5.5 7.1-8.4 10.7-.4.6-1 .8-1.6.8zm16.6-21.5c-.4 0-.9-.1-1.2-.4-.9-.7-1.1-2-.4-2.9 2.7-3.7 5.4-7.3 8.1-10.9.7-.9 2-1.1 2.9-.4.9.7 1.1 2 .4 2.9-2.6 3.6-5.4 7.2-8.1 10.9-.5.6-1.1.8-1.7.8zm16-21.8c-.4 0-.8-.1-1.2-.4-.9-.7-1.1-2-.5-2.9 2.7-3.7 5.3-7.4 7.8-11 .7-.9 1.9-1.2 2.9-.5.9.7 1.2 2 .5 2.9-2.6 3.7-5.2 7.3-7.9 11.1-.3.5-.9.8-1.6.8zm15.6-22.2c-.4 0-.8-.1-1.2-.4-.9-.6-1.2-1.9-.5-2.9 2.6-3.8 5.1-7.5 7.6-11.2.6-.9 1.9-1.2 2.9-.6s1.2 1.9.6 2.9c-2.5 3.7-5 7.5-7.6 11.3-.4.5-1.1.9-1.8.9zm15.1-22.6c-.4 0-.8-.1-1.1-.3-1-.6-1.2-1.9-.6-2.9 2.5-3.9 5-7.7 7.3-11.4.6-1 1.9-1.3 2.9-.6 1 .6 1.3 1.9.6 2.9-2.4 3.7-4.8 7.5-7.4 11.4-.3.6-1 .9-1.7.9zm14.6-22.9c-.4 0-.7-.1-1.1-.3-1-.6-1.3-1.9-.7-2.9 2.5-4 4.8-7.8 7.1-11.6.6-1 1.9-1.3 2.8-.7 1 .6 1.3 1.9.7 2.8-2.3 3.8-4.6 7.6-7.1 11.6-.3.7-1 1.1-1.7 1.1zm14.1-23.3c-.4 0-.7-.1-1-.3-1-.6-1.3-1.8-.7-2.8 2.4-4.1 4.7-8 6.8-11.8.6-1 1.8-1.3 2.8-.8 1 .6 1.3 1.8.8 2.8-2.1 3.8-4.4 7.7-6.8 11.8-.5.7-1.2 1.1-1.9 1.1zm13.4-23.7c-.3 0-.7-.1-1-.3-1-.5-1.4-1.8-.8-2.8 2.4-4.3 4.5-8.3 6.4-12 .5-1 1.8-1.4 2.8-.9 1 .5 1.4 1.8.9 2.8-1.9 3.6-4.1 7.7-6.5 12-.4.8-1.1 1.2-1.8 1.2zm12.7-24.1c-.3 0-.6-.1-.9-.2-1-.5-1.4-1.8-.9-2.8 3.9-7.8 5.9-12.2 5.9-12.3.5-1 1.7-1.5 2.7-1 1 .5 1.5 1.7 1 2.7 0 0-2 4.5-6 12.4-.3.8-1.1 1.2-1.8 1.2z" fill="url(#SVGID_79_)"/><linearGradient id="SVGID_80_" gradientUnits="userSpaceOnUse" x1="1498.332" y1="817.591" x2="2559.138" y2="817.591"><stop offset="0" stop-color="#dae3fe"/><stop offset="1" stop-color="#e9effd"/></linearGradient><path d="M1528.1 1180.4c-4.5 0-9 0-13.6-.1-1.1 0-2.1-1-2-2.1 0-1.1.9-2 2.1-2 4.5.1 9 .1 13.5.1 1.1 0 2.1.9 2.1 2.1 0 1.1-1 2-2.1 2zm13.6-.1c-1.1 0-2.1-.9-2.1-2.1 0-1.1.9-2.1 2.1-2.1 4.5 0 9-.1 13.5-.2 1.1-.1 2.1.9 2.1 2s-.9 2.1-2 2.1c-4.5.2-9.1.3-13.6.3zm-40.7-.3s-.1 0 0 0h-.6c-1.1 0-2.1-1-2-2.1 0-1.1.9-2 2.1-2h.6c1.1 0 2 1 2 2.1-.1 1.1-1 2-2.1 2zm67.8-.3c-1.1 0-2-.9-2.1-2 0-1.1.9-2.1 2-2.1 4.5-.2 9-.3 13.5-.6 1-.1 2.1.8 2.2 2 .1 1.1-.8 2.1-2 2.2-4.5.2-9 .4-13.6.5zm27.1-1.3c-1.1 0-2-.8-2.1-1.9-.1-1.1.8-2.1 1.9-2.2l13.5-.9c1.1-.1 2.1.8 2.2 1.9.1 1.1-.8 2.1-1.9 2.2-4.5.3-9 .6-13.6.9.1 0 0 0 0 0zm27-2c-1.1 0-2-.8-2.1-1.9-.1-1.1.7-2.1 1.9-2.2l13.5-1.2c1.1-.1 2.2.7 2.3 1.9.1 1.1-.7 2.2-1.9 2.3-4.5.4-9 .9-13.5 1.3-.1-.2-.1-.2-.2-.2zm27-2.6c-1 0-1.9-.8-2.1-1.8-.1-1.1.7-2.2 1.8-2.3 4.5-.5 9-1 13.4-1.6 1.2-.1 2.2.7 2.3 1.8.1 1.1-.7 2.2-1.8 2.3-4.5.6-9 1.1-13.5 1.6h-.1zm26.9-3.4c-1 0-1.9-.7-2.1-1.8-.2-1.1.6-2.2 1.8-2.3 4.5-.6 8.9-1.3 13.4-2 1.1-.2 2.2.6 2.4 1.7.2 1.1-.6 2.2-1.7 2.4-4.5.7-8.9 1.3-13.4 2h-.4zm26.8-4.1c-1 0-1.9-.7-2-1.7-.2-1.1.6-2.2 1.7-2.4 4.5-.7 8.9-1.5 13.3-2.3 1.1-.2 2.2.5 2.4 1.7.2 1.1-.5 2.2-1.7 2.4-4.4.8-8.9 1.6-13.4 2.3h-.3zm26.7-4.8c-1 0-1.8-.7-2-1.7-.2-1.1.5-2.2 1.6-2.4 4.4-.9 8.9-1.8 13.3-2.7 1.1-.2 2.2.5 2.5 1.6.2 1.1-.5 2.2-1.6 2.5-4.4.9-8.9 1.8-13.3 2.7h-.5zm26.5-5.5c-.9 0-1.8-.7-2-1.6-.2-1.1.5-2.2 1.6-2.5l13.2-3c1.1-.3 2.2.4 2.5 1.5.3 1.1-.4 2.2-1.5 2.5-4.4 1-8.8 2.1-13.2 3-.3.1-.4.1-.6.1zm26.4-6.3c-.9 0-1.8-.6-2-1.6-.3-1.1.4-2.2 1.5-2.5 4.4-1.1 8.8-2.2 13.1-3.4 1.1-.3 2.2.4 2.5 1.5.3 1.1-.4 2.2-1.5 2.5-4.4 1.2-8.7 2.3-13.2 3.4 0 .1-.2.1-.4.1zm26.2-6.9c-.9 0-1.7-.6-2-1.5-.3-1.1.3-2.2 1.4-2.6 4.4-1.2 8.7-2.5 13-3.7 1.1-.3 2.2.3 2.6 1.4.3 1.1-.3 2.3-1.4 2.6-4.3 1.3-8.7 2.5-13.1 3.8-.1-.1-.3 0-.5 0zm26.1-7.7c-.9 0-1.7-.6-2-1.5-.3-1.1.3-2.3 1.4-2.6 4.3-1.3 8.6-2.7 12.9-4.1 1.1-.4 2.3.2 2.6 1.3.4 1.1-.2 2.3-1.3 2.6-4.3 1.4-8.6 2.8-12.9 4.1-.3.2-.5.2-.7.2zm25.7-8.4c-.9 0-1.7-.5-2-1.4-.4-1.1.2-2.3 1.3-2.6 4.3-1.5 8.5-2.9 12.8-4.4 1.1-.4 2.3.2 2.6 1.3.4 1.1-.2 2.3-1.3 2.6-4.3 1.5-8.5 3-12.8 4.5h-.6zm25.6-9.1c-.8 0-1.6-.5-1.9-1.4-.4-1.1.2-2.3 1.2-2.7 4.2-1.6 8.5-3.2 12.7-4.8 1.1-.4 2.3.1 2.7 1.2.4 1.1-.1 2.3-1.2 2.7-4.2 1.6-8.4 3.2-12.7 4.8-.3.2-.6.2-.8.2zm25.3-9.8c-.8 0-1.6-.5-1.9-1.3-.4-1.1.1-2.3 1.1-2.7 4.2-1.7 8.4-3.4 12.5-5.1 1.1-.4 2.3.1 2.7 1.1.4 1.1-.1 2.3-1.1 2.7-4.2 1.7-8.4 3.5-12.6 5.2-.2.1-.5.1-.7.1zm25-10.4c-.8 0-1.6-.5-1.9-1.2-.5-1.1 0-2.3 1.1-2.7 4.1-1.8 8.3-3.6 12.4-5.5 1-.5 2.3 0 2.7 1 .5 1 0 2.3-1 2.7-4.1 1.9-8.3 3.7-12.4 5.5-.3.1-.6.2-.9.2zm24.7-11.2c-.8 0-1.5-.4-1.9-1.2-.5-1 0-2.3 1-2.8 4.1-1.9 8.2-3.8 12.2-5.8 1-.5 2.3-.1 2.8 1 .5 1 .1 2.3-1 2.8-4.1 2-8.2 3.9-12.3 5.8-.2.2-.5.2-.8.2zm24.4-11.8c-.8 0-1.5-.4-1.9-1.1-.5-1-.1-2.3.9-2.8 4-2 8.1-4.1 12.1-6.1 1-.5 2.3-.1 2.8.9s.1 2.3-.9 2.8c-4 2.1-8.1 4.1-12.1 6.2-.2 0-.5.1-.9.1zm24.1-12.4c-.7 0-1.5-.4-1.8-1.1-.5-1-.2-2.3.9-2.8 4-2.1 8-4.3 11.9-6.4 1-.6 2.3-.2 2.8.8.6 1 .2 2.3-.8 2.8-4 2.2-7.9 4.3-11.9 6.5-.4.1-.7.2-1.1.2zm23.8-13.1c-.7 0-1.4-.4-1.8-1.1-.6-1-.2-2.3.8-2.8 3.9-2.2 7.8-4.5 11.7-6.8 1-.6 2.3-.2 2.8.7.6 1 .2 2.3-.7 2.8-3.9 2.3-7.8 4.5-11.8 6.8-.3.3-.6.4-1 .4zm23.4-13.7c-.7 0-1.4-.4-1.8-1-.6-1-.3-2.3.7-2.8 3.9-2.3 7.7-4.7 11.6-7.1 1-.6 2.3-.3 2.9.7.6 1 .3 2.3-.7 2.9-3.8 2.4-7.7 4.7-11.6 7.1-.3.1-.7.2-1.1.2zm23.1-14.3c-.7 0-1.4-.3-1.8-1-.6-1-.3-2.2.6-2.9 3.8-2.4 7.6-4.9 11.4-7.3 1-.6 2.2-.4 2.9.6.6 1 .4 2.2-.6 2.9-3.8 2.5-7.6 4.9-11.4 7.4-.3.2-.7.3-1.1.3zm22.7-14.8c-.7 0-1.3-.3-1.7-.9-.6-.9-.4-2.2.6-2.9 3.8-2.5 7.5-5.1 11.2-7.6.9-.7 2.2-.4 2.9.5.6.9.4 2.2-.5 2.9-3.7 2.6-7.5 5.1-11.2 7.7-.5.2-.9.3-1.3.3zm22.3-15.4c-.6 0-1.3-.3-1.7-.9-.7-.9-.4-2.2.5-2.9 3.7-2.6 7.4-5.2 11-7.9.9-.7 2.2-.5 2.9.5.7.9.5 2.2-.5 2.9-3.7 2.7-7.3 5.3-11 7.9-.4.2-.8.4-1.2.4zm21.9-16c-.6 0-1.3-.3-1.7-.8-.7-.9-.5-2.2.4-2.9 3.6-2.7 7.2-5.4 10.8-8.2.9-.7 2.2-.5 2.9.4.7.9.5 2.2-.4 2.9-3.6 2.7-7.2 5.5-10.8 8.2-.3.3-.7.4-1.2.4zm21.6-16.5c-.6 0-1.2-.3-1.6-.8-.7-.9-.5-2.2.4-2.9 3.6-2.8 7.1-5.6 10.6-8.4.9-.7 2.2-.6 2.9.3.7.9.6 2.2-.3 2.9-3.5 2.8-7.1 5.6-10.6 8.4-.5.4-1 .5-1.4.5zm21.1-17c-.6 0-1.2-.3-1.6-.8-.7-.9-.6-2.2.3-2.9 3.5-2.9 7-5.8 10.4-8.7.9-.7 2.2-.6 2.9.3.7.9.6 2.2-.3 2.9-3.5 2.9-6.9 5.8-10.4 8.7-.3.4-.8.5-1.3.5zm20.8-17.4c-.6 0-1.2-.2-1.6-.7-.7-.9-.6-2.2.2-2.9 3.4-3 6.8-5.9 10.2-8.9.9-.8 2.2-.7 2.9.2.8.9.7 2.2-.2 2.9-3.4 3-6.8 6-10.2 8.9-.3.3-.8.5-1.3.5zm20.4-17.9c-.6 0-1.1-.2-1.5-.7-.8-.9-.7-2.2.2-2.9 3.4-3 6.7-6.1 10-9.1.8-.8 2.2-.7 2.9.1.8.8.7 2.2-.1 2.9-3.3 3.1-6.7 6.1-10 9.2-.5.3-1 .5-1.5.5zm19.9-18.4c-.6 0-1.1-.2-1.5-.7-.8-.8-.7-2.1.1-2.9 3.3-3.1 6.6-6.2 9.8-9.3.8-.8 2.1-.8 2.9.1.8.8.8 2.1-.1 2.9-3.3 3.1-6.5 6.3-9.8 9.4-.4.3-.9.5-1.4.5zm19.6-18.8c-.5 0-1.1-.2-1.5-.6-.8-.8-.8-2.1 0-2.9 3.2-3.2 6.4-6.4 9.6-9.5.8-.8 2.1-.8 2.9 0 .8.8.8 2.1 0 2.9l-9.6 9.6c-.4.3-.9.5-1.4.5zm19.1-19.3c-.5 0-1-.2-1.4-.6-.8-.8-.8-2.1 0-2.9 3.2-3.2 6.3-6.5 9.4-9.7.8-.8 2.1-.9 2.9-.1.8.8.9 2.1.1 2.9-3.1 3.3-6.3 6.5-9.4 9.8-.5.4-1 .6-1.6.6zm18.8-19.6c-.5 0-1-.2-1.4-.6-.8-.8-.9-2.1-.1-2.9 3.1-3.3 6.2-6.6 9.2-9.9.8-.8 2.1-.9 2.9-.1.8.8.9 2.1.1 2.9-3 3.3-6.1 6.6-9.2 10-.4.4-1 .6-1.5.6zm18.3-20c-.5 0-1-.2-1.4-.5-.9-.8-.9-2.1-.2-2.9 3-3.4 6-6.8 9-10.1.8-.9 2.1-.9 2.9-.2.9.8.9 2.1.2 2.9l-9 10.2c-.4.4-.9.6-1.5.6zm17.9-20.4c-.5 0-1-.2-1.4-.5-.9-.7-1-2.1-.2-2.9 3-3.4 5.9-6.9 8.8-10.3.7-.9 2-1 2.9-.2.9.7 1 2 .2 2.9-2.9 3.4-5.8 6.9-8.8 10.3-.3.5-.9.7-1.5.7zm17.5-20.7c-.5 0-.9-.2-1.3-.5-.9-.7-1-2-.3-2.9 2.9-3.5 5.8-7 8.6-10.5.7-.9 2-1 2.9-.3.9.7 1 2 .3 2.9-2.8 3.5-5.7 7-8.6 10.5-.4.5-1 .8-1.6.8zm17.1-21.1c-.5 0-.9-.1-1.3-.5-.9-.7-1-2-.3-2.9 2.8-3.6 5.6-7.1 8.4-10.6.7-.9 2-1.1 2.9-.4.9.7 1.1 2 .4 2.9-2.8 3.5-5.6 7.1-8.4 10.7-.4.6-1.1.8-1.7.8zm16.7-21.4c-.4 0-.9-.1-1.3-.4-.9-.7-1.1-2-.4-2.9 2.8-3.6 5.5-7.2 8.2-10.8.7-.9 2-1.1 2.9-.4.9.7 1.1 2 .4 2.9-2.7 3.6-5.4 7.2-8.2 10.8-.3.6-.9.8-1.6.8zm16.3-21.7c-.4 0-.9-.1-1.2-.4-.9-.7-1.1-2-.4-2.9 2.7-3.7 5.4-7.3 8-11 .7-.9 2-1.1 2.9-.5.9.7 1.1 2 .5 2.9-2.6 3.6-5.3 7.3-8 11-.5.6-1.1.9-1.8.9zm15.9-22c-.4 0-.8-.1-1.2-.4-.9-.7-1.2-2-.5-2.9l7.8-11.1c.6-.9 1.9-1.2 2.9-.5.9.7 1.2 1.9.5 2.9l-7.8 11.1c-.4.6-1 .9-1.7.9zm15.5-22.3c-.4 0-.8-.1-1.2-.4-.9-.6-1.2-1.9-.5-2.9 2.6-3.8 5.1-7.5 7.6-11.2.6-1 1.9-1.2 2.9-.6s1.2 1.9.6 2.9c-2.5 3.7-5 7.5-7.6 11.3-.5.6-1.2.9-1.8.9zm15-22.6c-.4 0-.8-.1-1.1-.3-1-.6-1.2-1.9-.6-2.9 2.5-3.8 5-7.6 7.4-11.4.6-1 1.9-1.2 2.9-.6s1.2 1.9.6 2.9c-2.4 3.8-4.9 7.6-7.4 11.4-.4.6-1.1.9-1.8.9zm14.6-22.9c-.4 0-.8-.1-1.1-.3-1-.6-1.3-1.9-.7-2.9 2.4-3.9 4.8-7.7 7.1-11.5.6-1 1.9-1.3 2.9-.7 1 .6 1.3 1.9.7 2.9-2.3 3.8-4.7 7.7-7.2 11.6-.3.6-1 .9-1.7.9zm14.2-23.1c-.4 0-.7-.1-1.1-.3-1-.6-1.3-1.9-.7-2.8 2.4-3.9 4.7-7.8 6.9-11.7.6-1 1.8-1.3 2.8-.7 1 .6 1.3 1.9.7 2.8-2.2 3.8-4.6 7.7-6.9 11.7-.3.6-1 1-1.7 1zm13.8-23.4c-.3 0-.7-.1-1-.3-1-.6-1.3-1.8-.8-2.8 2.3-4 4.5-7.9 6.7-11.8.6-1 1.8-1.4 2.8-.8 1 .6 1.4 1.8.8 2.8-2.2 3.9-4.4 7.8-6.7 11.8-.4.7-1.1 1.1-1.8 1.1zm13.3-23.7c-.3 0-.7-.1-1-.3-1-.5-1.4-1.8-.8-2.8 2.2-4.1 4.4-8.1 6.5-11.9.5-1 1.8-1.4 2.8-.9 1 .5 1.4 1.8.9 2.8-2.1 3.9-4.2 7.9-6.5 12-.5.7-1.2 1.1-1.9 1.1zm12.8-24c-.3 0-.6-.1-1-.2-1-.5-1.4-1.8-.9-2.8 2.2-4.2 4.3-8.2 6.2-12.1.5-1 1.8-1.4 2.8-.9 1 .5 1.4 1.8.9 2.8-1.9 3.9-4 7.9-6.2 12.1-.4.7-1.1 1.1-1.8 1.1zm12.2-24.3c-.3 0-.6-.1-.9-.2-1-.5-1.5-1.7-1-2.8 2.2-4.4 4.1-8.5 5.9-12.2.5-1 1.7-1.5 2.8-1 1 .5 1.5 1.7 1 2.8-1.8 3.7-3.7 7.8-5.9 12.3-.4.7-1.1 1.1-1.9 1.1zm11.7-24.7c-.3 0-.6-.1-.9-.2-1-.5-1.5-1.7-1-2.7 3.6-8 5.5-12.5 5.5-12.5.4-1.1 1.6-1.6 2.7-1.1 1.1.4 1.6 1.6 1.1 2.7 0 0-1.9 4.6-5.5 12.7-.4.7-1.1 1.1-1.9 1.1z" fill="url(#SVGID_80_)"/><linearGradient id="SVGID_81_" gradientUnits="userSpaceOnUse" x1="1643.073" y1="694.905" x2="2502.286" y2="694.905"><stop offset="0" stop-color="#dae3fe"/><stop offset="1" stop-color="#e9effd"/></linearGradient><path d="M1645.1 1068.9c-1.1 0-2-.8-2.1-1.9-.1-1.1.7-2.1 1.9-2.3 2.9-.3 5.7-.5 8.5-.8 1.1-.1 2.2.7 2.3 1.9.1 1.1-.7 2.2-1.9 2.3-2.8.3-5.7.6-8.6.8h-.1zm22.1-2.2c-1 0-1.9-.8-2.1-1.8-.1-1.1.7-2.2 1.8-2.3 4.5-.5 9-1 13.4-1.6 1.2-.1 2.2.7 2.3 1.8.1 1.1-.7 2.2-1.8 2.3-4.5.6-9 1.1-13.5 1.6h-.1zm26.9-3.4c-1 0-1.9-.7-2.1-1.8-.2-1.1.6-2.2 1.8-2.3 4.5-.6 8.9-1.3 13.4-2 1.1-.2 2.2.6 2.4 1.7.2 1.1-.6 2.2-1.7 2.4-4.5.7-8.9 1.4-13.4 2-.2-.1-.3 0-.4 0zm26.8-4.2c-1 0-1.9-.7-2-1.7-.2-1.1.6-2.2 1.7-2.4 4.5-.8 8.9-1.5 13.3-2.4 1.1-.2 2.2.5 2.4 1.7.2 1.1-.5 2.2-1.7 2.4-4.4.8-8.9 1.6-13.4 2.4h-.3zm26.6-5c-1 0-1.8-.7-2-1.7-.2-1.1.5-2.2 1.6-2.4 4.4-.9 8.9-1.8 13.2-2.8 1.1-.2 2.2.5 2.5 1.6.2 1.1-.5 2.2-1.6 2.5-4.4.9-8.8 1.9-13.3 2.8h-.4zm26.5-5.7c-.9 0-1.8-.6-2-1.6-.3-1.1.4-2.2 1.6-2.5 4.4-1 8.8-2.1 13.2-3.1 1.1-.3 2.2.4 2.5 1.5.3 1.1-.4 2.2-1.5 2.5-4.4 1.1-8.8 2.1-13.2 3.2h-.6zm26.4-6.5c-.9 0-1.8-.6-2-1.5-.3-1.1.4-2.2 1.5-2.5 4.4-1.1 8.7-2.3 13.1-3.5 1.1-.3 2.2.3 2.6 1.4.3 1.1-.3 2.2-1.4 2.6-4.3 1.2-8.7 2.4-13.1 3.5h-.7zm26.1-7.2c-.9 0-1.7-.6-2-1.5-.3-1.1.3-2.3 1.4-2.6 4.3-1.3 8.7-2.6 12.9-3.9 1.1-.3 2.3.3 2.6 1.4.3 1.1-.3 2.3-1.4 2.6-4.3 1.3-8.6 2.7-13 3.9-.1 0-.3.1-.5.1zm25.9-8.1c-.9 0-1.7-.6-2-1.4-.4-1.1.2-2.3 1.3-2.6 4.3-1.4 8.6-2.8 12.8-4.3 1.1-.4 2.3.2 2.6 1.3.4 1.1-.2 2.3-1.3 2.6-4.3 1.5-8.6 2.9-12.9 4.3-.1.1-.3.1-.5.1zm25.6-8.8c-.8 0-1.6-.5-1.9-1.4-.4-1.1.2-2.3 1.2-2.7 4.3-1.5 8.5-3.1 12.7-4.7 1.1-.4 2.3.1 2.7 1.2.4 1.1-.1 2.3-1.2 2.7-4.2 1.6-8.5 3.2-12.7 4.7-.3.1-.5.2-.8.2zm25.4-9.7c-.8 0-1.6-.5-1.9-1.3-.4-1.1.1-2.3 1.2-2.7 4.2-1.7 8.4-3.4 12.5-5.1 1.1-.4 2.3.1 2.7 1.1.4 1.1-.1 2.3-1.1 2.7l-12.6 5.1c-.3.2-.6.2-.8.2zm25-10.4c-.8 0-1.6-.5-1.9-1.2-.5-1.1 0-2.3 1.1-2.7 4.1-1.8 8.3-3.6 12.4-5.5 1-.5 2.3 0 2.7 1 .5 1 0 2.3-1 2.7-4.1 1.9-8.3 3.7-12.4 5.5-.3.2-.6.2-.9.2zm24.7-11.1c-.8 0-1.5-.4-1.9-1.2-.5-1 0-2.3 1-2.8 4.1-1.9 8.2-3.9 12.2-5.9 1-.5 2.3-.1 2.8.9s.1 2.3-1 2.8c-4.1 2-8.1 3.9-12.2 5.9-.3.2-.6.3-.9.3zm24.4-12c-.8 0-1.5-.4-1.8-1.1-.5-1-.1-2.3.9-2.8 4-2.1 8-4.1 12-6.2 1-.5 2.3-.1 2.8.9s.1 2.3-.9 2.8c-4 2.1-8 4.2-12.1 6.3-.3.1-.6.1-.9.1zm23.9-12.6c-.7 0-1.4-.4-1.8-1.1-.6-1-.2-2.3.8-2.8 4-2.2 7.9-4.4 11.8-6.6 1-.6 2.3-.2 2.8.8.6 1 .2 2.3-.8 2.8-3.9 2.2-7.9 4.4-11.9 6.6-.2.2-.5.3-.9.3zm23.6-13.5c-.7 0-1.4-.4-1.8-1-.6-1-.3-2.3.7-2.8 3.9-2.3 7.8-4.6 11.6-7 1-.6 2.3-.3 2.8.7.6 1 .3 2.3-.7 2.8-3.9 2.4-7.7 4.7-11.7 7-.2.3-.5.3-.9.3zm23.2-14.1c-.7 0-1.4-.3-1.8-1-.6-1-.3-2.2.6-2.9 3.8-2.4 7.6-4.8 11.4-7.3 1-.6 2.2-.4 2.9.6.6 1 .4 2.2-.6 2.9-3.8 2.5-7.6 4.9-11.4 7.3-.4.3-.8.4-1.1.4zm22.7-14.8c-.7 0-1.3-.3-1.7-.9-.6-.9-.4-2.2.6-2.9 3.8-2.5 7.5-5.1 11.2-7.6.9-.7 2.2-.4 2.9.5.7.9.4 2.2-.5 2.9-3.7 2.6-7.4 5.1-11.2 7.7-.5.2-.9.3-1.3.3zm22.2-15.5c-.6 0-1.3-.3-1.7-.9-.7-.9-.5-2.2.5-2.9 3.7-2.6 7.3-5.3 10.9-8 .9-.7 2.2-.5 2.9.4.7.9.5 2.2-.4 2.9-3.6 2.7-7.3 5.4-11 8-.3.4-.7.5-1.2.5zm21.8-16.1c-.6 0-1.2-.3-1.7-.8-.7-.9-.5-2.2.4-2.9 3.6-2.7 7.2-5.5 10.7-8.3.9-.7 2.2-.6 2.9.3.7.9.6 2.2-.3 2.9-3.6 2.8-7.1 5.6-10.7 8.3-.4.4-.8.5-1.3.5zm21.4-16.8c-.6 0-1.2-.3-1.6-.8-.7-.9-.6-2.2.3-2.9 3.5-2.8 7-5.7 10.5-8.6.9-.7 2.2-.6 2.9.3.7.9.6 2.2-.3 2.9-3.5 2.9-7 5.8-10.5 8.6-.4.4-.9.5-1.3.5zm20.8-17.3c-.6 0-1.2-.2-1.6-.7-.7-.9-.6-2.2.2-2.9 3.4-2.9 6.8-5.9 10.2-8.9.9-.8 2.2-.7 2.9.2.8.9.7 2.2-.2 2.9-3.4 3-6.8 6-10.3 8.9-.2.3-.7.5-1.2.5zm20.4-18c-.6 0-1.1-.2-1.5-.7-.8-.8-.7-2.2.1-2.9 3.4-3 6.7-6.1 10-9.2.8-.8 2.1-.7 2.9.1.8.8.7 2.1-.1 2.9-3.3 3.1-6.6 6.1-10 9.2-.4.5-.9.6-1.4.6zm19.8-18.5c-.5 0-1.1-.2-1.5-.6-.8-.8-.8-2.1.1-2.9 3.3-3.1 6.5-6.3 9.7-9.4.8-.8 2.1-.8 2.9 0 .8.8.8 2.1 0 2.9-3.2 3.2-6.5 6.3-9.8 9.5-.4.4-.9.5-1.4.5zm19.3-19c-.5 0-1.1-.2-1.5-.6-.8-.8-.8-2.1 0-2.9 3.2-3.2 6.3-6.4 9.5-9.7.8-.8 2.1-.8 2.9-.1.8.8.8 2.1.1 2.9-3.1 3.3-6.3 6.5-9.5 9.7-.4.5-.9.7-1.5.7zm18.9-19.5c-.5 0-1-.2-1.4-.6-.8-.8-.9-2.1-.1-2.9 3.1-3.3 6.2-6.6 9.2-9.9.8-.8 2.1-.9 2.9-.1.8.8.9 2.1.1 2.9-3 3.3-6.1 6.7-9.2 10-.4.4-1 .6-1.5.6zm18.3-20c-.5 0-1-.2-1.4-.5-.9-.8-.9-2.1-.2-2.9l9-10.2c.8-.9 2.1-.9 2.9-.2.9.8 1 2.1.2 2.9l-9 10.2c-.4.5-.9.7-1.5.7zm17.8-20.5c-.5 0-1-.2-1.3-.5-.9-.7-1-2-.2-2.9 2.9-3.5 5.8-6.9 8.7-10.4.7-.9 2-1 2.9-.3.9.7 1 2 .3 2.9-2.9 3.5-5.8 6.9-8.7 10.4-.5.6-1.1.8-1.7.8zm17.3-20.9c-.5 0-.9-.2-1.3-.5-.9-.7-1-2-.3-2.9 2.8-3.5 5.7-7.1 8.4-10.6.7-.9 2-1.1 2.9-.3.9.7 1.1 2 .3 2.9-2.8 3.5-5.6 7.1-8.5 10.6-.3.6-.9.8-1.5.8zm16.8-21.3c-.4 0-.9-.1-1.3-.4-.9-.7-1.1-2-.4-2.9 2.8-3.6 5.5-7.2 8.2-10.8.7-.9 2-1.1 2.9-.4.9.7 1.1 2 .4 2.9-2.7 3.6-5.4 7.2-8.2 10.8-.3.6-1 .8-1.6.8zm16.3-21.7c-.4 0-.9-.1-1.2-.4-.9-.7-1.1-2-.4-2.9 2.7-3.7 5.3-7.3 7.9-11 .7-.9 2-1.1 2.9-.5.9.7 1.1 2 .5 2.9-2.6 3.7-5.3 7.3-8 11-.4.6-1.1.9-1.7.9zm15.8-22c-.4 0-.8-.1-1.2-.4-.9-.7-1.2-1.9-.5-2.9 2.6-3.7 5.2-7.4 7.7-11.2.6-.9 1.9-1.2 2.9-.5.9.6 1.2 1.9.5 2.9-2.5 3.7-5.1 7.5-7.7 11.2-.4.5-1 .9-1.7.9zm15.3-22.5c-.4 0-.8-.1-1.1-.3-1-.6-1.2-1.9-.6-2.9 2.5-3.8 5-7.6 7.4-11.3.6-1 1.9-1.2 2.9-.6s1.2 1.9.6 2.9c-2.4 3.8-4.9 7.6-7.5 11.4-.4.5-1.1.8-1.7.8zm14.7-22.7c-.4 0-.8-.1-1.1-.3-1-.6-1.3-1.9-.6-2.9 2.4-3.8 4.8-7.7 7.2-11.5.6-1 1.9-1.3 2.9-.7 1 .6 1.3 1.9.7 2.9-2.4 3.8-4.8 7.7-7.2 11.5-.5.6-1.2 1-1.9 1zm14.3-23.1c-.4 0-.7-.1-1.1-.3-1-.6-1.3-1.9-.7-2.8 2.3-3.9 4.7-7.8 6.9-11.6.6-1 1.8-1.3 2.8-.7 1 .6 1.3 1.9.7 2.8-2.3 3.9-4.6 7.8-7 11.7-.2.5-.9.9-1.6.9zm13.8-23.4c-.3 0-.7-.1-1-.3-1-.6-1.3-1.8-.8-2.8 2.3-4 4.5-7.9 6.7-11.8.6-1 1.8-1.4 2.8-.8 1 .6 1.4 1.8.8 2.8-2.2 3.9-4.4 7.9-6.7 11.8-.4.7-1.1 1.1-1.8 1.1zm13.2-23.7c-.3 0-.7-.1-1-.3-1-.5-1.4-1.8-.8-2.8 2.2-4 4.3-8 6.4-11.9.5-1 1.8-1.4 2.8-.9 1 .5 1.4 1.8.9 2.8-2.1 4-4.3 7.9-6.5 12-.3.7-1 1.1-1.8 1.1zm12.8-24c-.3 0-.6-.1-1-.2-1-.5-1.4-1.8-.9-2.8 2.1-4.1 4.2-8.1 6.2-12.1.5-1 1.8-1.4 2.8-.9 1 .5 1.4 1.8.9 2.8-2 4-4.1 8-6.2 12.1-.3.7-1 1.1-1.8 1.1zm12.3-24.2c-.3 0-.6-.1-.9-.2-1-.5-1.4-1.7-.9-2.8 2-4.1 4-8.2 5.9-12.2.5-1 1.7-1.5 2.8-1 1 .5 1.5 1.7 1 2.8-1.9 4-3.9 8.1-5.9 12.2-.5.8-1.3 1.2-2 1.2zm11.7-24.5c-.3 0-.6-.1-.9-.2-1-.5-1.5-1.7-1-2.8 1.9-4.2 3.8-8.3 5.7-12.3.5-1 1.7-1.5 2.7-1 1 .5 1.5 1.7 1 2.7-1.8 4.1-3.7 8.2-5.7 12.4-.3.8-1 1.2-1.8 1.2zm11.2-24.7c-.3 0-.6-.1-.8-.2-1-.5-1.5-1.7-1.1-2.7 1.9-4.2 3.7-8.4 5.4-12.4.5-1.1 1.7-1.5 2.7-1.1 1.1.5 1.5 1.7 1.1 2.7-1.7 4.1-3.5 8.2-5.4 12.5-.3.7-1.1 1.2-1.9 1.2zm10.7-25c-.3 0-.5-.1-.8-.2-1.1-.4-1.6-1.7-1.1-2.7 1.8-4.3 3.5-8.5 5.1-12.6.4-1.1 1.6-1.6 2.7-1.2 1.1.4 1.6 1.6 1.2 2.7-1.6 4.1-3.3 8.3-5.1 12.6-.4.9-1.2 1.4-2 1.4zm10.1-25.2c-.2 0-.5 0-.7-.1-1.1-.4-1.6-1.6-1.2-2.7 1.7-4.4 3.3-8.7 4.8-12.7.4-1.1 1.6-1.6 2.7-1.2 1.1.4 1.6 1.6 1.2 2.7-1.5 4-3.1 8.3-4.8 12.7-.3.8-1.1 1.3-2 1.3zm9.5-25.5c-.2 0-.5 0-.7-.1-1.1-.4-1.6-1.6-1.3-2.6 1.7-4.7 3.2-8.9 4.5-12.8.4-1.1 1.6-1.7 2.6-1.3 1.1.4 1.7 1.5 1.3 2.6-1.3 3.9-2.8 8.2-4.5 12.9-.2.8-1 1.3-1.9 1.3zm8.8-25.8c-.2 0-.4 0-.6-.1-1.1-.3-1.7-1.5-1.3-2.6 2.7-8.4 4-13 4-13.1.3-1.1 1.4-1.8 2.6-1.4 1.1.3 1.7 1.4 1.4 2.6 0 0-1.3 4.8-4 13.2-.4.8-1.2 1.4-2.1 1.4z" fill="url(#SVGID_81_)"/><path class="st3" d="M2609.5 580.4l22.1 23.6 6.4-25.1z"/><path class="st4" d="M2702.7 467.4L2691.5 583c-.2 2.2-1.3 4.2-3.1 5.6s-4 2-6.2 1.7l-115.6-15.6c-1.3-.2-2.4-1.1-2.7-2.4-.3-1.3.2-2.7 1.2-3.5l137.6-101.4z"/><path class="st3" d="M2609.5 580.4l93.2-113-74.6 115.6 5.9 6.8z"/><path class="st3" d="M2639.2 584.5l-7.6 19.5-3.5-21zM2487 261.1l24.5 21.1 3.8-25.7z"/><path class="st4" d="M2568 138.9l.9 116.1c0 2.2-.9 4.4-2.5 5.9-1.6 1.6-3.7 2.4-6 2.3l-116.6-3.5c-1.3 0-2.5-.9-3-2.1-.5-1.3-.1-2.7.9-3.6L2568 138.9z"/><path class="st3" d="M2487.1 261.1l80.9-122.2-62.1 122.8 6.5 6.1z"/><path class="st3" d="M2517 262l-5.5 20.2-5.6-20.5zm18.7 134.2l33.9 36.1 9.8-38.5z"/><path class="st4" d="M2678.4 223.2l-17.1 176.9c-.3 3.4-2 6.5-4.7 8.6-2.7 2.1-6.1 3.1-9.5 2.6l-177-23.9c-2-.3-3.7-1.7-4.2-3.7s.2-4.1 1.9-5.3l210.6-155.2z"/><path class="st3" d="M2535.7 396.2l142.7-173-114.2 177 9 10.4z"/><path class="st3" d="M2581.2 402.4l-11.6 29.9-5.4-32.1z"/></g></svg>