<svg xmlns="http://www.w3.org/2000/svg" viewBox="0 0 837.4 778.2"><style>.st2{fill:#fff}.st4{fill:#91b3fa}.st5{fill:#bdd0fb}.st6{opacity:.64}.st9{opacity:.2}.st10{fill:#7d97f4}.st112{opacity:.57;fill:#fff}</style><g id="Illustration"><linearGradient id="SVGID_1_" gradientUnits="userSpaceOnUse" x1="798.22" y1="839.159" x2="282.048" y2="282.021"><stop offset="0" stop-color="#dae3fe"/><stop offset="1" stop-color="#e9effd"/></linearGradient><path d="M726.9 521.4C655.8 686.9 468.3 758 321.3 745.9c-40.1-3.3-120.9-10-183.9-69.4C16.3 562.5 34.9 324 150.8 183.6 165.7 165.5 269.1 44.4 430.1 46c117.9 1.2 200.6 67.5 210.7 75.8 12.7 10.4 40.7 35.3 66 74.6 59.3 92.5 64.5 221.6 20.1 325z" fill="url(#SVGID_1_)"/><path class="st4" d="M72.3 51.4c-.8-4.2 5.1-6.7 8.6-3.7 35.2 30.6 119.3 121.4 92.5 274.4-33.6 191.9 10.6 263.8 67 308.7 0 0-78.8-22.8-126.5-95.9-117-179.4-26.8-409.3-41.6-483.5z"/><path class="st4" d="M97.8 112.6c3.8 21.6 7.1 43.3 9.5 65 2.5 21.7 4.3 43.5 5.3 65.3.9 21.8 1.3 43.6.6 65.3-.5 21.8-2.2 43.5-3.9 65.3-1.6 21.8-3.3 43.7-2.5 65.9.8 22.1 4.7 44.6 13.3 65.8 2.1 5.3 4.4 10.5 7 15.7 2.5 5.1 5.2 10.2 8.1 15.2 5.8 10 12.3 19.7 19.6 28.9 14.7 18.5 32.6 35 52.5 49.1 2.1 1.5 5.2 1.2 6.9-.6 1.7-1.8 1.4-4.4-.6-5.9-4.7-3.6-9.4-7.2-13.9-10.9-2.3-1.9-4.4-3.8-6.7-5.7-2.1-2-4.3-3.9-6.4-5.9-8.4-8-16.1-16.4-23.1-25.3-14-17.7-25.1-37.4-33.3-57.6-4-10.2-7.1-20.5-9.2-31.1-2.2-10.5-3.4-21.2-3.9-32-1-21.5.5-43.3 1.9-65.1 1.4-21.8 2.6-43.7 2.7-65.7.1-11 0-21.9-.4-32.9-.1-5.5-.4-11-.6-16.4-.3-5.5-.7-11-1-16.4-1.6-21.9-4-43.7-7.2-65.5-3.3-21.7-7.3-43.4-12.2-64.9-.1-.6-.8-1-1.5-.9-.6.1-1.1.7-1 1.3z"/><path class="st5" d="M121.6 443.2c-4 4.2-10.9 3-13.3-2.3-13.1-29-42.8-114.2 6.2-212.4 41.4-82.9 56-131.8 61.1-154.5 1.1-4.8 7.6-5.4 9.6-.9 21.9 49.5 79.7 218.1-63.6 370.1z"/><path class="st2" d="M114.5 440.1h-.4c-1.2 0-2.2-1-2.2-2.3 0-1.4 2.8-142.2 55.1-260.1.5-1.1 1.8-1.6 3-1.1 1.1.5 1.6 1.8 1.1 3-52 117.1-54.7 257-54.7 258.4-.1 1.1-.9 2-1.9 2.1z"/><g class="st6"><path class="st4" d="M558.3 149.4c-.6-.1-1.2-.5-1.3-1.2-.1-.8-.3-1.6-.4-2.4-.1-.8.5-1.6 1.3-1.7.8-.1 1.6.5 1.7 1.3.1.8.2 1.5.4 2.3.1.8-.4 1.6-1.2 1.7h-.5zm-1-10.3c-.8-.1-1.3-.7-1.3-1.5 0-1.7.1-3.4.2-5 .1-.8.8-1.4 1.6-1.4.8.1 1.4.8 1.4 1.6-.1 1.6-.2 3.2-.2 4.8 0 .8-.7 1.5-1.5 1.5h-.2zm1.5-12.7h-.2c-.8-.2-1.3-1-1.1-1.8.4-1.6.8-3.3 1.3-4.8.2-.8 1.1-1.2 1.9-1 .8.2 1.2 1.1 1 1.9-.5 1.5-.9 3-1.2 4.6-.3.7-1 1.2-1.7 1.1zm4.1-12.1c-.2 0-.3-.1-.5-.1-.7-.4-1.1-1.2-.7-2 .7-1.5 1.5-3 2.4-4.4.4-.7 1.3-.9 2-.5s.9 1.3.5 2c-.8 1.4-1.6 2.8-2.2 4.2-.2.6-.8.9-1.5.8zm6.8-10.8c-.3 0-.5-.1-.8-.3-.6-.5-.8-1.5-.2-2.1 1-1.3 2.1-2.6 3.3-3.8.6-.6 1.5-.6 2.1-.1.6.6.6 1.5.1 2.1-1.1 1.1-2.1 2.4-3.1 3.6-.4.4-.9.6-1.4.6zm9.1-9.1c-.4 0-.8-.2-1-.6-.5-.6-.4-1.6.2-2.1 1.3-1 2.7-2 4-3 .7-.5 1.6-.3 2.1.4s.3 1.6-.4 2.1c-1.3.9-2.6 1.8-3.8 2.8-.3.4-.7.5-1.1.4zm10.8-6.8c-.5-.1-1-.4-1.2-.8-.4-.7-.1-1.6.7-2 1.5-.7 3-1.4 4.6-2 .8-.3 1.6.1 1.9.9.3.8-.1 1.6-.9 1.9-1.5.6-2.9 1.2-4.4 1.9-.1.1-.4.1-.7.1zm53.9 2.1c-.2 0-.4-.1-.6-.2-1.4-.8-2.8-1.5-4.2-2.2-.7-.4-1.1-1.2-.7-2 .4-.7 1.2-1.1 2-.7 1.5.7 3 1.5 4.4 2.3.7.4 1 1.3.5 2-.2.6-.8.8-1.4.8zm-41.8-6.4c-.6-.1-1.2-.5-1.3-1.1-.2-.8.3-1.6 1.1-1.8 1.6-.4 3.3-.7 4.9-.9.8-.1 1.6.5 1.7 1.3.1.8-.5 1.6-1.3 1.7-1.6.2-3.1.5-4.7.9-.1-.1-.3-.1-.4-.1zm30.1 1.2c-.1 0-.2 0-.3-.1-1.5-.5-3.1-.9-4.6-1.2-.8-.2-1.3-1-1.1-1.8.2-.8 1-1.3 1.8-1.1 1.6.4 3.3.8 4.8 1.3.8.2 1.2 1.1 1 1.9-.2.7-.9 1.1-1.6 1zm-17.4-2.7c-.7-.1-1.3-.7-1.3-1.5s.7-1.5 1.5-1.5c1.7 0 3.3.1 5 .2.8.1 1.4.8 1.3 1.6-.1.8-.8 1.4-1.6 1.4-1.6-.1-3.2-.2-4.8-.2h-.1zm37.5 13.9c-.3 0-.6-.1-.8-.4l-1.8-1.5c-.6-.5-.8-1.5-.2-2.1.5-.6 1.5-.8 2.1-.2.6.5 1.3 1 1.9 1.6.6.5.7 1.5.2 2.1-.4.4-.9.6-1.4.5z"/></g><g class="st6"><path class="st4" d="M671.8 136c-.7-.1-1.3-.7-1.3-1.4 0-.8-.1-1.6-.2-2.3-.1-.8.5-1.6 1.3-1.6.8-.1 1.6.5 1.6 1.3.1.8.1 1.6.2 2.4 0 .8-.6 1.5-1.4 1.6h-.2zm-63.1 60c-.7-.1-1.4-.2-2-.2-.8-.1-1.4-.9-1.3-1.7.1-.8.9-1.4 1.7-1.3.6.1 1.3.2 1.9.2.9.1 1.8.2 2.7.2.8.1 1.5.7 1.4 1.6 0 .8-.7 1.5-1.6 1.4-.9 0-1.8-.1-2.8-.2zm-9.6-1.8h-.2c-1.6-.4-3.2-1-4.7-1.5-.8-.3-1.2-1.1-.9-1.9.3-.8 1.1-1.2 1.9-.9l4.5 1.5c.8.2 1.3 1 1 1.8-.2.6-.9 1.1-1.6 1zm20.2 2c-.7-.1-1.3-.6-1.3-1.4-.1-.8.5-1.5 1.4-1.6 1.6-.1 3.1-.3 4.6-.6.8-.1 1.6.4 1.7 1.2.1.8-.4 1.6-1.2 1.7-1.6.3-3.3.5-4.9.6-.1.1-.2.1-.3.1zm-31.9-6.7c-.2 0-.4-.1-.6-.2-1.4-.8-2.9-1.6-4.2-2.5-.7-.5-.9-1.4-.4-2.1.5-.7 1.4-.9 2.1-.4 1.3.8 2.7 1.7 4 2.4.7.4 1 1.3.6 2-.3.6-.9.9-1.5.8zm44.3 4.3c-.6-.1-1.1-.5-1.3-1-.2-.8.2-1.6 1-1.9 1.5-.5 3-1 4.4-1.6.8-.3 1.6.1 1.9.8.3.8-.1 1.6-.8 1.9-1.5.6-3.1 1.2-4.6 1.7-.2.1-.4.1-.6.1zm11.5-5.1c-.5 0-.9-.3-1.1-.7-.4-.7-.2-1.6.5-2 1.3-.8 2.7-1.6 4-2.5.7-.5 1.6-.3 2.1.4s.3 1.6-.4 2.1c-1.3.9-2.7 1.8-4.2 2.6-.3.1-.6.1-.9.1zm10.1-7.5c-.3 0-.7-.2-.9-.5-.6-.6-.5-1.6.1-2.1 1.1-1.1 2.3-2.2 3.3-3.3.6-.6 1.5-.6 2.1-.1.6.6.6 1.5.1 2.1-1.1 1.2-2.3 2.4-3.5 3.5-.3.3-.7.5-1.2.4zm8.3-9.5c-.2 0-.5-.1-.7-.3-.7-.5-.8-1.4-.4-2.1.9-1.3 1.7-2.6 2.5-4 .4-.7 1.3-1 2-.5.7.4 1 1.3.5 2-.8 1.4-1.7 2.8-2.6 4.2-.2.6-.8.8-1.3.7zm6-11c-.1 0-.3 0-.4-.1-.8-.3-1.1-1.2-.8-1.9.6-1.4 1.1-2.9 1.6-4.4.2-.8 1.1-1.2 1.9-1 .8.2 1.2 1.1 1 1.9-.5 1.6-1 3.1-1.7 4.6-.3.6-.9.9-1.6.9zm3.4-12.2c-.9-.1-1.5-.9-1.3-1.7.2-1.1.3-2.3.5-3.4 0-.4.1-.8.1-1.2.1-.8.8-1.4 1.6-1.4.8.1 1.4.8 1.4 1.6 0 .4-.1.8-.1 1.3-.1 1.2-.3 2.4-.5 3.6-.2.8-.9 1.3-1.7 1.2zm-94 33.8c-.3 0-.6-.1-.8-.4-.6-.5-1.2-1.1-1.8-1.6-.6-.6-.6-1.5-.1-2.1.6-.6 1.5-.6 2.1-.1.6.5 1.1 1.1 1.7 1.6.6.5.7 1.5.1 2.1-.2.4-.7.6-1.2.5z"/></g><path class="st4" d="M580.7 165.5c.2.2.5.4.7.3l8.1-2.1c2.8 2.7 6.1 5 9.8 6.6l1.1 8.3c0 .3.3.5.5.6l9.8 2c.3.1.6-.1.7-.3l4.3-7.2c4-.1 7.9-.9 11.6-2.2l6.6 5.1c.2.2.6.2.8 0l8.4-5.5c.2-.2.4-.5.3-.7l-2.1-8.1c2.7-2.8 5-6.1 6.6-9.8l8.3-1.1c.3 0 .5-.3.6-.5l2-9.8c.1-.3-.1-.6-.3-.7l-7.2-4.3c-.1-4-.9-7.9-2.2-11.6l5.1-6.6c.2-.2.2-.6 0-.8l-5.5-8.4c-.2-.2-.5-.4-.7-.3l-8.1 2.1c-2.8-2.7-6.1-5-9.8-6.6l-1.1-8.3c0-.3-.3-.5-.5-.6l-9.8-2c-.3-.1-.6.1-.7.3l-4.3 7.2c-4 .1-7.9.9-11.6 2.2l-6.6-5.1c-.2-.2-.6-.2-.8 0l-8.4 5.5c-.2.2-.4.5-.3.7l2.1 8.1c-2.7 2.8-5 6.1-6.6 9.8l-8.3 1.1c-.3 0-.5.3-.6.5l-2 9.8c-.1.3.1.6.3.7l7.2 4.3c.1 4 .9 7.9 2.2 11.6l-5.1 6.6c-.2.2-.2.6 0 .8l5.5 8.4z"/><path class="st5" d="M613.7 147.8c-2.3-.2-4.4-1.2-6.1-2.8-2.1-1.9-3.3-4.6-3.4-7.4-.1-2.9.9-5.6 2.8-7.7 1.9-2.1 4.6-3.3 7.4-3.4 2.9-.1 5.6.9 7.7 2.8 2.1 1.9 3.3 4.6 3.4 7.4.2 5.9-4.3 10.9-10.2 11.1-.6.1-1.1.1-1.6 0zm1.5-1.7zm.4-16h-1.1c-1.9.1-3.7.9-4.9 2.3-1.3 1.4-2 3.2-1.9 5.1.1 1.9.9 3.7 2.3 4.9 1.4 1.3 3.2 2 5.1 1.9 3.9-.2 7-3.5 6.8-7.4-.1-1.9-.9-3.7-2.3-4.9-1.1-1.1-2.5-1.7-4-1.9z"/><path class="st5" d="M612.5 161.7c-.8-.1-1.7-.2-2.5-.4-1.7-.4-3.4-.9-5-1.6-.2-.1-.4-.4-.4-.6v-.2c.1-.3.5-.4.8-.3 1.5.7 3.1 1.2 4.8 1.5 6.2 1.3 12.5.1 17.8-3.4 5.3-3.5 8.9-8.8 10.2-14.9.2-.8.3-1.6.4-2.4.6-5.4-.7-10.8-3.7-15.4-3.5-5.3-8.8-8.9-14.9-10.2-12.7-2.7-25.3 5.6-27.9 18.3-.2.8-.3 1.6-.4 2.4-.4 3.4 0 6.9 1.2 10.2v.3c0 .2-.2.4-.4.5-.3.1-.7-.1-.8-.4-1.2-3.4-1.6-7.1-1.2-10.7.1-.8.2-1.7.4-2.5 2.8-13.4 16-22 29.3-19.2 12.6 2.6 20.9 14.4 19.6 26.8-.1.8-.2 1.7-.4 2.5-1.4 6.5-5.1 12.1-10.7 15.7-4.9 3.2-10.6 4.6-16.2 4z"/><g class="st6"><path class="st4" d="M656.1 96.7c-.8-.1-1.5-.7-1.6-1.5-.2-1-.3-2.1-.4-3.1-.1-1 .6-1.9 1.7-2.1 1-.1 1.9.6 2.1 1.7.1.9.2 1.9.4 2.8.2 1-.5 2-1.5 2.2h-.7zm-.2-12.8c-1.1-.2-1.8-1.1-1.7-2.1 0-.3.1-.6.1-.9.3-1.8.7-3.5 1.3-5.2.3-1 1.4-1.5 2.3-1.2 1 .3 1.5 1.4 1.2 2.3-.5 1.5-.9 3.1-1.2 4.8 0 .3-.1.5-.1.8 0 1-.9 1.6-1.9 1.5zm5.5-14.7c-.3 0-.5-.1-.8-.3-.9-.6-1.1-1.7-.6-2.6 1.1-1.8 2.4-3.5 3.8-5.1.7-.8 1.9-.9 2.6-.2.8.7.9 1.9.2 2.6-1.3 1.4-2.4 3-3.4 4.6-.4.8-1.1 1.1-1.8 1zm10.9-11.3c-.5-.1-1-.3-1.4-.8-.6-.9-.4-2 .5-2.6 1.7-1.2 3.6-2.2 5.5-3.1.9-.4 2.1 0 2.5.9.4.9 0 2.1-.9 2.5-1.7.8-3.4 1.8-5 2.9-.3.2-.8.3-1.2.2zm14.5-6c-.8-.1-1.5-.7-1.6-1.5-.2-1 .5-2 1.5-2.2 2.1-.4 4.2-.6 6.3-.7 1 0 1.9.8 1.9 1.8s-.8 1.9-1.8 1.9c-1.9.1-3.8.3-5.7.6-.3.1-.4.1-.6.1zm21.4 2c-.2 0-.3-.1-.5-.1-1.8-.7-3.6-1.3-5.5-1.7-1-.2-1.6-1.2-1.4-2.2.2-1 1.2-1.6 2.2-1.4 2.1.5 4.1 1.1 6 1.9 1 .4 1.4 1.5 1.1 2.4-.3.8-1.1 1.2-1.9 1.1zm10.9 6.7c-.4 0-.7-.2-1-.4-.7-.6-1.5-1.2-2.2-1.8-.8-.6-1-1.8-.4-2.6s1.8-1 2.6-.4 1.7 1.3 2.5 2 .9 1.9.2 2.6c-.5.4-1.1.6-1.7.6z"/></g><g class="st6"><path class="st4" d="M732.5 89c-.9-.1-1.7-.9-1.7-1.8s-.1-1.9-.2-2.8c-.1-1 .7-1.9 1.7-2 1-.1 1.9.7 2 1.7.1 1 .2 2.1.2 3.1s-.8 1.9-1.8 1.9c0-.1-.1-.1-.2-.1zM693 128.2c-1-.1-1.7-.9-1.7-1.9 0-1 .9-1.8 1.9-1.8 1.9 0 3.8 0 5.6-.3 1-.1 2 .6 2.1 1.6.1 1-.6 2-1.6 2.1-2 .3-4.1.4-6.2.3h-.1zm-9.4-1.4c-.1 0-.2 0-.3-.1-2-.6-4-1.3-5.8-2.1-.9-.4-1.4-1.5-.9-2.5.4-.9 1.5-1.4 2.5-.9 1.7.8 3.5 1.4 5.3 1.9 1 .3 1.6 1.3 1.3 2.3-.4.9-1.3 1.5-2.1 1.4zm24.6-1.3c-.7-.1-1.3-.5-1.5-1.2-.4-1 .1-2 1-2.4 1.7-.7 3.4-1.5 5.1-2.5.9-.5 2-.2 2.6.7.5.9.2 2-.7 2.6-1.8 1-3.7 2-5.6 2.7-.3.1-.6.1-.9.1zm13-8.4c-.4 0-.8-.2-1.1-.5-.7-.7-.7-1.9 0-2.6 1.3-1.3 2.6-2.8 3.7-4.3.6-.8 1.8-1 2.6-.4s1 1.8.4 2.6c-1.2 1.7-2.6 3.2-4.1 4.7-.5.3-1 .5-1.5.5zm8.5-12.9c-.2 0-.3-.1-.5-.1-1-.4-1.4-1.5-1-2.4.7-1.7 1.3-3.5 1.7-5.4.2-1 1.2-1.6 2.2-1.4 1 .2 1.6 1.2 1.4 2.2-.5 2-1.1 4-1.9 5.9-.3.8-1.1 1.3-1.9 1.2zm-59.9 15.5c-.3 0-.7-.2-1-.4l-2.4-2.1c-.8-.7-.8-1.9-.1-2.6.7-.8 1.9-.8 2.6-.1.7.6 1.4 1.3 2.1 1.9.8.7.9 1.8.3 2.6-.3.5-.9.7-1.5.7z"/></g><path class="st4" d="M671.3 106.6c.1.2.3.2.5.2l5.5-1.4c1.9 1.8 4.1 3.3 6.6 4.5l.7 5.6c0 .2.2.4.4.4l6.6 1.4c.2 0 .4 0 .5-.2l2.9-4.8c2.7-.1 5.3-.6 7.8-1.5l4.4 3.4c.2.1.4.1.5 0l5.6-3.7c.2-.1.2-.3.2-.5l-1.4-5.5c1.8-1.9 3.3-4.1 4.5-6.6l5.6-.7c.2 0 .4-.2.4-.4l1.4-6.6c0-.2 0-.4-.2-.5l-4.8-2.9c-.1-2.7-.6-5.3-1.5-7.8l3.4-4.4c.1-.2.1-.4 0-.5l-3.7-5.6c-.1-.2-.3-.2-.5-.2l-5.5 1.4c-1.9-1.8-4.1-3.3-6.6-4.5l-.7-5.6c0-.2-.2-.4-.4-.4l-6.6-1.4c-.2 0-.4 0-.5.2l-2.9 4.8c-2.7.1-5.3.6-7.8 1.5l-4.4-3.4c-.2-.1-.4-.1-.5 0l-5.6 3.7c-.2.1-.2.3-.2.5l1.4 5.5c-1.8 1.9-3.3 4.1-4.5 6.6l-5.6.7c-.2 0-.4.2-.4.4l-1.4 6.6c0 .2 0 .4.2.5l4.8 2.9c.1 2.7.6 5.3 1.5 7.8l-3.4 4.4c-.1.2-.1.4 0 .5l3.7 5.6z"/><path class="st5" d="M693.4 95.8c-1.7-.2-3.4-.9-4.7-2.1-1.6-1.5-2.6-3.5-2.7-5.7-.2-4.5 3.3-8.4 7.9-8.6 2.2-.1 4.3.7 5.9 2.2 1.6 1.5 2.6 3.5 2.7 5.7.1 2.2-.7 4.3-2.2 5.9-1.5 1.6-3.5 2.6-5.7 2.7-.4-.1-.8-.1-1.2-.1zm1.3-12h-.6c-2.1.1-3.7 1.8-3.6 3.9 0 1 .5 1.9 1.2 2.6.7.7 1.7 1 2.7 1 1 0 1.9-.5 2.6-1.2.7-.7 1-1.7 1-2.7 0-1-.5-1.9-1.2-2.6-.6-.5-1.3-.9-2.1-1z"/><path class="st5" d="M692.6 104.4c-.6-.1-1.2-.2-1.7-.3-1.1-.2-2.2-.6-3.3-1-.1 0-.1-.1-.2-.1-.3-.1-.5-.4-.4-.8 0-.1 0-.2.1-.2.2-.4.6-.5 1-.4 1 .4 2.1.8 3.1 1 2.3.5 4.7.4 6.9-.1 1.6-.4 3.1-1 4.5-1.9h.1l.1-.1c3.5-2.3 5.8-5.8 6.7-9.8.1-.5.2-1.1.2-1.6.4-3.5-.5-7.1-2.5-10.1-2.3-3.5-5.8-5.8-9.8-6.7-4.1-.8-8.2-.1-11.7 2.2-3.5 2.3-5.8 5.8-6.7 9.8-.1.5-.2 1-.2 1.6-.2 2.3 0 4.5.8 6.7v.3c0 .3-.2.5-.5.6-.4.1-.8-.1-1-.5-.8-2.4-1.1-4.9-.8-7.3.1-.6.1-1.1.3-1.7.9-4.5 3.5-8.3 7.3-10.8s8.4-3.4 12.8-2.4c4.5.9 8.3 3.5 10.8 7.3 2.2 3.3 3.1 7.2 2.7 11.1-.1.6-.2 1.2-.3 1.7-.9 4.5-3.5 8.3-7.3 10.8-3.2 2.2-7.1 3.1-11 2.7z"/><path class="st2" d="M635.3 705.6l-.8.4-.9.6-.9.6c-.3.2-.6.4-.8.7l-.8.7-.8.8c-.5.5-1 1.1-1.4 1.7-1.8 2.3-3.2 5-4.2 7.8l-.7 2.1-.5 2.2-.3 1.1-.2 1.1-.3 2.2c-.2 1.5-.2 3-.3 4.5l.1 4.6v.1c0 .4-.3.8-.7.8-.4 0-.7-.3-.8-.7l-.3-4.7c0-1.6 0-3.1.1-4.7l.2-2.4.1-1.2.2-1.2.5-2.3.7-2.3c1-3 2.3-6 4.2-8.7.5-.6.9-1.3 1.5-1.9l.8-.9.9-.9c.3-.3.6-.6.9-.8.3-.3.6-.5 1-.8.3-.2.7-.5 1-.7.4-.2.7-.4 1.2-.7.8-.4 1.8-.1 2.2.7.4.8.1 1.8-.7 2.2-.1-.1-.1-.1-.2 0z"/><path d="M74.5 238.4V594c0 29.3 23.3 53.2 52.6 53.9 129.9 3.3 464.5 11.5 588.1 9.6 21.3-.3 38.5-17.3 39.1-38.6 2.4-82.6 6.3-281.3-8.1-373.5-3-19.4-19.4-33.9-39.1-34.6-108.8-3.5-470.7-14.5-594.3-11.8-21.3.6-38.3 18.1-38.3 39.4z" fill="#0948b3"/><path class="st5" d="M96.8 236.7v337.9c0 17.1 13.7 31 30.8 31.3l569.8 8.5c16.9.3 30.8-13.4 30.9-30.3l1.2-334.9c0-12.1-9.6-22-21.7-22.3l-586.2-14.3c-13.6-.4-24.8 10.5-24.8 24.1z"/><path class="st4" d="M733.5 628.3L96.8 615.4c-.6 0-1.1-.5-1.1-1.1 0-.6.5-1.1 1.1-1.1l636.7 12.9c.6 0 1.1.5 1.1 1.1 0 .6-.5 1.1-1.1 1.1z"/><path d="M697.4 596.2H127.6c-9.9 0-18-8.9-18-19.9V252.1c0-11.1 8.2-20 18.2-19.8l570.6 9.9c8.7.2 15.7 8 15.7 17.6v317.9c.1 10.2-7.4 18.5-16.7 18.5z" opacity=".11" fill="#fff"/><path class="st4" d="M602.7 384.2c0-.9-.4-1.7-1.1-2.4-.7-.6-1.6-.9-2.5-.9l-71.3 2.7c-1.2 0-2.2 1-2.2 2.2l3.6 144.8 72.1-.8c.9 0 1.8-.4 2.5-1 .6-.6 1-1.5 1-2.4l-2.1-142.2z"/><g class="st9"><path class="st2" d="M545.1 406.8h-10.5l-.6-14.5h10.7zm16.4 0h-10l-.4-14.5h10.1zm16.8-.1h-10.4l-.3-14.4h10.5zm16.7 0h-10.4l-.2-14.4h10.5zm-49.1 23.6l-10.5.1-.5-14.1 10.5-.1zm16.2-.1l-9.9.1-.4-14.1 10-.1zm16.6-.1l-10.3.1-.3-14.1h10.4zm16.5-.1l-10.2.1-.2-14 10.3-.1zm-48.6 23.3l-10.3.1-.5-13.8 10.3-.1zm16.1-.1l-9.9.1-.4-13.9h9.9zm16.4-.2l-10.2.1-.3-13.8 10.3-.1zm16.4-.2l-10.2.1-.2-13.7 10.2-.1zm-48.2 23.1l-10.2.1-.5-13.6 10.3-.1zm15.9-.3l-9.7.2-.4-13.6 9.8-.1zm16.3-.2l-10.1.2-.3-13.5 10.2-.2zm16.2-.2l-10.1.1-.2-13.4 10.2-.1zM548 497.9l-10.1.2-.5-13.3 10.2-.1zm15.8-.2l-9.7.1-.3-13.2 9.6-.2zm16.1-.3l-10 .2-.3-13.3 10-.1zm16-.3l-10 .2-.1-13.2 10-.2zm-47.2 22.5l-10 .2-.5-13 10.1-.2zm15.6-.3l-9.5.2-.4-13.1 9.6-.1zm15.9-.4l-9.9.2-.2-12.9 9.9-.2zm15.9-.3l-9.8.2-.2-12.9 9.9-.2z"/></g><path class="st4" d="M440.8 347.1c0-.7-.5-1.3-1.3-1.8s-1.9-.7-3-.6l-111.7 6c-2.1.1-3.7 1.2-3.7 2.5V492c0 1.4 1.9 2.4 4.1 2.4h116.9c1.1 0 2.1-.2 2.9-.7.8-.5 1.2-1.1 1.1-1.8l-5.3-144.8z"/><path class="st10" d="M448.1 344.1H319c-.3 0-.5.3-.7.6-.2.2-.3.7-.3 1l1 12c.1.6.5 1.1 1 1.1h128.1c.5 0 0-.6 0-1.3v-11.9c0-.6.6-1.5 0-1.5z"/><path d="M339.2 364.7h.5c-3.7 0-6.4 4.4-6.4 8.7v6h5.9v-14.7zm-5.9 19.2v4.9c0 .8.2 1 .8 1h5v-5.9h-5.8zm8.5-19.2h-1.1v14.7h5.9v-6c0-4.2-1.1-8.7-4.8-8.7zm-1.1 25h6.7c.7 0-.8-.2-.8-1v-4.9h-5.9v5.9zm26.5-25h1c-3.7 0-8.4 4.4-8.4 8.7v6h7.4v-14.7zm-7.4 19.2v4.9c0 .8 2.2 1 2.9 1h4.5v-5.9h-7.4zm10.5-19.2h-.2v14.7h5.9v-6c0-4.2-2-8.7-5.7-8.7zm-.2 25h5.7c.7 0 .2-.2.2-1v-4.9h-5.9v5.9zm25.1-25h1.6c-3.7 0-7.5 4.4-7.5 8.7v6h5.9v-14.7zm-5.9 19.2v4.9c0 .8 1.3 1 1.9 1h4v-5.9h-5.9zm9.5-19.2h-.7v14.7h5.9v-6c0-4.2-1.4-8.7-5.2-8.7zm-.7 25h6.3c.7 0-.4-.2-.4-1v-4.9h-5.9v5.9zm26.5-25h.7c-3.7 0-8 4.4-8 8.7v6h7.4v-14.7zm-7.4 19.2v4.9c0 .8 1.8 1 2.5 1h4.9v-5.9h-7.4zm10.1-19.2h.2v14.7h5.9v-6c0-4.2-2.3-8.7-6.1-8.7zm.2 25h5.3c.7 0 .5-.2.5-1v-4.9h-5.9v5.9zm-88.3 19.2h.5c-3.7 0-6.4 3-6.4 7.3v7.4h5.9v-14.7zm-5.9 16.2v6.4c0 .8.2 2.4.8 2.4h5v-8.8h-5.8zm8.5-16.2h-1.1v14.7h5.9v-7.4c0-4.3-1.1-7.3-4.8-7.3zm-1.1 25h6.7c.7 0-.8-1.6-.8-2.4v-6.4h-5.9v8.8zm26.5-25h1c-3.7 0-8.4 3-8.4 7.3v7.4h7.4v-14.7zm-7.4 16.2v6.4c0 .8 2.2 2.4 2.9 2.4h4.5v-8.8h-7.4zm10.5-16.2h-.2v14.7h5.9v-7.4c0-4.3-2-7.3-5.7-7.3zm-.2 25h5.7c.7 0 .2-1.6.2-2.4v-6.4h-5.9v8.8zm25.1-25h1.6c-3.7 0-7.5 3-7.5 7.3v7.4h5.9v-14.7zm-5.9 16.2v6.4c0 .8 1.3 2.4 1.9 2.4h4v-8.8h-5.9zm9.5-16.2h-.7v14.7h5.9v-7.4c0-4.3-1.4-7.3-5.2-7.3zm-.7 25h6.3c.7 0-.4-1.6-.4-2.4v-6.4h-5.9v8.8zm26.5-25h.7c-3.7 0-8 3-8 7.3v7.4h7.4v-14.7zm-7.4 16.2v6.4c0 .8 1.8 2.4 2.5 2.4h4.9v-8.8h-7.4zm10.1-16.2h.2v14.7h5.9v-7.4c0-4.3-2.3-7.3-6.1-7.3zm.2 25h5.3c.7 0 .5-1.6.5-2.4v-6.4h-5.9v8.8zm-88.3 16.2h.5c-3.7 0-6.4 4.6-6.4 8.9v7.3h5.9v-16.2zm-5.9 19.1v5c0 .8.2 3.8.8 3.8h5v-8.8h-5.8zm8.5-19.1h-1.1v16.2h5.9V459c0-4.3-1.1-8.9-4.8-8.9zm-1.1 28h6.7c.7 0-.8-3-.8-3.8v-5h-5.9v8.8zm26.5-28h1c-3.7 0-8.4 4.6-8.4 8.9v7.3h7.4v-16.2zm-7.4 19.1v5c0 .8 2.2 3.8 2.9 3.8h4.5v-8.8h-7.4zm10.5-19.1h-.2v16.2h5.9V459c0-4.3-2-8.9-5.7-8.9zm-.2 28h5.7c.7 0 .2-3 .2-3.8v-5h-5.9v8.8zm25.1-28h1.6c-3.7 0-7.5 4.6-7.5 8.9v7.3h5.9v-16.2zm-5.9 19.1v5c0 .8 1.3 3.8 1.9 3.8h4v-8.8h-5.9zm9.5-19.1h-.7v16.2h5.9V459c0-4.3-1.4-8.9-5.2-8.9zm-.7 28h6.3c.7 0-.4-3-.4-3.8v-5h-5.9v8.8zm26.5-28h.7c-3.7 0-8 4.6-8 8.9v7.3h7.4v-16.2zm-7.4 19.1v5c0 .8 1.8 3.8 2.5 3.8h4.9v-8.8h-7.4zm10.1-19.1h.2v16.2h5.9V459c0-4.3-2.3-8.9-6.1-8.9zm.2 28h5.3c.7 0 .5-3 .5-3.8v-5h-5.9v8.8z" opacity=".9" fill="#7d97f4"/><path class="st10" d="M535.1 316.3c0-1.1-.5-2.2-1.4-3-.9-.8-2-1.2-3.2-1.2l-91.2 3.5c-1.6.1-2.8 1.3-2.8 2.8l4.6 185.2 92.2-1.1c1.2 0 2.3-.5 3.1-1.3.8-.8 1.3-1.9 1.3-3l-2.6-181.9z"/><g class="st9"><path class="st2" d="M461.4 345.2h-13.5l-.7-18.5h13.6zm21-.1h-12.9l-.5-18.4h12.9zm21.4 0h-13.3l-.4-18.4h13.4zm21.4-.1h-13.3l-.2-18.3H525zm-62.9 30.3l-13.3.1-.7-18.1 13.4-.1zm20.8-.2l-12.7.1-.5-18 12.8-.1zm21.3-.1l-13.2.1-.4-18H504zm21.1-.1l-13.1.1-.3-18h13.2zm-62.2 29.8l-13.2.1-.7-17.7 13.3-.1zm20.5-.2l-12.5.1-.5-17.7 12.6-.1zm21.1-.2l-13.1.1-.4-17.6 13.2-.1zm20.9-.2l-13 .1-.3-17.6 13.1-.1zm-61.6 29.4l-13.1.2-.6-17.4 13.1-.1zm20.3-.3l-12.4.2-.5-17.3 12.5-.2zm20.8-.3l-12.9.2-.4-17.3 13-.1zm20.7-.2l-12.8.1-.3-17.2 13-.1zm-60.9 29l-13 .3-.6-17 13-.2zm20.1-.3l-12.3.2-.5-17 12.4-.1zm20.6-.4l-12.8.3-.3-17 12.8-.2zm20.5-.3l-12.7.2-.3-16.9 12.9-.2zm-60.4 28.7l-12.8.3-.6-16.7 12.9-.2zm20-.4l-12.2.3-.5-16.7 12.3-.2zm20.4-.4l-12.7.2-.3-16.5 12.7-.3zm20.3-.4l-12.6.2-.3-16.5 12.7-.3z"/></g><path class="st4" d="M176.2 358.5c0-.9-.4-1.8-1.1-2.5-.7-.6-1.7-1-2.7-1l-75.2 2.9c-1.3 0-2.3 1.1-2.3 2.3l3.8 152.6 76-.9c1 0 1.9-.4 2.6-1.1.7-.7 1.1-1.6 1-2.5l-2.1-149.8z"/><g class="st9"><path class="st2" d="M115.5 382.2h-11.2l-.5-15.2H115zm17.3 0h-10.6l-.4-15.2h10.6zm17.7 0h-11l-.4-15.2h11.1zm17.6-.1h-11l-.2-15.1h11zm-51.9 25h-11l-.5-14.9h11.1zm17.2-.2l-10.5.1-.4-14.9H133zm17.5-.1l-10.9.1-.3-14.8 10.9-.1zm17.4-.1l-10.8.1-.2-14.8h10.8zM117 431.3l-10.9.1-.5-14.6 10.9-.1zm17-.2l-10.4.1-.4-14.5 10.4-.1zm17.3-.2l-10.8.2-.3-14.6 10.8-.1zm17.2-.1l-10.7.1-.2-14.5 10.8-.1zM117.8 455l-10.8.2-.5-14.3 10.8-.1zm16.7-.2l-10.2.1-.4-14.2 10.3-.1zm17.2-.2l-10.7.1-.3-14.2 10.7-.1zm17.1-.3l-10.6.2-.2-14.2 10.6-.1zm-50.3 24l-10.7.2-.5-14 10.8-.2zm16.6-.3l-10.1.2-.4-14 10.2-.1zm17-.3l-10.6.2-.3-13.9 10.7-.2zm16.9-.3l-10.5.2-.2-13.9 10.5-.2zm-49.8 23.7l-10.5.2-.5-13.7 10.6-.2zm16.5-.3l-10.1.2-.4-13.7 10.1-.2zm16.8-.4l-10.5.2-.3-13.6 10.5-.2zm16.7-.3l-10.4.2-.2-13.6 10.5-.2z"/></g><linearGradient id="SVGID_2_" gradientUnits="userSpaceOnUse" x1="94.16" y1="552.597" x2="729.459" y2="552.597"><stop offset="0" stop-color="#4f52ff"/><stop offset="1" stop-color="#4042e2"/></linearGradient><path d="M699.2 613.2H139.6c-25.1 0-45.4-20.3-45.4-45.4V492h635.3v91c0 16.7-13.6 30.2-30.3 30.2z" fill="url(#SVGID_2_)"/><path class="st10" d="M327.9 285.9c3.6-1.5-5.1-3-6.5-3.6-1.4-.7-3.2-1-5-.9L132.7 290c-3.4.2-6.1 1.7-6.1 3.5v199.1c0 2 3.2 3.4 6.8 3.4h192.4c1.8 0 3.5-.3 4.7-1 1.2-.7 1.9-1.6 1.9-2.5l-4.5-206.6z"/><linearGradient id="SVGID_3_" gradientUnits="userSpaceOnUse" x1="226.494" y1="273.867" x2="233.259" y2="114.041"><stop offset="0" stop-color="#4f52ff"/><stop offset="1" stop-color="#4042e2"/></linearGradient><path d="M330.5 277.6H122.7c-.5 0-.9 2-1.2 2.3-.3.3-.5 1.7-.4 2.2l1.7 17.7c.1.8.8 2.1 1.6 2.1 0 0 206-.3 206-1.2.1-.1 1-23.1.1-23.1z" fill="url(#SVGID_3_)"/><g opacity=".6"><linearGradient id="SVGID_4_" gradientUnits="userSpaceOnUse" x1="72.012" y1="566.62" x2="186.724" y2="212.507"><stop offset="0" stop-color="#4f52ff"/><stop offset="1" stop-color="#4042e2"/></linearGradient><path d="M154.8 313.9s-9.6-.6-9.7 8.7v8.3h9.7v-17z" opacity=".9" fill="url(#SVGID_4_)"/><linearGradient id="SVGID_5_" gradientUnits="userSpaceOnUse" x1="76.66" y1="568.125" x2="191.372" y2="214.012"><stop offset="0" stop-color="#4f52ff"/><stop offset="1" stop-color="#4042e2"/></linearGradient><path d="M145.1 335.7v8.8c0 1.1 1.5 3.3 2.6 3.3h7.1v-12.1h-9.7z" opacity=".9" fill="url(#SVGID_5_)"/><linearGradient id="SVGID_6_" gradientUnits="userSpaceOnUse" x1="83.033" y1="570.189" x2="197.746" y2="216.076"><stop offset="0" stop-color="#4f52ff"/><stop offset="1" stop-color="#4042e2"/></linearGradient><path d="M160.3 313.9h-.6v16.9h7.3v-8.3c-.1-6-.6-8.6-6.7-8.6z" opacity=".9" fill="url(#SVGID_6_)"/><linearGradient id="SVGID_7_" gradientUnits="userSpaceOnUse" x1="88.525" y1="571.969" x2="203.237" y2="217.857"><stop offset="0" stop-color="#4f52ff"/><stop offset="1" stop-color="#4042e2"/></linearGradient><path d="M159.7 347.8h6.3c1.1 0 1-2.2 1-3.3v-8.8h-7.3v12.1z" opacity=".9" fill="url(#SVGID_7_)"/><linearGradient id="SVGID_8_" gradientUnits="userSpaceOnUse" x1="114.803" y1="580.481" x2="229.516" y2="226.369"><stop offset="0" stop-color="#4f52ff"/><stop offset="1" stop-color="#4042e2"/></linearGradient><path d="M203.3 313.9h.5c-6.1 0-12.6 2.6-12.6 8.7v8.3h12.1v-17z" opacity=".9" fill="url(#SVGID_8_)"/><linearGradient id="SVGID_9_" gradientUnits="userSpaceOnUse" x1="119.392" y1="581.967" x2="234.104" y2="227.854"><stop offset="0" stop-color="#4f52ff"/><stop offset="1" stop-color="#4042e2"/></linearGradient><path d="M191.2 335.7v8.8c0 1.1 2.4 3.3 3.5 3.3h8.6v-12.1h-12.1z" opacity=".9" fill="url(#SVGID_9_)"/><linearGradient id="SVGID_10_" gradientUnits="userSpaceOnUse" x1="126.861" y1="584.387" x2="241.573" y2="230.274"><stop offset="0" stop-color="#4f52ff"/><stop offset="1" stop-color="#4042e2"/></linearGradient><path d="M207.2 313.9h-1.5v16.9h12.1v-8.3c0-6-4.5-8.6-10.6-8.6z" opacity=".9" fill="url(#SVGID_10_)"/><linearGradient id="SVGID_11_" gradientUnits="userSpaceOnUse" x1="132.212" y1="586.122" x2="246.925" y2="232.01"><stop offset="0" stop-color="#4f52ff"/><stop offset="1" stop-color="#4042e2"/></linearGradient><path d="M205.7 347.8h10.6c1.1 0 1.5-2.2 1.5-3.3v-8.8h-12.1v12.1z" opacity=".9" fill="url(#SVGID_11_)"/><linearGradient id="SVGID_12_" gradientUnits="userSpaceOnUse" x1="155.335" y1="593.612" x2="270.048" y2="239.5"><stop offset="0" stop-color="#4f52ff"/><stop offset="1" stop-color="#4042e2"/></linearGradient><path d="M246.8 313.9s-9.4 0-9.7 8.7v8.3h9.7v-17z" opacity=".9" fill="url(#SVGID_12_)"/><linearGradient id="SVGID_13_" gradientUnits="userSpaceOnUse" x1="159.932" y1="595.1" x2="274.644" y2="240.988"><stop offset="0" stop-color="#4f52ff"/><stop offset="1" stop-color="#4042e2"/></linearGradient><path d="M237.2 335.7v8.8c0 1.1 3.3 3.3 4.4 3.3h5.3v-12.1h-9.7z" opacity=".9" fill="url(#SVGID_13_)"/><linearGradient id="SVGID_14_" gradientUnits="userSpaceOnUse" x1="168.497" y1="597.874" x2="283.209" y2="243.762"><stop offset="0" stop-color="#4f52ff"/><stop offset="1" stop-color="#4042e2"/></linearGradient><path d="M254.1 313.9h-2.4v16.9h12.1v-8.3c0-6-3.6-8.6-9.7-8.6z" opacity=".9" fill="url(#SVGID_14_)"/><linearGradient id="SVGID_15_" gradientUnits="userSpaceOnUse" x1="174.115" y1="599.694" x2="288.827" y2="245.583"><stop offset="0" stop-color="#4f52ff"/><stop offset="1" stop-color="#4042e2"/></linearGradient><path d="M251.7 347.8h11.5c1.1 0 .6-2.2.6-3.3v-8.8h-12.1v12.1z" opacity=".9" fill="url(#SVGID_15_)"/><linearGradient id="SVGID_16_" gradientUnits="userSpaceOnUse" x1="198.093" y1="607.462" x2="312.805" y2="253.35"><stop offset="0" stop-color="#4f52ff"/><stop offset="1" stop-color="#4042e2"/></linearGradient><path d="M295.3 313.9s-11.7-.6-12.1 8.7v8.3h12.1v-17z" opacity=".9" fill="url(#SVGID_16_)"/><linearGradient id="SVGID_17_" gradientUnits="userSpaceOnUse" x1="202.663" y1="608.943" x2="317.376" y2="254.831"><stop offset="0" stop-color="#4f52ff"/><stop offset="1" stop-color="#4042e2"/></linearGradient><path d="M283.2 335.7v8.8c0 1.1 4.2 3.3 5.3 3.3h6.8v-12.1h-12.1z" opacity=".9" fill="url(#SVGID_17_)"/><linearGradient id="SVGID_18_" gradientUnits="userSpaceOnUse" x1="210.133" y1="611.362" x2="324.845" y2="257.25"><stop offset="0" stop-color="#4f52ff"/><stop offset="1" stop-color="#4042e2"/></linearGradient><path d="M301 313.9h-3.3v16.9h12.1v-8.3c0-6-2.7-8.6-8.8-8.6z" opacity=".9" fill="url(#SVGID_18_)"/><linearGradient id="SVGID_19_" gradientUnits="userSpaceOnUse" x1="215.524" y1="613.109" x2="330.236" y2="258.997"><stop offset="0" stop-color="#4f52ff"/><stop offset="1" stop-color="#4042e2"/></linearGradient><path d="M297.7 347.8h10.8c1.1 0 1.3-2.2 1.3-3.3v-8.8h-12.1v12.1z" opacity=".9" fill="url(#SVGID_19_)"/><linearGradient id="SVGID_20_" gradientUnits="userSpaceOnUse" x1="90.179" y1="572.504" x2="204.892" y2="218.393"><stop offset="0" stop-color="#4f52ff"/><stop offset="1" stop-color="#4042e2"/></linearGradient><path d="M154.8 372s-11.1 0-9.7 11.9v12.4h9.7V372z" opacity=".9" fill="url(#SVGID_20_)"/><linearGradient id="SVGID_21_" gradientUnits="userSpaceOnUse" x1="94.407" y1="573.874" x2="209.119" y2="219.762"><stop offset="0" stop-color="#4f52ff"/><stop offset="1" stop-color="#4042e2"/></linearGradient><path d="M145.1 398.7v7.2c0 1.1 9.7.1 9.7.1v-7.3h-9.7z" opacity=".9" fill="url(#SVGID_21_)"/><linearGradient id="SVGID_22_" gradientUnits="userSpaceOnUse" x1="101.135" y1="576.054" x2="215.847" y2="221.942"><stop offset="0" stop-color="#4f52ff"/><stop offset="1" stop-color="#4042e2"/></linearGradient><path d="M160.3 372h-.6v24.2h7.3v-12.4c-.1-6-.6-11.8-6.7-11.8z" opacity=".9" fill="url(#SVGID_22_)"/><linearGradient id="SVGID_23_" gradientUnits="userSpaceOnUse" x1="106.45" y1="577.775" x2="221.163" y2="223.663"><stop offset="0" stop-color="#4f52ff"/><stop offset="1" stop-color="#4042e2"/></linearGradient><path d="M159.7 405.9s7.3 1 7.3-.1v-7.2h-7.3v7.3z" opacity=".9" fill="url(#SVGID_23_)"/><linearGradient id="SVGID_24_" gradientUnits="userSpaceOnUse" x1="133.342" y1="586.486" x2="248.054" y2="232.375"><stop offset="0" stop-color="#4f52ff"/><stop offset="1" stop-color="#4042e2"/></linearGradient><path d="M203.3 372h.5c-6.1 0-12.6 5.7-12.6 11.9v12.4h12.1V372z" opacity=".9" fill="url(#SVGID_24_)"/><linearGradient id="SVGID_25_" gradientUnits="userSpaceOnUse" x1="137.138" y1="587.716" x2="251.851" y2="233.605"><stop offset="0" stop-color="#4f52ff"/><stop offset="1" stop-color="#4042e2"/></linearGradient><path d="M191.2 398.7v7.2c0 1.1 12.1.1 12.1.1v-7.3h-12.1z" opacity=".9" fill="url(#SVGID_25_)"/><linearGradient id="SVGID_26_" gradientUnits="userSpaceOnUse" x1="144.963" y1="590.251" x2="259.675" y2="236.139"><stop offset="0" stop-color="#4f52ff"/><stop offset="1" stop-color="#4042e2"/></linearGradient><path d="M207.2 372h-1.5v24.2h12.1v-12.4c0-6-4.5-11.8-10.6-11.8z" opacity=".9" fill="url(#SVGID_26_)"/><linearGradient id="SVGID_27_" gradientUnits="userSpaceOnUse" x1="150.276" y1="591.972" x2="264.988" y2="237.86"><stop offset="0" stop-color="#4f52ff"/><stop offset="1" stop-color="#4042e2"/></linearGradient><path d="M205.7 405.9s12.1 1 12.1-.1v-7.2h-12.1v7.3z" opacity=".9" fill="url(#SVGID_27_)"/><linearGradient id="SVGID_28_" gradientUnits="userSpaceOnUse" x1="173.662" y1="599.548" x2="288.374" y2="245.436"><stop offset="0" stop-color="#4f52ff"/><stop offset="1" stop-color="#4042e2"/></linearGradient><path d="M246.8 372s-9.7-.5-9.7 11.9v12.4h9.7V372z" opacity=".9" fill="url(#SVGID_28_)"/><linearGradient id="SVGID_29_" gradientUnits="userSpaceOnUse" x1="177.679" y1="600.849" x2="292.391" y2="246.737"><stop offset="0" stop-color="#4f52ff"/><stop offset="1" stop-color="#4042e2"/></linearGradient><path d="M237.2 398.7v7.2c0 1.1 9.7.1 9.7.1v-7.3h-9.7z" opacity=".9" fill="url(#SVGID_29_)"/><linearGradient id="SVGID_30_" gradientUnits="userSpaceOnUse" x1="186.599" y1="603.739" x2="301.311" y2="249.626"><stop offset="0" stop-color="#4f52ff"/><stop offset="1" stop-color="#4042e2"/></linearGradient><path d="M254.1 372h-2.4v24.2h12.1v-12.4c0-6-3.6-11.8-9.7-11.8z" opacity=".9" fill="url(#SVGID_30_)"/><linearGradient id="SVGID_31_" gradientUnits="userSpaceOnUse" x1="192.034" y1="605.499" x2="306.746" y2="251.387"><stop offset="0" stop-color="#4f52ff"/><stop offset="1" stop-color="#4042e2"/></linearGradient><path d="M251.7 405.9h11.5c1.1 0 .6 1 .6-.1v-7.2h-12.1v7.3z" opacity=".9" fill="url(#SVGID_31_)"/><linearGradient id="SVGID_32_" gradientUnits="userSpaceOnUse" x1="216.346" y1="613.375" x2="331.058" y2="259.263"><stop offset="0" stop-color="#4f52ff"/><stop offset="1" stop-color="#4042e2"/></linearGradient><path d="M295.3 372s-13.1 0-12.1 11.9v12.4h12.1V372z" opacity=".9" fill="url(#SVGID_32_)"/><linearGradient id="SVGID_33_" gradientUnits="userSpaceOnUse" x1="220.411" y1="614.691" x2="335.123" y2="260.58"><stop offset="0" stop-color="#4f52ff"/><stop offset="1" stop-color="#4042e2"/></linearGradient><path d="M283.2 398.7v7.2c0 1.1 12.1.1 12.1.1v-7.3h-12.1z" opacity=".9" fill="url(#SVGID_33_)"/><linearGradient id="SVGID_34_" gradientUnits="userSpaceOnUse" x1="228.234" y1="617.227" x2="342.947" y2="263.115"><stop offset="0" stop-color="#4f52ff"/><stop offset="1" stop-color="#4042e2"/></linearGradient><path d="M301 372h-3.3v24.2h12.1v-12.4c0-6-2.7-11.8-8.8-11.8z" opacity=".9" fill="url(#SVGID_34_)"/><linearGradient id="SVGID_35_" gradientUnits="userSpaceOnUse" x1="233.547" y1="618.948" x2="348.26" y2="264.836"><stop offset="0" stop-color="#4f52ff"/><stop offset="1" stop-color="#4042e2"/></linearGradient><path d="M297.7 405.9s12.1 1 12.1-.1v-7.2h-12.1v7.3z" opacity=".9" fill="url(#SVGID_35_)"/><linearGradient id="SVGID_36_" gradientUnits="userSpaceOnUse" x1="107.876" y1="578.237" x2="222.588" y2="224.125"><stop offset="0" stop-color="#4f52ff"/><stop offset="1" stop-color="#4042e2"/></linearGradient><path d="M154.8 432.6s-11.7 0-9.7 12.6v11.6h9.7v-24.2z" opacity=".9" fill="url(#SVGID_36_)"/><linearGradient id="SVGID_37_" gradientUnits="userSpaceOnUse" x1="112.864" y1="579.852" x2="227.576" y2="225.74"><stop offset="0" stop-color="#4f52ff"/><stop offset="1" stop-color="#4042e2"/></linearGradient><path d="M145.1 461.6v5.5c0 1.1 1.5 1.8 2.6 1.8h7.1v-7.3h-9.7z" opacity=".9" fill="url(#SVGID_37_)"/><linearGradient id="SVGID_38_" gradientUnits="userSpaceOnUse" x1="118.882" y1="581.803" x2="233.595" y2="227.69"><stop offset="0" stop-color="#4f52ff"/><stop offset="1" stop-color="#4042e2"/></linearGradient><path d="M160.3 432.6h-.6v24.2h7.3v-11.6c-.1-6.2-.6-12.6-6.7-12.6z" opacity=".9" fill="url(#SVGID_38_)"/><linearGradient id="SVGID_39_" gradientUnits="userSpaceOnUse" x1="124.816" y1="583.725" x2="239.528" y2="229.612"><stop offset="0" stop-color="#4f52ff"/><stop offset="1" stop-color="#4042e2"/></linearGradient><path d="M159.7 468.9h6.3c1.1 0 1-.7 1-1.8v-5.5h-7.3v7.3z" opacity=".9" fill="url(#SVGID_39_)"/><linearGradient id="SVGID_40_" gradientUnits="userSpaceOnUse" x1="151.191" y1="592.269" x2="265.903" y2="238.157"><stop offset="0" stop-color="#4f52ff"/><stop offset="1" stop-color="#4042e2"/></linearGradient><path d="M203.3 432.6h.5c-6.1 0-12.6 6.5-12.6 12.6v11.6h12.1v-24.2z" opacity=".9" fill="url(#SVGID_40_)"/><linearGradient id="SVGID_41_" gradientUnits="userSpaceOnUse" x1="155.595" y1="593.695" x2="270.308" y2="239.583"><stop offset="0" stop-color="#4f52ff"/><stop offset="1" stop-color="#4042e2"/></linearGradient><path d="M191.2 461.6v5.5c0 1.1 2.4 1.8 3.5 1.8h8.6v-7.3h-12.1z" opacity=".9" fill="url(#SVGID_41_)"/><linearGradient id="SVGID_42_" gradientUnits="userSpaceOnUse" x1="162.709" y1="596" x2="277.422" y2="241.888"><stop offset="0" stop-color="#4f52ff"/><stop offset="1" stop-color="#4042e2"/></linearGradient><path d="M207.2 432.6h-1.5v24.2h12.1v-11.6c0-6.2-4.5-12.6-10.6-12.6z" opacity=".9" fill="url(#SVGID_42_)"/><linearGradient id="SVGID_43_" gradientUnits="userSpaceOnUse" x1="168.56" y1="597.896" x2="283.272" y2="243.784"><stop offset="0" stop-color="#4f52ff"/><stop offset="1" stop-color="#4042e2"/></linearGradient><path d="M205.7 468.9h10.6c1.1 0 1.5-.7 1.5-1.8v-5.5h-12.1v7.3z" opacity=".9" fill="url(#SVGID_43_)"/><linearGradient id="SVGID_44_" gradientUnits="userSpaceOnUse" x1="191.464" y1="605.315" x2="306.176" y2="251.203"><stop offset="0" stop-color="#4f52ff"/><stop offset="1" stop-color="#4042e2"/></linearGradient><path d="M246.8 432.6s-9.7-.6-9.7 12.6v11.6h9.7v-24.2z" opacity=".9" fill="url(#SVGID_44_)"/><linearGradient id="SVGID_45_" gradientUnits="userSpaceOnUse" x1="196.136" y1="606.828" x2="310.848" y2="252.716"><stop offset="0" stop-color="#4f52ff"/><stop offset="1" stop-color="#4042e2"/></linearGradient><path d="M237.2 461.6v7.3c0 1.1 9.7 0 9.7 0v-7.3h-9.7z" opacity=".9" fill="url(#SVGID_45_)"/><linearGradient id="SVGID_46_" gradientUnits="userSpaceOnUse" x1="204.345" y1="609.488" x2="319.058" y2="255.375"><stop offset="0" stop-color="#4f52ff"/><stop offset="1" stop-color="#4042e2"/></linearGradient><path d="M254.1 432.6h-2.4v24.2h12.1v-11.6c0-6.2-3.6-12.6-9.7-12.6z" opacity=".9" fill="url(#SVGID_46_)"/><linearGradient id="SVGID_47_" gradientUnits="userSpaceOnUse" x1="210.378" y1="611.442" x2="325.09" y2="257.33"><stop offset="0" stop-color="#4f52ff"/><stop offset="1" stop-color="#4042e2"/></linearGradient><path d="M251.7 468.9h11.5c1.1 0 .6-.7.6-1.8v-5.5h-12.1v7.3z" opacity=".9" fill="url(#SVGID_47_)"/><linearGradient id="SVGID_48_" gradientUnits="userSpaceOnUse" x1="234.134" y1="619.138" x2="348.847" y2="265.026"><stop offset="0" stop-color="#4f52ff"/><stop offset="1" stop-color="#4042e2"/></linearGradient><path d="M295.3 432.6s-13.2 0-12.1 12.6v11.6h12.1v-24.2z" opacity=".9" fill="url(#SVGID_48_)"/><linearGradient id="SVGID_49_" gradientUnits="userSpaceOnUse" x1="238.867" y1="620.671" x2="353.58" y2="266.558"><stop offset="0" stop-color="#4f52ff"/><stop offset="1" stop-color="#4042e2"/></linearGradient><path d="M283.2 461.6v5.5c0 1.1 4.2 1.8 5.3 1.8h6.8v-7.3h-12.1z" opacity=".9" fill="url(#SVGID_49_)"/><linearGradient id="SVGID_50_" gradientUnits="userSpaceOnUse" x1="245.981" y1="622.976" x2="360.694" y2="268.862"><stop offset="0" stop-color="#4f52ff"/><stop offset="1" stop-color="#4042e2"/></linearGradient><path d="M301 432.6h-3.3v24.2h12.1v-11.6c0-6.2-2.2-10.9-8.8-12.6z" opacity=".9" fill="url(#SVGID_50_)"/><linearGradient id="SVGID_51_" gradientUnits="userSpaceOnUse" x1="251.941" y1="624.906" x2="366.653" y2="270.794"><stop offset="0" stop-color="#4f52ff"/><stop offset="1" stop-color="#4042e2"/></linearGradient><path d="M297.7 468.9H309c1.1 0 .8-.7.8-1.8v-5.5h-12.1v7.3z" opacity=".9" fill="url(#SVGID_51_)"/></g><path class="st4" d="M671 530.9c-2.7-7.6-4.4-15.3-4.1-23.6.7-20.8 14.8-38.5 25.4-55.4 9.8-15.5 18.4-39.2-9.1-39.9-22-.6-49.9 18.4-55.2 40.7-6.3 26.4 3.2 61.6-14.9 84.3-25.2 31.7-40 22.3-46.1 79.7-2.6 24.5 9.6 39.5 24.3 48.6 23.3 14.4 53.1 12.7 74.7-4.1 19.1-14.9 31.9-37.9 31-62.4-.8-24.7-18-45.3-26-67.9z"/><path class="st10" d="M633.2 713.7h.1c.5-.1.8-.5.7-.9-17.6-125.2-2.9-197.2 12.5-235.5 16.7-41.4 37.9-53.4 38.1-53.5.4-.2.5-.7.3-1.1-.2-.4-.7-.5-1.1-.3-.9.5-21.8 12.3-38.7 54.1-9.9 24.5-16.4 54.3-19.2 88.5-3.5 42.7-1.3 92.5 6.5 148 0 .4.4.7.8.7z"/><path class="st5" d="M738 635.3c4.7-18.1.3-39.8-1-59.6-.7-10.5-.4-20.7 2.3-30.9 2.7-10.1 8.7-20.7 5.4-31.4-6.8-21.6-29.1-14.5-43-.2-16.1 16.5-23.1 45.6-30.9 67.7-4.7 13.3-11.1 26.8-14.3 40.6-5.3 22.8-1.8 39.4 8.1 51.4 9.5 11.5 25.4 15.4 39.1 9.5 12.5-5.4 26.7-18 34.3-47.1z"/><path class="st4" d="M680.2 715.4c.1 0 .1 0 0 0 .5 0 .9-.4.8-.9 0-.3-1.7-28.7 2.3-67.2 3.7-35.5 13-87.2 36.7-131.6.2-.4.1-.9-.3-1.1-.4-.2-.9-.1-1.1.3-23.8 44.6-33.2 96.6-36.8 132.2-4 38.7-2.3 67.2-2.3 67.4-.1.5.3.9.7.9z"/><linearGradient id="SVGID_52_" gradientUnits="userSpaceOnUse" x1="192.745" y1="535.83" x2="193.591" y2="653.374"><stop offset="0" stop-color="#09005d"/><stop offset="1" stop-color="#1a0f91"/></linearGradient><ellipse cx="194.2" cy="735" rx="90.1" ry="10.9" fill="url(#SVGID_52_)"/><linearGradient id="SVGID_53_" gradientUnits="userSpaceOnUse" x1="192.816" y1="535.83" x2="193.662" y2="653.373"><stop offset="0" stop-color="#09005d"/><stop offset="1" stop-color="#1a0f91"/></linearGradient><path fill="url(#SVGID_53_)" d="M104.1 714.9h180.3v20.5H104.1z"/><linearGradient id="SVGID_54_" gradientUnits="userSpaceOnUse" x1="84.421" y1="710.9" x2="303.935" y2="710.9"><stop offset="0" stop-color="#ff928e"/><stop offset="1" stop-color="#fe7062"/></linearGradient><ellipse cx="194.2" cy="710.9" rx="109.8" ry="13.2" fill="url(#SVGID_54_)"/><linearGradient id="SVGID_55_" gradientUnits="userSpaceOnUse" x1="84.421" y1="706.488" x2="303.935" y2="706.488"><stop offset="0" stop-color="#ff928e"/><stop offset="1" stop-color="#fe7062"/></linearGradient><path fill="url(#SVGID_55_)" d="M84.4 701.6h219.5v9.7H84.4z"/><linearGradient id="SVGID_56_" gradientUnits="userSpaceOnUse" x1="392.351" y1="623.782" x2="487.063" y2="586.574"><stop offset="0" stop-color="#febbba"/><stop offset="1" stop-color="#ff928e"/></linearGradient><ellipse cx="194.2" cy="701.6" rx="109.8" ry="13.2" fill="url(#SVGID_56_)"/><linearGradient id="SVGID_57_" gradientUnits="userSpaceOnUse" x1="93.299" y1="701.635" x2="295.058" y2="701.635"><stop offset="0" stop-color="#ff928e"/><stop offset="1" stop-color="#fe7062"/></linearGradient><path d="M194.2 709.8c-26.6 0-52.3-1.2-72.1-3.3-15.9-1.7-24.3-3.6-28.7-4.9 4.4-1.4 12.8-3.2 28.7-4.9 19.9-2.1 45.5-3.3 72.1-3.3 26.6 0 52.3 1.2 72.1 3.3 15.9 1.7 24.3 3.6 28.7 4.9-4.4 1.4-12.8 3.2-28.7 4.9-19.9 2.2-45.5 3.3-72.1 3.3z" fill="url(#SVGID_57_)"/><linearGradient id="SVGID_58_" gradientUnits="userSpaceOnUse" x1="14.341" y1="998.937" x2="2.023" y2="1049.088" gradientTransform="rotate(-8.673 -2539.551 -687.143)"><stop offset="0" stop-color="#020039"/><stop offset="1" stop-color="#090056"/></linearGradient><path d="M216.8 674.9s-5.1 6-6.1 15.1c-.2 2.1 1.3 4.1 3.4 4.3l34.4 4.4c1.6.2 2.5-1.8 1.3-2.9-5.9-5.4-17.6-15.5-26.4-20.1l-6.6-.8z" fill="url(#SVGID_58_)"/><linearGradient id="SVGID_59_" gradientUnits="userSpaceOnUse" x1="240.365" y1="515.484" x2="218.379" y2="700.679"><stop offset="0" stop-color="#020039"/><stop offset="1" stop-color="#090056"/></linearGradient><path d="M207.5 502.2c13 9.3 90.4 79.7 70.5 94.9-18.6 14.1-51.2 84.3-51.2 84.3l-9.6-4s6-83.1 38.7-90.6c-7-4.8-71.2-41.8-67.6-51.7l19.2-32.9z" fill="url(#SVGID_59_)"/><linearGradient id="SVGID_60_" gradientUnits="userSpaceOnUse" x1="10220.552" y1="2009.68" x2="10265.459" y2="2009.68" gradientTransform="rotate(6.832 16131.225 -83267.603)"><stop offset="0" stop-color="#020039"/><stop offset="1" stop-color="#090056"/></linearGradient><path d="M129.1 692.6c-2.3-.3-5.8 14.8-6.9 16.1 4.1 3.6 6.8 3.1 11.1 3 3.8 0 15.8 1.2 19.8.7 8.6-1.1 9.6-3 14.5-5.2-4.4-4.8-11.5-1.7-16.8-3.7-5.4-2-9.8-7.5-15.1-10.2l-6.6-.7z" fill="url(#SVGID_60_)"/><linearGradient id="SVGID_61_" gradientUnits="userSpaceOnUse" x1="182.999" y1="508.673" x2="161.013" y2="693.868"><stop offset="0" stop-color="#020039"/><stop offset="1" stop-color="#090056"/></linearGradient><path d="M184.9 490.3s-28.8 9.4-30.4 111.2c-24 9.7-25.3 91-25.3 91 1.2 5 4.2 4 8.5 5.4 0 0 19.1-68.1 35.5-84.4 7.7-7.6 35.3-97.8 44-110.4-13.1-33.3-32.3-12.8-32.3-12.8z" fill="url(#SVGID_61_)"/><linearGradient id="SVGID_62_" gradientUnits="userSpaceOnUse" x1="136.502" y1="512.909" x2="148.764" y2="472.318"><stop offset="0" stop-color="#febbba"/><stop offset="1" stop-color="#ff928e"/></linearGradient><path d="M134.2 495.5c.6-3.9-2.3-9.7-3.7-12.3 6.1-17.7 29.4-40.5 51.9-45.9 0-7.5-10.7-12.6-11.6-17.8-15.8 10.3-36.3 15.5-46.6 63.2-4.7 4.9-5.4 13.7-4.1 15.8.7.9 13.3 2.1 14.1-3z" fill="url(#SVGID_62_)"/><linearGradient id="SVGID_63_" gradientUnits="userSpaceOnUse" x1="405.997" y1="522.819" x2="197.076" y2="407.675"><stop offset="0" stop-color="#020039"/><stop offset="1" stop-color="#090056"/></linearGradient><path d="M259.5 422.2l-15.9 24.4c7.4 14.4 16.4 39.7 77.6 8.6-5.2-5.3-7.8-2.4-7.2-7.7-46.9 16.5-54.5-25.3-54.5-25.3z" fill="url(#SVGID_63_)"/><linearGradient id="SVGID_64_" gradientUnits="userSpaceOnUse" x1="330.099" y1="437.027" x2="308.112" y2="465.778"><stop offset="0" stop-color="#febbba"/><stop offset="1" stop-color="#ff928e"/></linearGradient><path d="M315 451.7s-4.4-7.6 1.9-13.5c0 0 2-2.3 4.3 1.1 0 0 6.8-6.2 8.6-3.7 1.9 2.5 6.8 8.6 2 15.6-4.9 7.1-14.7 4-16.8.5z" fill="url(#SVGID_64_)"/><linearGradient id="SVGID_65_" gradientUnits="userSpaceOnUse" x1="317.962" y1="443.646" x2="324.586" y2="443.646"><stop offset="0" stop-color="#febbba"/><stop offset="1" stop-color="#ff928e"/></linearGradient><path d="M321.6 447.6c-.7 0-1.4-.1-2-.5-.6-.4-1.4-1.1-1.6-2.7-.1-.5.3-1 .8-1.1.5-.1 1 .3 1.1.8.1 1 .6 1.2.7 1.3.5.3 1.3.3 1.9.2l-1.5-4.7c-.2-.5.1-1 .6-1.2.5-.2 1 .1 1.2.6l1.8 5.6c.1.5-.1 1-.6 1.2-.2.1-1.2.5-2.4.5z" fill="url(#SVGID_65_)"/><linearGradient id="SVGID_66_" gradientUnits="userSpaceOnUse" x1="202.699" y1="562.875" x2="223.84" y2="408.123"><stop offset="0" stop-color="#020039"/><stop offset="1" stop-color="#090056"/></linearGradient><path d="M204.4 407.3c-11.3.6-21.2 32-13.8 30.1-6.6 24.7-13.2 47.2-20.4 70.7 0 0 23.1 13.3 43.6 1.7l39.6-61c4-5.7 6.6-12.3 7.7-19.2.9-5.7-2.4-11.2-7.9-13.1-11.8-4-32.3-10.1-48.8-9.2z" fill="url(#SVGID_66_)"/><linearGradient id="SVGID_67_" gradientUnits="userSpaceOnUse" x1="225.744" y1="426.228" x2="228.721" y2="417.739"><stop offset="0" stop-color="#febbba"/><stop offset="1" stop-color="#ff928e"/></linearGradient><path d="M229.5 393.1l-9.7 19c-.6 1.2-.4 2.6.5 3.5 2.4 2.6 7.9 6.9 17.6 3.8 1.1-.3 1.8-1.3 2-2.4l2.5-17.3-12.9-6.6z" fill="url(#SVGID_67_)"/><linearGradient id="SVGID_68_" gradientUnits="userSpaceOnUse" x1="255.481" y1="407.305" x2="230.112" y2="374.607"><stop offset="0" stop-color="#febbba"/><stop offset="1" stop-color="#ff928e"/></linearGradient><path d="M245.7 371s5.7 13.1 6.1 20c.4 6.9 1.9 11.3-6.1 12.7-7.9 1.4-14.6-2.6-18.3-9.4 0 0-5.1-10.4-4.4-14.9 1.5-10.4 22.7-8.4 22.7-8.4z" fill="url(#SVGID_68_)"/><linearGradient id="SVGID_69_" gradientUnits="userSpaceOnUse" x1="242.854" y1="377.279" x2="210.264" y2="402.215"><stop offset="0" stop-color="#febbba"/><stop offset="1" stop-color="#ff928e"/></linearGradient><path d="M230.4 390.6s-2.2-8.4-5.9-6c-3.8 2.3 1.9 9.4 5 9.7l.9-3.7z" fill="url(#SVGID_69_)"/><linearGradient id="SVGID_70_" gradientUnits="userSpaceOnUse" x1="217.579" y1="360.334" x2="254.734" y2="408.172"><stop offset="0" stop-color="#020039"/><stop offset="1" stop-color="#090056"/></linearGradient><path d="M247.3 375c-3.6-30.8-55.5-10.7-25.8 18.3l5.3 5.7 3.1-6.4c-2-12 6.7-27.1 17.4-17.6z" fill="url(#SVGID_70_)"/><linearGradient id="SVGID_71_" gradientUnits="userSpaceOnUse" x1="235.636" y1="174.617" x2="230.563" y2="253.262"><stop offset="0" stop-color="#ff928e"/><stop offset="1" stop-color="#fe7062"/></linearGradient><circle cx="222.2" cy="382.8" r="3.5" fill="url(#SVGID_71_)"/><linearGradient id="SVGID_72_" gradientUnits="userSpaceOnUse" x1="246.898" y1="175.344" x2="241.824" y2="253.988"><stop offset="0" stop-color="#ff928e"/><stop offset="1" stop-color="#fe7062"/></linearGradient><circle cx="234.4" cy="369" r="3.5" fill="url(#SVGID_72_)"/><linearGradient id="SVGID_73_" gradientUnits="userSpaceOnUse" x1="148.682" y1="555.496" x2="169.823" y2="400.744"><stop offset="0" stop-color="#020039"/><stop offset="1" stop-color="#090056"/></linearGradient><path d="M189.6 438.1l15.5-29.7c.3-.6-.2-1.3-.9-1.2-46.9 8.3-73.1 37.1-82 76.5 1.9 1.2 4.7 1.2 8.2 0 20.2-23.8 40.3-45.9 59.2-45.6z" fill="url(#SVGID_73_)"/><linearGradient id="SVGID_74_" gradientUnits="userSpaceOnUse" x1="272.479" y1="311.253" x2="241.19" y2="400.891"><stop offset="0" stop-color="#ff928e"/><stop offset="1" stop-color="#fe7062"/></linearGradient><circle cx="168.4" cy="609.4" r="4.7" fill="url(#SVGID_74_)"/><linearGradient id="SVGID_75_" gradientUnits="userSpaceOnUse" x1="252.462" y1="304.267" x2="221.174" y2="393.904"><stop offset="0" stop-color="#ff928e"/><stop offset="1" stop-color="#fe7062"/></linearGradient><circle cx="163.7" cy="558.7" r="4.7" fill="url(#SVGID_75_)"/><linearGradient id="SVGID_76_" gradientUnits="userSpaceOnUse" x1="312.045" y1="325.065" x2="280.756" y2="414.703"><stop offset="0" stop-color="#ff928e"/><stop offset="1" stop-color="#fe7062"/></linearGradient><circle cx="230.5" cy="558.7" r="4.7" fill="url(#SVGID_76_)"/><linearGradient id="SVGID_77_" gradientUnits="userSpaceOnUse" x1="277.078" y1="312.859" x2="245.789" y2="402.497"><stop offset="0" stop-color="#ff928e"/><stop offset="1" stop-color="#fe7062"/></linearGradient><circle cx="207.9" cy="511.2" r="4.7" fill="url(#SVGID_77_)"/><linearGradient id="SVGID_78_" gradientUnits="userSpaceOnUse" x1="248.18" y1="302.772" x2="216.892" y2="392.41"><stop offset="0" stop-color="#ff928e"/><stop offset="1" stop-color="#fe7062"/></linearGradient><circle cx="177.1" cy="506.4" r="4.7" fill="url(#SVGID_78_)"/><linearGradient id="SVGID_79_" gradientUnits="userSpaceOnUse" x1="287.456" y1="177.96" x2="282.382" y2="256.605"><stop offset="0" stop-color="#ff928e"/><stop offset="1" stop-color="#fe7062"/></linearGradient><circle cx="268.9" cy="465.6" r="4.7" fill="url(#SVGID_79_)"/><linearGradient id="SVGID_80_" gradientUnits="userSpaceOnUse" x1="362.81" y1="342.785" x2="331.522" y2="432.423"><stop offset="0" stop-color="#ff928e"/><stop offset="1" stop-color="#fe7062"/></linearGradient><circle cx="276.6" cy="589.7" r="4.7" fill="url(#SVGID_80_)"/><linearGradient id="SVGID_81_" gradientUnits="userSpaceOnUse" x1="269.046" y1="176.773" x2="263.972" y2="255.417"><stop offset="0" stop-color="#ff928e"/><stop offset="1" stop-color="#fe7062"/></linearGradient><circle cx="253.1" cy="424.1" r="4.7" fill="url(#SVGID_81_)"/><linearGradient id="SVGID_82_" gradientUnits="userSpaceOnUse" x1="220.524" y1="173.642" x2="215.45" y2="252.287"><stop offset="0" stop-color="#ff928e"/><stop offset="1" stop-color="#fe7062"/></linearGradient><circle cx="205.1" cy="411.9" r="4.7" fill="url(#SVGID_82_)"/><linearGradient id="SVGID_83_" gradientUnits="userSpaceOnUse" x1="244.185" y1="175.169" x2="239.111" y2="253.814"><stop offset="0" stop-color="#ff928e"/><stop offset="1" stop-color="#fe7062"/></linearGradient><circle cx="226.8" cy="444.4" r="4.7" fill="url(#SVGID_83_)"/><linearGradient id="SVGID_84_" gradientUnits="userSpaceOnUse" x1="167.017" y1="170.19" x2="161.943" y2="248.834"><stop offset="0" stop-color="#ff928e"/><stop offset="1" stop-color="#fe7062"/></linearGradient><circle cx="149.6" cy="439.7" r="4.7" fill="url(#SVGID_84_)"/><linearGradient id="SVGID_85_" gradientUnits="userSpaceOnUse" x1="147.595" y1="168.937" x2="142.521" y2="247.581"><stop offset="0" stop-color="#ff928e"/><stop offset="1" stop-color="#fe7062"/></linearGradient><circle cx="127.5" cy="481.1" r="4.2" fill="url(#SVGID_85_)"/><linearGradient id="SVGID_86_" gradientUnits="userSpaceOnUse" x1="327.8" y1="180.563" x2="322.726" y2="259.207"><stop offset="0" stop-color="#ff928e"/><stop offset="1" stop-color="#fe7062"/></linearGradient><circle cx="310.4" cy="450.4" r="4.2" fill="url(#SVGID_86_)"/><linearGradient id="SVGID_87_" gradientUnits="userSpaceOnUse" x1="345.67" y1="336.802" x2="314.382" y2="426.44"><stop offset="0" stop-color="#ff928e"/><stop offset="1" stop-color="#fe7062"/></linearGradient><circle cx="226.8" cy="677.3" r="4.7" fill="url(#SVGID_87_)"/><linearGradient id="SVGID_88_" gradientUnits="userSpaceOnUse" x1="270.496" y1="310.561" x2="239.208" y2="400.199"><stop offset="0" stop-color="#ff928e"/><stop offset="1" stop-color="#fe7062"/></linearGradient><circle cx="136.7" cy="694" r="4.7" fill="url(#SVGID_88_)"/><linearGradient id="SVGID_89_" gradientUnits="userSpaceOnUse" x1="413.812" y1="165.351" x2="440.649" y2="165.351"><stop offset="0" stop-color="#09005d"/><stop offset="1" stop-color="#1a0f91"/></linearGradient><path fill="url(#SVGID_89_)" d="M413.8 145.2h26.8v40.3h-26.8z"/><linearGradient id="SVGID_90_" gradientUnits="userSpaceOnUse" x1="48.565" y1="1108.141" x2="74.796" y2="1108.141" gradientTransform="rotate(-9.823 -2993.1 -884.015)"><stop offset="0" stop-color="#09005d"/><stop offset="1" stop-color="#1a0f91"/></linearGradient><path fill="url(#SVGID_90_)" d="M352.4 548l-7.7 16.8 21.7 1.8 1.9-19.3z"/><linearGradient id="SVGID_91_" gradientUnits="userSpaceOnUse" x1="473.514" y1="532.413" x2="499.744" y2="532.413"><stop offset="0" stop-color="#09005d"/><stop offset="1" stop-color="#1a0f91"/></linearGradient><path fill="url(#SVGID_91_)" d="M484 522l-10.5 15.3 21.1 5.5 5.1-18.8z"/><linearGradient id="SVGID_92_" gradientUnits="userSpaceOnUse" x1="101.673" y1="960.77" x2="169.834" y2="960.77" gradientTransform="rotate(-9.823 -2993.1 -884.015)"><stop offset="0" stop-color="#09005d"/><stop offset="1" stop-color="#1a0f91"/></linearGradient><path d="M379.8 456.5l.8-112.9c0-4.6 4.2-8 8.7-7.1l40.2 7.6-20.6 121.6-29.1-9.2z" fill="url(#SVGID_92_)"/><linearGradient id="SVGID_93_" gradientUnits="userSpaceOnUse" x1="-2888.266" y1="2624.382" x2="-2824.519" y2="2624.382" gradientTransform="rotate(-68.943 -2811.616 -941.95)"><stop offset="0" stop-color="#09005d"/><stop offset="1" stop-color="#1a0f91"/></linearGradient><path fill="url(#SVGID_93_)" d="M538.7 430.1l-109.2-69.9 37.8-25.9 97.5 84.8z"/><linearGradient id="SVGID_94_" gradientUnits="userSpaceOnUse" x1="405.425" y1="289.476" x2="444.004" y2="289.476"><stop offset="0" stop-color="#09005d"/><stop offset="1" stop-color="#1a0f91"/></linearGradient><path fill="url(#SVGID_94_)" d="M405.4 249.2H444v80.5h-38.6z"/><linearGradient id="SVGID_95_" gradientUnits="userSpaceOnUse" x1="400.393" y1="189.673" x2="450.714" y2="189.673"><stop offset="0" stop-color="#09005d"/><stop offset="1" stop-color="#1a0f91"/></linearGradient><path fill="url(#SVGID_95_)" d="M400.4 182.1h50.3v15.1h-50.3z"/><linearGradient id="SVGID_96_" gradientUnits="userSpaceOnUse" x1="538.703" y1="147.898" x2="517.985" y2="165.233"><stop offset="0" stop-color="#ff928e"/><stop offset="1" stop-color="#fe7062"/></linearGradient><path d="M470.8 182.1h-21.6l-1.8 15.1h-44.1l-1.8-15.1h-19.9c-8.5 0-16.6 7.2-16.6 15.7l13.4 51.8c1.8 7.1 4.1 14.1 6.8 20.9l20.1 50.6h48.3l21.3-46.3c6.1-13.2 9.2-27.6 9.2-42.2v-37.1c.2-7.3-5.9-13.4-13.3-13.4z" fill="url(#SVGID_96_)"/><linearGradient id="SVGID_97_" gradientUnits="userSpaceOnUse" x1="-4719.31" y1="-1257.413" x2="-4649.229" y2="-1257.413" gradientTransform="matrix(-.6596 .8894 -.8032 -.5957 -3749.774 3644.557)"><stop offset="0" stop-color="#09005d"/><stop offset="1" stop-color="#1a0f91"/></linearGradient><path fill="url(#SVGID_97_)" d="M316.6 251l43.1-58.1 23.6 10.9-53.9 56.7z"/><linearGradient id="SVGID_98_" gradientUnits="userSpaceOnUse" x1="-2047.192" y1="-3647.659" x2="-1985.711" y2="-3647.659" gradientTransform="matrix(.0755 .982 -.9138 .0703 -2861.89 2539.878)"><stop offset="0" stop-color="#09005d"/><stop offset="1" stop-color="#1a0f91"/></linearGradient><path d="M313.9 331.1l-4.4-57.5 14.5-1.1 4.5 58.1c.1 1.3-.9 2.4-2.2 2.5l-9.6.5c-1.4 0-2.6-1-2.8-2.5z" fill="url(#SVGID_98_)"/><linearGradient id="SVGID_99_" gradientUnits="userSpaceOnUse" x1="317.351" y1="230.454" x2="371.778" y2="230.454"><stop offset="0" stop-color="#ff928e"/><stop offset="1" stop-color="#fe7062"/></linearGradient><path fill="url(#SVGID_99_)" d="M366.3 197.2l-48.9 63.3 2.5 3.2 51.9-60.4z"/><linearGradient id="SVGID_100_" gradientUnits="userSpaceOnUse" x1="-879.334" y1="-2255.479" x2="-835.66" y2="-2255.479" gradientTransform="rotate(58.635 -2428.405 70.39)"><stop offset="0" stop-color="#febbba"/><stop offset="1" stop-color="#ff928e"/></linearGradient><circle cx="375.2" cy="201.2" r="21.8" fill="url(#SVGID_100_)"/><circle transform="translate(-.335 .626)" class="st112" cx="375.2" cy="201.2" r="16"/><linearGradient id="SVGID_101_" gradientUnits="userSpaceOnUse" x1="406.16" y1="307.934" x2="359.65" y2="305.397"><stop offset="0" stop-color="#ff928e"/><stop offset="1" stop-color="#fe7062"/></linearGradient><path fill="url(#SVGID_101_)" d="M313.1 272.8l6.2 60.8 4.5-.4-3.9-60.3z"/><linearGradient id="SVGID_102_" gradientUnits="userSpaceOnUse" x1="306.691" y1="255.555" x2="384.067" y2="312.212"><stop offset="0" stop-color="#ff928e"/><stop offset="1" stop-color="#fe7062"/></linearGradient><circle cx="319.6" cy="265" r="17.9" fill="url(#SVGID_102_)"/><path class="st112" d="M325.3 277.5c-7.1 3.1-15.4-.1-18.5-7.2-3.1-7.1.1-15.4 7.2-18.5 7.1-3.1 15.4.1 18.5 7.2 3.2 7.1-.1 15.3-7.2 18.5z"/><linearGradient id="SVGID_103_" gradientUnits="userSpaceOnUse" x1="309.187" y1="349.688" x2="338.472" y2="349.688"><stop offset="0" stop-color="#09005d"/><stop offset="1" stop-color="#1a0f91"/></linearGradient><path d="M315.6 339.9l-6.2 15.2c-.5 1.2-.1 2.6.9 3.4 6.3 4.8 14 6.8 26 .3 1.7-.9 2.6-3 1.9-4.9l-8.7-15.9c-.6-1-1.7-1.6-2.9-1.5l-7.9.9c-1.3.2-2.6 1.1-3.1 2.5z" fill="url(#SVGID_103_)"/><linearGradient id="SVGID_104_" gradientUnits="userSpaceOnUse" x1="340.372" y1="307.434" x2="330.089" y2="326.972"><stop offset="0" stop-color="#4f52ff"/><stop offset="1" stop-color="#4042e2"/></linearGradient><path d="M319.6 337.5c0 .9-5.5 23.4-5.5 23.4l2.5 1.1 3-24.5z" opacity=".59" fill="url(#SVGID_104_)"/><linearGradient id="SVGID_105_" gradientUnits="userSpaceOnUse" x1="344.202" y1="310.214" x2="333.919" y2="329.752"><stop offset="0" stop-color="#4f52ff"/><stop offset="1" stop-color="#4042e2"/></linearGradient><path opacity=".59" fill="url(#SVGID_105_)" d="M321.3 339.1l.6 23.9h2.3z"/><linearGradient id="SVGID_106_" gradientUnits="userSpaceOnUse" x1="348.662" y1="311.797" x2="338.379" y2="331.335"><stop offset="0" stop-color="#4f52ff"/><stop offset="1" stop-color="#4042e2"/></linearGradient><path opacity=".59" fill="url(#SVGID_106_)" d="M324.2 337.5l7.5 23.4 2.6-1.1z"/><linearGradient id="SVGID_107_" gradientUnits="userSpaceOnUse" x1="-1084.977" y1="-2523.152" x2="-1074.281" y2="-2523.152" gradientTransform="rotate(66.403 -2562.623 -23.23)"><stop offset="0" stop-color="#ff928e"/><stop offset="1" stop-color="#fe7062"/></linearGradient><circle cx="321.9" cy="335.1" r="5.3" fill="url(#SVGID_107_)"/><circle transform="rotate(-80.241 322.014 334.962)" class="st112" cx="322" cy="335" r="4.2"/><linearGradient id="SVGID_108_" gradientUnits="userSpaceOnUse" x1="308.018" y1="454.305" x2="453.45" y2="552.142"><stop offset="0" stop-color="#ff928e"/><stop offset="1" stop-color="#fe7062"/></linearGradient><path d="M382.7 448.9l-11.4 8.8c-3.7 2.9-6.3 7.1-7.1 11.7l-15.6 82.9c4.2 5.4 10.3 7.6 18.1 6.9l41.8-90.6c1.7-3.7 2.1-7.8 1-11.7l-1.1-4.2c-1.1-4.3-5.3-7.2-9.7-6.7l-12.4 1.4c-1.4.2-2.6.7-3.6 1.5z" fill="url(#SVGID_108_)"/><linearGradient id="SVGID_109_" gradientUnits="userSpaceOnUse" x1="578.245" y1="533.99" x2="515.667" y2="474.795"><stop offset="0" stop-color="#ff928e"/><stop offset="1" stop-color="#fe7062"/></linearGradient><path d="M526.1 423.8l-12.2 7.7c-4 2.5-6.9 6.4-8.2 11l-23.4 81c3.7 5.8 9.5 8.6 17.4 8.6l50.2-86.3c2-3.5 2.8-7.6 2.1-11.5l-.7-4.3c-.7-4.4-4.6-7.7-9.1-7.6l-12.5.2c-1.2.1-2.5.5-3.6 1.2z" fill="url(#SVGID_109_)"/><linearGradient id="SVGID_110_" gradientUnits="userSpaceOnUse" x1="-64.018" y1="1418.543" x2="-273.203" y2="1536.063" gradientTransform="rotate(-16.544 -3002.875 -834.017)"><stop offset="0" stop-color="#ff928e"/><stop offset="1" stop-color="#fe7062"/></linearGradient><path d="M344.9 561.7c-2.1 0-4.1 1.1-5.3 2.9L328 583.2c-1.8 2.9.3 6.3 3.9 6.2l70.1-2 .3-5.3-36.2-20.5-21.2.1z" fill="url(#SVGID_110_)"/><linearGradient id="SVGID_111_" gradientUnits="userSpaceOnUse" x1="247.467" y1="990.57" x2="320.45" y2="990.57" gradientTransform="rotate(-7.765 -2861.83 -763.399)"><stop offset="0" stop-color="#ff928e"/><stop offset="1" stop-color="#fe7062"/></linearGradient><path d="M476.7 531c-2.1-.3-4.2.5-5.6 2.1l-14.3 16.6c-2.3 2.6-.6 6.3 2.9 6.8l69.6 8.7 1.1-5.2-32.7-25.8-21-3.2z" fill="url(#SVGID_111_)"/><linearGradient id="SVGID_112_" gradientUnits="userSpaceOnUse" x1="379.71" y1="119.519" x2="468.768" y2="119.519"><stop offset="0" stop-color="#09005d"/><stop offset="1" stop-color="#1a0f91"/></linearGradient><path d="M468.8 115.8c0 21.7-20.4 46.7-45 46.7s-44-25-44-46.7c0-21.7 19.9-39.4 44.5-39.4s44.5 17.7 44.5 39.4z" fill="url(#SVGID_112_)"/><linearGradient id="SVGID_113_" gradientUnits="userSpaceOnUse" x1="549.327" y1="84.089" x2="251.411" y2="221.589"><stop offset="0" stop-color="#ff928e"/><stop offset="1" stop-color="#fe7062"/></linearGradient><path d="M472.8 165.7l-33.1-6.2c-13.4-14.5-18.9-23.9-27.2-36.4-5.4-8.1-2.9-19 5.4-24 12.8-7.7 29.7-13.9 47.9-6.1l7 72.7z" fill="url(#SVGID_113_)"/><linearGradient id="SVGID_114_" gradientUnits="userSpaceOnUse" x1="467.762" y1="114.342" x2="382.265" y2="229.807"><stop offset="0" stop-color="#ff928e"/><stop offset="1" stop-color="#fe7062"/></linearGradient><path d="M416.5 111.9c-2.7-16.1 46.6-22.7 51.2-16.9 12.4 13.3 20.4 30.6 25.9 50.2 2.3 8.1-2.6 16.6-10.8 18.7l-3.5.9c-7.1 1.9-14.7.8-21-3-19.2-11.5-33.7-27.7-41.8-49.9z" fill="url(#SVGID_114_)"/><linearGradient id="SVGID_115_" gradientUnits="userSpaceOnUse" x1="425.567" y1="115.977" x2="477.276" y2="115.977"><stop offset="0" stop-color="#09005d"/><stop offset="1" stop-color="#1a0f91"/></linearGradient><path d="M426.3 115.6l9.9 12.9c1.1 1.5 2.9 2.2 4.8 2 5.4-.7 16.6-1.8 20.2-2.3.7-.1 1.4-.3 2-.7l12.4-7c1.7-.9 2.2-3.1 1.1-4.7l-7.8-12.1c-1-1.5-2.8-2.4-4.6-2.2-12.8 1.7-24.9 4.5-36.3 8.5-2.3.8-3.2 3.7-1.7 5.6z" fill="url(#SVGID_115_)"/><path d="M428.8 115.6l9 11.6c1 1.3 2.7 2 4.3 1.8 4.9-.6 15-1.7 18.2-2.1.6-.1 1.2-.3 1.8-.6l11.2-6.3c1.5-.8 2-2.8 1-4.2l-7.1-10.9c-.9-1.4-2.5-2.2-4.2-1.9-11.6 1.6-22.5 4.1-32.8 7.7-2 .6-2.8 3.2-1.4 4.9z" opacity=".1" fill="#fff"/><path d="M433.4 115.7l31-7.6c.5-.1 1 .1 1.2.6.3.6-.1 1.3-.7 1.4l-30.9 7.7c-.4.1-.9-.1-1.1-.4l-.1-.1c-.4-.6-.1-1.4.6-1.6z" opacity=".8" fill="#fff"/><linearGradient id="SVGID_116_" gradientUnits="userSpaceOnUse" x1="428.803" y1="1320.581" x2="457.316" y2="1320.581" gradientTransform="matrix(.7121 -.297 .3849 .9229 -348.942 -943.128)"><stop offset="0" stop-color="#09005d"/><stop offset="1" stop-color="#1a0f91"/></linearGradient><path d="M485 139.9c.2.4 0 .8-.2.9l-19.3 8c-.3.1-.6-.1-.8-.5l-.1-.2c-.2-.4 0-.8.2-.9l19.3-8c.3-.1.6.1.8.5l.1.2z" fill="url(#SVGID_116_)"/><linearGradient id="SVGID_117_" gradientUnits="userSpaceOnUse" x1="429.242" y1="1324.8" x2="457.756" y2="1324.8" gradientTransform="matrix(.7121 -.297 .3849 .9229 -348.942 -943.128)"><stop offset="0" stop-color="#09005d"/><stop offset="1" stop-color="#1a0f91"/></linearGradient><path d="M487 143.7c.2.4 0 .8-.2.9l-19.3 8c-.3.1-.6-.1-.8-.5l-.1-.2c-.2-.4 0-.8.2-.9l19.3-8c.3-.1.6.1.8.5l.1.2z" fill="url(#SVGID_117_)"/><linearGradient id="SVGID_118_" gradientUnits="userSpaceOnUse" x1="429.682" y1="1329.019" x2="458.196" y2="1329.019" gradientTransform="matrix(.7121 -.297 .3849 .9229 -348.942 -943.128)"><stop offset="0" stop-color="#09005d"/><stop offset="1" stop-color="#1a0f91"/></linearGradient><path d="M488.9 147.4c.2.4 0 .8-.2.9l-19.3 8c-.3.1-.6-.1-.8-.5l-.1-.2c-.2-.4 0-.8.2-.9l19.3-8c.3-.1.6.1.8.5l.1.2z" fill="url(#SVGID_118_)"/><linearGradient id="SVGID_119_" gradientUnits="userSpaceOnUse" x1="435.961" y1="495.463" x2="650.752" y2="462.483"><stop offset="0" stop-color="#febbba"/><stop offset="1" stop-color="#ff928e"/></linearGradient><path fill="url(#SVGID_119_)" d="M355.9 557.9l41.4-109.2 11.1 4-44.5 106.6z"/><linearGradient id="SVGID_120_" gradientUnits="userSpaceOnUse" x1="568.094" y1="449.774" x2="652.112" y2="390.493"><stop offset="0" stop-color="#febbba"/><stop offset="1" stop-color="#ff928e"/></linearGradient><path fill="url(#SVGID_120_)" d="M487.7 529l57.5-97.1 10.2 5.8-55.7 94.4z"/><linearGradient id="SVGID_121_" gradientUnits="userSpaceOnUse" x1="425.072" y1="374.929" x2="394.629" y2="467.949"><stop offset="0" stop-color="#febbba"/><stop offset="1" stop-color="#ff928e"/></linearGradient><circle cx="400.6" cy="449.7" r="13.4" fill="url(#SVGID_121_)"/><circle transform="rotate(-34.777 401.084 449.703)" class="st112" cx="401.1" cy="449.7" r="10.2"/><linearGradient id="SVGID_122_" gradientUnits="userSpaceOnUse" x1="556.731" y1="414.519" x2="536.859" y2="482.592"><stop offset="0" stop-color="#ff928e"/><stop offset="1" stop-color="#fe7062"/></linearGradient><circle cx="553.3" cy="426.2" r="13.4" fill="url(#SVGID_122_)"/><circle transform="rotate(-88.012 553.78 426.228)" class="st112" cx="553.8" cy="426.2" r="10.2"/><linearGradient id="SVGID_123_" gradientUnits="userSpaceOnUse" x1="-155.277" y1="1472.729" x2="-131.428" y2="1455.901" gradientTransform="rotate(-16.544 -3002.875 -834.017)"><stop offset="0" stop-color="#febbba"/><stop offset="1" stop-color="#ff928e"/></linearGradient><path d="M352 562.2l-6 9.4c-1.7 2.7-.1 6.3 3 6.8l53 9 .3-5.3-36.2-20.5-14.1.6z" fill="url(#SVGID_123_)"/><linearGradient id="SVGID_124_" gradientUnits="userSpaceOnUse" x1="307.431" y1="985.299" x2="331.282" y2="968.471" gradientTransform="rotate(-7.765 -2861.83 -763.399)"><stop offset="0" stop-color="#febbba"/><stop offset="1" stop-color="#ff928e"/></linearGradient><path d="M483.9 532.2l-7.4 8.4c-2.1 2.4-1.1 6.2 1.9 7.2l51 17 1.1-5.2-32.7-25.8-13.9-1.6z" fill="url(#SVGID_124_)"/><linearGradient id="SVGID_125_" gradientUnits="userSpaceOnUse" x1="451.945" y1="266.115" x2="444.334" y2="291.484"><stop offset="0" stop-color="#ff928e"/><stop offset="1" stop-color="#fe7062"/></linearGradient><path d="M399.3 292.8l-18.9 47c-.4 1 0 2.2.9 2.8l42.9 27 13.9-.9 39-24c.9-.6 1.3-1.7 1.1-2.7l-14.6-52.3-64.3 3.1z" fill="url(#SVGID_125_)"/><linearGradient id="SVGID_126_" gradientUnits="userSpaceOnUse" x1="452.533" y1="324.5" x2="473.099" y2="418.812"><stop offset="0" stop-color="#febbba"/><stop offset="1" stop-color="#ff928e"/></linearGradient><path d="M438.2 368.7l28.4-79 7.2 22.1c.6 2 .3 4.1-.8 5.8l-34.8 51.1z" fill="url(#SVGID_126_)"/><linearGradient id="SVGID_127_" gradientUnits="userSpaceOnUse" x1="401.336" y1="325.794" x2="425.154" y2="435.019"><stop offset="0" stop-color="#febbba"/><stop offset="1" stop-color="#ff928e"/></linearGradient><path d="M398.2 289.7c-.7 1.1-7.4 18.2-10.2 25.4-.8 1.9-.5 4.1.7 5.8l34.1 47.8-24.6-79z" fill="url(#SVGID_127_)"/><linearGradient id="SVGID_128_" gradientUnits="userSpaceOnUse" x1="429.684" y1="194.938" x2="434.336" y2="366.603"><stop offset="0" stop-color="#ff928e"/><stop offset="1" stop-color="#fe7062"/></linearGradient><path d="M404.1 195.6l-23.4 56.1c-.6 1.5-.7 3.3-.1 4.8l42.1 112.1h15.4L481.3 260c1.9-4.7 1.3-10-1.5-14.2l-33.5-50.2h-42.2z" fill="url(#SVGID_128_)"/><linearGradient id="SVGID_129_" gradientUnits="userSpaceOnUse" x1="457.093" y1="110.627" x2="422.544" y2="262.023" gradientTransform="rotate(1.621 -2935.387 -1125.156)"><stop offset="0" stop-color="#febbba"/><stop offset="1" stop-color="#ff928e"/></linearGradient><path d="M409 210l-17.8 46.2c-.3.7-.1 1.6.4 2.2l23.2 24.3c1.3 1.4 3.7.3 3.5-1.6l-5.4-70.5c-.1-2.2-3.1-2.6-3.9-.6z" fill="url(#SVGID_129_)"/><linearGradient id="SVGID_130_" gradientUnits="userSpaceOnUse" x1="450.911" y1="183.324" x2="416.869" y2="332.498" gradientTransform="matrix(1 -.0072 .0075 1.0359 8.79 17.95)"><stop offset="0" stop-color="#febbba"/><stop offset="1" stop-color="#ff928e"/></linearGradient><path d="M445.2 210.8l-1.7 69c-.1 2.4 3 3.3 4.2 1.3l18.1-30.3c.4-.7.4-1.5.1-2.2L449.5 210c-1-2.3-4.3-1.7-4.3.8z" fill="url(#SVGID_130_)"/><linearGradient id="SVGID_131_" gradientUnits="userSpaceOnUse" x1="430.522" y1="216.798" x2="426.777" y2="233.21"><stop offset="0" stop-color="#09005d"/><stop offset="1" stop-color="#1a0f91"/></linearGradient><path d="M438.9 223h-18.8c-1 0-1.8-.8-1.8-1.8s.8-1.8 1.8-1.8h18.8c1 0 1.8.8 1.8 1.8-.1 1-.8 1.8-1.8 1.8z" fill="url(#SVGID_131_)"/><linearGradient id="SVGID_132_" gradientUnits="userSpaceOnUse" x1="430.522" y1="224.069" x2="426.777" y2="240.482"><stop offset="0" stop-color="#09005d"/><stop offset="1" stop-color="#1a0f91"/></linearGradient><path d="M438.9 230.3h-18.8c-1 0-1.8-.8-1.8-1.8s.8-1.8 1.8-1.8h18.8c1 0 1.8.8 1.8 1.8-.1 1-.8 1.8-1.8 1.8z" fill="url(#SVGID_132_)"/><linearGradient id="SVGID_133_" gradientUnits="userSpaceOnUse" x1="430.308" y1="231.031" x2="426.563" y2="247.444"><stop offset="0" stop-color="#09005d"/><stop offset="1" stop-color="#1a0f91"/></linearGradient><path d="M438.7 237.3h-18.8c-1 0-1.8-.8-1.8-1.8s.8-1.8 1.8-1.8h18.8c1 0 1.8.8 1.8 1.8-.1 1-.9 1.8-1.8 1.8z" fill="url(#SVGID_133_)"/><linearGradient id="SVGID_134_" gradientUnits="userSpaceOnUse" x1="430.308" y1="238.303" x2="426.563" y2="254.715"><stop offset="0" stop-color="#09005d"/><stop offset="1" stop-color="#1a0f91"/></linearGradient><path d="M438.7 244.5h-18.8c-1 0-1.8-.8-1.8-1.8s.8-1.8 1.8-1.8h18.8c1 0 1.8.8 1.8 1.8-.1 1-.9 1.8-1.8 1.8z" fill="url(#SVGID_134_)"/><linearGradient id="SVGID_135_" gradientUnits="userSpaceOnUse" x1="430.308" y1="245.121" x2="426.563" y2="261.534"><stop offset="0" stop-color="#09005d"/><stop offset="1" stop-color="#1a0f91"/></linearGradient><path d="M438.7 251.3h-18.8c-1 0-1.8-.8-1.8-1.8s.8-1.8 1.8-1.8h18.8c1 0 1.8.8 1.8 1.8-.1 1.1-.9 1.8-1.8 1.8z" fill="url(#SVGID_135_)"/><linearGradient id="SVGID_136_" gradientUnits="userSpaceOnUse" x1="430.308" y1="252.393" x2="426.563" y2="268.805"><stop offset="0" stop-color="#09005d"/><stop offset="1" stop-color="#1a0f91"/></linearGradient><path d="M438.7 258.6h-18.8c-1 0-1.8-.8-1.8-1.8s.8-1.8 1.8-1.8h18.8c1 0 1.8.8 1.8 1.8-.1 1-.9 1.8-1.8 1.8z" fill="url(#SVGID_136_)"/><linearGradient id="SVGID_137_" gradientUnits="userSpaceOnUse" x1="430.522" y1="260.986" x2="426.777" y2="277.398"><stop offset="0" stop-color="#09005d"/><stop offset="1" stop-color="#1a0f91"/></linearGradient><path d="M438.9 267.2h-18.8c-1 0-1.8-.8-1.8-1.8s.8-1.8 1.8-1.8h18.8c1 0 1.8.8 1.8 1.8-.1 1-.8 1.8-1.8 1.8z" fill="url(#SVGID_137_)"/><linearGradient id="SVGID_138_" gradientUnits="userSpaceOnUse" x1="430.522" y1="268.257" x2="426.777" y2="284.67"><stop offset="0" stop-color="#09005d"/><stop offset="1" stop-color="#1a0f91"/></linearGradient><path d="M438.9 274.5h-18.8c-1 0-1.8-.8-1.8-1.8s.8-1.8 1.8-1.8h18.8c1 0 1.8.8 1.8 1.8-.1 1-.8 1.8-1.8 1.8z" fill="url(#SVGID_138_)"/><linearGradient id="SVGID_139_" gradientUnits="userSpaceOnUse" x1="-558.534" y1="669.485" x2="-488.997" y2="669.485" gradientTransform="rotate(45.084 524.598 1703.446) scale(.9999)"><stop offset="0" stop-color="#09005d"/><stop offset="1" stop-color="#1a0f91"/></linearGradient><path fill="url(#SVGID_139_)" d="M533.6 263.2L487.5 217l12.3-18.3 45 53.3z"/><linearGradient id="SVGID_140_" gradientUnits="userSpaceOnUse" x1="413.413" y1="869.268" x2="478.709" y2="869.268" gradientTransform="rotate(-17.741 -1457.222 141.033)"><stop offset="0" stop-color="#09005d"/><stop offset="1" stop-color="#1a0f91"/></linearGradient><path d="M608.7 253l-59.9 19.2-4.8-15.1 59.6-19.1c1.4-.5 2.9.3 3.4 1.7l3.3 10.3c.3 1.3-.4 2.6-1.6 3z" fill="url(#SVGID_140_)"/><linearGradient id="SVGID_141_" gradientUnits="userSpaceOnUse" x1="564.516" y1="177.822" x2="547.603" y2="198.54"><stop offset="0" stop-color="#ff928e"/><stop offset="1" stop-color="#fe7062"/></linearGradient><path fill="url(#SVGID_141_)" d="M487.5 210.3l55.5 56.6 3-5-54.7-57z"/><linearGradient id="SVGID_142_" gradientUnits="userSpaceOnUse" x1="603.09" y1="172.849" x2="595.902" y2="200.332"><stop offset="0" stop-color="#ff928e"/><stop offset="1" stop-color="#fe7062"/></linearGradient><path fill="url(#SVGID_142_)" d="M555 258.1l53.4-15.6 1 4.9-54.2 16.5z"/><linearGradient id="SVGID_143_" gradientUnits="userSpaceOnUse" x1="550.72" y1="233.742" x2="540.573" y2="292.936"><stop offset="0" stop-color="#ff928e"/><stop offset="1" stop-color="#fe7062"/></linearGradient><circle cx="546.5" cy="258.1" r="17.9" fill="url(#SVGID_143_)"/><circle transform="rotate(-21.534 546.377 257.669)" class="st112" cx="546.4" cy="257.7" r="14"/><linearGradient id="SVGID_144_" gradientUnits="userSpaceOnUse" x1="-5583.767" y1="1254.014" x2="-5554.483" y2="1254.014" gradientTransform="rotate(-120.224 -2766.502 -1034.594)"><stop offset="0" stop-color="#09005d"/><stop offset="1" stop-color="#1a0f91"/></linearGradient><path d="M617.5 247.1l16.3-2.3c1.3-.2 2.3-1.2 2.5-2.4 1-7.9-1.2-15.5-12.8-22.7-1.7-1-3.9-.7-5.2.8l-9.4 15.5c-.6 1-.6 2.3.2 3.3l4.8 6.4c.7 1 2.1 1.6 3.6 1.4z" fill="url(#SVGID_144_)"/><linearGradient id="SVGID_145_" gradientUnits="userSpaceOnUse" x1="651.745" y1="182.833" x2="596.216" y2="304.027"><stop offset="0" stop-color="#4f52ff"/><stop offset="1" stop-color="#4042e2"/></linearGradient><path d="M613.5 244.8c.8-.4 23-7 23-7l-.3-2.7-22.7 9.7z" opacity=".59" fill="url(#SVGID_145_)"/><linearGradient id="SVGID_146_" gradientUnits="userSpaceOnUse" x1="638.309" y1="192.094" x2="606.138" y2="292.574"><stop offset="0" stop-color="#4f52ff"/><stop offset="1" stop-color="#4042e2"/></linearGradient><path opacity=".59" fill="url(#SVGID_146_)" d="M613.2 243l21.4-12-1.7-2.9z"/><linearGradient id="SVGID_147_" gradientUnits="userSpaceOnUse" x1="629.301" y1="202.656" x2="607.266" y2="279.339"><stop offset="0" stop-color="#4f52ff"/><stop offset="1" stop-color="#4042e2"/></linearGradient><path opacity=".59" fill="url(#SVGID_147_)" d="M610.9 239l19.8-13.6-2.5-2.3z"/><linearGradient id="SVGID_148_" gradientUnits="userSpaceOnUse" x1="623.678" y1="300.256" x2="610.016" y2="183.469"><stop offset="0" stop-color="#09005d"/><stop offset="1" stop-color="#1a0f91"/></linearGradient><path d="M607.5 240.8l2.5-18.6c.1-.7.8-1.2 1.5-1l10.7 2.6c2.5.6 2.5 2-.6 4.2l-7.1.4.2 2.9-7.2 9.5z" fill="url(#SVGID_148_)"/><linearGradient id="SVGID_149_" gradientUnits="userSpaceOnUse" x1="-2614.015" y1="3238.06" x2="-2603.319" y2="3238.06" gradientTransform="rotate(-53.822 -3950.452 -1430.563)"><stop offset="0" stop-color="#ff928e"/><stop offset="1" stop-color="#fe7062"/></linearGradient><circle cx="610.1" cy="242.2" r="5.3" fill="url(#SVGID_149_)"/><path class="st112" d="M612.5 238.9c1.9 1.4 2.3 4 .9 5.9-1.4 1.9-4 2.3-5.9.9-1.9-1.4-2.3-4-.9-5.9 1.4-1.9 4-2.3 5.9-.9z"/><linearGradient id="SVGID_150_" gradientUnits="userSpaceOnUse" x1="-819.744" y1="-2353.24" x2="-776.07" y2="-2353.24" gradientTransform="rotate(58.635 -2428.405 70.39)"><stop offset="0" stop-color="#febbba"/><stop offset="1" stop-color="#ff928e"/></linearGradient><circle cx="489.7" cy="201.2" r="21.8" fill="url(#SVGID_150_)"/><circle transform="rotate(-16.799 489.77 201.189)" class="st112" cx="489.7" cy="201.2" r="16"/></g></svg>