<svg xmlns="http://www.w3.org/2000/svg" viewBox="0 0 537 453"><path d="M127.3 228.8l-8.8-8.8c-26.9-26.9-34.8-65-24.6-99.3-26.9-6.2-46.8-30.1-46.8-58.6 0-33.4 26.9-60.3 60.3-60.3 30.2 0 54.7 22.3 59.6 50.8 32.5-7.9 68.2 1.6 93.7 26.2l3.2 3.2-44.5 44.3-3.2-3.2c-14.4-14.4-38.1-14.4-52.4 0-14.4 14.4-14.4 38.1 0 52.4l8.8 8.8 44.5 44.5 46.8 46.8-44.5 44.5-46.8-46.8-45.3-44.5" fill="#78bc43"/><path d="M177.2 178.8L224 132l44.5-44.5 8.8-8.8c26.9-26.9 65-34.8 98.4-25.3 3.9-29.4 29.4-51.5 59.6-51.5 33.4 0 60.3 26.9 60.3 60.3 0 30.2-23 55.5-52.4 59.6 9.5 34.1 1.6 71.4-25.3 98.4l-3.2 3.2-44.5-44.5 3.2-3.2c14.4-14.4 14.4-38.1 0-52.4-14.4-14.4-37.3-14.4-52.4 0l-8.8 8.8-43.6 44.5-46.8 46.8-44.6-44.6" fill="#f6b333"/><path d="M377.1 402.6c-34.1 10.2-73 2.3-100-24.6l-3.2-3.2 44.5-44.5 3.2 3.2c14.4 14.4 38.1 14.4 52.4 0 14.4-14.4 14.4-37.3 0-52.4l-8.8-8.8-44.5-44.5-46.8-46.8 44.5-44.2 46.8 46.8 44.5 44.5 8.8 8.8c25.3 25.3 34.1 61 26.2 94.4 29.4 3.9 51.5 29.4 51.5 59.6 0 33.4-26.9 60.3-60.3 60.3-29.3-.3-53.2-21-58.8-48.6" fill="#ef3942"/><path d="M359.7 278l-46.8 46.8-44.5 44.5-8.8 8.8c-25.3 25.3-61.9 34.1-94.4 26.2-6.3 26.9-30.2 46.8-58.7 46.8-33.4 0-60.3-26.9-60.3-60.3 0-28.5 19.9-52.4 45.9-58.7-8.8-33.4 0-69.1 26.2-95.1l3.2-3.2 44.5 44.5-3.2 3.2c-14.4 14.4-14.4 38.1 0 52.4 14.4 14.4 38.1 14.4 52.4 0l8.8-8.8 44.5-44.5 46.8-46.8 44.4 44.2" fill="#4a8cca"/></svg>