<svg version="1.1" id="Ñëîé_1" xmlns="http://www.w3.org/2000/svg" x="0" y="0" viewBox="0 0 592.3 538.2" xml:space="preserve"><style>.st1{fill:#050f64}.st2{fill:#fff}.st3{fill:#155bcd}.st4{fill:#84a9ff}.st5{fill:#ffbd00}.st6{opacity:.2}.st7{fill:#febd1d}.st8{fill:#ffd45b}.st9{fill:#d6a02f}.st10{fill:#e4a218}.st14{fill:#e5e6eb}.st15{opacity:.5}.st18{fill:#ea8096}.st19{fill:#f5bdc8}</style><path class="st1" d="M33.1 242.6l78.3 208.5c1.2 3.3 5.1 4.9 8.6 3.6l103.4-38.8c3.5-1.3 5.4-5.1 4.1-8.4L149.2 199c-1.2-3.3-5.1-4.9-8.6-3.6L37.2 234.2c-3.5 1.4-5.3 5.1-4.1 8.4z"/><circle transform="rotate(-66.139 76.767 258.772)" class="st2" cx="76.8" cy="258.8" r="19.6"/><path transform="rotate(-110.597 170.33 310.001)" class="st3" d="M52.6 306.4h235.5v7.3H52.6z"/><path transform="rotate(-20.593 177.491 391.617)" class="st4" d="M173.8 370.1h7.3v43h-7.3z"/><path transform="rotate(-20.593 159.13 342.765)" class="st2" d="M155.5 320h7.3v45.6h-7.3z"/><path transform="rotate(-20.593 140.312 292.7)" class="st2" d="M136.7 269.9h7.3v45.6h-7.3z"/><path transform="rotate(-20.593 121.95 243.849)" class="st2" d="M118.3 222.4h7.3v43h-7.3z"/><path class="st5" d="M154.9 376.7l11.5 30.7c1.9 5-.7 10.5-5.6 12.4l-15.1 5.7c-5 1.9-10.5-.7-12.4-5.6l-11.5-30.7c-1.9-5 .7-10.5 5.6-12.4l15.1-5.7c5-1.9 10.6.6 12.4 5.6z"/><path transform="rotate(-20.593 151.287 395.506)" class="st3" d="M150.9 369.5h.7v52h-.7z"/><path transform="rotate(-20.593 136.81 400.948)" class="st3" d="M136.5 375h.7v52h-.7z"/><path transform="rotate(-20.593 147.306 392.593)" class="st3" d="M134.5 392.3H160v.7h-25.5z"/><path transform="rotate(-20.593 138.367 383.193)" class="st3" d="M130.6 382.8h15.5v.7h-15.5z"/><path transform="rotate(-20.593 148.745 410.433)" class="st3" d="M131 410.1h35.4v.7H131z"/><path transform="rotate(-20.593 133.66 406.573)" class="st3" d="M128.7 406.3h9.9v.7h-9.9z"/><path transform="rotate(-20.593 163.046 412.492)" class="st3" d="M158 412.2h10.1v.7H158z"/><path class="st3" d="M468 60v409.3c0 26.6-21.6 48.2-48.2 48.2H211.2c-10.9 0-20.9-3.6-29-9.7C170.5 499 163 485 163 469.3V60c0-26.6 21.6-48.2 48.2-48.2h208.6c26.6 0 48.2 21.6 48.2 48.2z"/><g class="st6"><path class="st2" d="M305.6 11.8L163 219.7v-56.2L267 11.8zM468 60v31L182.2 507.8C170.5 499 163 485 163 469.3V332.1L382.6 11.8h37.2c26.6 0 48.2 21.6 48.2 48.2zm0 101.2V263L293.5 517.5h-69.8zm0 165V393l-85.4 124.5h-45.7z"/></g><path class="st1" d="M419.8 8H211.2c-17.7 0-33.5 8.9-42.8 22.6-.3.4-.5.8-.8 1.2-5.3 8.1-8.3 17.8-8.3 28.2v409.3c0 28.7 23.3 52 52 52h208.6c28.7 0 52-23.3 52-52V60c-.1-28.7-23.4-52-52.1-52zm44.4 461.3c0 24.5-19.9 44.4-44.4 44.4H211.2c-24.5 0-44.4-19.9-44.4-44.4V60c0-10.3 3.5-19.9 9.5-27.4.9-1.2 1.9-2.3 2.9-3.3 8.1-8.4 19.4-13.7 32-13.7h208.6c24.5 0 44.4 19.9 44.4 44.4v409.3z"/><path class="st1" d="M385.8 42.6H261c-9.3 0-16.8-7.5-16.8-16.8v-14h158.4v14.1c0 9.2-7.5 16.7-16.8 16.7z"/><path class="st2" d="M294 25.3h58.8v3.8H294z"/><circle transform="rotate(-45.001 383.9 27.197)" class="st2" cx="383.9" cy="27.2" r="4.6"/><path class="st7" d="M102 365.9h127.8v16.6H102z"/><path class="st8" d="M102 362.9h127.8v3H102z"/><path class="st9" d="M102 382.5h127.8v3H102z"/><path class="st10" d="M109.7 365.9h3v16.6h-3zm10.9 0h3v16.6h-3zm11 0h3v16.6h-3zm10.9 0h3v16.6h-3zm10.9 0h3v16.6h-3zm11 0h3v16.6h-3zm10.9 0h3v16.6h-3zm10.9 0h3v16.6h-3zm11 0h3v16.6h-3zm10.9 0h3v16.6h-3zm10.9 0h3v16.6h-3z"/><path class="st7" d="M91 388.5h127.8v16.6H91z"/><path class="st8" d="M91 385.5h127.8v3H91z"/><path class="st9" d="M91 405.1h127.8v3H91z"/><path class="st10" d="M98.8 388.5h3v16.6h-3zm10.9 0h3v16.6h-3zm10.9 0h3v16.6h-3zm11 0h3v16.6h-3zm10.9 0h3v16.6h-3zm10.9 0h3v16.6h-3zm10.9 0h3v16.6h-3zm11 0h3v16.6h-3zm10.9 0h3v16.6h-3zm10.9 0h3v16.6h-3zm11 0h3v16.6h-3z"/><path class="st7" d="M102 411.1h127.8v16.6H102z"/><path class="st8" d="M102 408.1h127.8v3H102z"/><path class="st9" d="M102 427.7h127.8v3H102z"/><path class="st10" d="M109.7 411.1h3v16.6h-3zm10.9 0h3v16.6h-3zm11 0h3v16.6h-3zm10.9 0h3v16.6h-3zm10.9 0h3v16.6h-3zm11 0h3v16.6h-3zm10.9 0h3v16.6h-3zm10.9 0h3v16.6h-3zm10.9 0h3v16.6h-3zm11 0h3v16.6h-3zm10.9 0h3v16.6h-3z"/><path class="st7" d="M109.9 433.7h127.8v16.6H109.9z"/><path class="st8" d="M109.9 430.7h127.8v3H109.9z"/><path class="st9" d="M109.9 450.3h127.8v3H109.9z"/><path class="st10" d="M117.6 433.7h3v16.6h-3zm11 0h3v16.6h-3zm10.9 0h3v16.6h-3zm10.9 0h3v16.6h-3zm11 0h3v16.6h-3zm10.9 0h3v16.6h-3zm10.9 0h3v16.6h-3zm10.9 0h3v16.6h-3zm11 0h3v16.6h-3zm10.9 0h3v16.6h-3zm10.9 0h3v16.6h-3z"/><path class="st7" d="M100.5 456.3h127.8v16.6H100.5z"/><path class="st8" d="M100.5 453.3h127.8v3H100.5z"/><path class="st9" d="M100.5 472.9h127.8v3H100.5z"/><path class="st10" d="M108.2 456.3h3v16.6h-3zm10.9 0h3v16.6h-3zm11 0h3v16.6h-3zm10.9 0h3v16.6h-3zm10.9 0h3v16.6h-3zm11 0h3v16.6h-3zm10.9 0h3v16.6h-3zm10.9 0h3v16.6h-3zm10.9 0h3v16.6h-3zm11 0h3v16.6h-3zm10.9 0h3v16.6h-3z"/><path class="st7" d="M109.9 479h127.8v16.6H109.9z"/><path class="st8" d="M109.9 476h127.8v3H109.9z"/><path class="st9" d="M109.9 495.5h127.8v3H109.9z"/><path class="st10" d="M117.6 479h3v16.6h-3zm11 0h3v16.6h-3zm10.9 0h3v16.6h-3zm10.9 0h3v16.6h-3zm11 0h3v16.6h-3zm10.9 0h3v16.6h-3zm10.9 0h3v16.6h-3zm10.9 0h3v16.6h-3zm11 0h3v16.6h-3zm10.9 0h3v16.6h-3zm10.9 0h3v16.6h-3z"/><path class="st7" d="M97.4 501.6h127.8v16.6H97.4z"/><path class="st8" d="M97.4 498.6h127.8v3H97.4z"/><path class="st9" d="M97.4 518.2h127.8v3H97.4z"/><path class="st10" d="M105.2 501.6h3v16.6h-3zm10.9 0h3v16.6h-3zm10.9 0h3v16.6h-3zm11 0h3v16.6h-3zm10.9 0h3v16.6h-3zm10.9 0h3v16.6h-3zm11 0h3v16.6h-3zm10.9 0h3v16.6h-3zm10.9 0h3v16.6h-3zm11 0h3v16.6h-3zm10.9 0h3v16.6h-3z"/><path d="M98.8 400.9v120.3h31.3c8.9-4.8 16.5-11.4 22.3-19.6 7.4-10.4 11.8-23.1 11.8-36.9 0-35.3-28.6-63.9-63.9-63.9-.5 0-1.1 0-1.5.1z" fill="#0c9197" opacity=".1"/><path class="st7" d="M36.4 457.3c0 35.3 28.6 63.9 63.9 63.9 10.4 0 20.3-2.5 28.9-6.9 9.3-4.8 17.2-11.7 23.2-20.1 7.4-10.4 11.8-23.1 11.8-36.9 0-35.3-28.6-63.9-63.9-63.9-6.4 0-12.6 1-18.4 2.7-12.2 3.7-23 11-30.8 20.6-9.3 11-14.7 25.2-14.7 40.6z"/><path class="st8" d="M42.1 457.3c0-32.1 26.1-58.2 58.2-58.2s58.2 26.1 58.2 58.2-26.1 58.2-58.2 58.2-58.2-26.1-58.2-58.2zm3.9 0c0 29.9 24.3 54.2 54.2 54.2s54.2-24.3 54.2-54.2c0-29.9-24.3-54.2-54.2-54.2S46 427.4 46 457.3z"/><path d="M119 464c-1.4-2.4-3.2-4.4-5.2-6-1.9-1.5-4.5-3.3-7.6-5.1-2.6-1.6-4.5-2.9-5.9-3.9-1.3-1-2.4-2.2-3.3-3.5-.8-1.2-1.2-2.5-1.2-4.1 0-1.7.4-2.9 1.2-3.5.8-.7 2.1-1.1 3.9-1.1 1.8 0 3.1.4 3.9 1.1.8.7 1.2 1.9 1.2 3.5v4h15.3V442c0-4.6-1.3-8.4-4-11.2-2.4-2.6-5.8-4.3-10.1-5.1v-4.8H93.5v4.9c-4.2.9-7.6 2.7-9.9 5.2-2.6 2.8-3.9 6.6-3.9 11.1 0 3.2.8 6.1 2.2 8.5 1.4 2.4 3.2 4.4 5.2 6 1.9 1.5 4.5 3.3 7.6 5.1 2.6 1.6 4.5 2.9 5.9 3.9 1.3 1 2.4 2.2 3.3 3.5.8 1.2 1.2 2.5 1.2 4.1 0 2.2-.6 4.5-5.3 4.5s-5.3-2.3-5.3-4.5v-6.3H79.3v5.7c0 4.6 1.3 8.4 4 11.3 2.4 2.6 5.8 4.3 10.2 5.2v4.7h13.6V489c4.3-.9 7.7-2.6 10.1-5.2 2.7-2.9 4-6.7 4-11.3 0-3.2-.7-6.1-2.2-8.5z" fill="#f9e288"/><g class="st6"><path class="st2" d="M51 416.7l78.2 97.6c9.3-4.8 17.2-11.7 23.2-20.1l-70.6-98.1C69.6 399.7 58.9 407 51 416.7z"/></g><path class="st1" d="M233.2 297.3c-.4-.8-.6-1.8-.6-2.7 0-3.7 3-6.7 6.7-6.7h152.2c3.7 0 6.7 3 6.7 6.7 0 1-.2 1.9-.6 2.7-1-2.4-3.4-4-6.2-4h-152c-2.8 0-5.1 1.6-6.2 4z"/><path transform="rotate(-180 237.575 430.57)" class="st2" d="M174.1 366.2H301V495H174.1z"/><path class="st2" d="M281.1 495zm-69.9-67v-91.1h90.2c1 0 2.1.1 3.1.3.4.1.8.1 1.2.2l1.2.3c.4.1.8.2 1.1.4.9.3 1.8.8 2.7 1.3-.4.2-.7.4-1.1.6-.5.3-1 .7-1.5 1.1-.5.4-.9.8-1.4 1.2-.2.2-.4.4-.6.7l-.4.4c-.1.2-.3.3-.4.5-.1.1-.2.3-.3.4-.2.3-.4.5-.6.8-.6.8-1.1 1.7-1.5 2.7-.1.3-.3.6-.4 1-.9 2.2-1.4 4.6-1.4 7.1V449h-2.3v-1.1h-67.7c-11 0-19.9-8.9-19.9-19.9z"/><path class="st1" d="M301.5 336.9h-44v-1.1h44c3.4 0 6.8.9 9.8 2.6l1.7 1-1.7 1c-5.6 3.2-9.1 9.1-9.1 15.5v87.8H301v-87.8c0-7.1 3.9-13.3 9.6-16.5-2.6-1.6-5.8-2.5-9.1-2.5zM173 363.4v-9.2c0-9.8 7.7-17.8 17.4-18.4v1.1c-1.9.1-3.7.5-5.3 1.2-.3.1-.5.2-.8.3-.4.2-.8.4-1.1.6-.1.1-.2.1-.4.2-.4.2-.7.4-1.1.7-.2.2-.5.3-.7.5-.3.2-.7.5-1 .8l-.6.6-.6.6-.6.6c-.3.3-.5.6-.8 1-.2.2-.3.4-.5.7-.1.1-.2.2-.2.3-.1.2-.2.4-.4.6-.1.2-.2.3-.3.5-.2.4-.4.7-.6 1.1-.1.2-.2.4-.3.7 0 .1-.1.1-.1.2-.7 1.9-1.2 4-1.2 6.2v9.2h-.8zm0 21.2h1.1v43.5H173zm1.1 110.4h96.2v1.1h-96.2z"/><path class="st14" d="M211.2 428.2v-91.3h90.2c1 0 2.1.1 3.1.3.4.1.8.1 1.2.2l1.2.3c.4.1.8.2 1.1.4.9.3 1.8.8 2.7 1.3.4.2.7.4 1.1.7 5 3.3 8.3 9 8.3 15.4v72.7H211.2z"/><path class="st14" d="M211.2 428h39.7v1.4c-.2 3.4-1.3 6.6-3.1 9.4-.1.1-.2.3-.3.4-.2.3-.4.5-.5.8-.2.3-.4.5-.6.8l-.2.2-.1.1c-.1.1-.2.2-.3.4l-.3.3-.3.3-.3.3c-.2.2-.5.4-.7.6-.1.1-.3.3-.5.4-.2.2-.4.3-.7.5-.1.1-.3.2-.4.3-.1.1-.3.2-.4.3-.1.1-.3.2-.4.3-.1.1-.3.2-.4.2-.1 0-.1.1-.2.1s-.1.1-.2.1c0 0-.1 0-.1.1-.2.1-.5.3-.7.4-.1.1-.3.1-.4.2-.1.1-.3.1-.4.2-.1.1-.3.1-.4.2-.1.1-.3.1-.4.2-.1.1-.3.1-.4.2-.1.1-.3.1-.5.2-.3.1-.7.2-1.1.3-1.7.5-3.5.7-5.3.7-11.2 0-20.1-8.9-20.1-19.9z"/><path class="st2" d="M250.9 392.8zm-19.8 55.1c1.6 0 3.1-.2 4.6-.5.2-.1.5-.1.7-.2.4-.1.7-.2 1.1-.3.2 0 .3-.1.5-.2.1-.1.3-.1.4-.2.1-.1.3-.1.4-.2.1-.1.3-.1.4-.2.1-.1.3-.1.4-.2.1-.1.3-.1.4-.2.2-.1.5-.3.7-.4 0 0 .1 0 .1-.1.1 0 .1-.1.2-.1s.1-.1.2-.1c.3-.2.5-.3.8-.5.1-.1.3-.2.4-.3.1-.1.3-.2.4-.3.2-.2.4-.3.7-.5.2-.1.3-.3.5-.4.2-.2.5-.4.7-.6l.3-.3.3-.3c.2-.3.5-.5.7-.8l.2-.2c.2-.3.4-.5.6-.8.2-.3.4-.5.5-.8.1-.1.2-.3.3-.4.1-.1.2-.3.2-.4.2-.3.3-.5.5-.8.1-.3.3-.6.4-.8.1-.3.3-.6.4-.9.4-.9.7-1.8.9-2.8.1-.3.2-.6.2-.9.1-.3.1-.6.2-1 .1-.3.1-.7.1-1 0-.2 0-.5.1-.7V293.4h126.1l-.1 82.8-.1.1v51.8c0 2.6-.5 5-1.4 7.3-.1.3-.2.6-.4.9-.3.7-.7 1.4-1.1 2.1-.2.3-.3.5-.5.8-.3.4-.5.8-.8 1.2-.1.1-.2.2-.3.4-.2.2-.4.5-.6.7-.2.2-.4.5-.7.7-.8.8-1.7 1.6-2.7 2.3-.2.1-.4.3-.6.4-.3.2-.5.3-.8.5-.9.5-1.8.9-2.7 1.3-.2.1-.4.2-.7.2-.2.1-.4.1-.6.2l-.9.3c-1.6.4-3.2.6-5 .6H231.1z"/><path class="st1" d="M231.1 447.9v-1.1c10.3 0 18.6-8.3 18.7-18.6v-.2h1.1v.6c0 .5 0 1-.1 1.4 0 .3-.1.7-.1 1 0 .3-.1.6-.2 1-.1.3-.1.6-.2.9-.2 1-.6 1.9-.9 2.8-.1.3-.3.6-.4.9-.1.3-.3.6-.4.8-.2.3-.3.6-.5.8-.2.3-.3.5-.5.8-.4.7-.9 1.3-1.4 1.9-.1.1-.2.2-.3.4-.2.2-.4.5-.6.7l-.3.3c-.2.2-.5.4-.7.6-.1.1-.3.3-.5.4-.2.2-.4.3-.7.5-.1.1-.3.2-.4.3-.3.2-.5.4-.8.5-.1.1-.3.2-.4.3-.1 0-.1.1-.2.1s-.1.1-.2.1c0 0-.1 0-.1.1-.2.1-.5.3-.7.4-.1.1-.3.1-.4.2-.1.1-.3.1-.4.2-.1.1-.3.1-.4.2-.1.1-.3.1-.4.2-.1.1-.3.1-.4.2-.1.1-.3.1-.5.2-.3.1-.7.2-1.1.3-.2.1-.5.1-.7.2h-.1c-.3.1-.6.1-.9.2h-.3c-.3 0-.6.1-.9.1h-.4c-.3 0-.5.1-.8.1h-1c-.3.2-.4.2-.5.2z"/><path class="st1" d="M377.1 298.5h1.1v53.1h-1.1zM298.8 449v-1.1h58.3c1.7 0 3.4-.2 5-.6l.9-.3c.2-.1.4-.1.6-.2.2-.1.4-.2.7-.2.9-.4 1.9-.8 2.7-1.3.3-.2.5-.3.8-.5.2-.1.4-.3.6-.4 1-.7 1.9-1.4 2.7-2.3.2-.2.4-.5.7-.7.2-.2.4-.5.6-.7.1-.1.2-.2.3-.4.3-.4.6-.8.8-1.2.2-.3.3-.5.5-.8.4-.7.8-1.4 1.1-2.1.1-.3.3-.6.4-.9.9-2.3 1.4-4.7 1.4-7.3v-16.1h1.1v16.2c0 11.2-8.8 20.4-19.9 20.9h-59.3zm-47.9-100.1h-1.1v-50.4h1.1v50.4zm-19.8 99v-1.1c10.3 0 18.6-8.3 18.7-18.6v-52h1.1v52.4c0 .5 0 1-.1 1.4 0 .3-.1.7-.1 1 0 .3-.1.6-.2 1-.1.3-.1.6-.2.9-.2 1-.6 1.9-.9 2.8-.1.3-.3.6-.4.9-.1.3-.3.6-.4.8-.2.3-.3.6-.5.8-.2.3-.3.5-.5.8-.4.7-.9 1.3-1.4 1.9-.1.1-.2.2-.3.4-.2.2-.4.5-.6.7l-.3.3c-.2.2-.5.4-.7.6-.1.1-.3.3-.5.4-.2.2-.4.3-.7.5-.1.1-.3.2-.4.3-.3.2-.5.4-.8.5-.1.1-.3.2-.4.3-.1 0-.1.1-.2.1s-.1.1-.2.1c0 0-.1 0-.1.1-.2.1-.5.3-.7.4-.1.1-.3.1-.4.2-.1.1-.3.1-.4.2-.1.1-.3.1-.4.2-.1.1-.3.1-.4.2-.1.1-.3.1-.4.2-.1.1-.3.1-.5.2-.3.1-.7.2-1.1.3-.2.1-.5.1-.7.2h-.1c-.3.1-.6.1-.9.2h-.3c-.3 0-.6.1-.9.1h-.4c-.3 0-.5.1-.8.1h-1c-.3.2-.4.2-.5.2z"/><path transform="rotate(-180 206.384 347.996)" class="st14" d="M192.8 336.9H220v22.3h-27.2z"/><path class="st2" d="M184.4 336.9h16.8c5.5 0 10 4.5 10 10v40.6h-36.9v-40.6c.1-5.5 4.6-10 10.1-10z"/><path class="st4" d="M260.1 326.3h107.7v3.2H260.1zm0 32h18.6v3.2h-18.6zm23.2 0h61.3v3.2h-61.3zm65.9 0h18.6v3.2h-18.6zm-89.1 8.4h18.6v3.2h-18.6zm23.2 0h61.3v3.2h-61.3zm65.9 0h18.6v3.2h-18.6zm-89.1 8.4h18.6v3.2h-18.6zm23.2 0h61.3v3.2h-61.3zm65.9 0h18.6v3.2h-18.6zm-89.1 8.4h18.6v3.2h-18.6zm23.2 0h61.3v3.2h-61.3zm65.9 0h18.6v3.2h-18.6zm-74.7-47.6h78.8v3.2h-78.8zm19.7 61.4h39.5v3.2h-39.5zm-34.1-47.4h107.7v3.2H260.1z"/><g class="st15"><path class="st1" d="M391.6 301.3H239.4c-2.7 0-5.1-1.6-6.2-4 1-2.4 3.4-4 6.2-4h152.2c2.7 0 5.1 1.6 6.2 4-.3.8-.8 1.4-1.4 2a6.8 6.8 0 01-4.8 2z"/></g><g class="st15"><path class="st1" d="M369 139.2c.4 93.8-53.5 106.9-53.5 106.9s-4.5-1.1-11-5c-2.9-1.8-6.3-4.1-9.7-7.1-6.6-5.9-13.8-14.4-19.8-26.7-2.1-4.4-4.1-9.4-5.9-14.9-.7-2.3-1.4-4.7-2.1-7.2-.9-3.3-1.6-6.8-2.3-10.5-1.9-10.3-2.9-22.1-2.9-35.6 0 0 16.8-4.5 16-18.8 0 0 6.4-2.6 16.3-4.6 2.5-.5 5.3-1 8.2-1.3 1.9-.2 3.9-.4 5.9-.6 2.3-.2 4.7-.3 7.2-.3 2.1 0 4.2.1 6.2.2 14.7.9 26.2 4.7 30 6.1.9.3 1.3.5 1.3.5-.3 5.7 2.2 9.9 5.3 12.9 4.8 4.4 10.8 6 10.8 6z"/></g><path class="st14" d="M369.6 131.7c.4 93.8-54.1 106.9-54.1 106.9s-4.6-1.1-11.1-5c-3-1.8-6.3-4.1-9.8-7.1-6.7-5.9-14-14.4-20-26.7-2.2-4.4-4.2-9.4-5.9-14.9-.7-2.3-1.4-4.7-2.1-7.2-.9-3.3-1.6-6.8-2.3-10.5-1.9-10.3-3-22.1-2.9-35.6 0 0 17-4.5 16.2-18.8 0 0 6.4-2.6 16.4-4.6 2.5-.5 5.3-1 8.3-1.3 1.9-.2 3.9-.4 6-.6 2.3-.2 4.8-.3 7.2-.3 2.1 0 4.2.1 6.2.2 14.8.9 26.5 4.7 30.3 6.1.9.3 1.3.5 1.3.5-.3 5.7 2.2 9.9 5.4 12.9 4.8 4.4 10.9 6 10.9 6z"/><path class="st3" d="M315.5 230.2c-3.9-1.5-13-5.8-22-16.1-15.1-17.2-23.4-43.8-24-77 6.5-3.2 13.7-9.2 15.7-18.4 6-1.8 17.2-4.6 30.4-4.6 13.1 0 24.4 2.8 30.4 4.6 1.9 9.3 9.2 15.2 15.7 18.4-.7 33.2-8.9 59.8-24 77-9.2 10.3-18.3 14.6-22.2 16.1z"/><path class="st1" d="M315.5 230.2c-4.3-1.6-8.4-3.8-12.1-6.5-1.9-1.3-3.7-2.8-5.4-4.3-1.7-1.5-3.3-3.2-4.9-4.9-3.1-3.4-5.8-7.2-8.3-11.1-2.4-3.9-4.5-8.1-6.3-12.3-3.6-8.5-6.1-17.4-7.7-26.5-1.7-9.1-2.5-18.3-2.7-27.5v-.9l.8-.4c3.6-1.8 6.9-4.2 9.5-7.2 2.6-3 4.5-6.5 5.3-10.3l.2-.9.8-.3c5-1.5 10.1-2.7 15.2-3.5 5.1-.8 10.4-1.2 15.6-1.3 5.2 0 10.4.4 15.6 1.3 5.1.8 10.2 2 15.2 3.5l.8.3.2.9c.8 3.8 2.7 7.4 5.3 10.3 2.6 3 5.9 5.4 9.5 7.2l.8.4v.9c-.2 9.2-1.1 18.4-2.7 27.5-1.6 9.1-4.1 18-7.7 26.5-1.9 4.2-3.9 8.4-6.3 12.3-2.5 3.9-5.2 7.6-8.3 11.1-1.6 1.7-3.2 3.3-4.9 4.9-1.7 1.5-3.5 3-5.4 4.3-3.7 2.7-7.8 4.9-12.1 6.5zm0 0c4.2-1.8 8.1-4.2 11.7-7 1.8-1.4 3.5-2.9 5.2-4.5 1.6-1.6 3.2-3.2 4.7-5 2.9-3.5 5.5-7.2 7.8-11.1 2.3-3.9 4.2-8 5.9-12.2 3.3-8.5 5.6-17.3 7.1-26.2 1.4-9 2.2-18 2.3-27.1l.8 1.3c-3.9-1.9-7.5-4.5-10.4-7.7-1.5-1.6-2.8-3.4-3.8-5.4-1-2-1.8-4.1-2.3-6.2l1 1.1c-4.8-1.5-9.8-2.6-14.8-3.3-5-.8-10.1-1.2-15.1-1.2-5.1 0-10.1.4-15.1 1.2-5 .8-10 1.9-14.8 3.3l1-1.1c-.5 2.2-1.2 4.3-2.3 6.2-1 2-2.3 3.8-3.8 5.4-3 3.3-6.6 5.8-10.4 7.7l.8-1.3c.2 9.1.9 18.2 2.3 27.1 1.4 9 3.8 17.8 7.1 26.2 1.7 4.2 3.6 8.3 5.9 12.2 2.3 3.9 4.9 7.7 7.8 11.1 1.5 1.7 3 3.4 4.7 5 1.6 1.6 3.4 3.1 5.2 4.5 3.4 2.8 7.3 5.3 11.5 7z"/><path class="st3" d="M516.7 218.6h-82.3c-17.8 0-32.2 14.4-32.2 32.2v248.8c0 12 9.7 21.7 21.7 21.7h103.3c12 0 21.7-9.7 21.7-21.7V250.8c0-17.8-14.4-32.2-32.2-32.2z"/><path class="st1" d="M524.4 195h-97.7c-7.9 0-14.2 6.4-14.2 14.2v151.9c0 16.9 13.7 30.5 30.5 30.5h65.1c16.9 0 30.5-13.7 30.5-30.5V209.3c0-7.9-6.4-14.3-14.2-14.3z"/><path class="st2" d="M438.9 407.4h-10.2c-3.3 0-6 2.7-6 6v2.2c0 3.3 2.7 6 6 6h10.2c3.3 0 6-2.7 6-6v-2.2c0-3.3-2.7-6-6-6zm27.8 0h-10.2c-3.3 0-6 2.7-6 6v2.2c0 3.3 2.7 6 6 6h10.2c3.3 0 6-2.7 6-6v-2.2c0-3.3-2.7-6-6-6zm27.8 0h-10.2c-3.3 0-6 2.7-6 6v2.2c0 3.3 2.7 6 6 6h10.2c3.3 0 6-2.7 6-6v-2.2c0-3.3-2.7-6-6-6zm27.9 0h-10.2c-3.3 0-6 2.7-6 6v2.2c0 3.3 2.7 6 6 6h10.2c3.3 0 6-2.7 6-6v-2.2c-.1-3.3-2.7-6-6-6zm-83.5 19.3h-10.2c-3.3 0-6 2.7-6 6v2.2c0 3.3 2.7 6 6 6h10.2c3.3 0 6-2.7 6-6v-2.2c0-3.3-2.7-6-6-6zm27.8 0h-10.2c-3.3 0-6 2.7-6 6v2.2c0 3.3 2.7 6 6 6h10.2c3.3 0 6-2.7 6-6v-2.2c0-3.3-2.7-6-6-6zm27.8 0h-10.2c-3.3 0-6 2.7-6 6v2.2c0 3.3 2.7 6 6 6h10.2c3.3 0 6-2.7 6-6v-2.2c0-3.3-2.7-6-6-6zm27.9 0h-10.2c-3.3 0-6 2.7-6 6v2.2c0 3.3 2.7 6 6 6h10.2c3.3 0 6-2.7 6-6v-2.2c-.1-3.3-2.7-6-6-6zM438.9 446h-10.2c-3.3 0-6 2.7-6 6v2.2c0 3.3 2.7 6 6 6h10.2c3.3 0 6-2.7 6-6V452c0-3.3-2.7-6-6-6zm27.8 0h-10.2c-3.3 0-6 2.7-6 6v2.2c0 3.3 2.7 6 6 6h10.2c3.3 0 6-2.7 6-6V452c0-3.3-2.7-6-6-6zm27.8 0h-10.2c-3.3 0-6 2.7-6 6v2.2c0 3.3 2.7 6 6 6h10.2c3.3 0 6-2.7 6-6V452c0-3.3-2.7-6-6-6zm27.9 0h-10.2c-3.3 0-6 2.7-6 6v2.2c0 3.3 2.7 6 6 6h10.2c3.3 0 6-2.7 6-6V452c-.1-3.3-2.7-6-6-6zm-83.5 19.4h-10.2c-3.3 0-6 2.7-6 6v2.2c0 3.3 2.7 6 6 6h10.2c3.3 0 6-2.7 6-6v-2.2c0-3.4-2.7-6-6-6zm27.8 0h-10.2c-3.3 0-6 2.7-6 6v2.2c0 3.3 2.7 6 6 6h10.2c3.3 0 6-2.7 6-6v-2.2c0-3.4-2.7-6-6-6zm27.8 0h-10.2c-3.3 0-6 2.7-6 6v2.2c0 3.3 2.7 6 6 6h10.2c3.3 0 6-2.7 6-6v-2.2c0-3.4-2.7-6-6-6z"/><path class="st1" d="M522.4 465.4h-10.2c-3.3 0-6 2.7-6 6v2.2c0 3.3 2.7 6 6 6h10.2c3.3 0 6-2.7 6-6v-2.2c-.1-3.4-2.7-6-6-6z"/><path class="st1" d="M506.2 471.3h22.2v20.4h-22.2z"/><path d="M438.9 484.7h-10.2c-3.3 0-6 2.7-6 6v2.2c0 3.3 2.7 6 6 6h10.2c3.3 0 6-2.7 6-6v-2.2c0-3.3-2.7-6-6-6z" fill="#ff654f"/><path class="st2" d="M466.7 484.7h-10.2c-3.3 0-6 2.7-6 6v2.2c0 3.3 2.7 6 6 6h10.2c3.3 0 6-2.7 6-6v-2.2c0-3.3-2.7-6-6-6z"/><path class="st5" d="M494.5 484.7h-10.2c-3.3 0-6 2.7-6 6v2.2c0 3.3 2.7 6 6 6h10.2c3.3 0 6-2.7 6-6v-2.2c0-3.3-2.7-6-6-6z"/><path class="st1" d="M522.4 484.7h-10.2c-3.3 0-6 2.7-6 6v2.2c0 3.3 2.7 6 6 6h10.2c3.3 0 6-2.7 6-6v-2.2c-.1-3.3-2.7-6-6-6z"/><path class="st2" d="M446.3 369.9h-7.4c-2 0-3.5 1.6-3.5 3.5v2.1c0 2 1.6 3.5 3.5 3.5h7.4c2 0 3.5-1.6 3.5-3.5v-2.1c0-1.9-1.6-3.5-3.5-3.5zm18.6 0h-7.4c-2 0-3.5 1.6-3.5 3.5v2.1c0 2 1.6 3.5 3.5 3.5h7.4c2 0 3.5-1.6 3.5-3.5v-2.1c0-1.9-1.6-3.5-3.5-3.5zm10.6 0c-1.6 0-3 1.3-3 3v3.3c0 1.6 1.3 3 3 3 1.6 0 3-1.3 3-3v-3.3c0-1.7-1.3-3-3-3zm18.1 0h-7.4c-2 0-3.5 1.6-3.5 3.5v2.1c0 2 1.6 3.5 3.5 3.5h7.4c2 0 3.5-1.6 3.5-3.5v-2.1c0-1.9-1.6-3.5-3.5-3.5zm18.6 0h-7.4c-2 0-3.5 1.6-3.5 3.5v2.1c0 2 1.6 3.5 3.5 3.5h7.4c2 0 3.5-1.6 3.5-3.5v-2.1c.1-1.9-1.5-3.5-3.5-3.5z"/><path class="st3" d="M512.7 269.4h-74.3c-5.1 0-9.2 4.1-9.2 9.2v65.1c0 5.1 4.1 9.2 9.2 9.2h74.3c5.1 0 9.2-4.1 9.2-9.2v-65.1c0-5.1-4.1-9.2-9.2-9.2z"/><path class="st2" d="M512.7 272.5h-74.3c-5.1 0-9.2 4.1-9.2 9.2v58.9c0 5.1 4.1 9.2 9.2 9.2h74.3c5.1 0 9.2-4.1 9.2-9.2v-58.9c0-5.1-4.1-9.2-9.2-9.2z"/><path class="st3" d="M524.9 245.2h-98.8c0-4.3 3.5-7.8 7.8-7.8H517c4.4 0 7.9 3.5 7.9 7.8zm-95.7-62.6h.8v.1h-.8zm.2-39.1h.8c-.1.6-.1 1.1-.1 1.7v11.7h-.8v-11.7c0-.6 0-1.2.1-1.7zm17.7-13.4h39.4v.8h-39.4zm74.8 15.9v36.6h-.8v-36.7h.8z"/><path class="st2" d="M430.1 130.9l-.2 111.6h91.2V130.9z"/><path class="st4" d="M436.6 152.4h28.1v2.8h-28.1zm65.3 0h12.6v2.8h-12.6zm-65.3 8.2h52.8v2.8h-52.8zm65.3 0h12.6v2.8h-12.6zm-65.3 8.2h35.5v2.8h-35.5zm65.3 0h12.6v2.8h-12.6zm-65.3 8.2h51.2v2.8h-51.2zm65.3 0h12.6v2.8h-12.6zm-65.3 8.3h30v2.8h-30zm65.3 0h12.6v2.8h-12.6z"/><path class="st4" d="M436.6 185.3h28.1v2.8h-28.1zm65.3 0h12.6v2.8h-12.6zm-65.3 8.2h45v2.8h-45zm65.3 0h12.6v2.8h-12.6zm-65.3 8.2h50.3v2.8h-50.3zm65.3 0h12.6v2.8h-12.6zm-65.3 8.3h17v2.8h-17zm65.3 0h12.6v2.8h-12.6zm-65.3 8.2h35.5v2.8h-35.5zm65.3 0h12.6v2.8h-12.6z"/><g class="st15"><path class="st1" d="M238 97.3c0 11.9-6 22.4-15.2 28.5h-63.5V60c0-10.4 3.1-20.1 8.3-28.2.3-.4.5-.8.8-1.2 2.7.4 5.4 1.1 7.9 2 14.4 4.9 25.8 16.3 30.8 30.7 17.3 1.7 30.9 16.3 30.9 34z"/></g><path class="st4" d="M238 90c0 11.9-6 22.4-15.2 28.5H103.2c-13.2-4-22.7-16.2-22.7-30.7 0-17.7 14.4-32.1 32.1-32.1h1c6.8-19.3 25.2-33.2 46.8-33.2 21.7 0 40.1 14 46.8 33.3C224.4 57.6 238 72.2 238 90z"/><path class="st2" d="M159.2 106.5c-7.1 0-14-2.4-19.4-6.9-5.4-4.4-9.2-10.5-10.7-17.2l2.4-.5c2.9 12.8 14.5 22.2 27.7 22.2 10.8 0 20.5-6 25.4-15.7l2.2 1.1c-2.5 5-6.4 9.3-11.2 12.3-4.9 3.1-10.5 4.7-16.4 4.7z"/><path class="st2" d="M180.4 88.4l7.7-6.3 1.6 9.9zm6.5-19c-2.9-12.8-14.5-22.2-27.7-22.2-10.8 0-20.5 6-25.4 15.7l-2.2-1.1c2.5-5 6.4-9.3 11.2-12.3 4.9-3.1 10.6-4.7 16.4-4.7 7.1 0 14 2.4 19.4 6.9 5.4 4.4 9.2 10.5 10.7 17.2l-2.4.5z"/><path class="st2" d="M138 62.8l-7.7 6.3-1.6-9.8z"/><path class="st1" d="M32.4 518.2h527.5v9.8H32.4z"/><path class="st3" d="M373.8 521.7h-19.5c0-.7.1-1.3.5-1.8.5-.6 1.2-.9 2-1 .7-.1 1.5-.1 2.3-.1 1.9-.1 3.7-.6 5.3-1.5.8-.5 1.6-1.1 2.5-1.4l5.3.1c.7.8 1.2 1.8 1.4 2.9.2.8.2 1.8.2 2.8zm38 0h-19.5c0-.7.1-1.3.5-1.8.5-.6 1.2-.9 2-1 .7-.1 1.5-.1 2.3-.1 1.9-.1 3.7-.6 5.3-1.5.8-.5 1.6-1.1 2.5-1.4l5.3.1c.7.8 1.2 1.8 1.4 2.9.2.8.3 1.8.2 2.8z"/><path class="st1" d="M365.8 515.8l2.1-60.2s.1-1.1.1-1.2l5.2-41.8c.4-5.2 42 3.1 42 3.1L410.6 516l-6.9-.2-9.7-82-11.7 23.1-9.4 59.1-7.1-.2z"/><path fill="#3b7aa5" d="M355.7 360.7l4.6 16.3h1.7l-4.6-16.3z"/><path class="st1" d="M346.5 360.7l4.6 16.3h9.2l-4.6-16.3z"/><path class="st18" d="M353.6 369.7c1.1 0 2.1.6 2.2 1.5.3 2.4.7 4.8 1.4 6.9.2.5.3 1.1.5 1.6 0 .1.1.2.1.3l.1.3c.1.2.2.3.3.5.4.6.8 1.2 1.3 1.6.5.4 1.2.6 1.8.5.6-.1 1.2-.4 1.7-.8l.6-.6.3-.3.1-.2.2-.3c.7-.7 1.3-1.6 1.9-2.5.6-.9 1.2-1.8 1.8-2.8.6-1 1.1-2 1.6-3 1-2.1 2-4.2 2.8-6.4 1.7-4.4 3.2-9 4.5-13.6.4-1.5 1.7-2.5 3.3-3 1.6-.5 3.6-.5 5.7.1 2 .7 3.6 1.9 4.5 3.4.9 1.5 1.2 3.2.5 4.7-2.2 4.7-4.7 9.4-7.5 13.9-1.4 2.3-2.9 4.5-4.5 6.7s-3.4 4.3-5.4 6.3c-1 1-2.1 2-3.3 2.9l-.5.4-.6.4c-.4.3-.8.5-1.2.8-.2.1-.4.2-.6.4l-.6.3c-.4.2-.9.4-1.3.6-.4.2-.9.3-1.3.4-.5.1-.9.2-1.4.2-.9.1-1.8.1-2.7-.1-1.8-.3-3.4-1.3-4.6-2.5-1.2-1.3-2.1-2.9-2.7-4.6-.1-.4-.3-.9-.4-1.3l-.2-.6c0-.2-.1-.4-.1-.6l-.3-2.1c-.3-2.7-.3-5.4-.1-8 0-.7.9-1.4 2.1-1.4z"/><path class="st4" d="M385.3 379.1l6.3-17c1.9-5.1-.3-10.9-5.4-12.8-5.1-1.9-11.2.7-13.1 5.9l-6.3 17 18.5 6.9z"/><path class="st4" d="M397.9 344.5c-10.6-1.6-20.3 6.2-21 16.9l-3.7 51.2c16.5 9.3 26.7 7.1 42 3.1l1.7-48.1c.5-11.5-7.7-21.4-19-23.1z"/><path class="st2" d="M416 395.7h.6l.8-23.4h-.6l-.8 23.4zm-43.4 17.1l.3.2c8.1 4.6 15 6.6 22.4 6.6 5.6 0 11-1.1 17.6-2.8v-.6c-14 3.6-24 5.1-39.7-3.7l1.2-16.4h-.6l-1.2 16.7zm25.3-68.3c.1 0 .2 0 .3.1v-.6h-.2c-1-.1-1.9-.2-2.9-.2-9.9 0-18.1 7.7-18.8 17.6l-1.1 15.7h.6l1.1-15.7c.7-9.7 8.8-17.1 18.2-17.1 1 0 1.9.1 2.8.2z"/><path class="st19" d="M366 417.8c2.6-1.7 5.1-3.3 7.6-5 2.5-1.7 4.9-3.5 7.2-5.3 2.3-1.8 4.4-3.8 6.3-5.8 1.8-2.1 3.3-4.3 4.5-6.6 1.2-2.4 2-4.9 2.6-7.6.6-2.7 1.1-5.5 1.4-8.4.1-.7.2-1.4.2-2.2l.2-2.2c.1-1.5.2-2.9.3-4.4.2-3 .3-6 .4-9 .2-3.8 3.9-6.7 8.2-6.3 4.2.4 7.3 4 6.7 7.9-.6 3.1-1.2 6.1-1.8 9.2-.3 1.5-.7 3.1-1 4.6l-.6 2.3c-.2.8-.4 1.6-.6 2.3-.8 3.1-1.8 6.3-3.1 9.4-1.3 3.1-2.8 6.3-4.8 9.2-2 2.9-4.4 5.5-7 7.6-2.6 2.2-5.3 4-8.1 5.6-2.8 1.6-5.5 3-8.3 4.4-2.8 1.4-5.6 2.7-8.4 3.9-.9.4-2.1 0-2.6-1-.5-.8-.2-2 .7-2.6z"/><path class="st4" d="M411.1 383.9l2.4-17.9c.7-5.4-2.7-10.5-8.1-11.2-5.4-.7-10.8 3.2-11.5 8.6l-2.4 17.9 19.6 2.6z"/><path class="st2" d="M393.1 363.8h.6l.1-.5c.7-5.4 6.1-9.4 11.5-8.6 2.3.3 4.2 1.4 5.6 2.9h.8c-1.6-1.9-3.8-3.2-6.3-3.5-.4-.1-.9-.1-1.4-.1-5.4 0-10.1 4-10.8 9.2l-.1.6zm-2.3 18l8.6 1.1v-.6l-7.9-1 1.3-10.1h-.6l-1.4 10.6zm20.3 2.1l-2.9-.4v.6l3.4.4 2.2-16.3h-.6l-2.1 15.7z"/><path class="st19" d="M390.9 339.2l1.6 12.9c3 1.5 5.8 1.1 8.4-1.1l-1.6-12.9-8.4 1.1z"/><path class="st18" d="M390.9 339.2l.7 5.8c.6.2 1.3.2 1.9.2.2 0 .4 0 .6-.1 2.3-.3 4.4-1.6 5.5-3.6l-.4-3.5-8.3 1.2z"/><path class="st19" d="M386 331.7l.9 5.4.4 2.2c.5 3 3.2 5.2 6.2 5.1 1 0 2-.3 2.8-.8l.6-.3c.1-.1.2-.2.3-.2 1.1-.8 1.9-1.9 2.3-3.2.4-1.1.7-2.3 1-3.6.2-.7.3-1.5.5-2.2.7-3.3-.5-6.9-3.1-9-2.3-1.8-4.9-2.2-7.8-.9-2.9 1.2-4.6 4.3-4.1 7.5z"/><path class="st1" d="M384.4 333.4c-.6-.5-.8-1.5-.7-2.4 0-.9.1-1.8-.3-2.5-.5-1-1.6-1.4-1.9-2.5-.3-1 .4-2 1-2.7 1.7-1.8 3.4-3.7 5.1-5.5.7-.8 1.4-1.5 2.3-1.9.9-.4 2-.4 2.8.3.4.4.8.9 1.2 1.2 1 .8 2.3.3 3.4 0 1.4-.4 2.8-.6 4.2.1 1.4.7 2.5 2.4 2.2 4.1-.1.8-.5 1.4-.8 2.1-.3.7-.5 1.5-.2 2.3.4 1 1.4 1.4 2.2 2 1.1.8 2 2.3 2.1 3.8.2 1.5-.3 3.1-1.2 4-.8.8-2.2 1.1-3 .1-.9-1.2-.6-3.4-1.8-4-1.4-.8-2.8 1.9-4.2 1-.7-.5-.9-1.7-1.6-2.3-.9-.8-2-.4-2.9 0-.9.4-1.9.6-2.8.7-.9.2-1.6.6-2.3 1.2-.8.6-1.8 1.6-2.8.9z"/><path class="st19" d="M396.9 334.4c.2 1.5 1.8 2.6 3.5 2.4 1.7-.2 3-1.7 2.8-3.2-.2-1.5-1.8-2.6-3.5-2.4-1.7.2-3 1.6-2.8 3.2z"/><path class="st2" d="M287.4 146.5c7.4 7.7 14.3 8.9 41.5 8.9 27.3 0 15.3 6-1.6 21.1 5.4-9.3 23.7-17.5-6.3-17.1-28.7.5-30.4-8.3-33.6-12.9zm19.5 37.4c0 2.3-1.9 4.1-4.1 4.1-2.3 0-4.2-1.9-4.2-4.1 0-2.3 1.9-4.2 4.2-4.2 2.2.1 4.1 1.9 4.1 4.2zm18.7 0c0 2.3-1.9 4.1-4.1 4.1-2.3 0-4.2-1.9-4.2-4.1 0-2.3 1.9-4.2 4.2-4.2 2.3.1 4.1 1.9 4.1 4.2z"/></svg>