<svg xmlns="http://www.w3.org/2000/svg" viewBox="0 0 236.54 24.5"><path d="M9.5 8.6A4.12 4.12 0 018 12a6.55 6.55 0 01-4.2 1.2H2.3v5.3H0V4.3h4.1a5.78 5.78 0 014 1.1 3.93 3.93 0 011.4 3.2zm-7.2 2.6h1.3a4.31 4.31 0 002.6-.6 2.22 2.22 0 00.9-1.9 2.3 2.3 0 00-.8-1.9A3.68 3.68 0 004 6.2H2.3zm19.3 1.9a5.6 5.6 0 01-1.3 4.1 4.9 4.9 0 01-3.8 1.5 6 6 0 01-2.7-.6 7 7 0 01-1.8-2 7.38 7.38 0 01-.6-3A6 6 0 0112.8 9a4.8 4.8 0 013.8-1.5 4.63 4.63 0 013.7 1.6 5.7 5.7 0 011.3 4zm-7.8 0c0 2.5.9 3.8 2.7 3.8s2.8-1.3 2.8-3.8-.9-3.7-2.8-3.7a2.4 2.4 0 00-2.1 1 4.88 4.88 0 00-.6 2.7zm19.3 5.4l-1.4-5c-.1-.5-.4-1.8-.9-3.7h-.1a19.58 19.58 0 01-.9 3.7l-1.4 5h-2.5L22.8 7.7h2.4l1.4 5.4a30.85 30.85 0 01.6 3.3h.1a5.46 5.46 0 01.3-1.6 11.26 11.26 0 01.3-1.4l1.7-5.7h2.5l1.6 5.7a9.49 9.49 0 01.3 1.5 5.48 5.48 0 01.3 1.5h.1a21.76 21.76 0 01.7-3.3l1.4-5.4h2.3l-3.1 10.8zm12.2.2a5.49 5.49 0 01-3.9-1.4 5.51 5.51 0 01-1.4-4.1 5.9 5.9 0 011.3-4.1 4.41 4.41 0 013.6-1.6 4.81 4.81 0 013.4 1.3 5.19 5.19 0 011.2 3.6v1.3h-7.2a3.67 3.67 0 00.9 2.4 3.12 3.12 0 002.2.8 5 5 0 001.8-.2 6.36 6.36 0 001.8-.6V18a5.75 5.75 0 01-1.7.6zm-.4-9.4a2.11 2.11 0 00-1.7.7 2.8 2.8 0 00-.8 2h4.9a2.78 2.78 0 00-.7-2 2.11 2.11 0 00-1.7-.7zm12.7-1.8h1.2l-.3 2.3h-1a2.89 2.89 0 00-2.2.9 3 3 0 00-.9 2.3v5.6h-2.3V7.7h1.8l.3 1.9h.2a4 4 0 011.4-1.5 3 3 0 011.8-.6zm7.9 11.2a5.74 5.74 0 01-4-1.4 6 6 0 01-1.4-4.1 6.51 6.51 0 011.3-4.1 4.39 4.39 0 013.7-1.6 4.48 4.48 0 013.3 1.3 4.83 4.83 0 011.3 3.6v1.3h-7.2a3.61 3.61 0 00.8 2.4 3.39 3.39 0 002.3.8 5.45 5.45 0 001.8-.2l1.7-.6V18a4.86 4.86 0 01-1.7.6zm-.4-9.4a2.11 2.11 0 00-1.8.7 3.34 3.34 0 00-.8 2h4.9a2.77 2.77 0 00-.6-2 2.11 2.11 0 00-1.7-.7zm10.8 9.4a3.79 3.79 0 01-3.1-1.4 6.52 6.52 0 01-1.2-4.1A6.55 6.55 0 0172.8 9a4.08 4.08 0 016.4.1h.1a13.58 13.58 0 01-.1-1.8v-4h2.3v15.2h-1.8l-.4-1.4h-.1a3.8 3.8 0 01-3.3 1.6zm.6-1.8a2.58 2.58 0 002.1-.8 4.28 4.28 0 00.7-2.6v-.3a5.1 5.1 0 00-.7-2.9 2.31 2.31 0 00-2.1-.9 1.9 1.9 0 00-1.8 1 4.69 4.69 0 00-.7 2.8 4.88 4.88 0 00.6 2.7 2.21 2.21 0 001.9 1zm19-9.4A3.61 3.61 0 0198.6 9a6.42 6.42 0 011.1 4.1 6.6 6.6 0 01-1.1 4.2 4 4 0 01-3.2 1.4 4.19 4.19 0 01-3.2-1.4h-.1l-.4 1.2h-1.8V3.3h2.3v4.8a2.73 2.73 0 01-.1 1.1h.1a3.8 3.8 0 013.3-1.7zm-.6 1.9a2.3 2.3 0 00-2 .8 5 5 0 00-.7 2.8 4.56 4.56 0 00.7 2.9 2.29 2.29 0 002 .9 2.42 2.42 0 001.9-1 5.54 5.54 0 00.6-2.8c0-2.4-.9-3.6-2.5-3.6zm5.9-1.7h2.5l2.2 6.2a12.4 12.4 0 01.6 2.4h.1c.12-.43.22-.86.3-1.3l2.5-7.3h2.5L106.9 20q-1.4 3.3-4.2 3.3h-1.5v-1.9h1.2c1.1 0 1.8-.7 2.3-1.9l.4-1.1zm12 1.3c0-1 .5-1.5 1.4-1.5a1.18 1.18 0 011.1.4 1.4 1.4 0 01.4 1.1 1.49 1.49 0 01-.4 1.1 1.59 1.59 0 01-1.1.4 1.38 1.38 0 01-1.4-1.5zm0 8.3a1.4 1.4 0 01.4-1.1 1.49 1.49 0 011-.4 1.59 1.59 0 011.1.4 1.49 1.49 0 01.4 1.1 1.4 1.4 0 01-.4 1.1 1.18 1.18 0 01-1.1.4 1.21 1.21 0 01-1-.4 1.18 1.18 0 01-.4-1.1z" fill="#1b142e"/><path d="M129.72 6h6.92l-1.07 4.11a2.65 2.65 0 01-.92 1.38 2.55 2.55 0 01-1.56.52h-3.22a3.1 3.1 0 00-1.94.64 3.37 3.37 0 00-1.17 1.74 3.21 3.21 0 00-.05 1.57 3.34 3.34 0 00.59 1.3 3.13 3.13 0 001.11.9 3.24 3.24 0 001.47.34h2a1.1 1.1 0 01.9.44 1.06 1.06 0 01.2 1l-1.22 4.53h-2.15a8.64 8.64 0 01-4-1 9 9 0 01-4.76-6.18 9 9 0 01.11-4.18l.12-.46a9.09 9.09 0 013.23-4.82 9.3 9.3 0 012.56-1.37 9.16 9.16 0 012.85-.46zm3.49 18.5l6-22.6a2.59 2.59 0 01.91-1.38 2.53 2.53 0 011.61-.52h6.4a8.64 8.64 0 014.05 1A9.1 9.1 0 01157 7.15a8.62 8.62 0 01-.13 4.19l-.12.46a9.32 9.32 0 01-1.22 2.71 9 9 0 01-7.48 4h-5.54l1.1-4.13a2.65 2.65 0 01.92-1.35 2.47 2.47 0 011.47-.53h1.78a3.21 3.21 0 003.12-2.42 2.94 2.94 0 00.05-1.5 3.48 3.48 0 00-.6-1.31 3.36 3.36 0 00-1.1-.92 3.28 3.28 0 00-1.43-.35h-3.43l-4.47 16.63A2.59 2.59 0 01139 24a2.44 2.44 0 01-1.53.52zm38.19-12.07l.09-.33a.43.43 0 00-.07-.41.49.49 0 00-.39-.17h-9.95a2.37 2.37 0 01-1.16-.28 2.47 2.47 0 01-.86-.71 2.42 2.42 0 01-.46-1 2.7 2.7 0 010-1.2l.64-2.33h13.48a4.78 4.78 0 012.29.55A5.27 5.27 0 01176.75 8a5.16 5.16 0 01.95 2 5 5 0 010 2.37l-2.42 9a4.15 4.15 0 01-4 3.09h-9.95a5.25 5.25 0 01-4.33-2.09 5.49 5.49 0 01-1-2.14 5 5 0 01.06-2.47l.12-.46a4.87 4.87 0 01.72-1.59 5.65 5.65 0 011.18-1.26 5.58 5.58 0 011.5-.81 5.44 5.44 0 011.75-.29h8.36l-.62 2.3a2.57 2.57 0 01-.91 1.35 2.51 2.51 0 01-1.54.52h-3.73a.69.69 0 00-.55 1.12.71.71 0 00.55.26h6a.94.94 0 00.58-.19.8.8 0 00.31-.49l.06-.24zM189.22 6a8.83 8.83 0 014.09 1 9.14 9.14 0 013.08 2.55 8.94 8.94 0 011.66 3.64 8.78 8.78 0 01-.13 4.2l-1.53 5.76a1.75 1.75 0 01-.66 1 1.84 1.84 0 01-1.13.36h-3.29a1.11 1.11 0 01-1.15-1.09 1.27 1.27 0 010-.34l1.84-7a3 3 0 00.05-1.5 3.51 3.51 0 00-.6-1.3 3.21 3.21 0 00-2.53-1.28h-3.43l-3 11.12a1.68 1.68 0 01-.66 1 1.92 1.92 0 01-1.15.37h-3.28a1.1 1.1 0 01-.9-.44 1.06 1.06 0 01-.2-1l4.53-17zm18.04 5.87a1.53 1.53 0 00-.52.75l-1.38 5.2A.92.92 0 00206 19a.73.73 0 00.25 0h12.68l-1 3.64A2.59 2.59 0 01217 24a2.44 2.44 0 01-1.53.52H204a5.06 5.06 0 01-4-2 5.14 5.14 0 01-.95-2.05 4.68 4.68 0 01.08-2.35l1.87-7a6.73 6.73 0 01.94-2.08A6.92 6.92 0 01207.59 6h8.17a4.85 4.85 0 012.3.55A5.37 5.37 0 01219.8 8a5 5 0 01.93 2.05 5.23 5.23 0 01-.06 2.36l-.55 2.08a4 4 0 01-1.48 2.23 4.14 4.14 0 01-2.53.84h-9.25l.62-2.27a2.45 2.45 0 01.88-1.35 2.6 2.6 0 011.57-.52h3.73a.66.66 0 00.68-.52l.12-.46a.71.71 0 00-.5-.86h-5.87a1.26 1.26 0 00-.83.29zM218.9 24.5l6.15-23.12a1.79 1.79 0 01.66-1 1.89 1.89 0 011.15-.38h3.28a1.13 1.13 0 01.93.44 1.06 1.06 0 01.2 1l-4.59 17.06a7.48 7.48 0 01-1.09 2.5 7.9 7.9 0 01-1.77 1.88 8 8 0 01-4.92 1.67zm13.43-22.35a2 2 0 01.28-1A2.11 2.11 0 01234.43 0a2.13 2.13 0 011.83 1.05 2.15 2.15 0 010 2.1 2.12 2.12 0 01-2.88.8 2.19 2.19 0 01-.8-.8 2.11 2.11 0 01-.25-1zm.29 0a1.81 1.81 0 00.91 1.57 1.78 1.78 0 001.81 0 1.9 1.9 0 00.66-.66 1.8 1.8 0 00.25-.91 1.77 1.77 0 00-.25-.9 1.77 1.77 0 00-.66-.67 1.81 1.81 0 00-2.47.66 1.73 1.73 0 00-.25.91zm2.67-.51a.72.72 0 01-.12.4.72.72 0 01-.34.25l.67 1.11h-.5l-.58-1h-.38v1h-.41V.9h.72a1 1 0 01.69.19.7.7 0 01.22.55zm-1.22.42h.31a.52.52 0 00.36-.11.35.35 0 00.13-.3.32.32 0 00-.12-.3.62.62 0 00-.38-.09h-.29z" fill="#ff6c2c"/></svg>