<svg xmlns="http://www.w3.org/2000/svg" viewBox="0 0 220 24.9"><defs><linearGradient id="a" x1="152.66" y1="30.09" x2="127.46" y2="3.2" gradientTransform="matrix(1 0 0 -1 0 26)" gradientUnits="userSpaceOnUse"><stop offset="0" stop-color="#21d4fd"/><stop offset="1" stop-color="#b721ff"/></linearGradient></defs><path d="M148.1 6.4a.09.09 0 00-.1-.1h-.1L137.5.1h-.5L126.6 6h-.2v12.6h.3l10.3 6h.6l10.3-6h.3V6.4zm-10.4-5.1l8.9 5.1-4 2.4-4.9-2.8zm-.9 0V6l-4.9 2.8-4-2.4zm-9.4 6l4 2.3v5.6l-4 2.4zm9.4 16.2l-8.9-5.1 4-2.3 4.9 2.8zm.5-5.5l-4.9-2.8V9.6l4.9-2.7 4.8 2.7v5.6zm.4 5.5v-4.7l4.9-2.8 4 2.4zm9.4-5.9l-4-2.4V9.6l4-2.3z" fill="url(#a)"/><path d="M162.2 2.4c4.3 0 6.4 2.5 6.4 7.4v5.3c0 4.9-2.1 7.4-6.4 7.4s-6.4-2.5-6.4-7.4V9.8c0-4.9 2.1-7.4 6.4-7.4zm0 1.2a4.49 4.49 0 00-3.8 1.5c-.9 1.1-1.2 2.7-1.2 4.9v4.9c0 2.2.3 3.8 1.2 4.9a4.49 4.49 0 003.8 1.5 4.59 4.59 0 003.8-1.5 8.27 8.27 0 001.2-4.9V10a8.27 8.27 0 00-1.2-4.9 4.59 4.59 0 00-3.8-1.5zm22.9 18.2L175.3 5v16.7c0 .2-.2.3-.4.3h-.5c-.3 0-.4-.1-.4-.3V3.2c0-.2.2-.3.4-.3h.7c.2 0 .3 0 .4.2l9.9 16.8V3.2a.29.29 0 01.3-.3h.5c.3 0 .4.1.4.3v18.5c0 .2-.1.3-.4.3h-.6c-.3.1-.4 0-.5-.2zm6.2-19h.8c.2 0 .3.1.4.3l5.2 10.3 5.2-10.3a.5.5 0 01.4-.3h.8c.2 0 .2.1.2.2v.2l-.2.3-5.8 11.3v6.9a.29.29 0 01-.3.3h-.6c-.3 0-.4-.1-.4-.3v-6.8l-5.8-11.4v-.3h-.2a.29.29 0 01.18-.38.25.25 0 01.12 0zm22.7 8.7l-4.9-8.3-.2-.3h-1c-.2 0-.3 0-.3.2l.2.3 5.9 10 4.9 8.3c0 .2.1.3.2.3h.9c.2 0 .3 0 .3-.2a.41.41 0 01-.1-.3zm-1.3 1.6l-4.9 8.4-.2.3c0 .2.1.2.3.2h.9q.1 0 .3-.3l4.3-7.4-.3-.5zm2.2-1.3l5-8.4a.76.76 0 00.1-.3c0-.2-.1-.2-.3-.2h-.9c-.1 0-.1.1-.2.3l-4.3 7.4.3.5zM9.5 8.8A4.12 4.12 0 018 12.2a6.55 6.55 0 01-4.2 1.2H2.3v5.3H0V4.5h4.1a5.78 5.78 0 014 1.1 3.93 3.93 0 011.4 3.2zm-7.2 2.6h1.3a4.31 4.31 0 002.6-.6 2.22 2.22 0 00.9-1.9A2.3 2.3 0 006.3 7 3.68 3.68 0 004 6.4H2.3zm19.3 1.9a5.6 5.6 0 01-1.3 4.1 4.9 4.9 0 01-3.8 1.5 6 6 0 01-2.7-.6 7 7 0 01-1.8-2 7.38 7.38 0 01-.6-3 6 6 0 011.4-4.1 4.8 4.8 0 013.8-1.5 4.63 4.63 0 013.7 1.6 5.7 5.7 0 011.3 4zm-7.8 0c0 2.5.9 3.8 2.7 3.8s2.8-1.3 2.8-3.8-.9-3.7-2.8-3.7a2.4 2.4 0 00-2.1 1 4.88 4.88 0 00-.6 2.7zm19.3 5.4l-1.4-5c-.1-.5-.4-1.8-.9-3.7h-.1a19.58 19.58 0 01-.9 3.7l-1.4 5h-2.5L22.8 7.9h2.4l1.4 5.4a30.85 30.85 0 01.6 3.3h.1a5.46 5.46 0 01.3-1.6 11.26 11.26 0 01.3-1.4l1.7-5.7h2.5l1.6 5.7a9.49 9.49 0 01.3 1.5 5.48 5.48 0 01.3 1.5h.1a21.76 21.76 0 01.7-3.3l1.4-5.4h2.3l-3.1 10.8zm12.2.2a5.49 5.49 0 01-3.9-1.4 5.51 5.51 0 01-1.4-4.1 5.9 5.9 0 011.3-4.1 4.41 4.41 0 013.6-1.6A4.81 4.81 0 0148.3 9a5.19 5.19 0 011.2 3.6v1.3h-7.2a3.67 3.67 0 00.9 2.4 3.12 3.12 0 002.2.8 5 5 0 001.8-.2 6.36 6.36 0 001.8-.6v1.9a5.75 5.75 0 01-1.7.6zm-.4-9.4a2.11 2.11 0 00-1.7.7 2.8 2.8 0 00-.8 2h4.9a2.78 2.78 0 00-.7-2 2.11 2.11 0 00-1.7-.7zm12.7-1.8h1.2l-.3 2.3h-1a2.89 2.89 0 00-2.2.9 3 3 0 00-.9 2.3v5.6h-2.3V7.9h1.8l.3 1.9h.2a4 4 0 011.4-1.5 3 3 0 011.8-.6zm7.9 11.2a5.74 5.74 0 01-4-1.4 6 6 0 01-1.4-4.1 6.51 6.51 0 011.3-4.1 4.39 4.39 0 013.7-1.6A4.48 4.48 0 0168.4 9a4.83 4.83 0 011.3 3.6v1.3h-7.2a3.61 3.61 0 00.8 2.4 3.39 3.39 0 002.3.8 5.45 5.45 0 001.8-.2l1.7-.6v1.9a4.86 4.86 0 01-1.7.6zm-.4-9.4a2.11 2.11 0 00-1.8.7 3.34 3.34 0 00-.8 2h4.9a2.77 2.77 0 00-.6-2 2.11 2.11 0 00-1.7-.7zm10.8 9.4a3.79 3.79 0 01-3.1-1.4 6.52 6.52 0 01-1.2-4.1 6.55 6.55 0 011.2-4.2 4.08 4.08 0 016.4.1h.1a13.58 13.58 0 01-.1-1.8v-4h2.3v15.2h-1.8l-.4-1.4h-.1a3.8 3.8 0 01-3.3 1.6zm.6-1.8a2.58 2.58 0 002.1-.8 4.28 4.28 0 00.7-2.6v-.3a5.1 5.1 0 00-.7-2.9 2.31 2.31 0 00-2.1-.9 1.9 1.9 0 00-1.8 1 4.69 4.69 0 00-.7 2.8 4.88 4.88 0 00.6 2.7 2.21 2.21 0 001.9 1zm19-9.4a3.61 3.61 0 013.1 1.5 6.42 6.42 0 011.1 4.1 6.6 6.6 0 01-1.1 4.2 4 4 0 01-3.2 1.4 4.19 4.19 0 01-3.2-1.4h-.1l-.4 1.2h-1.8V3.5h2.3v4.8a2.73 2.73 0 01-.1 1.1h.1a3.8 3.8 0 013.3-1.7zm-.6 1.9a2.3 2.3 0 00-2 .8 5 5 0 00-.7 2.8 4.56 4.56 0 00.7 2.9 2.29 2.29 0 002 .9 2.42 2.42 0 001.9-1 5.54 5.54 0 00.6-2.8c0-2.4-.9-3.6-2.5-3.6zm5.9-1.7h2.5l2.2 6.2a12.4 12.4 0 01.6 2.4h.1c.12-.43.22-.86.3-1.3l2.5-7.3h2.5l-4.6 12.3q-1.4 3.3-4.2 3.3h-1.5v-1.9h1.2c1.1 0 1.8-.7 2.3-1.9l.4-1.1zm12 1.3c0-1 .5-1.5 1.4-1.5a1.18 1.18 0 011.1.4 1.4 1.4 0 01.4 1.1 1.49 1.49 0 01-.4 1.1 1.59 1.59 0 01-1.1.4 1.38 1.38 0 01-1.4-1.5zm0 8.3a1.4 1.4 0 01.4-1.1 1.49 1.49 0 011-.4 1.59 1.59 0 011.1.4 1.49 1.49 0 01.4 1.1 1.4 1.4 0 01-.4 1.1 1.18 1.18 0 01-1.1.4 1.21 1.21 0 01-1-.4 1.18 1.18 0 01-.4-1.1z" fill="#1e1b3d"/></svg>