<svg version="1.1" id="Ñëîé_1" xmlns="http://www.w3.org/2000/svg" xmlns:xlink="http://www.w3.org/1999/xlink" x="0" y="0" viewBox="0 0 592.3 538.2" xml:space="preserve"><style>.st2{fill:#fff}.st3{enable-background:new}.st5{opacity:.64}.st7{opacity:.19}.st9{fill:#15174c}.st10{fill:#78e6ff}.st59{fill:#525453}.st60{fill:#231f20}.st61{fill:#a99578}.st62{fill:#bfb098}.st65{fill:#babbbd}.st66{fill:#676a6a}.st67{fill:#8f9293}.st68{fill:#e2dddb}</style><g opacity=".63"><path class="st2" d="M375.4 462.5c7.8 4.5 7.9 11.9.1 16.4l-64.9 37.7c-7.8 4.5-20.5 4.5-28.3 0l-65.4-37.7c-7.8-4.5-7.9-11.9-.1-16.4l64.9-37.7c7.8-4.5 20.5-4.5 28.3 0l65.4 37.7zM309.6 516l64.9-37.7c7.2-4.2 7.2-11-.1-15.2L309 425.4c-7.3-4.2-19.1-4.2-26.3 0l-64.9 37.7c-7.2 4.2-7.2 11 .1 15.2l65.4 37.7c7.2 4.2 19 4.2 26.3 0"/><g class="st3"><path class="st2" d="M301 291c3.3 1.9 3.3 5 0 6.9s-8.6 1.9-11.9 0-3.3-5 0-6.9 8.6-1.9 11.9 0zm-10.8 6.3c2.7 1.6 7.1 1.6 9.8 0 2.7-1.6 2.7-4.1 0-5.7s-7.1-1.6-9.8 0c-2.8 1.6-2.8 4.1 0 5.7m185.2-10.8c7.8 4.5 7.9 11.9.1 16.4l-64.9 37.7c-7.8 4.5-20.5 4.5-28.3 0l-65.4-37.7c-7.8-4.5-7.9-11.9-.1-16.4l64.9-37.7c7.8-4.5 20.5-4.5 28.3 0l65.4 37.7zm-65.9 53.6l64.9-37.7c7.2-4.2 7.2-11-.1-15.2L409 249.4c-7.3-4.2-19.1-4.2-26.3 0l-64.9 37.7c-7.2 4.2-7.2 11 .1 15.2l65.4 37.7c7.2 4.3 19 4.3 26.2.1m-136.7-53.7c7.8 4.5 7.9 11.9.1 16.4L208 340.5c-7.8 4.5-20.5 4.5-28.3 0l-65.4-37.7c-7.8-4.5-7.9-11.9-.1-16.4l64.9-37.7c7.8-4.5 20.5-4.5 28.3 0l65.4 37.7zm-65.9 53.5l64.9-37.7c7.2-4.2 7.2-11-.1-15.2l-65.4-37.7c-7.3-4.2-19.1-4.2-26.3 0L115.2 287c-7.2 4.2-7.2 11 .1 15.2l65.4 37.7c7.2 4.2 19 4.2 26.2 0m196.1 10c3.3 1.9 3.3 5 0 6.9s-8.6 1.9-11.9 0-3.3-5 0-6.9 8.6-1.9 11.9 0zm-10.8 6.3c2.7 1.6 7.1 1.6 9.8 0 2.7-1.6 2.7-4.1 0-5.7s-7.1-1.6-9.8 0c-2.7 1.6-2.7 4.2 0 5.7m-193.4-5.8c3.3 1.9 3.3 5 0 6.9s-8.6 1.9-11.9 0c-3.3-1.9-3.3-5 0-6.9 3.3-1.9 8.6-1.9 11.9 0zm-10.8 6.3c2.7 1.6 7.1 1.6 9.8 0s2.7-4.1 0-5.7-7.1-1.6-9.8 0c-2.8 1.6-2.8 4.1 0 5.7m389.1-11.5c7.8 4.5 7.9 11.9.1 16.4l-64.9 37.7c-7.8 4.5-20.5 4.5-28.3 0l-65.4-37.7c-7.8-4.5-7.9-11.9-.1-16.4l64.9-37.7c7.8-4.5 20.5-4.5 28.3 0l65.4 37.7zm-65.8 53.6l64.9-37.7c7.2-4.2 7.2-11-.1-15.2l-65.4-37.7c-7.3-4.2-19.1-4.2-26.3 0l-64.9 37.7c-7.2 4.2-7.2 11 .1 15.2l65.4 37.7c7.2 4.2 19 4.2 26.3 0m-136.8-53.7c7.8 4.5 7.9 11.9.1 16.4l-64.9 37.7c-7.8 4.5-20.5 4.5-28.3 0L216 361.5c-7.8-4.5-7.9-11.9-.1-16.4l64.9-37.7c7.8-4.5 20.5-4.5 28.3 0l65.4 37.7zm-65.8 53.6l64.9-37.7c7.2-4.2 7.2-11-.1-15.2L308.2 308c-7.3-4.2-19.1-4.2-26.3 0L217 345.7c-7.2 4.2-7.2 11 .1 15.2l65.4 37.7c7.2 4.3 19 4.3 26.2.1M172 345c7.8 4.5 7.9 11.9.1 16.4l-64.9 37.7c-7.8 4.5-20.5 4.5-28.3 0l-65.4-37.7c-7.8-4.5-7.9-11.9-.1-16.4l64.9-37.7c7.8-4.5 20.5-4.5 28.3 0L172 345zm-65.9 53.6l64.9-37.7c7.2-4.2 7.2-11-.1-15.2L105.5 308c-7.3-4.2-19.1-4.2-26.3 0l-64.9 37.7c-7.2 4.2-7.2 11 .1 15.2l65.4 37.7c7.3 4.2 19.1 4.2 26.3 0m194.7 10.7c3.3 1.9 3.3 5 0 6.9s-8.6 1.9-11.9 0-3.3-5 0-6.9c3.3-1.9 8.6-1.9 11.9 0zm-10.8 6.3c2.7 1.6 7.1 1.6 9.8 0 2.7-1.6 2.7-4.1 0-5.7s-7.1-1.6-9.8 0c-2.7 1.6-2.7 4.2 0 5.7m186.3-11.7c7.8 4.5 7.9 11.9.1 16.4l-65 37.7c-7.8 4.5-20.5 4.5-28.3 0l-65.4-37.7c-7.8-4.5-7.9-11.9-.1-16.4l64.9-37.7c7.8-4.5 20.5-4.5 28.3 0l65.5 37.7zm-65.9 53.5l64.9-37.7c7.2-4.2 7.2-11-.1-15.2l-65.4-37.7c-7.3-4.2-19.1-4.2-26.3 0l-64.9 37.7c-7.2 4.2-7.2 11 .1 15.2l65.4 37.7c7.3 4.2 19.1 4.2 26.3 0m-136.7-53.7c7.8 4.5 7.9 11.9.1 16.4l-64.9 37.7c-7.8 4.5-20.5 4.5-28.3 0l-65.4-37.7c-7.8-4.5-7.9-11.9-.1-16.4L180 366c7.8-4.5 20.5-4.5 28.3 0l65.4 37.7zm-65.9 53.6l64.9-37.7c7.2-4.2 7.2-11-.1-15.2l-65.4-37.7c-7.3-4.2-19.1-4.2-26.3 0L116 404.4c-7.2 4.2-7.2 11 .1 15.2l65.4 37.7c7.3 4.2 19.1 4.2 26.3 0"/></g><path class="st2" d="M373.7 227.8c7.8 4.5 7.9 11.9.1 16.4l-64.9 37.7c-7.8 4.5-20.5 4.5-28.3 0l-65.4-37.7c-7.8-4.5-7.9-11.9-.1-16.4L280 190c7.8-4.5 20.5-4.5 28.3 0l65.4 37.8zm-65.9 53.5l64.9-37.7c7.2-4.2 7.2-11-.1-15.2l-65.4-37.7c-7.3-4.2-19.1-4.2-26.3 0L216 228.4c-7.2 4.2-7.2 11 .1 15.2l65.4 37.7c7.3 4.2 19.1 4.2 26.3 0"/><g opacity=".56"><path class="st2" d="M375.4 473.5c7.8 4.5 7.9 11.9.1 16.4l-64.9 37.7c-7.8 4.5-20.5 4.5-28.3 0l-65.4-37.7c-7.8-4.5-7.9-11.9-.1-16.4l64.9-37.7c7.8-4.5 20.5-4.5 28.3 0l65.4 37.7zm-65.8 53.6l64.9-37.7c7.2-4.2 7.2-11-.1-15.2L309 436.5c-7.3-4.2-19.1-4.2-26.3 0l-64.9 37.7c-7.2 4.2-7.2 11 .1 15.2l65.4 37.7c7.2 4.2 19 4.2 26.3 0"/><g class="st3"><path class="st2" d="M301 302.1c3.3 1.9 3.3 5 0 6.9s-8.6 1.9-11.9 0-3.3-5 0-6.9 8.6-1.9 11.9 0zm-10.8 6.3c2.7 1.6 7.1 1.6 9.8 0 2.7-1.6 2.7-4.1 0-5.7s-7.1-1.6-9.8 0c-2.8 1.5-2.8 4.1 0 5.7m185.2-10.8c7.8 4.5 7.9 11.9.1 16.4l-64.9 37.7c-7.8 4.5-20.5 4.5-28.3 0L316.9 314c-7.8-4.5-7.9-11.9-.1-16.4l64.9-37.7c7.8-4.5 20.5-4.5 28.3 0l65.4 37.7zm-65.9 53.5l64.9-37.7c7.2-4.2 7.2-11-.1-15.2L409 260.4c-7.3-4.2-19.1-4.2-26.3 0l-64.9 37.7c-7.2 4.2-7.2 11 .1 15.2l65.4 37.7c7.2 4.3 19 4.3 26.2.1m-136.7-53.7c7.8 4.5 7.9 11.9.1 16.4L208 351.6c-7.8 4.5-20.5 4.5-28.3 0l-65.4-37.7c-7.8-4.5-7.9-11.9-.1-16.4l64.9-37.7c7.8-4.5 20.5-4.5 28.3 0l65.4 37.6zM206.9 351l64.9-37.7c7.2-4.2 7.2-11-.1-15.2l-65.4-37.7c-7.3-4.2-19.1-4.2-26.3 0L115.2 298c-7.2 4.2-7.2 11 .1 15.2l65.4 37.7c7.2 4.3 19 4.3 26.2.1M403 361c3.3 1.9 3.3 5 0 6.9s-8.6 1.9-11.9 0-3.3-5 0-6.9 8.6-1.9 11.9 0zm-10.8 6.3c2.7 1.6 7.1 1.6 9.8 0 2.7-1.6 2.7-4.1 0-5.7s-7.1-1.6-9.8 0c-2.7 1.6-2.7 4.1 0 5.7m-193.4-5.8c3.3 1.9 3.3 5 0 6.9s-8.6 1.9-11.9 0c-3.3-1.9-3.3-5 0-6.9 3.3-1.9 8.6-1.9 11.9 0zm-10.8 6.3c2.7 1.6 7.1 1.6 9.8 0s2.7-4.1 0-5.7-7.1-1.6-9.8 0c-2.8 1.5-2.8 4.1 0 5.7m389.1-11.5c7.8 4.5 7.9 11.9.1 16.4l-64.9 37.7c-7.8 4.5-20.5 4.5-28.3 0l-65.4-37.7c-7.8-4.5-7.9-11.9-.1-16.4l64.9-37.7c7.8-4.5 20.5-4.5 28.3 0l65.4 37.7zm-65.8 53.6l64.9-37.7c7.2-4.2 7.2-11-.1-15.2l-65.4-37.7c-7.3-4.2-19.1-4.2-26.3 0L419.5 357c-7.2 4.2-7.2 11 .1 15.2l65.4 37.7c7.2 4.2 19 4.2 26.3 0m-136.8-53.7c7.8 4.5 7.9 11.9.1 16.4l-64.9 37.7c-7.8 4.5-20.5 4.5-28.3 0L216 372.6c-7.8-4.5-7.9-11.9-.1-16.4l64.9-37.7c7.8-4.5 20.5-4.5 28.3 0l65.4 37.7zm-65.8 53.5l64.9-37.7c7.2-4.2 7.2-11-.1-15.2L308.2 319c-7.3-4.2-19.1-4.2-26.3 0L217 356.7c-7.2 4.2-7.2 11 .1 15.2l65.4 37.7c7.2 4.3 19 4.3 26.2.1M172 356.1c7.8 4.5 7.9 11.9.1 16.4l-64.9 37.7c-7.8 4.5-20.5 4.5-28.3 0l-65.4-37.7c-7.8-4.5-7.9-11.9-.1-16.4l64.9-37.7c7.8-4.5 20.5-4.5 28.3 0l65.4 37.7zm-65.9 53.5l64.9-37.7c7.2-4.2 7.2-11-.1-15.2L105.5 319c-7.3-4.2-19.1-4.2-26.3 0l-64.9 37.7c-7.2 4.2-7.2 11 .1 15.2l65.4 37.7c7.3 4.2 19.1 4.2 26.3 0m194.7 10.8c3.3 1.9 3.3 5 0 6.9s-8.6 1.9-11.9 0-3.3-5 0-6.9c3.3-1.9 8.6-1.9 11.9 0zm-10.8 6.3c2.7 1.6 7.1 1.6 9.8 0 2.7-1.6 2.7-4.1 0-5.7s-7.1-1.6-9.8 0c-2.7 1.5-2.7 4.1 0 5.7m186.3-11.8c7.8 4.5 7.9 11.9.1 16.4L411.5 469c-7.8 4.5-20.5 4.5-28.3 0l-65.4-37.7c-7.8-4.5-7.9-11.9-.1-16.4l64.9-37.7c7.8-4.5 20.5-4.5 28.3 0l65.4 37.7zm-65.9 53.6l64.9-37.7c7.2-4.2 7.2-11-.1-15.2l-65.4-37.7c-7.3-4.2-19.1-4.2-26.3 0l-64.9 37.7c-7.2 4.2-7.2 11 .1 15.2l65.4 37.7c7.3 4.2 19.1 4.2 26.3 0m-136.7-53.7c7.8 4.5 7.9 11.9.1 16.4l-64.9 37.7c-7.8 4.5-20.5 4.5-28.3 0l-65.4-37.7c-7.8-4.5-7.9-11.9-.1-16.4L180 377c7.8-4.5 20.5-4.5 28.3 0l65.4 37.8zm-65.9 53.5l64.9-37.7c7.2-4.2 7.2-11-.1-15.2l-65.4-37.7c-7.3-4.2-19.1-4.2-26.3 0L116 415.4c-7.2 4.2-7.2 11 .1 15.2l65.4 37.7c7.3 4.2 19.1 4.2 26.3 0"/></g><path class="st2" d="M373.7 238.8c7.8 4.5 7.9 11.9.1 16.4l-65 37.8c-7.8 4.5-20.5 4.5-28.3 0l-65.4-37.7c-7.8-4.5-7.9-11.9-.1-16.4l64.9-37.7c7.8-4.5 20.5-4.5 28.3 0l65.5 37.6zm-65.9 53.6l64.9-37.7c7.2-4.2 7.2-11-.1-15.2l-65.4-37.7c-7.3-4.2-19.1-4.2-26.3 0L216 239.5c-7.2 4.2-7.2 11 .1 15.2l65.4 37.7c7.3 4.2 19.1 4.2 26.3 0"/></g></g><g class="st5"><linearGradient id="SVGID_4_" gradientUnits="userSpaceOnUse" x1="-10356.809" y1="378.932" x2="-10188.708" y2="378.932" gradientTransform="rotate(180 -5039.304 270)"><stop offset="0" stop-color="#488eff"/><stop offset="1" stop-color="#7bb1ff"/></linearGradient><path d="M115.6 168.2c-3 1.8-5.5 6-5.5 9.5l.2 63.6c0 3.5 2.5 4.9 5.5 3.2l156.9-90.6c3-1.8 5.5-6 5.5-9.5l-.2-63.6c0-3.5-2.5-4.9-5.5-3.1l-156.9 90.5z" fill="url(#SVGID_4_)"/></g><g class="st7"><linearGradient id="SVGID_5_" gradientUnits="userSpaceOnUse" x1="-10349.809" y1="382.332" x2="-10181.708" y2="382.332" gradientTransform="rotate(180 -5039.304 270)"><stop offset="0" stop-color="#488eff"/><stop offset="1" stop-color="#7bb1ff"/></linearGradient><path d="M108.6 164.8c-3 1.8-5.5 6-5.5 9.5l.2 63.6c0 3.5 2.5 4.9 5.5 3.2l156.9-90.6c3-1.8 5.5-6 5.5-9.5l-.2-63.6c0-3.5-2.5-4.9-5.5-3.1l-156.9 90.5z" fill="url(#SVGID_5_)"/></g><path class="st9" d="M122.6 171.6c-3 1.8-5.5 6-5.5 9.5l.2 63.6c0 3.5 2.5 4.9 5.5 3.2l156.9-90.6c3-1.8 5.5-6 5.5-9.5l-.2-63.6c0-3.5-2.5-4.9-5.5-3.1l-156.9 90.5z"/><path class="st10" d="M267.6 97.3v1.1l6.7-3.9v-1zm.1 9.9v1l6.6-3.8v-1zm-3.4-4.5v1l4.6-2.6V100zm0-3.5v1.1l1.3-.8v-1zm-17.5 13.6v1l7.5-4.3v-1zm2.5-4.9v1l10.5-6v-1.1zm-4 2.3v1l2.1-1.2v-1zm-5.2 3v1l1.3-.7v-1zm-4.1 2.4v1l2.4-1.4v-1zm-15.2 8.8v1l9.6-5.6v-1zm-4.3 2.5v1l1.5-.9v-1zm44.7-22.4v1l1.5-.8v-1.1zm-18.1 10.4v1l1.4-.7v-1.1zm21.2-2.3v1l4.6-2.7v-1zm0-3.5v1.1l1.3-.8v-1zm-17.5 13.6v1l7.5-4.3v-1.1zm2.5-4.9v1l10.6-6.1v-1zm-3.9 2.3v1l2-1.2v-1zm-5.3 3v1l1.3-.7v-1zm-4.1 2.4v1l2.4-1.4v-1zm-15.2 8.7v1.1l9.6-5.6v-1zm-4.3 2.5v1.1l1.6-.9v-1.1zm44.7-22.3v1l1.5-.9v-1zm-18.1 10.4v1l1.4-.8v-1zm-26.5 40.3v1l6.6-3.9v-1zm8.7-5.1v1.1l1.3-.8v-1zm5.7-3.3l.1 1 10.5-6v-1.1zm12.5-7.2v1.1l2.1-1.2v-1.1zm6-3.4v1l1.3-.7v-1.1zm3-1.8v1.1l2.4-1.4v-1zm8-4.6v1.1l9.6-5.6v-1zm12.3-7.1v1l1.6-.9v-1zM222 158.5v1.1l4.6-2.7v-1zm6.2-3.6v1l1.5-.8V154zm8.4-4.8v1l7.5-4.3v-1.1zm9.8-5.7v1.1l1.4-.8v-1.1zm-29.8 36.5v1l6.7-3.8V177zm8.8-5.1v1.1l1.2-.8v-1zm5.7-3.3v1.1l10.5-6.1v-1.1zm12.4-7.2v1.1l2.1-1.2v-1zm6.1-3.4v1l1.2-.7v-1.1zm2.9-1.7v1l2.4-1.4v-1zm8-4.7v1.1l9.6-5.6v-1zm12.4-7.1v1l1.5-.9v-1zM222 174.3v1.1l4.6-2.7v-1zm6.3-3.6v1.1l1.5-.9v-1zm8.3-4.8v1l7.6-4.3-.1-1zm9.8-5.7v1.1l1.4-.8v-1.1zm-90.1 5.9v1l7.5-4.3v-1zm-1.4-2.6v1l2-1.2v-1zm-5.3 3v1l1.3-.7v-1zm-4.1 2.4v1l2.4-1.4v-1zm-15.2 8.8v1l9.6-5.6v-1zm-4.3 2.4v1.1l1.6-.9v-1.1zm26.6-11.9v1l1.4-.8v-1zm-19.5 63.7v1l2-1.2v-1zm6-3.5v1.1l1.2-.8v-1zm3-1.7v1l2.4-1.4v-1zm7.9-4.6v1l9.7-5.5v-1.1zm12.4-7.1v1l1.6-.9v-1zm-36.2 17.5v1l7.5-4.4v-1zm9.8-5.7v1l1.3-.8v-1z"/><g class="st5"><linearGradient id="SVGID_6_" gradientUnits="userSpaceOnUse" x1="-10356.809" y1="281.632" x2="-10188.708" y2="281.632" gradientTransform="rotate(180 -5039.304 270)"><stop offset="0" stop-color="#488eff"/><stop offset="1" stop-color="#7bb1ff"/></linearGradient><path d="M115.6 265.5c-3 1.8-5.5 6-5.5 9.5l.2 63.6c0 3.5 2.5 4.9 5.5 3.2l156.9-90.6c3-1.8 5.5-6 5.5-9.5l-.2-63.6c0-3.5-2.5-4.9-5.5-3.1l-156.9 90.5z" fill="url(#SVGID_6_)"/></g><g class="st7"><linearGradient id="SVGID_7_" gradientUnits="userSpaceOnUse" x1="-10349.809" y1="284.932" x2="-10181.708" y2="284.932" gradientTransform="rotate(180 -5039.304 270)"><stop offset="0" stop-color="#488eff"/><stop offset="1" stop-color="#7bb1ff"/></linearGradient><path d="M108.6 262.2c-3 1.8-5.5 6-5.5 9.5l.2 63.6c0 3.5 2.5 4.9 5.5 3.2l156.9-90.6c3-1.8 5.5-6 5.5-9.5l-.2-63.6c0-3.5-2.5-4.9-5.5-3.1l-156.9 90.5z" fill="url(#SVGID_7_)"/></g><path class="st9" d="M122.6 268.9c-3 1.8-5.5 6-5.5 9.5l.2 63.6c0 3.5 2.5 4.9 5.5 3.2l156.9-90.6c3-1.8 5.5-6 5.5-9.5l-.2-63.6c0-3.5-2.5-4.9-5.5-3.1l-156.9 90.5z"/><path class="st10" d="M267.6 194.7v1l6.7-3.8v-1.1zm.1 9.9v1l6.6-3.8v-1.1zm-3.4-4.6v1.1l4.6-2.7v-1zm0-3.4v1l1.3-.7v-1zm-17.5 13.6v1l7.5-4.3v-1.1zm2.5-4.9v1l10.5-6.1v-1zm-4 2.3v1l2.1-1.2v-1zm-5.2 3v1l1.3-.7v-1.1zM236 213v1l2.4-1.4v-1zm-15.2 8.7v1l9.6-5.5v-1zm-4.3 2.5v1l1.5-.9v-1zm44.7-22.4v1.1l1.5-.9v-1zm-18.1 10.5v1l1.4-.8v-1zm21.2-2.4v1l4.6-2.6v-1zm0-3.4v1l1.3-.7v-1zM246.8 220v1.1l7.5-4.4v-1zm2.5-4.8v1l10.6-6.1v-1zm-3.9 2.2v1.1l2-1.2v-1.1zm-5.3 3v1.1l1.3-.7v-1.1zm-4.1 2.4v1.1l2.4-1.4v-1.1zm-15.2 8.8v1l9.6-5.5V226zm-4.3 2.5v1l1.6-.9v-1zm44.7-22.4v1.1l1.5-.9v-1zm-18.1 10.5v1l1.4-.8v-1zm-26.5 40.2v1l6.6-3.8v-1zm8.7-5v1l1.3-.7v-1zm5.7-3.3l.1 1 10.5-6.1v-1zm12.5-7.2v1l2.1-1.2v-1zm6-3.5v1l1.3-.7v-1zm3-1.7v1l2.4-1.4v-1zm8-4.6v1l9.6-5.5v-1.1zm12.3-7.2v1.1l1.6-.9v-1zm-50.8 26v1l4.6-2.6v-1.1zm6.2-3.6v1l1.5-.9v-1zm8.4-4.9v1.1l7.5-4.4v-1zm9.8-5.6v1l1.4-.8v-1zm-29.8 36.4v1l6.7-3.8v-1zm8.8-5v1l1.2-.7v-1zm5.7-3.3v1l10.5-6.1v-1zm12.4-7.2v1l2.1-1.2v-1zm6.1-3.5v1l1.2-.7v-1zm2.9-1.7v1l2.4-1.4v-1zm8-4.6v1l9.6-5.5v-1.1zm12.4-7.1v1l1.5-.9v-1zM222 271.7v1l4.6-2.6V269zm6.3-3.6v1l1.5-.9v-1zm8.3-4.8v1l7.6-4.4-.1-1zm9.8-5.7v1l1.4-.8v-1zm-90.1 5.9v1l7.5-4.4v-1zm-1.4-2.7v1.1l2-1.2v-1zm-5.3 3.1v1l1.3-.7v-1.1zm-4.1 2.3v1.1l2.4-1.4v-1zm-15.2 8.8v1l9.6-5.5v-1zm-4.3 2.5v1l1.6-.9v-1zm26.6-11.9v1l1.4-.8v-1zm-19.5 63.7v1l2-1.2v-1zm6-3.5v1l1.2-.7v-1zm3-1.7v1l2.4-1.4v-1zm7.9-4.6v1l9.7-5.6v-1zm12.4-7.2v1l1.6-.9v-1zm-36.2 17.5v1l7.5-4.3v-1zm9.8-5.7v1.1l1.3-.8v-1z"/><g class="st3"><path class="st2" d="M435.9 172.1l-118.4-68.8 2.9-1.7 118.4 68.8z"/><path d="M435.9 172.1l-118.4-68.8.3 113.8c.1 21-14.7 46.6-33 57.2l-160 92.4 118.4 68.8 160-92.4c18.3-10.5 33.1-36.2 33-57.2l-.3-113.8z" fill="#2929a5"/><linearGradient id="SVGID_8_" gradientUnits="userSpaceOnUse" x1="124.8" y1="137.35" x2="243.3" y2="137.35" gradientTransform="matrix(1 0 0 -1 0 540)"><stop offset="0" stop-color="#29486d"/><stop offset="1" stop-color="#3b73c4"/></linearGradient><path fill="url(#SVGID_8_)" d="M243.3 438.7l-118.4-68.8-.1-3.3 118.5 68.8z"/><linearGradient id="SVGID_9_" gradientUnits="userSpaceOnUse" x1="243.2" y1="235.45" x2="439.1" y2="235.45" gradientTransform="matrix(1 0 0 -1 0 540)"><stop offset="0" stop-color="#3b73c4"/><stop offset="1" stop-color="#488eff"/></linearGradient><path d="M438.8 170.4l.3 113.8c.1 22.8-16 50.7-35.9 62.1l-160 92.4v-3.3l160-92.4c18.3-10.5 33.1-36.2 33-57.2l-.3-113.8 2.9-1.6z" fill="url(#SVGID_9_)"/></g><g class="st3"><linearGradient id="SVGID_10_" gradientUnits="userSpaceOnUse" x1="-5352.79" y1="325.17" x2="-5314.654" y2="447.465" gradientTransform="rotate(180 -2495.465 270)"><stop offset=".02" stop-color="#362f7b"/><stop offset=".542" stop-color="#689dee"/><stop offset="1" stop-color="#8091f4"/></linearGradient><path d="M325.3 62l-27.9 16.2c2.8-1.6 6.5-1.9 10.6-.5l27.9-16.2c-4.2-1.4-7.8-1.1-10.6.5z" fill="url(#SVGID_10_)"/><linearGradient id="SVGID_11_" gradientUnits="userSpaceOnUse" x1="-5400.784" y1="340.137" x2="-5362.649" y2="462.431" gradientTransform="rotate(180 -2495.465 270)"><stop offset=".02" stop-color="#362f7b"/><stop offset=".542" stop-color="#689dee"/><stop offset="1" stop-color="#8091f4"/></linearGradient><path d="M349.9 13.1L322 29.4c9.6-5.6 22.9-4.8 37.6 3.7l27.9-16.2c-14.7-8.6-28-9.4-37.6-3.8z" fill="url(#SVGID_11_)"/><linearGradient id="SVGID_12_" gradientUnits="userSpaceOnUse" x1="-5446.389" y1="354.358" x2="-5408.254" y2="476.652" gradientTransform="rotate(180 -2495.465 270)"><stop offset=".02" stop-color="#362f7b"/><stop offset=".542" stop-color="#689dee"/><stop offset="1" stop-color="#8091f4"/></linearGradient><path d="M430.4 185.3l27.9-16.2c5.4-3.1 8.7-9.7 8.7-19.1.1-18-12-39.7-27.3-50l-27.9 16.2c15.3 10.3 27.3 32 27.3 50-.1 9.4-3.4 16-8.7 19.1z" fill="url(#SVGID_12_)"/><linearGradient id="SVGID_13_" gradientUnits="userSpaceOnUse" x1="-5430.277" y1="349.334" x2="-5392.143" y2="471.628" gradientTransform="rotate(180 -2495.465 270)"><stop offset=".02" stop-color="#362f7b"/><stop offset=".542" stop-color="#689dee"/><stop offset="1" stop-color="#8091f4"/></linearGradient><path d="M411.8 116.2l27.9-16.2c-3.2-31.8-25.4-67.7-52.2-83.2L359.6 33c26.8 15.6 49 51.4 52.2 83.2z" fill="url(#SVGID_13_)"/><linearGradient id="SVGID_14_" gradientUnits="userSpaceOnUse" x1="-5483.609" y1="382.186" x2="-5352.11" y2="442.675" gradientTransform="rotate(180 -2495.465 270)"><stop offset="0" stop-color="#4b5bb4"/><stop offset="1" stop-color="#689dee"/></linearGradient><path d="M359.6 33c-29.2-16.8-52.9-3.3-53 30.2 0 4.7.4 9.6 1.3 14.5-9.4-3.2-16.6 2.2-16.6 13.7 0 13.1 9.2 29.1 20.6 35.6l97.2 56.1c16.5 9.5 29.9 1.9 29.9-17.1.1-18-12-39.7-27.3-50-3.1-31.6-25.3-67.4-52.1-83z" fill="url(#SVGID_14_)"/><path class="st2" d="M422.5 184.5c-3.6 0-7.8-1.3-12-3.7l-97.2-56.1c-10.4-6-19.2-21.2-19.2-33.2 0-7.4 3.2-11.8 8.6-11.8 1.3 0 2.7.3 4.2.8l4.5 1.6-.8-4.7c-.9-4.8-1.3-9.5-1.3-14 .1-21.4 10.2-34.6 26.5-34.6 6.8 0 14.5 2.4 22.3 6.9 25.8 14.9 47.7 49.7 50.8 81l.1 1.3 1.1.7c14.6 9.8 26.1 30.8 26 47.6.1 11.2-5.1 18.2-13.6 18.2zM302.7 83c-4.6 0-5.3 5.3-5.3 8.5 0 10.9 8 24.8 17.5 30.3l97.2 56.1c3.7 2.1 7.3 3.3 10.3 3.3 6.6 0 10.4-5.5 10.4-15 0-15.9-10.7-35.6-24.6-44.9l-2.4-1.6-.3-2.9c-3.1-30.3-24.2-64.1-49.2-78.5-7.3-4.2-14.4-6.4-20.6-6.4-14.2 0-23.1 12-23.2 31.3 0 4.3.4 8.8 1.2 13.4l1.8 10.3-9.9-3.4c-.8-.3-1.9-.5-2.9-.5z"/></g><path d="M244.3 404.2c-4.9 0-9.8-.3-14.6-.9-7.4-1-14.5-2.6-21-5-6.1-2.2-11.6-4.9-16.2-8.1-4.4-3-8-6.3-10.8-10-2.4-3.2-4.2-6.5-5.2-9.9-1.1-3.7-1.3-7.6-.7-11.3.7-4.6 2.9-9.3 6.2-13.5s7.5-7.9 13-11.2c0 0 .1-.1.2-.1.3-.2.5-.3.8-.5.4-.2.8-.5 1.2-.7l.1-.1c5.5-3.1 11.8-5.6 18.7-7.4 6.8-1.8 13.9-3 21.3-3.4 7.2-.4 14.5-.2 21.6.7 7.4 1 14.5 2.6 21 5 4.1 1.5 7.9 3.2 11.3 5.1h.1c1.7.9 3.3 1.9 4.8 3 4.4 3 8 6.4 10.7 10 2.4 3.2 4.2 6.5 5.2 9.9 1.1 3.7 1.3 7.6.7 11.3-.7 4.6-2.9 9.3-6.2 13.5-3.4 4.3-8 8.3-13.8 11.7l-.1.1-.2.1c-5.8 3.4-12.6 6.2-20 8.1-6.8 1.8-13.9 3-21.3 3.4-2.2.1-4.5.2-6.8.2zm-47.6-67.1c-5.1 3.2-9.1 6.5-12.1 10.4-3 3.8-4.9 8-5.5 12-.5 3.2-.3 6.6.6 9.8.9 3 2.4 6 4.6 8.9 2.5 3.3 5.9 6.4 10 9.2 4.4 3 9.6 5.6 15.5 7.7 6.3 2.3 13.1 3.9 20.3 4.8 6.9.9 14 1.1 20.9.7 7.2-.4 14.1-1.5 20.7-3.3 7.1-1.9 13.6-4.5 19.2-7.8h.1c5.5-3.2 9.8-6.9 13-10.9 3-3.8 4.9-8 5.5-12 .5-3.2.3-6.6-.6-9.8-.9-3-2.4-6-4.6-8.8-2.5-3.3-5.9-6.4-10-9.2-1.4-1-3-1.9-4.6-2.8l-.1-.1c-3.3-1.8-6.9-3.4-10.8-4.8-6.3-2.3-13.1-3.9-20.3-4.8-6.9-.9-13.9-1.1-20.9-.7-7.2.4-14.1 1.5-20.7 3.3-6.6 1.8-12.7 4.2-18 7.1l-.1.1c-.4.2-.8.4-1.1.6s-.5.3-.8.5l-.2-.1z" fill="#78e2ff"/><path d="M296.9 357.7c.8 2.7 1 5.6.5 8.4-.6 3.7-2.3 7.2-4.7 10.1-2.9 3.7-6.7 6.7-10.7 9-4.9 2.9-10.2 4.9-15.6 6.4s-11 2.3-16.7 2.7c-5.6.3-11.3.2-16.9-.6-5.6-.7-11.1-2-16.4-3.9-4.4-1.6-8.7-3.6-12.6-6.3-3.1-2.1-6-4.6-8.2-7.6-1.7-2.2-3.1-4.8-3.9-7.5-.8-2.7-1-5.6-.5-8.4.6-3.7 2.3-7.2 4.7-10.1 2.7-3.5 6.2-6.3 10-8.6h.1c.2-.1.5-.3.7-.4.3-.2.6-.4.9-.5 0 0 .1 0 .1-.1 4.6-2.6 9.5-4.4 14.6-5.8 5.4-1.5 11-2.3 16.7-2.7 5.6-.3 11.3-.2 16.9.6 5.6.7 11.1 2 16.4 3.9 3 1.1 6 2.4 8.8 4 1.3.7 2.5 1.5 3.8 2.3 3.1 2.1 6 4.6 8.2 7.6 1.6 2.2 3 4.8 3.8 7.5z" opacity=".22" fill="#132c63"/><linearGradient id="SVGID_15_" gradientUnits="userSpaceOnUse" x1="210.839" y1="193.771" x2="296.922" y2="194.424" gradientTransform="matrix(1 0 0 -1 0 540)"><stop offset="0" stop-color="#596687"/><stop offset=".342" stop-color="#7986a7"/><stop offset=".535" stop-color="#8693b4"/><stop offset="1" stop-color="#b7c4e5"/></linearGradient><path d="M296.8 321.4c.6-1.9.9-3.8.9-5.8v29.6c0 2.1-.4 4.3-1.1 6.3-1.1 3.1-2.9 5.9-5 8.3-2.7 3.1-6 5.6-9.5 7.6-.9.5-1.8 1-2.8 1.5-3.1 1.6-6.3 2.8-9.5 3.9-5.7 1.8-11.6 2.9-17.5 3.4-6 .5-12 .5-17.9-.2s-11.8-1.9-17.4-3.9c-2.5-.9-5-1.9-7.4-3.1-.4-.2-.7-.4-1-.5s-.5-.3-.7-.4c-1-.5-1.9-1.1-2.9-1.7-3.1-2-6.1-4.5-8.4-7.3-1.9-2.3-3.5-4.9-4.4-7.7-.6-1.9-1-4-1-6v-29.6c0 1 .1 2 .2 3 .5 2.8 1.6 5.6 3.2 8 2.1 3.2 4.9 6 7.9 8.3 3.9 2.9 8.2 5.1 12.7 6.9 5.4 2.1 11 3.5 16.7 4.3s11.5 1.1 17.3.8c5.8-.3 11.5-1.1 17.1-2.6s11-3.6 16-6.5c3.6-2.1 6.9-4.7 9.7-7.8 2-2.7 3.8-5.6 4.8-8.8z" fill="url(#SVGID_15_)"/><linearGradient id="SVGID_16_" gradientUnits="userSpaceOnUse" x1="237.679" y1="215.41" x2="287.61" y2="311.179" gradientTransform="matrix(1 0 0 -1 0 540)"><stop offset="0" stop-color="#f4f7ff"/><stop offset="1" stop-color="#b0b3c2"/></linearGradient><path d="M292.3 306.8c.7 2.5.9 5.1.5 7.6-.5 3.4-2.1 6.5-4.2 9.2-2.6 3.4-6.1 6.1-9.8 8.2-4.4 2.6-9.3 4.5-14.2 5.8-5 1.3-10.1 2.1-15.2 2.4-5.1.3-10.3.1-15.4-.5-5.1-.7-10.1-1.8-15-3.5-4-1.5-7.9-3.3-11.5-5.7-2.8-1.9-5.4-4.2-7.5-6.9-1.6-2-2.8-4.3-3.5-6.8s-.9-5.1-.5-7.6c.5-3.4 2.1-6.5 4.2-9.2 2.5-3.2 5.7-5.7 9.1-7.8h.1c.2-.1.4-.3.6-.4.3-.2.6-.3.8-.5 0 0 .1 0 .1-.1 4.2-2.3 8.7-4 13.3-5.2 5-1.3 10.1-2.1 15.2-2.4 5.1-.3 10.3-.1 15.4.5 5.1.7 10.1 1.8 15 3.5 2.8 1 5.5 2.2 8 3.6 1.2.7 2.3 1.4 3.4 2.1 2.8 1.9 5.4 4.2 7.5 6.9 1.6 2.1 2.8 4.4 3.6 6.8z" fill="url(#SVGID_16_)"/><defs><path id="SVGID_17_" d="M1 1h1L1 2z"/></defs><defs><path id="SVGID_18_" d="M-1-1h-1l1-1z"/></defs><clipPath id="SVGID_19_"><use xlink:href="#SVGID_17_" overflow="visible"/></clipPath><clipPath id="SVGID_20_" clip-path="url(#SVGID_19_)"><use xlink:href="#SVGID_18_" overflow="visible"/></clipPath><linearGradient id="SVGID_21_" gradientUnits="userSpaceOnUse" x1="199.638" y1="240.457" x2="321.87" y2="196.41" gradientTransform="matrix(1 0 0 -1 0 540)"><stop offset="0" stop-color="#fafafa"/><stop offset="1" stop-color="#fff"/></linearGradient><path d="M281.2 293.1c-1.1-.8-2.2-1.5-3.4-2.1 1 .5 1.9 1.1 2.8 1.6.1.1.3.1.4.2 3.1 1.7 6 3.7 8.6 6.1 2.4 2.3 4.6 4.9 6 7.9 1.1 2.2 1.8 4.7 2.1 7.2 0 .5.1 1.1.1 1.6 0 2-.3 3.9-.9 5.8-1 3.2-2.8 6-5 8.6-2.7 3.1-6.1 5.7-9.7 7.8-5 2.9-10.4 5-16 6.5s-11.3 2.3-17.1 2.6c-5.8.3-11.6 0-17.3-.8s-11.3-2.2-16.7-4.3c-4.5-1.7-8.8-4-12.7-6.9-3.1-2.3-5.9-5-7.9-8.3-1.5-2.4-2.7-5.1-3.2-8-.2-1-.2-2-.2-3 0-1.9.3-3.8.8-5.6 1.1-3.7 3.3-7 5.9-9.8 2.9-3 6.3-5.5 9.9-7.5.1-.1.2-.1.3-.2.4-.3.9-.5 1.4-.7-3.4 2.1-6.6 4.6-9.1 7.8-2.1 2.7-3.7 5.9-4.2 9.2-.4 2.5-.2 5.2.5 7.6.7 2.5 2 4.8 3.5 6.8 2.1 2.7 4.7 5 7.5 6.9 3.5 2.4 7.4 4.3 11.5 5.7 4.8 1.7 9.9 2.9 15 3.5 5.1.7 10.2.8 15.4.5 5.1-.3 10.2-1.1 15.2-2.4 4.9-1.3 9.8-3.2 14.2-5.8 3.7-2.2 7.1-4.8 9.8-8.2 2.1-2.7 3.7-5.9 4.2-9.2.4-2.5.2-5.2-.5-7.6-.7-2.5-2-4.8-3.5-6.8-2.3-2.5-4.8-4.8-7.7-6.7z" clip-path="url(#SVGID_20_)" fill="url(#SVGID_21_)"/><linearGradient id="SVGID_22_" gradientUnits="userSpaceOnUse" x1="199.638" y1="240.457" x2="321.87" y2="196.41" gradientTransform="matrix(1 0 0 -1 0 540)"><stop offset="0" stop-color="#c1c4d3"/><stop offset="1" stop-color="#9093a2"/></linearGradient><path d="M281.2 293.1c-1.1-.8-2.2-1.5-3.4-2.1 1 .5 1.9 1.1 2.8 1.6.1.1.3.1.4.2 3.1 1.7 6 3.7 8.6 6.1 2.4 2.3 4.6 4.9 6 7.9 1.1 2.2 1.8 4.7 2.1 7.2 0 .5.1 1.1.1 1.6 0 2-.3 3.9-.9 5.8-1 3.2-2.8 6-5 8.6-2.7 3.1-6.1 5.7-9.7 7.8-5 2.9-10.4 5-16 6.5s-11.3 2.3-17.1 2.6c-5.8.3-11.6 0-17.3-.8s-11.3-2.2-16.7-4.3c-4.5-1.7-8.8-4-12.7-6.9-3.1-2.3-5.9-5-7.9-8.3-1.5-2.4-2.7-5.1-3.2-8-.2-1-.2-2-.2-3 0-1.9.3-3.8.8-5.6 1.1-3.7 3.3-7 5.9-9.8 2.9-3 6.3-5.5 9.9-7.5.1-.1.2-.1.3-.2.4-.3.9-.5 1.4-.7-3.4 2.1-6.6 4.6-9.1 7.8-2.1 2.7-3.7 5.9-4.2 9.2-.4 2.5-.2 5.2.5 7.6.7 2.5 2 4.8 3.5 6.8 2.1 2.7 4.7 5 7.5 6.9 3.5 2.4 7.4 4.3 11.5 5.7 4.8 1.7 9.9 2.9 15 3.5 5.1.7 10.2.8 15.4.5 5.1-.3 10.2-1.1 15.2-2.4 4.9-1.3 9.8-3.2 14.2-5.8 3.7-2.2 7.1-4.8 9.8-8.2 2.1-2.7 3.7-5.9 4.2-9.2.4-2.5.2-5.2-.5-7.6-.7-2.5-2-4.8-3.5-6.8-2.3-2.5-4.8-4.8-7.7-6.7z" fill="url(#SVGID_22_)"/><linearGradient id="SVGID_23_" gradientUnits="userSpaceOnUse" x1="237.36" y1="177.612" x2="299.499" y2="119.249" gradientTransform="matrix(1 0 0 -1 0 540)"><stop offset="0" stop-color="#596687"/><stop offset=".342" stop-color="#7986a7"/><stop offset=".535" stop-color="#8693b4"/><stop offset="1" stop-color="#b7c4e5"/></linearGradient><path d="M234.4 376.1c5.9.7 12 .7 17.9.2 6-.5 11.8-1.6 17.5-3.4 3.3-1 6.5-2.3 9.5-3.9l-.6.4c-5.2 3-10.9 5.1-16.8 6.4s-11.9 2-17.9 1.9c-6 0-12-.7-17.9-2.1-5.8-1.4-11.5-3.5-16.6-6.6 2.4 1.2 4.9 2.3 7.4 3.1 5.6 2 11.5 3.3 17.5 4z" fill="url(#SVGID_23_)"/><linearGradient id="SVGID_24_" gradientUnits="userSpaceOnUse" x1="210.792" y1="214.121" x2="296.772" y2="214.774" gradientTransform="matrix(1 0 0 -1 0 540)"><stop offset="0" stop-color="#192342"/><stop offset=".468" stop-color="#303a59"/><stop offset=".996" stop-color="#475170"/></linearGradient><path d="M296.7 309.5c.6-1.9.9-3.8.9-5.8v12.7c0 2.1-.4 4.3-1.1 6.3-1.1 3.1-2.9 5.9-5 8.3-2.7 3.1-6 5.6-9.5 7.6-.9.5-1.8 1-2.8 1.5-3.1 1.6-6.3 2.8-9.5 3.9-5.7 1.8-11.6 2.9-17.5 3.4-6 .5-12 .5-17.9-.2s-11.8-1.9-17.4-3.9c-2.5-.9-5-1.9-7.4-3.1-.4-.2-.7-.4-1-.5s-.5-.3-.7-.4c-1-.5-1.9-1.1-2.9-1.7-3.1-2-6.1-4.5-8.4-7.3-1.9-2.3-3.5-4.9-4.4-7.7-.6-1.9-1-4-1-6v-12.7c0 1 .1 2 .2 3 .5 2.8 1.6 5.6 3.2 8 2.1 3.2 4.9 6 7.9 8.3 3.9 2.9 8.2 5.1 12.7 6.9 5.4 2.1 11 3.5 16.7 4.3s11.5 1.1 17.3.8c5.8-.3 11.5-1.1 17.1-2.6s11-3.6 16-6.5c3.6-2.1 6.9-4.7 9.7-7.8 2-2.8 3.8-5.7 4.8-8.8z" fill="url(#SVGID_24_)"/><linearGradient id="SVGID_25_" gradientUnits="userSpaceOnUse" x1="237.601" y1="227.35" x2="287.531" y2="323.119" gradientTransform="matrix(1 0 0 -1 0 540)"><stop offset="0" stop-color="#6b6b78"/><stop offset="1" stop-color="#51515e"/></linearGradient><path d="M292.2 294.9c.7 2.5.9 5.1.5 7.6-.5 3.4-2.1 6.5-4.2 9.2-2.6 3.4-6.1 6.1-9.8 8.2-4.4 2.6-9.3 4.5-14.2 5.8-5 1.3-10.1 2.1-15.2 2.4-5.1.3-10.3.1-15.4-.5-5.1-.7-10.1-1.8-15-3.5-4-1.5-7.9-3.3-11.5-5.7-2.8-1.9-5.4-4.2-7.5-6.9-1.6-2-2.8-4.3-3.5-6.8s-.9-5.1-.5-7.6c.5-3.4 2.1-6.5 4.2-9.2 2.5-3.2 5.7-5.7 9.1-7.8h.1c.2-.1.4-.3.6-.4.3-.2.6-.3.8-.5 0 0 .1 0 .1-.1 4.2-2.3 8.7-4 13.3-5.2 5-1.3 10.1-2.1 15.2-2.4 5.1-.3 10.3-.1 15.4.5 5.1.7 10.1 1.8 15 3.5 2.8 1 5.5 2.2 8 3.6 1.2.7 2.3 1.4 3.4 2.1 2.8 1.9 5.4 4.2 7.5 6.9 1.6 2 2.9 4.3 3.6 6.8z" fill="url(#SVGID_25_)"/><linearGradient id="SVGID_26_" gradientUnits="userSpaceOnUse" x1="165.411" y1="224.982" x2="263.226" y2="236.441" gradientTransform="matrix(1 0 0 -1 0 540)"><stop offset="0" stop-color="#192342"/><stop offset=".468" stop-color="#303a59"/><stop offset=".996" stop-color="#475170"/></linearGradient><path d="M281.1 281.2c-1.1-.8-2.2-1.5-3.4-2.1 1 .5 1.9 1.1 2.8 1.6.1.1.3.1.4.2 3.1 1.7 6 3.7 8.6 6.1 2.4 2.3 4.6 4.9 6 7.9 1.1 2.2 1.8 4.7 2.1 7.2 0 .5.1 1.1.1 1.6 0 2-.3 3.9-.9 5.8-1 3.2-2.8 6-5 8.6-2.7 3.1-6.1 5.7-9.7 7.8-5 2.9-10.4 5-16 6.5s-11.3 2.3-17.1 2.6c-5.8.3-11.6 0-17.3-.8s-11.3-2.2-16.7-4.3c-4.5-1.7-8.8-4-12.7-6.9-3.1-2.3-5.9-5-7.9-8.3-1.5-2.4-2.7-5.1-3.2-8-.2-1-.2-2-.2-3 0-1.9.3-3.8.8-5.6 1.1-3.7 3.3-7 5.9-9.8 2.9-3 6.3-5.5 9.9-7.5.1-.1.2-.1.3-.2.4-.3.9-.5 1.4-.7-3.4 2.1-6.6 4.6-9.1 7.8-2.1 2.7-3.7 5.9-4.2 9.2-.4 2.5-.2 5.2.5 7.6.7 2.5 2 4.8 3.5 6.8 2.1 2.7 4.7 5 7.5 6.9 3.5 2.4 7.4 4.3 11.5 5.7 4.8 1.7 9.9 2.9 15 3.5 5.1.7 10.2.8 15.4.5 5.1-.3 10.2-1.1 15.2-2.4 4.9-1.3 9.8-3.2 14.2-5.8 3.7-2.2 7.1-4.8 9.8-8.2 2.1-2.7 3.7-5.9 4.2-9.2.4-2.5.2-5.2-.5-7.6-.7-2.5-2-4.8-3.5-6.8-2.2-2.5-4.8-4.8-7.7-6.7z" fill="url(#SVGID_26_)"/><linearGradient id="SVGID_27_" gradientUnits="userSpaceOnUse" x1="209.4" y1="195.545" x2="279.2" y2="195.545" gradientTransform="matrix(1 0 0 -1 0 540)"><stop offset="0" stop-color="#192342"/><stop offset=".468" stop-color="#303a59"/><stop offset=".996" stop-color="#475170"/></linearGradient><path d="M234.3 347.2c5.9.7 12 .7 17.9.2 6-.5 11.8-1.6 17.5-3.4 3.3-1 6.5-2.3 9.5-3.9l-.6.4c-5.2 3-10.9 5.1-16.8 6.4s-11.9 2-17.9 1.9c-6 0-12-.7-17.9-2.1-5.8-1.4-11.5-3.5-16.6-6.6 2.4 1.2 4.9 2.3 7.4 3.1 5.7 2.1 11.5 3.4 17.5 4z" fill="url(#SVGID_27_)"/><linearGradient id="SVGID_28_" gradientUnits="userSpaceOnUse" x1="210.129" y1="236.47" x2="296.212" y2="237.124" gradientTransform="matrix(1 0 0 -1 0 540)"><stop offset="0" stop-color="#596687"/><stop offset=".342" stop-color="#7986a7"/><stop offset=".535" stop-color="#8693b4"/><stop offset="1" stop-color="#b7c4e5"/></linearGradient><path d="M296.1 278.7c.6-1.9.9-3.8.9-5.8v29.6c0 2.1-.4 4.3-1.1 6.3-1.1 3.1-2.9 5.9-5 8.3-2.7 3.1-6 5.6-9.5 7.6-.9.5-1.8 1-2.8 1.5-3.1 1.6-6.3 2.8-9.5 3.9-5.7 1.8-11.6 2.9-17.5 3.4-6 .5-12 .5-17.9-.2s-11.8-1.9-17.4-3.9c-2.5-.9-5-1.9-7.4-3.1-.4-.2-.7-.4-1-.5s-.5-.3-.7-.4c-1-.5-1.9-1.1-2.9-1.7-3.1-2-6.1-4.5-8.4-7.3-1.9-2.3-3.5-4.9-4.4-7.7-.6-1.9-1-4-1-6v-29.6c0 1 .1 2 .2 3 .5 2.8 1.6 5.6 3.2 8 2.1 3.2 4.9 6 7.9 8.3 3.9 2.9 8.2 5.1 12.7 6.9 5.4 2.1 11 3.5 16.7 4.3s11.5 1.1 17.3.8c5.8-.3 11.5-1.1 17.1-2.6s11-3.6 16-6.5c3.6-2.1 6.9-4.7 9.7-7.8 2-2.7 3.8-5.6 4.8-8.8z" fill="url(#SVGID_28_)"/><linearGradient id="SVGID_29_" gradientUnits="userSpaceOnUse" x1="237.004" y1="258.056" x2="286.935" y2="353.825" gradientTransform="matrix(1 0 0 -1 0 540)"><stop offset="0" stop-color="#f4f7ff"/><stop offset="1" stop-color="#b0b3c2"/></linearGradient><path d="M291.6 264.2c.7 2.5.9 5.1.5 7.6-.5 3.4-2.1 6.5-4.2 9.2-2.6 3.4-6.1 6.1-9.8 8.2-4.4 2.6-9.3 4.5-14.2 5.8-5 1.3-10.1 2.1-15.2 2.4-5.1.3-10.3.1-15.4-.5-5.1-.7-10.1-1.8-15-3.5-4-1.5-7.9-3.3-11.5-5.7-2.8-1.9-5.4-4.2-7.5-6.9-1.6-2-2.8-4.3-3.5-6.8s-.9-5.1-.5-7.6c.5-3.4 2.1-6.5 4.2-9.2 2.5-3.2 5.7-5.7 9.1-7.8h.1c.2-.1.4-.3.6-.4.3-.2.6-.3.8-.5 0 0 .1 0 .1-.1 4.2-2.3 8.7-4 13.3-5.2 5-1.3 10.1-2.1 15.2-2.4 5.1-.3 10.3-.1 15.4.5 5.1.7 10.1 1.8 15 3.5 2.8 1 5.5 2.2 8 3.6 1.2.7 2.3 1.4 3.4 2.1 2.8 1.9 5.4 4.2 7.5 6.9 1.6 2 2.8 4.3 3.6 6.8z" fill="url(#SVGID_29_)"/><defs><path id="SVGID_30_" d="M1 1h1L1 2z"/></defs><defs><path id="SVGID_31_" d="M-1-1h-1l1-1z"/></defs><clipPath id="SVGID_32_"><use xlink:href="#SVGID_30_" overflow="visible"/></clipPath><clipPath id="SVGID_33_" clip-path="url(#SVGID_32_)"><use xlink:href="#SVGID_31_" overflow="visible"/></clipPath><linearGradient id="SVGID_34_" gradientUnits="userSpaceOnUse" x1="198.941" y1="283.156" x2="321.173" y2="239.109" gradientTransform="matrix(1 0 0 -1 0 540)"><stop offset="0" stop-color="#fafafa"/><stop offset="1" stop-color="#fff"/></linearGradient><path d="M280.5 250.4c-1.1-.8-2.2-1.5-3.4-2.1 1 .5 1.9 1.1 2.8 1.6.1.1.3.1.4.2 3.1 1.7 6 3.7 8.6 6.1 2.4 2.3 4.6 4.9 6 7.9 1.1 2.2 1.8 4.7 2.1 7.2 0 .5.1 1.1.1 1.6 0 2-.3 3.9-.9 5.8-1 3.2-2.8 6-5 8.6-2.7 3.1-6.1 5.7-9.7 7.8-5 2.9-10.4 5-16 6.5s-11.3 2.3-17.1 2.6c-5.8.3-11.6 0-17.3-.8s-11.3-2.2-16.7-4.3c-4.5-1.7-8.8-4-12.7-6.9-3.1-2.3-5.9-5-7.9-8.3-1.5-2.4-2.7-5.1-3.2-8-.2-1-.2-2-.2-3 0-1.9.3-3.8.8-5.6 1.1-3.7 3.3-7 5.9-9.8 2.9-3 6.3-5.5 9.9-7.5.1-.1.2-.1.3-.2.4-.3.9-.5 1.4-.7-3.4 2.1-6.6 4.6-9.1 7.8-2.1 2.7-3.7 5.9-4.2 9.2-.4 2.5-.2 5.2.5 7.6.7 2.5 2 4.8 3.5 6.8 2.1 2.7 4.7 5 7.5 6.9 3.5 2.4 7.4 4.3 11.5 5.7 4.8 1.7 9.9 2.9 15 3.5 5.1.7 10.2.8 15.4.5 5.1-.3 10.2-1.1 15.2-2.4 4.9-1.3 9.8-3.2 14.2-5.8 3.7-2.2 7.1-4.8 9.8-8.2 2.1-2.7 3.7-5.9 4.2-9.2.4-2.5.2-5.2-.5-7.6-.7-2.5-2-4.8-3.5-6.8-2.3-2.4-4.9-4.7-7.7-6.7z" clip-path="url(#SVGID_33_)" fill="url(#SVGID_34_)"/><linearGradient id="SVGID_35_" gradientUnits="userSpaceOnUse" x1="198.941" y1="283.156" x2="321.173" y2="239.109" gradientTransform="matrix(1 0 0 -1 0 540)"><stop offset="0" stop-color="#c1c4d3"/><stop offset="1" stop-color="#9093a2"/></linearGradient><path d="M280.5 250.4c-1.1-.8-2.2-1.5-3.4-2.1 1 .5 1.9 1.1 2.8 1.6.1.1.3.1.4.2 3.1 1.7 6 3.7 8.6 6.1 2.4 2.3 4.6 4.9 6 7.9 1.1 2.2 1.8 4.7 2.1 7.2 0 .5.1 1.1.1 1.6 0 2-.3 3.9-.9 5.8-1 3.2-2.8 6-5 8.6-2.7 3.1-6.1 5.7-9.7 7.8-5 2.9-10.4 5-16 6.5s-11.3 2.3-17.1 2.6c-5.8.3-11.6 0-17.3-.8s-11.3-2.2-16.7-4.3c-4.5-1.7-8.8-4-12.7-6.9-3.1-2.3-5.9-5-7.9-8.3-1.5-2.4-2.7-5.1-3.2-8-.2-1-.2-2-.2-3 0-1.9.3-3.8.8-5.6 1.1-3.7 3.3-7 5.9-9.8 2.9-3 6.3-5.5 9.9-7.5.1-.1.2-.1.3-.2.4-.3.9-.5 1.4-.7-3.4 2.1-6.6 4.6-9.1 7.8-2.1 2.7-3.7 5.9-4.2 9.2-.4 2.5-.2 5.2.5 7.6.7 2.5 2 4.8 3.5 6.8 2.1 2.7 4.7 5 7.5 6.9 3.5 2.4 7.4 4.3 11.5 5.7 4.8 1.7 9.9 2.9 15 3.5 5.1.7 10.2.8 15.4.5 5.1-.3 10.2-1.1 15.2-2.4 4.9-1.3 9.8-3.2 14.2-5.8 3.7-2.2 7.1-4.8 9.8-8.2 2.1-2.7 3.7-5.9 4.2-9.2.4-2.5.2-5.2-.5-7.6-.7-2.5-2-4.8-3.5-6.8-2.3-2.4-4.9-4.7-7.7-6.7z" fill="url(#SVGID_35_)"/><linearGradient id="SVGID_36_" gradientUnits="userSpaceOnUse" x1="236.626" y1="220.25" x2="298.764" y2="161.887" gradientTransform="matrix(1 0 0 -1 0 540)"><stop offset="0" stop-color="#596687"/><stop offset=".342" stop-color="#7986a7"/><stop offset=".535" stop-color="#8693b4"/><stop offset="1" stop-color="#b7c4e5"/></linearGradient><path d="M233.6 333.4c5.9.7 12 .7 17.9.2 6-.5 11.8-1.6 17.5-3.4 3.3-1 6.5-2.3 9.5-3.9l-.6.4c-5.2 3-10.9 5.1-16.8 6.4s-11.9 2-17.9 1.9c-6 0-12-.7-17.9-2.1-5.8-1.4-11.5-3.5-16.6-6.6 2.4 1.2 4.9 2.3 7.4 3.1 5.7 2.1 11.6 3.3 17.5 4z" fill="url(#SVGID_36_)"/><linearGradient id="SVGID_37_" gradientUnits="userSpaceOnUse" x1="209.946" y1="254.521" x2="295.926" y2="255.174" gradientTransform="matrix(1 0 0 -1 0 540)"><stop offset="0" stop-color="#192342"/><stop offset=".468" stop-color="#303a59"/><stop offset=".996" stop-color="#475170"/></linearGradient><path d="M295.9 269.1c.6-1.9.9-3.8.9-5.8V276c0 2.1-.4 4.3-1.1 6.3-1.1 3.1-2.9 5.9-5 8.3-2.7 3.1-6 5.6-9.5 7.6-.9.5-1.8 1-2.8 1.5-3.1 1.6-6.3 2.8-9.5 3.9-5.7 1.8-11.6 2.9-17.5 3.4-6 .5-12 .5-17.9-.2s-11.8-1.9-17.4-3.9c-2.5-.9-5-1.9-7.4-3.1-.4-.2-.7-.4-1-.5s-.5-.3-.7-.4c-1-.5-1.9-1.1-2.9-1.7-3.1-2-6.1-4.5-8.4-7.3-1.9-2.3-3.5-4.9-4.4-7.7-.6-1.9-1-4-1-6v-12.7c0 1 .1 2 .2 3 .5 2.8 1.6 5.6 3.2 8 2.1 3.2 4.9 6 7.9 8.3 3.9 2.9 8.2 5.1 12.7 6.9 5.4 2.1 11 3.5 16.7 4.3s11.5 1.1 17.3.8c5.8-.3 11.5-1.1 17.1-2.6s11-3.6 16-6.5c3.6-2.1 6.9-4.7 9.7-7.8 2-2.7 3.8-5.6 4.8-8.8z" fill="url(#SVGID_37_)"/><linearGradient id="SVGID_38_" gradientUnits="userSpaceOnUse" x1="236.696" y1="267.741" x2="286.627" y2="363.511" gradientTransform="matrix(1 0 0 -1 0 540)"><stop offset="0" stop-color="#6b6b78"/><stop offset="1" stop-color="#51515e"/></linearGradient><path d="M291.3 254.5c.7 2.5.9 5.1.5 7.6-.5 3.4-2.1 6.5-4.2 9.2-2.6 3.4-6.1 6.1-9.8 8.2-4.4 2.6-9.3 4.5-14.2 5.8-5 1.3-10.1 2.1-15.2 2.4-5.1.3-10.3.1-15.4-.5-5.1-.7-10.1-1.8-15-3.5-4-1.5-7.9-3.3-11.5-5.7-2.8-1.9-5.4-4.2-7.5-6.9-1.6-2-2.8-4.3-3.5-6.8s-.9-5.1-.5-7.6c.5-3.4 2.1-6.5 4.2-9.2 2.5-3.2 5.7-5.7 9.1-7.8h.1c.2-.1.4-.3.6-.4.3-.2.6-.3.8-.5 0 0 .1 0 .1-.1 4.2-2.3 8.7-4 13.3-5.2 5-1.3 10.1-2.1 15.2-2.4 5.1-.3 10.3-.1 15.4.5 5.1.7 10.1 1.8 15 3.5 2.8 1 5.5 2.2 8 3.6 1.2.7 2.3 1.4 3.4 2.1 2.8 1.9 5.4 4.2 7.5 6.9 1.6 2.1 2.9 4.4 3.6 6.8z" fill="url(#SVGID_38_)"/><linearGradient id="SVGID_39_" gradientUnits="userSpaceOnUse" x1="164.562" y1="265.376" x2="262.377" y2="276.836" gradientTransform="matrix(1 0 0 -1 0 540)"><stop offset="0" stop-color="#192342"/><stop offset=".468" stop-color="#303a59"/><stop offset=".996" stop-color="#475170"/></linearGradient><path d="M280.3 240.8c-1.1-.8-2.2-1.5-3.4-2.1 1 .5 1.9 1.1 2.8 1.6.1.1.3.1.4.2 3.1 1.7 6 3.7 8.6 6.1 2.4 2.3 4.6 4.9 6 7.9 1.1 2.2 1.8 4.7 2.1 7.2 0 .5.1 1.1.1 1.6 0 2-.3 3.9-.9 5.8-1 3.2-2.8 6-5 8.6-2.7 3.1-6.1 5.7-9.7 7.8-5 2.9-10.4 5-16 6.5s-11.3 2.3-17.1 2.6c-5.8.3-11.6 0-17.3-.8s-11.3-2.2-16.7-4.3c-4.5-1.7-8.8-4-12.7-6.9-3.1-2.3-5.9-5-7.9-8.3-1.5-2.4-2.7-5.1-3.2-8-.2-1-.2-2-.2-3 0-1.9.3-3.8.8-5.6 1.1-3.7 3.3-7 5.9-9.8 2.9-3 6.3-5.5 9.9-7.5.1-.1.2-.1.3-.2.4-.3.9-.5 1.4-.7-3.4 2.1-6.6 4.6-9.1 7.8-2.1 2.7-3.7 5.9-4.2 9.2-.4 2.5-.2 5.2.5 7.6.7 2.5 2 4.8 3.5 6.8 2.1 2.7 4.7 5 7.5 6.9 3.5 2.4 7.4 4.3 11.5 5.7 4.8 1.7 9.9 2.9 15 3.5 5.1.7 10.2.8 15.4.5 5.1-.3 10.2-1.1 15.2-2.4 4.9-1.3 9.8-3.2 14.2-5.8 3.7-2.2 7.1-4.8 9.8-8.2 2.1-2.7 3.7-5.9 4.2-9.2.4-2.5.2-5.2-.5-7.6-.7-2.5-2-4.8-3.5-6.8-2.3-2.5-4.9-4.8-7.7-6.7z" fill="url(#SVGID_39_)"/><linearGradient id="SVGID_40_" gradientUnits="userSpaceOnUse" x1="208.58" y1="235.845" x2="278.38" y2="235.845" gradientTransform="matrix(1 0 0 -1 0 540)"><stop offset="0" stop-color="#192342"/><stop offset=".468" stop-color="#303a59"/><stop offset=".996" stop-color="#475170"/></linearGradient><path d="M233.4 306.9c5.9.7 12 .7 17.9.2 6-.5 11.8-1.6 17.5-3.4 3.3-1 6.5-2.3 9.5-3.9l-.6.4c-5.2 3-10.9 5.1-16.8 6.4s-11.9 2-17.9 1.9c-6 0-12-.7-17.9-2.1-5.8-1.4-11.5-3.5-16.6-6.6 2.4 1.2 4.9 2.3 7.4 3.1 5.7 2 11.6 3.3 17.5 4z" fill="url(#SVGID_40_)"/><linearGradient id="SVGID_41_" gradientUnits="userSpaceOnUse" x1="209.284" y1="276.77" x2="295.367" y2="277.424" gradientTransform="matrix(1 0 0 -1 0 540)"><stop offset="0" stop-color="#596687"/><stop offset=".342" stop-color="#7986a7"/><stop offset=".535" stop-color="#8693b4"/><stop offset="1" stop-color="#b7c4e5"/></linearGradient><path d="M295.3 238.4c.6-1.9.9-3.8.9-5.8v29.6c0 2.1-.4 4.3-1.1 6.3-1.1 3.1-2.9 5.9-5 8.3-2.7 3.1-6 5.6-9.5 7.6-.9.5-1.8 1-2.8 1.5-3.1 1.6-6.3 2.8-9.5 3.9-5.7 1.8-11.6 2.9-17.5 3.4-6 .5-12 .5-17.9-.2s-11.8-1.9-17.4-3.9c-2.5-.9-5-1.9-7.4-3.1-.4-.2-.7-.4-1-.5s-.5-.3-.7-.4c-1-.5-1.9-1.1-2.9-1.7-3.1-2-6.1-4.5-8.4-7.3-1.9-2.3-3.5-4.9-4.4-7.7-.6-1.9-1-4-1-6v-29.6c0 1 .1 2 .2 3 .5 2.8 1.6 5.6 3.2 8 2.1 3.2 4.9 6 7.9 8.3 3.9 2.9 8.2 5.1 12.7 6.9 5.4 2.1 11 3.5 16.7 4.3s11.5 1.1 17.3.8c5.8-.3 11.5-1.1 17.1-2.6s11-3.6 16-6.5c3.6-2.1 6.9-4.7 9.7-7.8 2-2.8 3.8-5.6 4.8-8.8z" fill="url(#SVGID_41_)"/><linearGradient id="SVGID_42_" gradientUnits="userSpaceOnUse" x1="236.099" y1="298.448" x2="286.03" y2="394.217" gradientTransform="matrix(1 0 0 -1 0 540)"><stop offset="0" stop-color="#f4f7ff"/><stop offset="1" stop-color="#b0b3c2"/></linearGradient><path d="M290.7 223.8c.7 2.5.9 5.1.5 7.6-.5 3.4-2.1 6.5-4.2 9.2-2.6 3.4-6.1 6.1-9.8 8.2-4.4 2.6-9.3 4.5-14.2 5.8-5 1.3-10.1 2.1-15.2 2.4-5.1.3-10.3.1-15.4-.5-5.1-.7-10.1-1.8-15-3.5-4-1.5-7.9-3.3-11.5-5.7-2.8-1.9-5.4-4.2-7.5-6.9-1.6-2-2.8-4.3-3.5-6.8s-.9-5.1-.5-7.6c.5-3.4 2.1-6.5 4.2-9.2 2.5-3.2 5.7-5.7 9.1-7.8h.1c.2-.1.4-.3.6-.4.3-.2.6-.3.8-.5 0 0 .1 0 .1-.1 4.2-2.3 8.7-4 13.3-5.2 5-1.3 10.1-2.1 15.2-2.4 5.1-.3 10.3-.1 15.4.5 5.1.7 10.1 1.8 15 3.5 2.8 1 5.5 2.2 8 3.6 1.2.7 2.3 1.4 3.4 2.1 2.8 1.9 5.4 4.2 7.5 6.9 1.6 2.1 2.9 4.3 3.6 6.8z" fill="url(#SVGID_42_)"/><defs><path id="SVGID_43_" d="M1 1h1L1 2z"/></defs><defs><path id="SVGID_44_" d="M-1-1h-1l1-1z"/></defs><clipPath id="SVGID_45_"><use xlink:href="#SVGID_43_" overflow="visible"/></clipPath><clipPath id="SVGID_46_" clip-path="url(#SVGID_45_)"><use xlink:href="#SVGID_44_" overflow="visible"/></clipPath><linearGradient id="SVGID_47_" gradientUnits="userSpaceOnUse" x1="198.082" y1="323.478" x2="320.313" y2="279.43" gradientTransform="matrix(1 0 0 -1 0 540)"><stop offset="0" stop-color="#fafafa"/><stop offset="1" stop-color="#fff"/></linearGradient><path d="M279.7 210.1c-1.1-.8-2.2-1.5-3.4-2.1 1 .5 1.9 1.1 2.8 1.6.1.1.3.1.4.2 3.1 1.7 6 3.7 8.6 6.1 2.4 2.3 4.6 4.9 6 7.9 1.1 2.2 1.8 4.7 2.1 7.2 0 .5.1 1.1.1 1.6 0 2-.3 3.9-.9 5.8-1 3.2-2.8 6-5 8.6-2.7 3.1-6.1 5.7-9.7 7.8-5 2.9-10.4 5-16 6.5s-11.3 2.3-17.1 2.6c-5.8.3-11.6 0-17.3-.8s-11.3-2.2-16.7-4.3c-4.5-1.7-8.8-4-12.7-6.9-3.1-2.3-5.9-5-7.9-8.3-1.5-2.4-2.7-5.1-3.2-8-.2-1-.2-2-.2-3 0-1.9.3-3.8.8-5.6 1.1-3.7 3.3-7 5.9-9.8 2.9-3 6.3-5.5 9.9-7.5.1-.1.2-.1.3-.2.4-.3.9-.5 1.4-.7-3.4 2.1-6.6 4.6-9.1 7.8-2.1 2.7-3.7 5.9-4.2 9.2-.4 2.5-.2 5.2.5 7.6.7 2.5 2 4.8 3.5 6.8 2.1 2.7 4.7 5 7.5 6.9 3.5 2.4 7.4 4.3 11.5 5.7 4.8 1.7 9.9 2.9 15 3.5 5.1.7 10.2.8 15.4.5 5.1-.3 10.2-1.1 15.2-2.4 4.9-1.3 9.8-3.2 14.2-5.8 3.7-2.2 7.1-4.8 9.8-8.2 2.1-2.7 3.7-5.9 4.2-9.2.4-2.5.2-5.2-.5-7.6-.7-2.5-2-4.8-3.5-6.8-2.3-2.5-4.9-4.8-7.7-6.7z" clip-path="url(#SVGID_46_)" fill="url(#SVGID_47_)"/><linearGradient id="SVGID_48_" gradientUnits="userSpaceOnUse" x1="198.082" y1="323.478" x2="320.313" y2="279.43" gradientTransform="matrix(1 0 0 -1 0 540)"><stop offset="0" stop-color="#c1c4d3"/><stop offset="1" stop-color="#9093a2"/></linearGradient><path d="M279.7 210.1c-1.1-.8-2.2-1.5-3.4-2.1 1 .5 1.9 1.1 2.8 1.6.1.1.3.1.4.2 3.1 1.7 6 3.7 8.6 6.1 2.4 2.3 4.6 4.9 6 7.9 1.1 2.2 1.8 4.7 2.1 7.2 0 .5.1 1.1.1 1.6 0 2-.3 3.9-.9 5.8-1 3.2-2.8 6-5 8.6-2.7 3.1-6.1 5.7-9.7 7.8-5 2.9-10.4 5-16 6.5s-11.3 2.3-17.1 2.6c-5.8.3-11.6 0-17.3-.8s-11.3-2.2-16.7-4.3c-4.5-1.7-8.8-4-12.7-6.9-3.1-2.3-5.9-5-7.9-8.3-1.5-2.4-2.7-5.1-3.2-8-.2-1-.2-2-.2-3 0-1.9.3-3.8.8-5.6 1.1-3.7 3.3-7 5.9-9.8 2.9-3 6.3-5.5 9.9-7.5.1-.1.2-.1.3-.2.4-.3.9-.5 1.4-.7-3.4 2.1-6.6 4.6-9.1 7.8-2.1 2.7-3.7 5.9-4.2 9.2-.4 2.5-.2 5.2.5 7.6.7 2.5 2 4.8 3.5 6.8 2.1 2.7 4.7 5 7.5 6.9 3.5 2.4 7.4 4.3 11.5 5.7 4.8 1.7 9.9 2.9 15 3.5 5.1.7 10.2.8 15.4.5 5.1-.3 10.2-1.1 15.2-2.4 4.9-1.3 9.8-3.2 14.2-5.8 3.7-2.2 7.1-4.8 9.8-8.2 2.1-2.7 3.7-5.9 4.2-9.2.4-2.5.2-5.2-.5-7.6-.7-2.5-2-4.8-3.5-6.8-2.3-2.5-4.9-4.8-7.7-6.7z" fill="url(#SVGID_48_)"/><linearGradient id="SVGID_49_" gradientUnits="userSpaceOnUse" x1="235.822" y1="260.654" x2="297.96" y2="202.292" gradientTransform="matrix(1 0 0 -1 0 540)"><stop offset="0" stop-color="#596687"/><stop offset=".342" stop-color="#7986a7"/><stop offset=".535" stop-color="#8693b4"/><stop offset="1" stop-color="#b7c4e5"/></linearGradient><path d="M232.8 293c5.9.7 12 .7 17.9.2 6-.5 11.8-1.6 17.5-3.4 3.3-1 6.5-2.3 9.5-3.9l-.6.4c-5.2 3-10.9 5.1-16.8 6.4s-11.9 2-17.9 1.9c-6 0-12-.7-17.9-2.1-5.8-1.4-11.5-3.5-16.6-6.6 2.4 1.2 4.9 2.3 7.4 3.1 5.7 2.1 11.6 3.4 17.5 4z" fill="url(#SVGID_49_)"/><linearGradient id="SVGID_50_" gradientUnits="userSpaceOnUse" x1="209.237" y1="297.221" x2="295.216" y2="297.873" gradientTransform="matrix(1 0 0 -1 0 540)"><stop offset="0" stop-color="#192342"/><stop offset=".468" stop-color="#303a59"/><stop offset=".996" stop-color="#475170"/></linearGradient><path d="M295.2 226.4c.6-1.9.9-3.8.9-5.8v12.7c0 2.1-.4 4.3-1.1 6.3-1.1 3.1-2.9 5.9-5 8.3-2.7 3.1-6 5.6-9.5 7.6-.9.5-1.8 1-2.8 1.5-3.1 1.6-6.3 2.8-9.5 3.9-5.7 1.8-11.6 2.9-17.5 3.4-6 .5-12 .5-17.9-.2s-11.8-1.9-17.4-3.9c-2.5-.9-5-1.9-7.4-3.1-.4-.2-.7-.4-1-.5s-.5-.3-.7-.4c-1-.5-1.9-1.1-2.9-1.7-3.1-2-6.1-4.5-8.4-7.3-1.9-2.3-3.5-4.9-4.4-7.7-.6-1.9-1-4-1-6v-12.7c0 1 .1 2 .2 3 .5 2.8 1.6 5.6 3.2 8 2.1 3.2 4.9 6 7.9 8.3 3.9 2.9 8.2 5.1 12.7 6.9 5.4 2.1 11 3.5 16.7 4.3s11.5 1.1 17.3.8 11.5-1.1 17.1-2.6 11-3.6 16-6.5c3.6-2.1 6.9-4.7 9.7-7.8 2-2.7 3.8-5.6 4.8-8.8z" fill="url(#SVGID_50_)"/><linearGradient id="SVGID_51_" gradientUnits="userSpaceOnUse" x1="236.02" y1="310.388" x2="285.951" y2="406.157" gradientTransform="matrix(1 0 0 -1 0 540)"><stop offset="0" stop-color="#6b6b78"/><stop offset="1" stop-color="#51515e"/></linearGradient><path d="M290.6 211.9c.7 2.5.9 5.1.5 7.6-.5 3.4-2.1 6.5-4.2 9.2-2.6 3.4-6.1 6.1-9.8 8.2-4.4 2.6-9.3 4.5-14.2 5.8-5 1.3-10.1 2.1-15.2 2.4-5.1.3-10.3.1-15.4-.5-5.1-.7-10.1-1.8-15-3.5-4-1.5-7.9-3.3-11.5-5.7-2.8-1.9-5.4-4.2-7.5-6.9-1.6-2-2.8-4.3-3.5-6.8s-.9-5.1-.5-7.6c.5-3.4 2.1-6.5 4.2-9.2 2.5-3.2 5.7-5.7 9.1-7.8h.1c.2-.1.4-.3.6-.4.3-.2.6-.3.8-.5 0 0 .1 0 .1-.1 4.2-2.3 8.7-4 13.3-5.2 5-1.3 10.1-2.1 15.2-2.4 5.1-.3 10.3-.1 15.4.5 5.1.7 10.1 1.8 15 3.5 2.8 1 5.5 2.2 8 3.6 1.2.7 2.3 1.4 3.4 2.1 2.8 1.9 5.4 4.2 7.5 6.9 1.6 2 2.9 4.3 3.6 6.8z" fill="url(#SVGID_51_)"/><linearGradient id="SVGID_52_" gradientUnits="userSpaceOnUse" x1="163.848" y1="308.074" x2="261.663" y2="319.534" gradientTransform="matrix(1 0 0 -1 0 540)"><stop offset="0" stop-color="#192342"/><stop offset=".468" stop-color="#303a59"/><stop offset=".996" stop-color="#475170"/></linearGradient><path d="M279.6 198.1c-1.1-.8-2.2-1.5-3.4-2.1 1 .5 1.9 1.1 2.8 1.6.1.1.3.1.4.2 3.1 1.7 6 3.7 8.6 6.1 2.4 2.3 4.6 4.9 6 7.9 1.1 2.2 1.8 4.7 2.1 7.2 0 .5.1 1.1.1 1.6 0 2-.3 3.9-.9 5.8-1 3.2-2.8 6-5 8.6-2.7 3.1-6.1 5.7-9.7 7.8-5 2.9-10.4 5-16 6.5s-11.3 2.3-17.1 2.6-11.6 0-17.3-.8-11.3-2.2-16.7-4.3c-4.5-1.7-8.8-4-12.7-6.9-3.1-2.3-5.9-5-7.9-8.3-1.5-2.4-2.7-5.1-3.2-8-.2-1-.2-2-.2-3 0-1.9.3-3.8.8-5.6 1.1-3.7 3.3-7 5.9-9.8 2.9-3 6.3-5.5 9.9-7.5.1-.1.2-.1.3-.2.4-.3.9-.5 1.4-.7-3.4 2.1-6.6 4.6-9.1 7.8-2.1 2.7-3.7 5.9-4.2 9.2-.4 2.5-.2 5.2.5 7.6.7 2.5 2 4.8 3.5 6.8 2.1 2.7 4.7 5 7.5 6.9 3.5 2.4 7.4 4.3 11.5 5.7 4.8 1.7 9.9 2.9 15 3.5 5.1.7 10.2.8 15.4.5 5.1-.3 10.2-1.1 15.2-2.4 4.9-1.3 9.8-3.2 14.2-5.8 3.7-2.2 7.1-4.8 9.8-8.2 2.1-2.7 3.7-5.9 4.2-9.2.4-2.5.2-5.2-.5-7.6-.7-2.5-2-4.8-3.5-6.8-2.3-2.4-4.9-4.7-7.7-6.7z" fill="url(#SVGID_52_)"/><linearGradient id="SVGID_53_" gradientUnits="userSpaceOnUse" x1="207.87" y1="278.545" x2="277.67" y2="278.545" gradientTransform="matrix(1 0 0 -1 0 540)"><stop offset="0" stop-color="#192342"/><stop offset=".468" stop-color="#303a59"/><stop offset=".996" stop-color="#475170"/></linearGradient><path d="M232.7 264.2c5.9.7 12 .7 17.9.2 6-.5 11.8-1.6 17.5-3.4 3.3-1 6.5-2.3 9.5-3.9l-.6.4c-5.2 3-10.9 5.1-16.8 6.4s-11.9 2-17.9 1.9c-6 0-12-.7-17.9-2.1-5.8-1.4-11.5-3.5-16.6-6.6 2.4 1.2 4.9 2.3 7.4 3.1 5.7 2.1 11.6 3.3 17.5 4z" fill="url(#SVGID_53_)"/><linearGradient id="SVGID_54_" gradientUnits="userSpaceOnUse" x1="208.575" y1="319.47" x2="294.657" y2="320.124" gradientTransform="matrix(1 0 0 -1 0 540)"><stop offset="0" stop-color="#596687"/><stop offset=".342" stop-color="#7986a7"/><stop offset=".535" stop-color="#8693b4"/><stop offset="1" stop-color="#b7c4e5"/></linearGradient><path d="M294.6 195.7c.6-1.9.9-3.8.9-5.8v29.6c0 2.1-.4 4.3-1.1 6.3-1.1 3.1-2.9 5.9-5 8.3-2.7 3.1-6 5.6-9.5 7.6-.9.5-1.8 1-2.8 1.5-3.1 1.6-6.3 2.8-9.5 3.9-5.7 1.8-11.6 2.9-17.5 3.4-6 .5-12 .5-17.9-.2s-11.8-1.9-17.4-3.9c-2.5-.9-5-1.9-7.4-3.1-.4-.2-.7-.4-1-.5s-.5-.3-.7-.4c-1-.5-1.9-1.1-2.9-1.7-3.1-2-6.1-4.5-8.4-7.3-1.9-2.3-3.5-4.9-4.4-7.7-.6-1.9-1-4-1-6v-29.6c0 1 .1 2 .2 3 .5 2.8 1.6 5.6 3.2 8 2.1 3.2 4.9 6 7.9 8.3 3.9 2.9 8.2 5.1 12.7 6.9 5.4 2.1 11 3.5 16.7 4.3s11.5 1.1 17.3.8 11.5-1.1 17.1-2.6 11-3.6 16-6.5c3.6-2.1 6.9-4.7 9.7-7.8 1.9-2.7 3.7-5.6 4.8-8.8z" fill="url(#SVGID_54_)"/><linearGradient id="SVGID_55_" gradientUnits="userSpaceOnUse" x1="235.383" y1="341.116" x2="285.313" y2="436.885" gradientTransform="matrix(1 0 0 -1 0 540)"><stop offset="0" stop-color="#eaf7ff"/><stop offset="1" stop-color="#a6b3d4"/></linearGradient><path d="M290 181.1c.7 2.5.9 5.1.5 7.6-.5 3.4-2.1 6.5-4.2 9.2-2.6 3.4-6.1 6.1-9.8 8.2-4.4 2.6-9.3 4.5-14.2 5.8-5 1.3-10.1 2.1-15.2 2.4-5.1.3-10.3.1-15.4-.5-5.1-.7-10.1-1.8-15-3.5-4-1.5-7.9-3.3-11.5-5.7-2.8-1.9-5.4-4.2-7.5-6.9-1.6-2-2.8-4.3-3.5-6.8s-.9-5.1-.5-7.6c.5-3.4 2.1-6.5 4.2-9.2 2.5-3.2 5.7-5.7 9.1-7.8h.1c.2-.1.4-.3.6-.4.3-.2.6-.3.8-.5 0 0 .1 0 .1-.1 4.2-2.3 8.7-4 13.3-5.2 5-1.3 10.1-2.1 15.2-2.4 5.1-.3 10.3-.1 15.4.5s10.1 1.8 15 3.5c2.8 1 5.5 2.2 8 3.6 1.2.7 2.3 1.4 3.4 2.1 2.8 1.9 5.4 4.2 7.5 6.9 1.6 2.1 2.9 4.4 3.6 6.8z" fill="url(#SVGID_55_)"/><linearGradient id="SVGID_56_" gradientUnits="userSpaceOnUse" x1="257.412" y1="373.587" x2="207.055" y2="313.917" gradientTransform="matrix(1 0 0 -1 0 540)"><stop offset="0" stop-color="#eaf7ff"/><stop offset="1" stop-color="#a6b3d4"/></linearGradient><path d="M274.7 181.2c.5 1.7.6 3.5.3 5.2-.4 2.3-1.4 4.4-2.9 6.3-1.8 2.3-4.1 4.1-6.6 5.6-3 1.8-6.3 3-9.7 3.9-3.4.9-6.8 1.4-10.3 1.6-3.5.2-7 .1-10.4-.4-3.5-.4-6.9-1.2-10.2-2.4-2.7-1-5.4-2.3-7.8-3.9-1.9-1.3-3.7-2.9-5.1-4.7-1.1-1.4-1.9-2.9-2.4-4.6-.5-1.7-.6-3.5-.3-5.2.4-2.3 1.4-4.4 2.9-6.3 1.7-2.2 3.9-3.9 6.2-5.3.1-.1.3-.2.4-.3l.6-.3h.1c2.8-1.6 5.9-2.7 9-3.6 3.4-.9 6.8-1.4 10.3-1.6 3.5-.2 7-.1 10.4.4 3.5.4 6.9 1.2 10.2 2.4 1.9.7 3.7 1.5 5.4 2.5.8.4 1.6.9 2.3 1.4 1.9 1.3 3.7 2.9 5.1 4.7 1.1 1.4 2 2.9 2.5 4.6z" fill="url(#SVGID_56_)"/><path d="M279 167.4c-1.1-.8-2.2-1.5-3.4-2.1 1 .5 1.9 1.1 2.8 1.6.1.1.3.1.4.2 3.1 1.7 6 3.7 8.6 6.1 2.4 2.3 4.6 4.9 6 7.9 1.1 2.2 1.8 4.7 2.1 7.2 0 .5.1 1.1.1 1.6 0 2-.3 3.9-.9 5.8-1 3.2-2.8 6-5 8.6-2.7 3.1-6.1 5.7-9.7 7.8-5 2.9-10.4 5-16 6.5s-11.3 2.3-17.1 2.6-11.6 0-17.3-.8-11.3-2.2-16.7-4.3c-4.5-1.7-8.8-4-12.7-6.9-3.1-2.3-5.9-5-7.9-8.3-1.5-2.4-2.7-5.1-3.2-8-.2-1-.2-2-.2-3 0-1.9.3-3.8.8-5.6 1.1-3.7 3.3-7 5.9-9.8 2.9-3 6.3-5.5 9.9-7.5.1-.1.2-.1.3-.2.4-.3.9-.5 1.4-.7-3.4 2.1-6.6 4.6-9.1 7.8-2.1 2.7-3.7 5.9-4.2 9.2-.4 2.5-.2 5.2.5 7.6.7 2.5 2 4.8 3.5 6.8 2.1 2.7 4.7 5 7.5 6.9 3.5 2.4 7.4 4.3 11.5 5.7 4.8 1.7 9.9 2.9 15 3.5 5.1.7 10.2.8 15.4.5 5.1-.3 10.2-1.1 15.2-2.4 4.9-1.3 9.8-3.2 14.2-5.8 3.7-2.2 7.1-4.8 9.8-8.2 2.1-2.7 3.7-5.9 4.2-9.2.4-2.5.2-5.2-.5-7.6-.7-2.5-2-4.8-3.5-6.8-2.3-2.5-4.9-4.7-7.7-6.7z" fill="#c3d9ea"/><linearGradient id="SVGID_57_" gradientUnits="userSpaceOnUse" x1="235.084" y1="303.289" x2="297.223" y2="244.927" gradientTransform="matrix(1 0 0 -1 0 540)"><stop offset="0" stop-color="#596687"/><stop offset=".342" stop-color="#7986a7"/><stop offset=".535" stop-color="#8693b4"/><stop offset="1" stop-color="#b7c4e5"/></linearGradient><path d="M232.1 250.4c5.9.7 12 .7 17.9.2 6-.5 11.8-1.6 17.5-3.4 3.3-1 6.5-2.3 9.5-3.9l-.6.4c-5.2 3-10.9 5.1-16.8 6.4-5.9 1.3-11.9 2-17.9 1.9-6 0-12-.7-17.9-2.1-5.8-1.4-11.5-3.5-16.6-6.6 2.4 1.2 4.9 2.3 7.4 3.1 5.7 2 11.5 3.3 17.5 4z" fill="url(#SVGID_57_)"/><path class="st2" d="M242.7 280.4c0-.9.7-1.5 1.5-1.5.9 0 1.5.7 1.5 1.5 0 .9-.7 1.5-1.5 1.5s-1.5-.7-1.5-1.5zm10.4-1c0-.9.7-1.5 1.5-1.5.9 0 1.5.7 1.5 1.5 0 .9-.7 1.5-1.5 1.5s-1.5-.7-1.5-1.5zm-20.9-.6c0-.9.7-1.5 1.5-1.5.9 0 1.5.7 1.5 1.5 0 .9-.7 1.5-1.5 1.5-.8.1-1.5-.6-1.5-1.5zm10.5-42.1c0-.9.7-1.5 1.5-1.5.9 0 1.5.7 1.5 1.5 0 .9-.7 1.5-1.5 1.5-.8.1-1.5-.6-1.5-1.5zm10.4-1c0-.9.7-1.5 1.5-1.5.9 0 1.5.7 1.5 1.5 0 .9-.7 1.5-1.5 1.5s-1.5-.7-1.5-1.5zm-20.9-.5c0-.9.7-1.5 1.5-1.5.9 0 1.5.7 1.5 1.5 0 .9-.7 1.5-1.5 1.5s-1.5-.7-1.5-1.5zm10.5 86.9c0-.9.7-1.5 1.5-1.5.9 0 1.5.7 1.5 1.5 0 .9-.7 1.5-1.5 1.5s-1.5-.7-1.5-1.5zm10.4-1.1c0-.9.7-1.5 1.5-1.5.9 0 1.5.7 1.5 1.5 0 .9-.7 1.5-1.5 1.5-.8.1-1.5-.6-1.5-1.5zm-20.9-.5c0-.9.7-1.5 1.5-1.5.9 0 1.5.7 1.5 1.5s-.7 1.5-1.5 1.5c-.8.1-1.5-.6-1.5-1.5zm10.5 43.3c0-.9.7-1.5 1.5-1.5.9 0 1.5.7 1.5 1.5 0 .9-.7 1.5-1.5 1.5-.8.1-1.5-.6-1.5-1.5zm10.4-1c0-.9.7-1.5 1.5-1.5.9 0 1.5.7 1.5 1.5 0 .9-.7 1.5-1.5 1.5s-1.5-.7-1.5-1.5zm-20.9-.5c0-.9.7-1.5 1.5-1.5.9 0 1.5.7 1.5 1.5s-.7 1.5-1.5 1.5-1.5-.7-1.5-1.5z"/><path d="M246 259.4h-4.3c-.6 0-1.1-.5-1.1-1.1 0-.6.5-1.1 1.1-1.1h4.3c.6 0 1.1.5 1.1 1.1 0 .6-.5 1.1-1.1 1.1zm0 42.5h-4.3c-.6 0-1.1-.5-1.1-1.1 0-.6.5-1.1 1.1-1.1h4.3c.6 0 1.1.5 1.1 1.1 0 .7-.5 1.1-1.1 1.1zm0 40.5h-4.3c-.6 0-1.1-.5-1.1-1.1 0-.6.5-1.1 1.1-1.1h4.3c.6 0 1.1.5 1.1 1.1 0 .7-.5 1.1-1.1 1.1z" fill="#50daff"/><path class="st2" d="M366.9 158.8l-.1 48c.3.1.5.2.8.4s.5.3.8.5l.1-48-1.6-.9zm18.4 40.3c.6-.1 1.3.1 2.1.5 2.3 1.3 4.1 4.5 4.1 7.1s-1.8 3.6-4.1 2.3c-2.3-1.3-4.1-4.5-4.1-7.1 0-1.1.3-1.9.9-2.4.2-.2.6-.4 1.1-.4zm2 8.2c1.4.8 2.5.2 2.5-1.4 0-1.6-1.1-3.5-2.5-4.4-1.4-.8-2.5-.1-2.5 1.4 0 1.6 1.1 3.6 2.5 4.4m-.6-25.6c.2.1.4.2.5.4 2 1.5 3.5 4.3 3.5 6.7 0 2.6-1.8 3.6-4.1 2.3-2.3-1.3-4.1-4.5-4.1-7.1 0-2.2 1.3-3.3 3.1-2.8.4.1.7.3 1.1.5zm0 7.6c1.4.8 2.5.2 2.5-1.4 0-1.6-1.1-3.6-2.5-4.4-1.4-.8-2.5-.2-2.5 1.4-.1 1.6 1.1 3.6 2.5 4.4"/><path class="st2" d="M376.5 164.3l-.1 21.6c0 .2.1.5.2.8l7.4 12.9c.3-.3.7-.5 1.2-.5l-7.3-12.6.1-21.3-1.5-.9zm9.2 5.3v11.6c.3.1.7.2 1 .4.2.1.4.2.5.4v-11.5l-1.5-.9zm-36.3 8.9c.4.6.8 1.2 1.1 1.9.5 1 .7 2.1.7 3.1 0 2.6-1.8 3.6-4.1 2.3-2.3-1.3-4.1-4.5-4.1-7.1s1.8-3.6 4.1-2.3c.9.5 1.6 1.2 2.3 2.1zm-2.3 5.5c1.4.8 2.5.2 2.5-1.4 0-1.6-1.1-3.6-2.5-4.4-1.4-.8-2.5-.1-2.5 1.4 0 1.7 1.1 3.6 2.5 4.4"/><g class="st3"><path class="st2" d="M348.4 159.6c.3.2.5.3.8.5 1.9 1.5 3.3 4.2 3.3 6.5 0 2.6-1.8 3.6-4.1 2.3-2.3-1.3-4.1-4.5-4.1-7.1 0-2.3 1.4-3.4 3.3-2.7.3.2.5.3.8.5zm0 7.6c1.4.8 2.5.2 2.5-1.4 0-1.6-1.1-3.6-2.5-4.4-1.4-.8-2.5-.1-2.5 1.4 0 1.6 1.1 3.6 2.5 4.4"/><path class="st2" d="M347.6 147.7v11.5c.3.1.5.2.8.4s.5.3.8.5v-11.5l-1.6-.9z"/></g><path class="st2" d="M356.8 153l-.1 21.3-7.4 4.2c.4.6.8 1.2 1.1 1.9l7.6-4.3c.1-.1.2-.3.2-.5l.1-21.6-1.5-1zm10.7 54.2c.3.2.5.3.8.5 1.9 1.5 3.3 4.2 3.3 6.5 0 2.6-1.8 3.6-4.1 2.3-2.3-1.3-4.1-4.5-4.1-7.1 0-2.3 1.4-3.4 3.3-2.7.3.2.5.3.8.5zm0 7.6c1.4.8 2.5.2 2.5-1.4 0-1.6-1.1-3.6-2.5-4.4-1.4-.8-2.5-.1-2.5 1.4 0 1.6 1.1 3.6 2.5 4.4M178 436.7v2.4l-3.2 1.9v-2.5zm0 4v2.5l-3.2 1.8v-2.4zm5.2-7v2.4L180 438v-2.5zm0 4v2.5L180 442v-2.4zm10.1-9.9v2.5l-8.1 4.7v-2.5zm0 4.1v2.4l-8.1 4.7v-2.4zm177.1-197.6v3.1l7.7 4.4v-3.1zm0-5.3v3.1l7.7 4.4v-3.1zm-4.6-2.7v3.1l3.2 1.8v-3zm-6.1-3.5v3.1l2.2 1.2v-3zm-3.9-2.3v3.1l2.2 1.3v-3.1zm10 11.1v3.1l3.1 1.8.1-3zm-6.1-3.5v3.1l2.2 1.2v-3zm-3.9-2.3v3.1l2.2 1.3v-3.1zm105.6-33.6v2.4l-6.2 3.6v-2.5zm0-3.9v2.4l-6.2 3.6v-2.5zm-8.5 8.8v2.4l-3 1.8v-2.5zm0-4v2.5l-3 1.8v-2.5zm13.7-3.9v2.4l-3.1 1.8V191zm0-3.9v2.4l-3.1 1.8V187zm-99 203.6v2.4l-6.1 3.5v-2.4zm0-4.3v2.5l-6.1 3.5v-2.4zm3.7-2.1v2.4l-2.5 1.5v-2.5zm4.9-2.8v2.4l-1.7 1v-2.4zm3.1-1.8v2.4l-1.7 1v-2.4zm-8 8.8v2.5l-2.5 1.4v-2.4zm4.9-2.8v2.4l-1.7 1.1v-2.5zm3.1-1.8l.1 2.4-1.8 1.1v-2.5zm-7.7-135.8v2.5l6.1 3.5v-2.4zm-8.1-.6v2.5l6.1 3.5v-2.5zm0-4v2.4l6.1 3.5v-2.4zm-7.7-.5v2.5l3.2 1.9v-2.5zm0-4v2.5l3.2 1.8v-2.4zm15.8 13.2v2.4l6.1 3.6v-2.5zm89.7 46.2v2.5l3.2 1.8v-2.4zm0 4.1v2.4l3.2 1.9v-2.5zm-5.2-7.1v2.5l3.2 1.8v-2.4zm0 4.1v2.4l3.2 1.9v-2.5zm-10.1-9.9v2.4l8.1 4.7v-2.4zm0 4v2.5l8.1 4.7v-2.5zM86.6 177.6v2.5l6.1 3.5v-2.5zm0-4.2v2.4l6.1 3.6v-2.5zm-3.7-2.2v2.5l2.5 1.5v-2.5zm-4.9-2.8v2.5l1.7 1v-2.5zm-3.1-1.8v2.5l1.7 1v-2.5zm8 8.9v2.4l2.5 1.5v-2.5zm-4.9-2.8v2.4l1.7 1v-2.4zm-3.2-1.9v2.5l1.8 1v-2.4zm151.3 3.2c.7-.3 1.5-.6 2.2-.9.8-.3 1.7-.6 2.5-.9 1.1-.3 2.1-.6 3.2-.8 1.5-.3 2.9-.5 4.4-.7-.8 2.6-1.8 5.2-2.8 7.8 0 .5.1 1 .1 1.5 2-.4 4.1-.6 6.2-.6 2.1 0 4.2.2 6.2.6 0-.5 0-1 .1-1.5-1-2.6-1.9-5.2-2.8-7.8 1.5.1 3 .4 4.4.7 1.1.2 2.2.5 3.2.8.9.3 1.7.6 2.5.9.7.3 1.5.6 2.2.9 5.1 2.3 9.8 5.7 13.7 10.1 9.6-8.3 15.7-20.6 15.7-34.3 0-25-20.3-45.3-45.3-45.3s-45.3 20.3-45.3 45.3c0 13.7 6.1 26 15.7 34.3 4.1-4.4 8.8-7.8 13.9-10.1"/><path class="st59" d="M229.1 182.2c2.1-.9 4.4-1.7 6.7-2.1 0-.5 0-1-.1-1.5 1-2.6 1.9-5.2 2.8-7.8-1.5.1-3 .4-4.4.7-1.1.2-2.2.5-3.2.8-.9.3-1.7.6-2.5.9l3.3.8-2.6 8.2zm-7.8 4.9c.1-.8.1-1.7.1-2.6 0-.5.4-.9.9-.9h.8l2.9-9.6c-5.1 2.3-9.8 5.7-13.7 10.1 2.1 1.8 4.4 3.5 6.8 4.9.8-.7 1.5-1.3 2.2-1.9M258 174l2.9 9.6h.8c.5 0 .9.4.9.9 0 .9.1 1.7.1 2.6.7.6 1.4 1.2 2 1.9 2.4-1.4 4.7-3 6.8-4.9-3.7-4.4-8.4-7.8-13.5-10.1m-5.5-.1l3.3-.8c-.8-.3-1.7-.6-2.5-.9-1.1-.3-2.1-.6-3.2-.8-1.5-.3-2.9-.5-4.4-.7.8 2.6 1.8 5.2 2.8 7.8 0 .5-.1 1-.1 1.5 2.3.5 4.6 1.2 6.7 2.1l-2.6-8.2z"/><path class="st60" d="M242 183.6h6.4c-.1-1.2-.2-2.3-.1-3.5-2-.4-4.1-.6-6.2-.6-2.1 0-4.2.2-6.2.6 0 1.2 0 2.3-.1 3.5h6.2zm-22.7 5.4c.5.3 1.1.6 1.6.9.2-.9.3-1.8.4-2.8-.7.6-1.4 1.2-2 1.9m9.4-5.4h7c.1-1.2.2-2.3.1-3.5-2.3.5-4.6 1.2-6.7 2.1l-.4 1.4zm34.1 3.5c.1.9.2 1.9.4 2.8.5-.3 1.1-.6 1.6-.9-.6-.7-1.3-1.3-2-1.9"/><path class="st60" d="M255.4 183.6l-.4-1.4c-2.1-.9-4.4-1.7-6.7-2.1 0 1.2 0 2.3.1 3.5h7z"/><path class="st61" d="M228.7 183.6l.4-1.4 2.5-8.3-3.3-.8c-.7.3-1.5.6-2.2.9l-2.9 9.6h5.5zm26.3-1.4l.4 1.4h5.4L258 174c-.7-.3-1.5-.6-2.2-.9l-3.3.8 2.5 8.3z"/><path class="st62" d="M223.3 185.6c0-.1.1-.1 0 0 0-.1 0-.1 0 0"/><path class="st62" d="M242 185.5h-18.7s-.1 0-.1.1c-.1 1.8-.3 3.5-.7 5.2 5.9 2.8 12.5 4.4 19.4 4.4v-9.7h.1z"/><path class="st61" d="M260.8 185.5c-.1 0 0 0 0 0m-.1 0H242v9.6c7 0 13.5-1.6 19.4-4.4-.3-1.6-.5-3.4-.7-5.2.1 0 0 0 0 0"/><path d="M262.8 187.1c-.1-.8-.1-1.7-.1-2.6 0-.5-.4-.9-.9-.9h-39.5c-.5 0-.9.4-.9.9 0 .9 0 1.7-.1 2.6-.1.9-.2 1.9-.4 2.8.6.3 1.1.6 1.7.9.4-1.7.6-3.4.7-5.2v-.1h37.6v.1c.1 1.8.3 3.5.7 5.2.6-.3 1.2-.6 1.7-.9-.3-.9-.4-1.8-.5-2.8" fill="#8a7461"/><path class="st59" d="M255 177.2c-.1-.2-.3-.3-.4-.5.1.1.3.3.4.5z"/><path class="st61" d="M256.1 178.2s-.5-.4-1-1c.5.6 1 1 1 1"/><path class="st2" d="M269.9 137.2zm1.8 13.1c0-.1 0-.1 0 0 0-.1 0-.1 0 0"/><path class="st65" d="M272.2 139.7c-.4-.6-.8-1-1.2-1.5-.2-.2-.4-.4-.5-.6l-.2-.2-.3-.3v4.2l1.6 7.4c0 .1 0 .1.1.2l1.1 1.3h1.2v-.3c0-3.5-.6-6.8-1.6-10-.2 0-.2-.1-.2-.2m-.5 10.5"/><path class="st66" d="M271.7 149.5s0 .1 0 0c0 .1 0 .1 0 0 0 .1 0 .1 0 0v1.3c0 .2-.1.4-.1.5l1.1-1.2-1.1-1.3c0 .4.1.5.1.7"/><path class="st60" d="M271.7 151c0-.1 0-.1 0 0v-1.4c0-.2-.1-.4-.1-.5s0-.1-.1-.2c-.1-.4-.3-.7-.4-.9 0 0 0-.1-.1-.1 0-.1-.1-.1-.1-.2l-.2-.2s-.1 0-.1-.1c-.1 0-.1-.1-.2-.1h-.1c-.1 0-.2-.1-.3-.1-.1 0-.2 0-.3.1h-.1c-.1 0-.1.1-.2.1 0 0-.1 0-.1.1-.1.1-.2.1-.2.2-.1.1-.1.1-.1.2 0 0 0 .1-.1.1-.2.3-.3.6-.4.9 0 .2-.1.3-.1.5v.9c0 1.7.8 3.1 1.8 3.1.2 0 .3 0 .5-.1h.1c.1 0 .1-.1.2-.1l.1-.1c.1-.1.2-.2.2-.3s.1-.1.1-.2l.1-.1c.1-.1.1-.2.1-.3v-.1c.1-.1.1-.3.1-.5-.1-.3 0-.5 0-.6m-1.7-1.2c-.4 0-.7-.5-.7-1.2s.3-1.2.7-1.2c.4 0 .7.5.7 1.2s-.4 1.2-.7 1.2"/><path class="st2" d="M270 147.5c-.4 0-.7.5-.7 1.2s.3 1.2.7 1.2c.4 0 .7-.5.7-1.2s-.4-1.2-.7-1.2"/><path class="st67" d="M268.3 148.8c.1-.4.3-.7.4-.9 0 0 0-.1.1-.1 0-.1.1-.1.1-.2l.2-.2s.1 0 .1-.1c.1 0 .1-.1.2-.1h.1c.1 0 .2-.1.3-.1s.2 0 .3.1h.1c.1 0 .1.1.2.1 0 0 .1 0 .1.1.1.1.2.1.2.2.1.1.1.1.1.2 0 0 0 .1.1.1.2.3.3.6.4.9l-1.6-7.4-1.4 7.4z"/><path class="st60" d="M248.5 150.2v-.4c0-.1 0-.3-.1-.4 0-.1-.1-.3-.1-.4 0-.1-.1-.3-.1-.4-.1-.1-.1-.2-.2-.4-.2-.4-.5-.7-.8-1-.4-.4-.8-.7-1.3-.9-.2-.1-.5-.2-.8-.2-.3-.1-.5-.1-.8-.1s-.5 0-.8.1c-.3.1-.5.1-.7.2-.2.1-.5.2-.7.4-.2.1-.4.3-.6.5-.3.3-.6.6-.8 1-.1.1-.1.2-.2.3 0 .1-.1.2-.1.3v.1c0 .1-.1.2-.1.3v.1c0 .1 0 .2-.1.3v.5c0 .3 0 .6.1.8.1.3.1.5.2.8.2.5.5.9.9 1.3.3.3.6.6 1 .8.1.1.2.1.4.2.1 0 .2.1.3.1h.1c.1 0 .2.1.3.1h.1c.1 0 .2 0 .3.1h.5c.6 0 1.2-.1 1.7-.3.3-.1.5-.2.7-.4.5-.3.8-.7 1.2-1.2.2-.2.3-.5.4-.7 0-.3.1-.9.1-1.5m-4.2-.5c-.9 0-1.6-.7-1.6-1.6s.7-1.6 1.6-1.6c.9 0 1.6.7 1.6 1.6 0 .9-.8 1.6-1.6 1.6"/><path class="st2" d="M244.3 146.5c-.9 0-1.6.7-1.6 1.6s.7 1.6 1.6 1.6c.9 0 1.6-.7 1.6-1.6 0-.9-.8-1.6-1.6-1.6"/><path class="st65" d="M241.3 147.1l3-9V136c-1.6-.3-3.3-.5-5-.5-.6 0-1.1 0-1.7.1h-.2c-3 .2-5.9 1-8.5 2.2-2.3 1.1-4.5 2.4-6.4 4.1-.5.4-1 .9-1.5 1.4l-.3.3c-.5.5-.9.9-1.3 1.4l-.3.3c-.4.5-.8 1-1.2 1.6l-.1.1c-.4.5-.7 1-1.1 1.6-.1.1-.1.2-.2.3-.3.4-.5.9-.8 1.4h13.4l12.2-3.2z"/><path class="st68" d="M252.6 146.1c0-.4 0-.7.1-1.1 0-.5 0-1 .1-1.4v-1.4c0-1 0-1.9-.1-2.9-.2-.1-.6-.3-1-.6-.1-.1-.2-.1-.3-.2-.1 0-.1-.1-.2-.1s-.1-.1-.1-.1c-.6-.3-1.2-.6-1.9-.9-1.5-.6-3.6-1.2-4.7-1.5v2.2l2.9 9c.3.3.6.6.8 1 .1.1.1.2.2.4.1.1.1.3.1.4 0 .1.1.3.1.4 0 .1.1.3.1.4v.4h3.6c.2-1.3.4-2.6.5-4-.2.1-.2.1-.2 0"/><path d="M257.3 142.9s0 .1 0 0c0 .1 0 0 0 0zm-8.7 20.1l2.3-2.3 1.3-1.3c3-3.2 5.2-6.3 6.5-10.2 0-.1.1-.2.1-.4v-.1c0-.1.1-.3.1-.5v-.4c-.3-1.7-1-3.3-1.5-5l-.3-.3c-.3-.3-.7-.6-1-.9-1-.9-2.1-1.7-3.3-2.4.1 1 .1 1.9.1 2.9v2.8c0 .3 0 .7-.1 1.1v.1c-.1 1.3-.3 2.7-.5 4l-.4 2c-.9 3.5-2.7 6.8-4.1 10.1-.4.9-.8 1.8-1.1 2.7 0 .1-.1.2-.1.3l1.2-1.2c.1-.3.4-.7.8-1" fill="#faaf40"/><path class="st67" d="M241.3 147.1c.2-.2.4-.3.6-.5.2-.1.5-.3.7-.4.2-.1.5-.2.7-.2.3 0 .5-.1.8-.1s.6 0 .8.1c.3.1.5.1.8.2.5.2.9.5 1.3.9l-2.9-9-2.8 9z"/><path class="st66" d="M240.3 151.8c-.1-.2-.2-.5-.2-.8-.1-.3-.1-.5-.1-.8v-.5c0-.1 0-.2.1-.3v-.1c0-.1.1-.2.1-.3v-.1c0-.1.1-.2.1-.3.1-.1.1-.2.2-.3.2-.4.5-.7.8-1l-12.4 3.1 12.2 3c-.3-.6-.6-1.1-.8-1.6"/><path class="st68" d="M268.1 149.5v-.2c0-.2.1-.3.1-.5v-.1l1.6-7.4v-4.2c-1.3-1.1-2.7-1.7-4.2-1.7-1.9 0-3.6 1-4.9 2.3-1.4 1.4-2.5 3.1-3.4 4.9 0 .1-.1.2-.1.2.3.2.5.5.8.7.6.6 1.2 1.1 1.8 1.7l.8.8c.3.3.6.6.8.9.4.4.7.8 1.1 1.1.1.2.3.3.4.5.4.5.8.9 1.3 1.4l.1.1h3.6v-.1c.2 0 .2-.2.2-.4m-10.8-6.5s0-.1 0 0c0-.1 0 0 0 0"/><path class="st59" d="M213.4 154.8c.3-.7.5-1.3.8-1.9.1-.2.2-.3.2-.5.2-.5.5-.9.7-1.4l.3-.6c.1-.1.1-.2.2-.3.3-.5.5-.9.8-1.4.1-.1.1-.2.2-.3.3-.5.7-1.1 1.1-1.6l.1-.1c.4-.5.8-1 1.2-1.6l.3-.3c.4-.5.9-1 1.3-1.4l.3-.3c.5-.5 1-.9 1.5-1.4 2-6.8 8.3-11.8 15.6-11.8 3 0 5.9.9 8.4 2.4 2.6 1.6 4.7 3.9 6.1 6.6 0 .1.1.1.1.2 1.1.7 2.2 1.5 3.3 2.4.3.3.7.6 1 .9l.3.3c0-.1.1-.2.1-.2 1-6.6 3.9-11.3 7.3-11.3 2.6 0 4.8 2.7 6.3 6.8.4.4.8.9 1.2 1.4 0 .1 0 .1.1.2l-.1-.2c-4.2-12.6-16.1-21.6-30.1-21.6-17.5 0-31.8 14.2-31.8 31.8 0 3.5.6 6.8 1.6 9.9.2-.9.4-1.9.7-2.8.4-.4.6-1.2.9-1.9"/><path class="st2" d="M272.7 150.2l-1.1 1.2c0 .2-.1.3-.2.5v.1c0 .1-.1.2-.1.3s-.1.1-.1.1c0 .1-.1.1-.1.2-.1.1-.1.2-.2.3l-.1.1c-.1.1-.1.1-.2.1h-.1c-.2.1-.3.1-.5.1-1 0-1.8-1.4-1.8-3.1h-3.6c.7.8 1.3 1.6 2 2.4.6.8 1.3 1.6 1.9 2.4l.1.1c.6.8 1.2 1.5 1.8 2.3l.2.2 1.8 2.4c1-3.1 1.6-6.4 1.7-9.8l-1.4.1z"/><path class="st60" d="M237.3 135.6h.2c.6 0 1.1-.1 1.7-.1 1.7 0 3.4.2 5 .5v.8-.8c1.2.3 3.2.8 4.7 1.5.6.3 1.3.6 1.9.9 0 0 .1 0 .1.1.1 0 .1.1.2.1s.2.1.3.2c.4.2.8.5 1 .6 0-.1-.1-.1-.1-.2-1.4-2.7-3.5-5-6.1-6.6-2.5-1.5-5.5-2.4-8.4-2.4-7.4 0-13.6 5-15.6 11.8 1.9-1.6 4.1-3 6.4-4.1 2.8-1.3 5.7-2.1 8.7-2.3"/><path fill="none" d="M244.3 136.8v.2"/><path class="st60" d="M260.8 137.8c1.3-1.3 3-2.3 4.9-2.3 1.5 0 2.9.6 4.2 1.7l.3.3.2.2c.2.2.4.4.5.6-1.4-4.1-3.7-6.8-6.3-6.8-3.4 0-6.3 4.7-7.3 11.3 1-1.9 2.1-3.6 3.5-5"/><path class="st2" d="M230.7 179.5l.9.3c3.3 1.2 6.8 1.8 10.5 1.8 4.2 0 8.2-.8 11.9-2.3.2-.1.4-.2.6-.2.3-.1.6-.3.9-.4.3-.1.5-.3.8-.4h-.2c-1.1.1-2.3.1-3.4 0-6.5-.9-8-4.1-7.8-7.4-.5-.3-.9-.6-1.4-.9-5-3.6-8-7.5-8-7.5s3.9 3 9.7 5.2c.1 0 .2.1.4.1.3-.9.6-1.8.9-2.6 0-.1.1-.2.1-.3.3-.9.7-1.8 1.1-2.7 1.5-3.3 3.2-6.5 4.1-10.1l.4-2h-3.6c0 .6-.1 1.2-.3 1.7-.1.3-.2.5-.4.7-.3.5-.7.8-1.2 1.2-.2.2-.5.3-.7.4-.5.2-1.1.3-1.7.3h-.5c-.1 0-.2 0-.3-.1h-.1c-.1 0-.2-.1-.3-.1h-.1c-.1 0-.2-.1-.3-.1-.1-.1-.2-.1-.4-.2-.4-.2-.7-.5-1-.8l-12.2-3h-13.4c-.1.1-.1.2-.2.3l-.3.6c-.2.5-.5.9-.7 1.4-.1.2-.2.3-.2.5-.3.6-.5 1.2-.8 1.8v.1c-.3.7-.5 1.4-.7 2.1-.3.9-.5 1.8-.7 2.8 2.1 6.4 6.2 11.9 11.6 15.8.2.1.3.2.5.3.9.6 1.8 1.2 2.8 1.8 1 .8 2.4 1.4 3.7 1.9"/><path d="M252.7 169.7c0 .3-.1.7-.1 1 0 .6 0 1.1.1 1.7.1.4.1.7.2 1 .1.5.3.9.5 1.4l.6 1.2c.1.1.1.2.2.3.1.2.2.3.3.5s.3.4.4.5c.6.7 1 1 1 1v.1h.2c1.4-.2 2.8-.6 4.3-1.1.7-.3 1.4-.5 2.1-.9l.6-.3c7.3-3.5 13.4-9.7 13.4-9.7-9 4.4-17.9 4.2-23.8 3.3" fill="#9e2155"/><path d="M270.2 157.4c-.6-.8-1.2-1.5-1.8-2.3l-.1-.1c-.6-.8-1.3-1.6-1.9-2.4-.7-.8-1.3-1.6-2-2.4l-.1-.1c-.4-.5-.8-.9-1.3-1.4-.1-.2-.3-.3-.4-.5-.4-.4-.7-.8-1.1-1.1-.3-.3-.6-.6-.8-.9l-.8-.8c-.6-.6-1.2-1.1-1.8-1.7-.3-.2-.5-.5-.8-.7.6 1.6 1.2 3.3 1.6 5 .1.4.2.9.2 1.3.8 6-1.1 9.8-4.1 15-.2.4-.4.7-.7 1.1-.7 1.2-1.1 2.2-1.4 3.3-.1.3-.2.7-.2 1 5.9 1 14.9 1.1 24-3.4 0 0-1.8-2.6-4.5-6.3l-1.8-2.4-.2-.2" fill="#e2066f"/><path class="st60" d="M256.1 178.2s-.5-.4-1-1c-.1-.2-.3-.3-.4-.5-.1-.1-.2-.3-.3-.5-.1-.1-.1-.2-.2-.3-.2-.3-.4-.7-.6-1.2-.2-.4-.4-.9-.5-1.4-.1-.3-.2-.7-.2-1-.1-.5-.1-1.1-.1-1.7 0-.3 0-.7.1-1 0-.3.1-.7.2-1 .3-1 .7-2.1 1.4-3.3.2-.4.4-.7.7-1.1 3-5.1 4.9-9 4.1-15-.1-.4-.1-.9-.2-1.3 0 .3-.1.6-.1.8v.1c0 .1-.1.3-.1.4-1.3 3.9-3.5 6.9-6.5 10.2-.4.4-.8.9-1.3 1.3-.7.8-1.5 1.5-2.3 2.3-.3.3-.7.6-1 1l-1.2 1.2c-.3.8-.6 1.7-.9 2.6-.1 0-.2-.1-.4-.1-5.8-2.2-9.7-5.2-9.7-5.2s3 3.9 8 7.5c.5.4 1 .7 1.4.9-.2 3.3 1.2 6.4 7.8 7.4 1.1.2 2.2.2 3.3-.1 0 .1 0 0 0 0"/></svg>