<svg xmlns="http://www.w3.org/2000/svg" id="Hosting_icons" data-name="Hosting icons" viewBox="0 0 38 38"><defs><style>.cls-1{fill:#fff}.cls-2{fill:#ff775c}.cls-3{fill:none}</style></defs><path class="cls-1" d="M27.81 5.36H24A.7.7 0 1124 4h3.77a.7.7 0 110 1.4zm0 10.96H24a.7.7 0 110-1.4h3.77a.7.7 0 010 1.4z"/><path class="cls-2" d="M3.93 6.59a.7.7 0 01-.7-.7V3.52a.7.7 0 011.4 0v2.37a.71.71 0 01-.7.7zm2.97 0a.7.7 0 01-.7-.7V3.52a.7.7 0 011.4 0v2.37a.7.7 0 01-.7.7zm2.97 0a.71.71 0 01-.7-.7V3.52a.7.7 0 111.4 0v2.37a.7.7 0 01-.7.7zm2.98 0a.7.7 0 01-.7-.7V3.52a.7.7 0 111.4 0v2.37a.71.71 0 01-.7.7zM3.93 17.5a.7.7 0 01-.7-.7v-2.36a.7.7 0 011.4 0v2.36a.71.71 0 01-.7.7zm2.97 0a.7.7 0 01-.7-.7v-2.36a.7.7 0 011.4 0v2.36a.7.7 0 01-.7.7zm2.97 0a.71.71 0 01-.7-.7v-2.36a.7.7 0 111.4 0v2.36a.7.7 0 01-.7.7zm2.98 0a.7.7 0 01-.7-.7v-2.36a.7.7 0 111.4 0v2.36a.71.71 0 01-.7.7zM3.93 28.41a.7.7 0 01-.7-.7v-2.36a.7.7 0 111.4 0v2.36a.7.7 0 01-.7.7zm2.97 0a.7.7 0 01-.7-.7v-2.36a.7.7 0 111.4 0v2.36a.7.7 0 01-.7.7zm2.97 0a.7.7 0 01-.7-.7v-2.36a.7.7 0 111.4 0v2.36a.7.7 0 01-.7.7zm2.98 0a.7.7 0 01-.7-.7v-2.36a.7.7 0 111.4 0v2.36a.7.7 0 01-.7.7z"/><path class="cls-1" d="M27.81 9.32h1.4v1.63h-1.4zm-24.15 0h1.4v1.63h-1.4zm0 10.96h1.4v1.63h-1.4zM32.18 9.32H.69a.7.7 0 01-.7-.7V.7a.7.7 0 01.7-.7h31.49a.7.7 0 01.7.7v7.92a.7.7 0 01-.7.7zM1.39 7.92h30.09V1.4H1.39z"/><path class="cls-3" d="M23.32 23.31H1.39v6.53h23.66l-.38-.55a8.09 8.09 0 01-1.35-5.98zM5.06 31.23v2.57h22.73l-1.77-2.57H5.06zm22.66 0l.09.13v-.13h-.09zm3.76-14.38v-4.49H1.39v6.52h24.09a7.36 7.36 0 015.14-2.08 8.11 8.11 0 01.86.05z"/><path class="cls-2" d="M30.68 21.29a3 3 0 00-2.12.88 3.13 3.13 0 00-.78 1.33 3 3 0 002.9 3.8 2.73 2.73 0 00.76-.1 3 3 0 001.34-.75 3 3 0 00-2.1-5.16zm.76 4.49a1.74 1.74 0 01-.76.19 1.69 1.69 0 11.76-.19z"/><path class="cls-2" d="M35.86 19.12a7.31 7.31 0 00-3-1.82 8.1 8.1 0 00-1.4-.3c-.32 0-.6-.05-.86-.05A7.38 7.38 0 0025.48 19l-.07.06a7.68 7.68 0 00-1 1.31 7.9 7.9 0 00-.73 1.63 8.24 8.24 0 00-.32 1.39 8 8 0 001.35 5.95L30.62 38l5.93-8.56a8.35 8.35 0 00-.69-10.32zm-.94 9.15l-4.3 6.21-4.33-6.25a6.14 6.14 0 01-.95-4.67 5.65 5.65 0 01.35-1.27 4.87 4.87 0 01.86-1.47 3.33 3.33 0 01.25-.28 5.23 5.23 0 011.32-1 5.32 5.32 0 012.5-.62 5.63 5.63 0 01.77.06 5.55 5.55 0 011.26.34 5.25 5.25 0 011.79 1.19 6.25 6.25 0 01.48 7.76z"/><path class="cls-3" d="M24.77 31.23H5.06v2.57h21.49l-1.35-1.94-.43-.63zm-2.5-7.92H1.39v6.53H23.8a9.08 9.08 0 01-1.53-6.53zm2.45-5.15a8.35 8.35 0 015.82-2.36 7.59 7.59 0 01.92.06v-3.5H1.39v6.52h22.68c.18-.23.37-.44.56-.64z"/><path class="cls-1" d="M24.77 31.24l-.57-.83-.38-.55H1.39v-6.55h20.88a1.11 1.11 0 010-.17 8.42 8.42 0 01.27-1.23H.69a.7.7 0 00-.7.7v7.93a.7.7 0 00.7.7h24.08zm-.7-12.36H1.39v-6.52h30.09v3.48h.05a8.74 8.74 0 011.35.28v-4.46a.7.7 0 00-.7-.7H.69a.7.7 0 00-.7.7v7.92a.7.7 0 00.7.7h22.5c.09-.18.19-.37.29-.54a8.1 8.1 0 01.59-.86zm2.48 14.92H5.06v-2.56h-1.4v3.26a.7.7 0 00.7.7h23.16l-.52-.69z"/></svg>