<svg xmlns="http://www.w3.org/2000/svg" width="630" height="530"><linearGradient id="a" gradientUnits="userSpaceOnUse" x1="-12.208" y1="263.97" x2="646.566" y2="263.97" gradientTransform="rotate(171.136 294.835 288.855)"><stop offset="0" stop-color="#dde0fd"/><stop offset="1" stop-color="#dde0fd" stop-opacity=".3"/></linearGradient><path opacity=".1" fill="url(#a)" d="M497.407 448.608l70.194-115.025c69.772-114.331-20.804-259.275-154.148-246.678l-249.871 23.604c-162.173 15.32-203.65 233.049-58.467 306.917l179.676 91.424c75.728 38.53 168.354 12.286 212.616-60.242z"/><path opacity=".75" fill="#EDF0F6" d="M107.357 64.164c-19.029 0-34.454 15.425-34.454 34.454s15.425 34.454 34.454 34.454c19.028 0 34.454-15.425 34.454-34.454s-15.425-34.454-34.454-34.454m361.661-2.201c-9.697 0-17.558 7.861-17.558 17.558s7.86 17.558 17.558 17.558c9.695 0 17.556-7.861 17.556-17.558s-7.861-17.558-17.556-17.558"/><path fill="#FF775C" d="M153.224 141.661a5.41 5.41 0 100 10.821 5.41 5.41 0 100-10.821"/><path fill="#EDF0F6" d="M55.614 278.646a7.041 7.041 0 100 14.082 7.041 7.041 0 000-14.082"/><path fill="#FF775C" d="M419.026 26.361a6.215 6.215 0 01-6.208-6.208c0-3.424 2.784-6.21 6.208-6.21s6.211 2.786 6.211 6.21c0 3.422-2.787 6.208-6.211 6.208zm0-9.116a2.908 2.908 0 00-2.904 2.908 2.909 2.909 0 002.904 2.906 2.91 2.91 0 002.907-2.906 2.91 2.91 0 00-2.907-2.908z"/><path fill="#52399E" d="M99.091 194.172a4.155 4.155 0 01-4.15-4.15 4.155 4.155 0 014.15-4.151 4.156 4.156 0 014.151 4.151 4.155 4.155 0 01-4.151 4.15zm0-6.094c-1.071 0-1.943.873-1.943 1.944s.872 1.943 1.943 1.943c1.071 0 1.943-.872 1.943-1.943s-.871-1.944-1.943-1.944z"/><path fill="#004667" d="M82.834 358.536c-2.288 0-4.15-1.859-4.15-4.148s1.862-4.151 4.15-4.151c2.29 0 4.15 1.862 4.15 4.151s-1.86 4.148-4.15 4.148zm0-6.092a1.944 1.944 0 00-1.942 1.943c0 1.07.871 1.942 1.942 1.942a1.945 1.945 0 001.943-1.942c0-1.072-.87-1.943-1.943-1.943z"/><path fill="#52399E" d="M511.63 125.235c-2.976 0-5.397-2.422-5.397-5.399s2.422-5.399 5.397-5.399c2.979 0 5.399 2.422 5.399 5.399s-2.421 5.399-5.399 5.399zm0-7.926c-1.393 0-2.526 1.134-2.526 2.527s1.134 2.527 2.526 2.527c1.395 0 2.527-1.134 2.527-2.527s-1.133-2.527-2.527-2.527z"/><path fill="#FF775C" d="M569.502 171.752h-2.666v-2.667a1.507 1.507 0 00-3.013 0v2.667h-2.668c-.831 0-1.508.674-1.508 1.505 0 .832.677 1.506 1.508 1.506h2.668v2.668a1.505 1.505 0 003.013 0v-2.668h2.666c.832 0 1.508-.674 1.508-1.506 0-.831-.676-1.505-1.508-1.505zm-434.64 267.234h-3.612v-3.612a2.04 2.04 0 00-4.081 0v3.612h-3.612a2.04 2.04 0 100 4.078h3.612v3.615a2.04 2.04 0 002.04 2.038 2.04 2.04 0 002.041-2.038v-3.615h3.612c1.126 0 2.041-.913 2.041-2.039s-.915-2.039-2.041-2.039z"/><path fill="#52399E" d="M462.141 110.417h-2.042v-2.04a1.153 1.153 0 10-2.305 0v2.04h-2.041a1.154 1.154 0 000 2.306h2.041v2.041a1.153 1.153 0 102.305 0v-2.041h2.042a1.152 1.152 0 100-2.306z"/><path fill="#004667" d="M70.197 158.195h-2.042v-2.041a1.152 1.152 0 10-2.305 0v2.041h-2.042a1.154 1.154 0 000 2.306h2.042v2.041a1.153 1.153 0 002.305 0v-2.041h2.042a1.153 1.153 0 100-2.306z"/><path fill="#FF775C" d="M562.575 113.382h-1.87v-1.871a1.056 1.056 0 00-2.113 0v1.871h-1.869a1.056 1.056 0 100 2.112h1.869v1.87a1.056 1.056 0 002.113 0v-1.87h1.87a1.056 1.056 0 100-2.112z"/><path fill="#52399E" d="M34.975 213.9h-1.87v-1.869a1.056 1.056 0 00-2.112 0v1.869h-1.871a1.056 1.056 0 000 2.113h1.871v1.87a1.057 1.057 0 002.112 0v-1.87h1.87a1.057 1.057 0 000-2.113z"/><path fill="#FF775C" d="M468.954 148.287l-.946.945-.944-.945a.753.753 0 00-1.066 0 .752.752 0 000 1.067l.944.944-.944.946a.75.75 0 000 1.066.753.753 0 001.066 0l.944-.944.946.944a.753.753 0 101.066-1.066l-.945-.946.945-.944a.756.756 0 000-1.067.75.75 0 00-1.066 0z"/><path fill="#52399E" d="M154.836 1.377l-1.613 1.613-1.612-1.613a1.289 1.289 0 00-1.822 1.822l1.613 1.613-1.613 1.613a1.289 1.289 0 001.822 1.822l1.612-1.614 1.613 1.614a1.289 1.289 0 001.822-1.822l-1.613-1.613 1.613-1.613a1.289 1.289 0 00-1.822-1.822z"/><path fill="#FF775C" d="M539.003 271.396l-1.613 1.612-1.612-1.612a1.287 1.287 0 00-1.821 0 1.291 1.291 0 000 1.824l1.612 1.612-1.612 1.612a1.29 1.29 0 000 1.823c.503.5 1.318.5 1.821 0l1.612-1.614 1.613 1.614a1.288 1.288 0 101.822-1.823l-1.613-1.612 1.613-1.612a1.29 1.29 0 00-1.822-1.824z"/><path fill="#004667" d="M92.717 237.582l-.922.921-.921-.921a.736.736 0 10-1.042 1.041l.923.923-.923.921a.738.738 0 000 1.042.738.738 0 001.042 0l.921-.922.922.922a.738.738 0 001.042 0 .738.738 0 000-1.042l-.923-.921.923-.923a.737.737 0 00-1.042-1.041z"/><path fill="#FF775C" d="M539.003 354.765l-1.613 1.614-1.612-1.614a1.287 1.287 0 10-1.821 1.821l1.612 1.612-1.612 1.616a1.286 1.286 0 101.821 1.82l1.612-1.614 1.613 1.614a1.289 1.289 0 001.822-1.82l-1.613-1.616 1.613-1.612a1.286 1.286 0 000-1.821 1.287 1.287 0 00-1.822 0z"/><path fill="#52399E" d="M504.506 184.288l-1.614 1.612-1.613-1.612a1.287 1.287 0 10-1.821 1.821l1.612 1.613-1.612 1.612a1.288 1.288 0 101.821 1.823l1.613-1.614 1.614 1.614a1.288 1.288 0 101.82-1.823l-1.612-1.612 1.612-1.613a1.287 1.287 0 00-1.82-1.821z"/><circle fill="#52399E" cx="457.234" cy="172.219" r="1.712"/><circle fill="#52399E" cx="615.534" cy="143.417" r="1.305"/><circle fill="#52399E" cx="184.357" cy="63.675" r="1.305"/><circle fill="#004667" cx="445.351" cy="108.688" r="1.712"/><circle fill="#FF775C" cx="23.577" cy="176.907" r="1.712"/><circle fill="#FF775C" cx="591.755" cy="97.079" r="1.712"/><path fill="#FF775C" d="M485.678 425.712a6.217 6.217 0 01-8.049 3.509 6.216 6.216 0 01-3.512-8.046 6.22 6.22 0 018.05-3.514 6.218 6.218 0 013.511 8.051zm-8.486-3.333a2.907 2.907 0 005.411 2.126 2.911 2.911 0 00-1.643-3.769 2.91 2.91 0 00-3.768 1.643zm-47.231-320.504l-.977 2.483-2.481-.976a1.507 1.507 0 00-1.101 2.804l2.483.976-.975 2.482a1.506 1.506 0 002.805 1.1l.975-2.483 2.482.975a1.506 1.506 0 101.1-2.804l-2.483-.975.975-2.483a1.504 1.504 0 10-2.803-1.099zM290.25 75.302l-1.319 3.362-3.363-1.32a2.04 2.04 0 10-1.491 3.798l3.363 1.321-1.321 3.362a2.041 2.041 0 003.799 1.491l1.32-3.364 3.364 1.321a2.04 2.04 0 001.491-3.798l-3.364-1.321 1.32-3.362a2.04 2.04 0 10-3.799-1.49zm57.534-6.176l.914 2.091-2.092.912a1.29 1.29 0 00-.667 1.696 1.29 1.29 0 001.697.666l2.09-.913.912 2.09a1.289 1.289 0 002.363-1.029l-.913-2.09 2.091-.913a1.288 1.288 0 00-1.03-2.361l-2.091.912-.912-2.091a1.29 1.29 0 00-1.696-.666 1.29 1.29 0 00-.666 1.696z"/><circle fill="#52399E" cx="84.778" cy="306.349" r="1.305"/><circle fill="#FF775C" cx="322.46" cy="75.271" r="1.712"/><circle fill="#FF775C" cx="553.643" cy="147.071" r="2.024"/><path fill="#004667" d="M527.089 331.077a2.024 2.024 0 11-4.05-.002 2.024 2.024 0 014.05.002M233.514 83.333a2.024 2.024 0 11-4.048 0 2.024 2.024 0 014.048 0"/><path opacity=".75" fill="#DCE1F6" d="M558.379 201.217c-.008-.118-.019-.234-.028-.352a17.608 17.608 0 00-.237-1.902c-.021-.121-.041-.242-.063-.362-.058-.292-.123-.58-.193-.867-.012-.054-.021-.109-.037-.162l-.01-.042c-.044-.179-.096-.354-.147-.53-.038-.134-.072-.269-.114-.401-.056-.18-.117-.357-.179-.536-.043-.125-.083-.251-.127-.375-.069-.191-.149-.382-.225-.572-.042-.105-.08-.213-.124-.318a23.47 23.47 0 00-.302-.667c-.031-.064-.058-.132-.091-.197l-.002-.003a17.32 17.32 0 00-.552-1.055c-.053-.095-.107-.187-.162-.281a18.622 18.622 0 00-.513-.834c-.031-.046-.058-.092-.09-.138-.013-.021-.024-.042-.038-.062a22.099 22.099 0 00-.592-.839c-.013-.018-.027-.033-.041-.051a17.799 17.799 0 00-.599-.753l-.049-.057a19.6 19.6 0 00-1.268-1.371 1.059 1.059 0 00-.051-.046 19.51 19.51 0 00-1.281-1.147c-.013-.01-.025-.02-.039-.029l-.092-.073c-.381-.305-.77-.595-1.171-.871l-.053-.04a18.717 18.717 0 00-1.191-.744l-.129-.075-.113-.064a19.641 19.641 0 00-1.152-.6l-.053-.024c-.047-.022-.097-.042-.143-.063-.333-.154-.67-.297-1.014-.433l-.161-.065c-.037-.013-.07-.028-.106-.041-.38-.145-.768-.278-1.161-.398l-.052-.015c-.055-.017-.11-.031-.165-.047-.321-.094-.646-.18-.975-.257l-.18-.042-.152-.036a20.29 20.29 0 00-1.083-.207l-.083-.015-.019-.003c-.389-.06-.782-.104-1.179-.142l-.122-.009-.222-.017a18.163 18.163 0 00-.878-.045l-.219-.006c-.121-.002-.241-.009-.364-.009-.319 0-.638.008-.954.024h-.019c-.398.02-.793.054-1.185.098-.037.005-.076.011-.116.015l-.213.026a19.87 19.87 0 00-1.104.174l-.123.021c-.395.076-.786.162-1.172.262l-.025.007c-.033.008-.063.018-.097.027a18.88 18.88 0 00-1.221.372c-.05.017-.1.033-.149.051a19.518 19.518 0 00-1.169.445h-.003c-.398.169-.789.355-1.174.549-.047.023-.095.049-.142.073-.042.02-.081.041-.12.062-.394.205-.778.421-1.155.652l-.043.027c-.033.02-.065.042-.099.062-.383.24-.757.493-1.122.758-.031.024-.065.046-.099.07-.012.01-.025.017-.038.026a20 20 0 00-1.172.945c-.035.031-.072.062-.108.095-.022.019-.044.037-.063.056-.404.358-.793.734-1.164 1.125l-.092.095c-.034.037-.07.072-.103.109-.132.142-.259.286-.387.432-.087.1-.177.2-.262.302-.13.156-.256.315-.381.475a38.56 38.56 0 01-.227.288 19.36 19.36 0 00-.626.877c-.039.058-.074.119-.114.178-.159.243-.315.49-.463.741-.028.043-.05.086-.075.129l-.076.133a18.273 18.273 0 00-1.179 2.441l-.063.16c-.023.06-.048.12-.07.18-.048.129-.097.259-.142.39-.056.158-.11.318-.162.479-.043.131-.084.264-.125.396-.05.164-.095.329-.14.494a14.37 14.37 0 00-.22.908c-.031.134-.062.268-.088.403-.034.175-.065.352-.095.529-.023.132-.046.263-.065.396a21.7 21.7 0 00-.07.564c-.016.125-.033.249-.045.375-.021.21-.035.424-.048.636-.007.105-.018.209-.022.316-.016.319-.026.64-.026.964s.011.646.026.965c.005.105.016.209.022.314.013.213.026.427.048.639.012.125.029.249.043.373.023.188.046.378.072.565.02.132.042.263.065.395.029.178.061.354.095.529.026.134.057.268.087.401.037.171.074.341.117.509.032.134.068.267.104.4.045.166.091.331.14.495a30.007 30.007 0 00.287.878c.046.129.094.258.141.386.023.062.048.121.071.182.021.053.043.107.063.161a19.008 19.008 0 00.564 1.284c.189.394.398.778.614 1.157.027.043.052.088.077.133.025.043.049.087.075.13.147.25.303.496.462.739.039.06.075.121.115.179.201.299.408.59.626.876l.04.052c.062.081.127.159.188.239.125.159.25.317.38.471.085.103.175.203.263.304.127.145.254.29.386.431.032.037.068.072.103.11.03.032.062.063.092.096.371.39.76.766 1.164 1.124.02.02.042.038.063.057.035.032.072.062.107.093a19.054 19.054 0 001.211.972c.032.024.066.046.099.069.363.266.738.519 1.122.759.032.02.064.042.099.062l.043.029c.377.23.762.445 1.154.65.04.021.079.042.121.062a18.97 18.97 0 001.316.622l.003.002.016.006c.379.159.765.303 1.153.438l.149.05.158.053c.351.116.704.222 1.062.318l.098.028a19.7 19.7 0 001.32.292c.067.013.135.024.205.036.298.052.599.099.904.138l.208.026.116.014c.392.044.786.079 1.186.099h.018c.316.015.635.024.954.024.123 0 .243-.007.364-.01l.219-.005c.296-.009.588-.025.88-.046.072-.004.146-.01.22-.016l.121-.009a20.766 20.766 0 001.199-.145c.028-.004.056-.01.083-.015a18.354 18.354 0 001.235-.243c.061-.012.119-.027.179-.041.328-.079.656-.164.978-.259.054-.016.109-.03.163-.047l.052-.014a19.81 19.81 0 001.161-.398c.036-.013.069-.028.106-.042l.161-.065c.344-.135.682-.278 1.014-.432l.143-.065.053-.024a19.536 19.536 0 001.265-.665l.129-.074c.399-.23.79-.47 1.169-.728l.022-.016.053-.039c.402-.276.791-.567 1.172-.872.031-.025.062-.048.091-.073l.044-.033a19.79 19.79 0 001.052-.928c.076-.071.15-.143.224-.214l.051-.047c.42-.413.821-.844 1.201-1.293.023-.026.046-.051.067-.078l.018-.021.041-.048c.219-.261.431-.526.634-.798l.005-.006c.199-.27.394-.545.582-.827.015-.02.026-.041.039-.062.032-.046.06-.093.09-.139a19.175 19.175 0 00.675-1.115c.193-.345.38-.695.552-1.053l.002-.003c.035-.072.066-.146.1-.218.1-.214.199-.429.292-.646.045-.11.086-.221.13-.331.074-.186.152-.371.22-.56.045-.126.086-.255.13-.384.06-.175.122-.349.176-.526.042-.133.076-.27.116-.404.05-.175.102-.35.146-.526l.01-.043c.016-.054.025-.109.037-.163.07-.287.136-.575.193-.866l.063-.363a16.418 16.418 0 00.166-1.131c.03-.255.053-.512.071-.769.01-.118.021-.235.028-.353.021-.374.035-.75.035-1.129a21.003 21.003 0 00-.036-1.118z"/><path fill="#52399E" d="M184.531 445.93c34.7 27.39 76.459 41.866 120.764 41.866 107.562 0 195.068-87.507 195.068-195.068S412.856 97.659 305.295 97.659c-107.562 0-195.07 87.508-195.07 195.069 0 46.282 16.496 91.158 46.451 126.36 2.986 3.503 8.247 3.928 11.751.943 3.506-2.982 3.93-8.244.946-11.752-27.391-32.187-42.476-73.222-42.476-115.552 0-98.367 80.028-178.395 178.397-178.395 98.367 0 178.395 80.028 178.395 178.395 0 98.368-80.027 178.396-178.395 178.396-40.518 0-78.707-13.238-110.436-38.28a8.336 8.336 0 00-10.327 13.087z"/><path fill="#FFF" d="M306.946 121.03c-93.762 0-170.043 76.28-170.043 170.039 0 93.764 76.281 170.052 170.043 170.052 93.758 0 170.043-76.288 170.043-170.052 0-93.758-76.285-170.039-170.043-170.039zM154.063 291.069c0-22.165 4.755-43.206 13.239-62.218l72.928 199.81c-51.002-24.776-86.167-77.079-86.167-137.592zm152.883 152.895c-15.008 0-29.492-2.2-43.192-6.23l45.875-133.289 46.99 128.746c.308.756.688 1.451 1.095 2.106a152.624 152.624 0 01-50.768 8.667zm21.07-224.573a311.215 311.215 0 0017.498-1.453c8.235-.974 7.264-13.082-.978-12.6 0 0-24.762 1.944-40.749 1.944-15.021 0-40.264-1.944-40.264-1.944-8.243-.482-9.21 12.114-.969 12.6 0 0 7.798.969 16.036 1.453l23.816 65.262-33.46 100.342-55.67-165.604c9.21-.484 17.496-1.453 17.496-1.453 8.233-.974 7.259-13.082-.978-12.6 0 0-24.759 1.944-40.746 1.944-2.869 0-6.25-.07-9.84-.186 27.337-41.5 74.325-68.907 127.738-68.907 39.798 0 76.039 15.218 103.237 40.14-.658-.042-1.303-.124-1.979-.124-15.018 0-25.674 13.083-25.674 27.132 0 12.6 7.27 23.26 15.019 35.859 5.812 10.181 12.603 23.262 12.603 42.163 0 13.083-5.032 28.269-11.633 49.423l-15.253 50.951-55.25-164.342zm113.084-1.665c11.934 21.775 18.727 46.762 18.727 73.343 0 56.404-30.567 105.646-76.017 132.146l46.693-135.009c8.721-21.812 11.625-39.251 11.625-54.759 0-5.628-.37-10.852-1.028-15.721z"/></svg>