<svg version="1.1" id="Layer_1" xmlns="http://www.w3.org/2000/svg" x="0" y="0" viewBox="0 0 630 530" xml:space="preserve"><style>.st4{fill:#ff775c}.st4,.st6,.st7{display:none}.st6{fill:#52399e}.st7{fill:#004667}</style><path d="M497.4 448.6l70.2-115c69.8-114.3-20.8-259.3-154.1-246.7l-249.9 23.6C1.4 125.8-40 343.5 105.1 417.4l179.7 91.4c75.7 38.6 168.3 12.3 212.6-60.2z" opacity=".1" fill="#919ac6"/><path d="M107.4 64.2c-19 0-34.5 15.4-34.5 34.5s15.4 34.5 34.5 34.5c19 0 34.5-15.4 34.5-34.5-.1-19.1-15.5-34.5-34.5-34.5" opacity=".35" fill="#c5dbff"/><path d="M521 444c-19 0-34.5 15.4-34.5 34.5 0 19 15.4 34.5 34.5 34.5 19 0 34.5-15.4 34.5-34.5S540.1 444 521 444" opacity=".34" fill="#c5dbff"/><path d="M503.5 85.9c-9.7 0-17.6 7.9-17.6 17.6s7.9 17.6 17.6 17.6c9.7 0 17.6-7.9 17.6-17.6s-7.9-17.6-17.6-17.6" opacity=".36" fill="#acc9f9"/><path class="st4" d="M153.2 141.7c-3 0-5.4 2.4-5.4 5.4 0 3 2.4 5.4 5.4 5.4 3 0 5.4-2.4 5.4-5.4s-2.4-5.4-5.4-5.4"/><path d="M55.6 278.6c-3.9 0-7 3.2-7 7 0 3.9 3.2 7 7 7s7-3.2 7-7c.1-3.8-3.1-7-7-7" fill="#edf0f6"/><path class="st4" d="M419 26.4c-3.4 0-6.2-2.8-6.2-6.2 0-3.4 2.8-6.2 6.2-6.2s6.2 2.8 6.2 6.2c0 3.4-2.7 6.2-6.2 6.2zm0-9.2c-1.6 0-2.9 1.3-2.9 2.9 0 1.6 1.3 2.9 2.9 2.9 1.6 0 2.9-1.3 2.9-2.9 0-1.6-1.3-2.9-2.9-2.9z"/><path class="st6" d="M99.1 194.2c-2.3 0-4.2-1.9-4.2-4.1 0-2.3 1.9-4.2 4.2-4.2 2.3 0 4.2 1.9 4.2 4.2-.1 2.2-1.9 4.1-4.2 4.1zm0-6.1c-1.1 0-1.9.9-1.9 1.9s.9 1.9 1.9 1.9 1.9-.9 1.9-1.9-.8-1.9-1.9-1.9z"/><path class="st7" d="M82.8 358.5c-2.3 0-4.2-1.9-4.2-4.1s1.9-4.2 4.2-4.2c2.3 0 4.2 1.9 4.2 4.2s-1.9 4.1-4.2 4.1zm0-6.1c-1.1 0-1.9.9-1.9 1.9 0 1.1.9 1.9 1.9 1.9 1.1 0 1.9-.9 1.9-1.9.1-1-.8-1.9-1.9-1.9z"/><path class="st6" d="M511.6 125.2c-3 0-5.4-2.4-5.4-5.4s2.4-5.4 5.4-5.4c3 0 5.4 2.4 5.4 5.4s-2.4 5.4-5.4 5.4zm0-7.9c-1.4 0-2.5 1.1-2.5 2.5s1.1 2.5 2.5 2.5 2.5-1.1 2.5-2.5-1.1-2.5-2.5-2.5z"/><path class="st4" d="M569.5 171.8h-2.7v-2.7c0-.8-.7-1.5-1.5-1.5s-1.5.7-1.5 1.5v2.7h-2.7c-.8 0-1.5.7-1.5 1.5s.7 1.5 1.5 1.5h2.7v2.7c0 .8.7 1.5 1.5 1.5s1.5-.7 1.5-1.5v-2.7h2.7c.8 0 1.5-.7 1.5-1.5 0-.9-.7-1.5-1.5-1.5zM134.9 439h-3.6v-3.6c0-1.1-.9-2-2-2s-2 .9-2 2v3.6h-3.6c-1.1 0-2 .9-2 2s.9 2 2 2h3.6v3.6c0 1.1.9 2 2 2s2-.9 2-2V443h3.6c1.1 0 2-.9 2-2s-.9-2-2-2z"/><path class="st6" d="M462.1 110.4h-2v-2c0-.6-.5-1.2-1.2-1.2-.6 0-1.2.5-1.2 1.2v2h-2c-.6 0-1.2.5-1.2 1.2 0 .6.5 1.2 1.2 1.2h2v2c0 .6.5 1.2 1.2 1.2.6 0 1.2-.5 1.2-1.2v-2h2c.6 0 1.2-.5 1.2-1.2s-.5-1.2-1.2-1.2z"/><path class="st7" d="M70.2 158.2h-2v-2c0-.6-.5-1.2-1.2-1.2s-1.2.5-1.2 1.2v2h-2c-.6 0-1.2.5-1.2 1.2 0 .6.5 1.2 1.2 1.2h2v2c0 .6.5 1.2 1.2 1.2s1.2-.5 1.2-1.2v-2h2c.6 0 1.2-.5 1.2-1.2s-.6-1.2-1.2-1.2z"/><path class="st4" d="M562.6 113.4h-1.9v-1.9c0-.6-.5-1.1-1.1-1.1-.6 0-1.1.5-1.1 1.1v1.9h-1.9c-.6 0-1.1.5-1.1 1.1s.5 1.1 1.1 1.1h1.9v1.9c0 .6.5 1.1 1.1 1.1.6 0 1.1-.5 1.1-1.1v-1.9h1.9c.6 0 1.1-.5 1.1-1.1s-.5-1.1-1.1-1.1z"/><path class="st6" d="M35 213.9h-1.9V212c0-.6-.5-1.1-1.1-1.1s-1 .5-1 1.1v1.9h-1.9c-.6 0-1.1.5-1.1 1.1s.5 1.1 1.1 1.1H31v1.9c0 .6.5 1.1 1.1 1.1s1.1-.5 1.1-1.1v-2H35c.6 0 1.1-.5 1.1-1.1-.1-.5-.5-1-1.1-1z"/><path class="st4" d="M469 148.3l-.9.9-.9-.9c-.3-.3-.8-.3-1.1 0-.3.3-.3.8 0 1.1l.9.9-.9.9c-.3.3-.3.8 0 1.1.3.3.8.3 1.1 0l.9-.9.9.9c.3.3.8.3 1.1 0 .3-.3.3-.8 0-1.1l-.9-.9.9-.9c.3-.3.3-.8 0-1.1-.4-.3-.9-.3-1.1 0z"/><path class="st6" d="M154.8 1.4L153.2 3l-1.6-1.6c-.5-.5-1.3-.5-1.8 0s-.5 1.3 0 1.8l1.6 1.6-1.6 1.6c-.5.5-.5 1.3 0 1.8s1.3.5 1.8 0l1.6-1.6 1.6 1.6c.5.5 1.3.5 1.8 0s.5-1.3 0-1.8L155 4.8l1.6-1.6c.5-.5.5-1.3 0-1.8s-1.3-.5-1.8 0z"/><path class="st4" d="M539 271.4l-1.6 1.6-1.6-1.6c-.5-.5-1.3-.5-1.8 0s-.5 1.3 0 1.8l1.6 1.6-1.6 1.6c-.5.5-.5 1.3 0 1.8s1.3.5 1.8 0l1.6-1.6 1.6 1.6c.5.5 1.3.5 1.8 0s.5-1.3 0-1.8l-1.6-1.6 1.6-1.6c.5-.5.5-1.3 0-1.8s-1.3-.5-1.8 0z"/><path class="st7" d="M92.7 237.6l-.9.9-.9-.9c-.3-.3-.8-.3-1 0-.3.3-.3.8 0 1l.9.9-.9.9c-.3.3-.3.8 0 1 .3.3.8.3 1 0l.9-.9.9.9c.3.3.8.3 1 0 .3-.3.3-.8 0-1l-.9-.9.9-.9c.3-.3.3-.8 0-1-.2-.3-.7-.3-1 0z"/><path class="st4" d="M539 354.8l-1.6 1.6-1.6-1.6c-.5-.5-1.3-.5-1.8 0s-.5 1.3 0 1.8l1.6 1.6-1.6 1.6c-.5.5-.5 1.3 0 1.8s1.3.5 1.8 0l1.6-1.6 1.6 1.6c.5.5 1.3.5 1.8 0s.5-1.3 0-1.8l-1.6-1.6 1.6-1.6c.5-.5.5-1.3 0-1.8s-1.3-.5-1.8 0z"/><path class="st6" d="M504.5 184.3l-1.6 1.6-1.6-1.6c-.5-.5-1.3-.5-1.8 0s-.5 1.3 0 1.8l1.6 1.6-1.6 1.6c-.5.5-.5 1.3 0 1.8s1.3.5 1.8 0l1.6-1.6 1.6 1.6c.5.5 1.3.5 1.8 0s.5-1.3 0-1.8l-1.6-1.6 1.6-1.6c.5-.5.5-1.3 0-1.8s-1.3-.5-1.8 0z"/><circle class="st6" cx="457.2" cy="172.2" r="1.7"/><circle class="st6" cx="615.5" cy="143.4" r="1.3"/><circle class="st6" cx="184.4" cy="63.7" r="1.3"/><circle class="st7" cx="445.4" cy="108.7" r="1.7"/><circle class="st4" cx="23.6" cy="176.9" r="1.7"/><circle class="st4" cx="591.8" cy="97.1" r="1.7"/><path class="st4" d="M485.7 425.7c-1.3 3.2-4.9 4.8-8 3.5-3.2-1.3-4.8-4.9-3.5-8 1.3-3.2 4.9-4.8 8-3.5 3.2 1.2 4.7 4.8 3.5 8zm-8.5-3.3c-.6 1.5.2 3.2 1.6 3.8 1.5.6 3.2-.2 3.8-1.6.6-1.5-.2-3.2-1.6-3.8-1.5-.7-3.2.1-3.8 1.6zM430 101.9l-1 2.5-2.5-1c-.8-.3-1.6.1-2 .9-.3.8.1 1.6.9 2l2.5 1-1 2.5c-.3.8.1 1.6.9 2 .8.3 1.6-.1 2-.9l1-2.5 2.5 1c.8.3 1.6-.1 2-.9.3-.8-.1-1.6-.9-2l-2.5-1 1-2.5c.3-.8-.1-1.6-.9-2-.9-.3-1.7.1-2 .9zM290.3 75.3l-1.3 3.4-3.4-1.3c-1-.4-2.2.1-2.6 1.2-.4 1 .1 2.2 1.2 2.6l3.4 1.3-1.3 3.4c-.4 1 .1 2.2 1.2 2.6 1 .4 2.2-.1 2.6-1.2l1.3-3.4 3.4 1.3c1 .4 2.2-.1 2.6-1.2.4-1-.1-2.2-1.2-2.6l-3.4-1.3 1.3-3.4c.4-1-.1-2.2-1.2-2.6-1.1-.4-2.2.2-2.6 1.2zm57.5-6.2l.9 2.1-2.1.9c-.7.3-1 1-.7 1.7.3.7 1 .9 1.7.7l2.1-.9.9 2.1c.3.7 1 1 1.7.7.7-.3 1-1 .7-1.7l-.9-2.1 2.1-.9c.7-.3 1-1 .7-1.7-.3-.7-1-.9-1.7-.7l-2.1.9-.9-2.1c-.3-.7-1-.9-1.7-.7-.7.3-1 1.1-.7 1.7z"/><circle class="st6" cx="84.8" cy="306.3" r="1.3"/><circle class="st4" cx="322.5" cy="75.3" r="1.7"/><circle class="st4" cx="553.6" cy="147.1" r="2"/><path class="st7" d="M527.1 331.1c0 1.1-.9 2-2 2s-2-.9-2-2 .9-2 2-2 2 .9 2 2M233.5 83.3c0 1.1-.9 2-2 2s-2-.9-2-2 .9-2 2-2 2 .9 2 2"/><g opacity=".3"><path d="M306.9 121c-93.8 0-170 76.3-170 170 0 93.8 76.3 170.1 170 170.1 93.8 0 170-76.3 170-170.1.1-93.7-76.2-170-170-170zM154.1 291.1c0-22.2 4.8-43.2 13.2-62.2l72.9 199.8c-51-24.8-86.1-77.1-86.1-137.6zM306.9 444c-15 0-29.5-2.2-43.2-6.2l45.9-133.3 47 128.7c.3.8.7 1.5 1.1 2.1-15.9 5.6-33 8.7-50.8 8.7zM328 219.4c9.2-.5 17.5-1.5 17.5-1.5 8.2-1 7.3-13.1-1-12.6 0 0-24.8 1.9-40.7 1.9-15 0-40.3-1.9-40.3-1.9-8.2-.5-9.2 12.1-1 12.6 0 0 7.8 1 16 1.5l23.8 65.3L268.9 385l-55.7-165.6c9.2-.5 17.5-1.5 17.5-1.5 8.2-1 7.3-13.1-1-12.6 0 0-24.8 1.9-40.7 1.9-2.9 0-6.3-.1-9.8-.2 27.3-41.5 74.3-68.9 127.7-68.9 39.8 0 76 15.2 103.2 40.1-.7 0-1.3-.1-2-.1-15 0-25.7 13.1-25.7 27.1 0 12.6 7.3 23.3 15 35.9 5.8 10.2 12.6 23.3 12.6 42.2 0 13.1-5 28.3-11.6 49.4l-15.3 51L328 219.4zm113.1-1.7c11.9 21.8 18.7 46.8 18.7 73.3 0 56.4-30.6 105.6-76 132.1l46.7-135c8.7-21.8 11.6-39.3 11.6-54.8 0-5.5-.3-10.7-1-15.6z" opacity=".6" fill="#acbbef"/></g></svg>